<?xml version="1.0" standalone="no"?>
<!DOCTYPE svg PUBLIC "-//W3C//DTD SVG 1.1//EN" "http://www.w3.org/Graphics/SVG/1.1/DTD/svg11.dtd" >
<svg>
<metadata>
Created by FontForge 20090622 at Fri Sep 29 00:37:57 2017
 By deploy user
Copyright (c) 2003-2006 Peter Bilak, Typotheque V.O.F. All rights reserved.
</metadata>
<defs>
<font id="FedraSerifAPro-BookItalic" horiz-adv-x="600" >
  <font-face 
    font-family="Fedra Serif A Pro Book"
    font-weight="350"
    font-style="italic"
    font-stretch="normal"
    units-per-em="1000"
    panose-1="2 0 5 3 4 0 0 9 0 4"
    ascent="780"
    descent="-220"
    x-height="552"
    cap-height="707"
    bbox="-509 -1247 2301 984"
    underline-thickness="50"
    underline-position="-50"
    unicode-range="U+0020-U+FE69"
  />
<missing-glyph horiz-adv-x="712" 
d="M305 375v27h27v-27h-27zM380 525v27h27v-27h-27zM305 525v27h27v-27h-27zM230 525v27h27v-27h-27zM80 0v27h27v-27h-27zM155 0v27h27v-27h-27zM230 0v27h27v-27h-27zM305 0v27h27v-27h-27zM380 0v27h27v-27h-27zM80 75v27h27v-27h-27zM80 150v27h27v-27h-27zM80 225v27
h27v-27h-27zM80 300v27h27v-27h-27zM80 375v27h27v-27h-27zM80 450v27h27v-27h-27zM80 525v27h27v-27h-27zM80 600v27h27v-27h-27zM80 675v27h27v-27h-27zM155 675v27h27v-27h-27zM230 675v27h27v-27h-27zM305 675v27h27v-27h-27zM380 675v27h27v-27h-27zM455 675v27h27v-27
h-27zM530 675v27h27v-27h-27zM530 0v27h27v-27h-27zM455 0v27h27v-27h-27zM605 0v27h27v-27h-27zM605 675v27h27v-27h-27zM305 300v27h27v-27h-27zM305 150v27h27v-27h-27zM380 375v27h27v-27h-27zM455 375v27h27v-27h-27zM455 450v27h27v-27h-27zM455 525v27h27v-27h-27z
M605 600v27h27v-27h-27zM605 525v27h27v-27h-27zM605 375v27h27v-27h-27zM605 300v27h27v-27h-27zM605 150v27h27v-27h-27zM605 75v27h27v-27h-27zM605 225v27h27v-27h-27zM605 450v27h27v-27h-27z" />
    <glyph glyph-name="f_f" unicode="ff" horiz-adv-x="628" 
d="M44 -220l75 707h-84l7 59h83l3 30q8 88 65 139t153 51q94 0 168 -36q55 36 132 36q31 0 68.5 -7t53.5 -20q0 -20 -9.5 -49.5t-21.5 -42.5q-25 20 -66.5 39.5t-65.5 19.5q-47 0 -67.5 -30.5t-26.5 -95.5l-4 -34h119l-7 -59h-119l-61 -582v-125h-95l75 707h-219l-60 -579
v-128h-96zM206 546h219l3 30q5 46 22 79q-32 19 -75.5 35t-69.5 16q-45 0 -67 -31.5t-28 -94.5z" />
    <glyph glyph-name="fi" unicode="fi" horiz-adv-x="587" 
d="M44 -220l75 707h-84l7 59h83l3 30q8 88 65 139t153 51q42 0 89 -9t67 -21q0 -20 -11 -50.5t-23 -42.5q-22 17 -80 40t-83 23q-45 0 -67 -31.5t-28 -94.5l-4 -34h120l-7 -59h-119l-60 -579v-128h-96zM420 -12q-43 0 -43 40q0 6 7 69l35 432l83 34l-40 -483h86v-21
q-71 -71 -128 -71z" />
    <glyph glyph-name="fl" unicode="fl" horiz-adv-x="569" 
d="M44 -220l75 707h-84l7 59h83l3 30q8 88 65 139t153 51q49 0 100 -12.5t77 -24.5l-64 -649h83v-21q-70 -70 -128 -70q-43 0 -43 40q0 2 7 69l58 564q-88 44 -131 44q-46 0 -67.5 -31t-27.5 -95l-4 -34h120l-7 -59h-119l-60 -579v-128h-96z" />
    <glyph glyph-name="f_f_i" unicode="ffi" horiz-adv-x="880" 
d="M44 -220l75 707h-84l7 59h83l3 30q8 88 65 139t153 51q100 0 168 -36q55 36 132 36q31 0 68.5 -7t53.5 -20q0 -20 -9.5 -49.5t-21.5 -42.5q-25 20 -66.5 39.5t-65.5 19.5q-47 0 -67.5 -30.5t-26.5 -95.5l-4 -34h119l-7 -59h-119l-61 -582v-125h-95l75 707h-219l-60 -579
v-128h-96zM710 -12q-43 0 -43 40q0 6 7 69l35 432l83 34l-40 -483h86v-21q-71 -71 -128 -71zM206 546h219l3 30q5 44 22 79q-90 51 -145 51q-45 0 -67 -31.5t-28 -94.5z" />
    <glyph glyph-name="f_f_l" unicode="ffl" horiz-adv-x="880" 
d="M44 -220l75 707h-84l7 59h83l3 30q8 88 65 139t153 51q99 0 167 -36q55 36 133 36q49 0 100 -12.5t77 -24.5l-64 -649h83v-21q-70 -70 -128 -70q-43 0 -43 40q0 2 7 69l58 564q-88 44 -131 44q-46 0 -67.5 -31t-27.5 -95l-4 -34h120l-7 -59h-119l-60 -579v-128h-96
l75 707h-219l-60 -579v-128h-96zM206 546h219l3 30q5 45 21 79q-31 18 -76 34.5t-68 16.5q-46 0 -67.5 -31t-27.5 -95z" />
    <glyph glyph-name="f_h" unicode="fh" horiz-adv-x="859" 
d="M44 -220l75 707h-84l7 59h83l3 30q8 88 65 139t153 51q76 0 178 -41l-32 -299q48 51 112.5 89t111.5 38q36 0 51 -14t15 -47q0 -17 -3 -41l-49 -369h86v-21q-73 -73 -128 -73q-43 0 -43 40q0 19 6 61l49 364q-12 4 -22 4q-42 0 -102.5 -32t-87.5 -57l-23 -207v-161h-97
l69 662q-86 44 -132 44q-45 0 -67 -31.5t-28 -94.5l-4 -34h125l-7 -59h-124l-60 -579v-128h-96z" />
    <glyph glyph-name="f_b" unicode="fb" horiz-adv-x="818" 
d="M44 -220l75 707h-84l7 59h83l3 30q8 88 65 139t153 51q98 0 178 -40l-33 -294q111 121 187 121q38 0 61 -9.5t34 -31.5t14 -45.5t3 -63.5q0 -68 -15.5 -137t-46.5 -133.5t-88 -105t-131 -40.5q-72 0 -140 44l69 630q-86 45 -133 45q-45 0 -67 -31.5t-28 -94.5l-4 -34h125
l-7 -59h-124l-60 -579v-128h-96zM536 54q45 0 77.5 34t49 80t26 110.5t11.5 105.5t2 86q-18 5 -34 5q-31 0 -68.5 -19.5t-56.5 -35l-56 -47.5l-30 -295q46 -24 79 -24z" />
    <glyph glyph-name="f_j" unicode="fj" horiz-adv-x="587" 
d="M67 0l52 487h-84l7 59h83l3 30q8 88 65 139t153 51q42 0 88.5 -8.5t67.5 -20.5q0 -20 -11 -51t-23 -43q-22 17 -80 40t-83 23q-45 0 -67 -31.5t-28 -94.5l-4 -34h120l-7 -59h-119l-36 -360v-127h-97zM239 -224q-45 0 -84 15q5 50 22 79q45 -15 74 -15q63 0 88 27t31 102
l42 542l85 35l-46 -578q-7 -77 -75.5 -142t-136.5 -65z" />
    <glyph glyph-name="f_k" unicode="fk" horiz-adv-x="795" 
d="M44 -220l75 707h-84l7 59h83l3 30q8 88 65 139t153 51q92 0 177 -39l-56 -575v-152h-100l69 662q-88 44 -131 44q-45 0 -67 -31.5t-28 -94.5l-4 -34h124l-7 -59h-123l-60 -579v-128h-96zM712 -27q-27 23 -49.5 48t-37 42.5t-33.5 49l-27 45.5t-29.5 56l-29.5 58l137 180
q28 36 -34 66l4 28h160l11 -25l-202 -235q76 -130 188 -244q-18 -40 -58 -69z" />
    <glyph glyph-name="f_t" unicode="ft" horiz-adv-x="702" 
d="M44 -220l74 707h-83l7 59h83l3 30q9 87 66 138.5t152 51.5q49 0 108.5 -16t98.5 -37l-17 -167h151l-7 -59h-152l-41 -405q24 -9 42 -9q30 0 121 34l20 -41q-54 -40 -92 -58t-82 -18q-48 0 -71.5 14.5t-23.5 63.5q0 8 2 32l46 387h-249l-61 -582v-125h-95zM207 546h249
l11 98q-32 23 -79 42.5t-84 19.5q-46 0 -66.5 -30.5t-26.5 -95.5z" />
    <glyph glyph-name="f_idieresis" unicode="f&#xef;" horiz-adv-x="584" 
d="M44 -220l74 707h-83l7 59h83l3 30q9 87 66 139t152 51h6q16 13 23 13q9 0 33 -26t23 -36q-1 -8 -30 -35t-39 -27q-8 0 -25 18t-26 33h-7q-46 1 -66.5 -30t-26.5 -96l-4 -34h119l-7 -59h-119l-61 -582v-125h-95zM420 -12q-43 0 -43 40q0 6 7 69l35 432l83 34l-40 -483h86
v-21q-71 -71 -128 -71zM600 655q-10 0 -33.5 26.5t-21.5 35.5q1 10 30 36t38 26t33 -26t23 -36q-1 -8 -30 -35t-39 -27z" />
    <glyph glyph-name="f_f_j" unicode="ffj" horiz-adv-x="880" 
d="M67 0l52 487h-84l7 59h83l3 30q8 88 65 139t153 51q100 0 168 -36q55 36 132 36q31 0 68.5 -7t53.5 -20q0 -20 -9.5 -49.5t-21.5 -42.5q-25 20 -66.5 39.5t-65.5 19.5q-47 0 -67.5 -30.5t-26.5 -95.5l-4 -34h119l-7 -59h-119l-38 -362v-125h-95l52 487h-219l-37 -359
v-128h-96zM533 -224q-45 0 -84 15q5 50 22 79q45 -15 74 -15q63 0 88 27t31 102l42 542l85 35l-46 -578q-7 -77 -75.5 -142t-136.5 -65zM206 546h219l3 30q5 44 22 79q-90 51 -145 51q-45 0 -67 -31.5t-28 -94.5z" />
    <glyph glyph-name="f_f_b" unicode="ffb" horiz-adv-x="1118" 
d="M44 -220l75 707h-84l7 59h83l3 30q8 88 65 139t153 51q93 0 167 -36q55 36 133 36q98 0 178 -40l-33 -294q111 121 187 121q38 0 61 -9.5t34 -31.5t14 -45.5t3 -63.5q0 -68 -15.5 -137t-46.5 -133.5t-88 -105t-131 -40.5q-72 0 -140 44l69 630q-86 45 -133 45
q-45 0 -67 -31.5t-28 -94.5l-4 -34h125l-7 -59h-124l-60 -579v-128h-96l75 707h-219l-60 -579v-128h-96zM836 54q45 0 77.5 34t49 80t26 110.5t11.5 105.5t2 86q-18 5 -34 5q-31 0 -68.5 -19.5t-56.5 -35l-56 -47.5l-30 -295q46 -24 79 -24zM206 546h219l3 30q7 59 21 79
q-32 19 -75 35t-69 16q-45 0 -67 -31.5t-28 -94.5z" />
    <glyph glyph-name="f_f_h" unicode="ffh" horiz-adv-x="1159" 
d="M44 -220l75 707h-84l7 59h83l3 30q8 88 65 139t153 51q93 0 167 -36q55 36 133 36q76 0 178 -41l-32 -299q48 51 112.5 89t111.5 38q36 0 51 -14t15 -47q0 -17 -3 -41l-49 -369h86v-21q-73 -73 -128 -73q-43 0 -43 40q0 19 6 61l49 364q-12 4 -22 4q-42 0 -102.5 -32
t-87.5 -57l-23 -207v-161h-97l69 662q-86 44 -132 44q-45 0 -67 -31.5t-28 -94.5l-4 -34h125l-7 -59h-124l-60 -579v-128h-96l75 707h-219l-60 -579v-128h-96zM206 546h219l3 30q7 59 21 79q-32 19 -75 35t-69 16q-45 0 -67 -31.5t-28 -94.5z" />
    <glyph glyph-name="f_f_k" unicode="ffk" horiz-adv-x="1096" 
d="M44 -220l75 707h-84l7 59h83l3 30q8 88 65 139t153 51q93 0 167 -36q55 36 133 36q76 0 178 -41l-56 -573v-152h-100l69 662q-86 44 -132 44q-45 0 -67 -31.5t-28 -94.5l-4 -34h125l-7 -59h-124l-60 -579v-128h-96l75 707h-219l-60 -579v-128h-96zM1013 -27
q-27 23 -49.5 48t-37 42.5t-33.5 49l-27 45.5t-29.5 56l-29.5 58l137 180q28 36 -34 66l4 28h160l11 -25l-202 -235q76 -130 188 -244q-18 -40 -58 -69zM206 546h219l3 30q7 59 21 79q-32 19 -75 35t-69 16q-45 0 -67 -31.5t-28 -94.5z" />
    <glyph glyph-name="aogonek_j" unicode="&#x105;j" horiz-adv-x="779" 
d="M400 -223q-139 0 -139 77q0 29 20 67t55 70q-23 9 -23 36q0 10 8 82q-54 -57 -102 -89.5t-103 -32.5q-45 0 -61.5 22t-16.5 70q0 75 14 150.5t45 151.5t91.5 123.5t141.5 47.5q60 0 118 -27l-48 -444l84 1v-24l-60 -50q-42 -37 -60 -68.5t-23 -76.5q15 -18 79 -22
q71 0 116 38.5t50 104.5l42 542l85 35l-46 -578q-6 -70 -84 -138t-183 -68zM147 68q17 0 37 7.5t42 21.5l37.5 24.5t37.5 28l27 21.5l34 292q-29 18 -79 18q-44 0 -77.5 -49t-50 -120t-24.5 -133.5t-8 -106.5q11 -4 24 -4zM674 649q-10 0 -35.5 29t-25.5 40q0 10 33 39.5
t43 29.5t36 -28.5t26 -39.5q0 -9 -33.5 -39.5t-43.5 -30.5z" />
    <glyph glyph-name=".notdef" horiz-adv-x="712" 
d="M305 375v27h27v-27h-27zM380 525v27h27v-27h-27zM305 525v27h27v-27h-27zM230 525v27h27v-27h-27zM80 0v27h27v-27h-27zM155 0v27h27v-27h-27zM230 0v27h27v-27h-27zM305 0v27h27v-27h-27zM380 0v27h27v-27h-27zM80 75v27h27v-27h-27zM80 150v27h27v-27h-27zM80 225v27
h27v-27h-27zM80 300v27h27v-27h-27zM80 375v27h27v-27h-27zM80 450v27h27v-27h-27zM80 525v27h27v-27h-27zM80 600v27h27v-27h-27zM80 675v27h27v-27h-27zM155 675v27h27v-27h-27zM230 675v27h27v-27h-27zM305 675v27h27v-27h-27zM380 675v27h27v-27h-27zM455 675v27h27v-27
h-27zM530 675v27h27v-27h-27zM530 0v27h27v-27h-27zM455 0v27h27v-27h-27zM605 0v27h27v-27h-27zM605 675v27h27v-27h-27zM305 300v27h27v-27h-27zM305 150v27h27v-27h-27zM380 375v27h27v-27h-27zM455 375v27h27v-27h-27zM455 450v27h27v-27h-27zM455 525v27h27v-27h-27z
M605 600v27h27v-27h-27zM605 525v27h27v-27h-27zM605 375v27h27v-27h-27zM605 300v27h27v-27h-27zM605 150v27h27v-27h-27zM605 75v27h27v-27h-27zM605 225v27h27v-27h-27zM605 450v27h27v-27h-27z" />
    <glyph glyph-name=".null" horiz-adv-x="0" 
 />
    <glyph glyph-name="nonmarkingreturn" horiz-adv-x="333" 
 />
    <glyph glyph-name="space" unicode=" " horiz-adv-x="180" 
 />
    <glyph glyph-name="exclam" unicode="!" horiz-adv-x="328" 
d="M124 -43q-11 0 -39.5 33t-28.5 45q0 10 37 43t48 33t40 -32t29 -44q0 -9 -37.5 -43.5t-48.5 -34.5zM108 180l36 527l61 30l56 -30l-76 -527h-77z" />
    <glyph glyph-name="quotedbl" unicode="&#x22;" horiz-adv-x="437" 
d="M68 515l25 240h97l-51 -240h-71zM258 515l25 240h97l-51 -240h-71z" />
    <glyph glyph-name="numbersign" unicode="#" horiz-adv-x="614" 
d="M111 -23l26 166h-91l7 65h94l24 148h-102l6 64h105l25 154h65l-23 -154h163l25 154h65l-25 -154h93l-7 -64h-96l-23 -148h104l-7 -65h-108l-25 -166h-65l25 166h-164l-26 -166h-65zM214 208h162l23 148h-163z" />
    <glyph glyph-name="dollar" unicode="$" horiz-adv-x="485" 
d="M165 -168l15 153q-42 2 -79.5 19.5t-37.5 47.5q0 7 0.5 12.5t2.5 12t3 9.5t5 10t5 8.5l6 9t6 8.5q69 -43 94 -51q32 -11 83 -11q16 0 30.5 9t14.5 24q0 28 -30 68t-66 76t-66 85.5t-30 93.5q0 113 118 137l17 149h59l-16 -144q124 -2 124 -57q0 -10 -1.5 -18t-3.5 -13
t-6.5 -11t-7 -8l-9 -7.5t-8.5 -7.5q-41 34 -73 49t-76 15q-17 0 -31 -12t-14 -26q0 -31 20 -65t48.5 -64.5l57.5 -61.5t49 -65.5t20 -65.5q0 -63 -42 -101.5t-106 -49.5l-16 -157h-59z" />
    <glyph glyph-name="percent" unicode="%" horiz-adv-x="700" 
d="M214 368q-102 0 -102 105q0 56 45.5 97t92.5 41q111 0 111 -106q0 -53 -45.5 -95t-101.5 -42zM227 420q29 0 48 19t19 57q0 33 -11.5 48t-40.5 15q-30 0 -47 -21t-17 -59q0 -33 11 -46t38 -13zM455 -19q-102 0 -102 105q0 56 45.5 97t92.5 41q111 0 111 -106
q0 -53 -45.5 -95t-101.5 -42zM468 33q28 0 47.5 19.5t19.5 56.5q0 33 -11.5 48t-40.5 15q-30 0 -47 -21t-17 -59q0 -33 11 -46t38 -13zM97 62l-33 52l536 405l34 -51z" />
    <glyph glyph-name="ampersand" unicode="&#x26;" horiz-adv-x="620" 
d="M192 -13q-86 0 -121.5 46t-35.5 155q0 171 75.5 271.5t185.5 100.5q61 0 94.5 -16.5t33.5 -59.5q0 -55 -29 -97.5t-73 -65.5v-2q51 7 71 7h138q29 0 56 13.5t40 34.5l39 -31q-15 -33 -47 -62.5t-75 -29.5h-63q-23 -111 -101.5 -187.5t-187.5 -76.5zM218 60q68 0 116 50
t66 141h-182l-7 50q24 15 40.5 26.5t38 30t32.5 38.5t11 41q0 25 -3 45q-38 21 -76 21q-50 0 -90 -84.5t-40 -179.5q0 -36 1 -57.5t1.5 -29.5t3.5 -29l5 -36q42 -27 83 -27z" />
    <glyph glyph-name="quotesingle" unicode="'" horiz-adv-x="247" 
d="M68 515l25 240h97l-52 -240h-70z" />
    <glyph glyph-name="parenleft" unicode="(" horiz-adv-x="353" 
d="M220 -223q-16 14 -38.5 48t-51 90t-48.5 140t-20 174q0 196 75 349t194 252l35 -39q-102 -94 -170.5 -238t-68.5 -315q0 -80 17 -157t41.5 -130.5t44 -86.5t33.5 -48z" />
    <glyph glyph-name="parenright" unicode=")" horiz-adv-x="353" 
d="M20 -223l-34 39q101 107 171 255t70 320q0 146 -49.5 255.5t-89.5 144.5l43 39q16 -12 38.5 -43t52 -84t49.5 -134.5t20 -171.5q0 -133 -43.5 -261t-102 -214t-125.5 -145z" />
    <glyph glyph-name="asterisk" unicode="*" horiz-adv-x="427" 
d="M208 406l19 140l-20.5 -20t-44 -31t-54.5 -15q-14 2 -34 12l-6 14l129 66l-10 2.5t-23 7t-30.5 12.5t-26 18.5t-16.5 24.5q-3 11 -3 37l11 15l113 -75q-9 33 -9 68q0 45 20 65q3 3 32 21h16l-17 -140q8 10 21.5 23.5t46.5 33.5t57 13q7 -2 16.5 -7.5t12.5 -6.5l5 -14
l-131 -68l10 -2.5t23 -6.5t30 -11.5t26 -18t17 -24.5q2 -6 2.5 -13l1 -14t0.5 -9l-12 -16l-112 71q7 -29 7 -61q0 -48 -19 -68q-5 -6 -31 -23h-17z" />
    <glyph glyph-name="plus" unicode="+" horiz-adv-x="475" 
d="M177 121l21 200h-198l7 65h198l21 200h72l-21 -200h198l-7 -65h-198l-21 -200h-72z" />
    <glyph glyph-name="comma" unicode="," horiz-adv-x="280" 
d="M79 -180l-32 27q38 53 55 114q-35 54 -35 91q0 19 38.5 30.5t66.5 11.5q7 -8 17 -32.5t10 -35.5q0 -41 -31.5 -99.5t-88.5 -106.5z" />
    <glyph glyph-name="hyphen" unicode="-" horiz-adv-x="381" 
d="M46 255l7 66l283 16l-9 -82h-281z" />
    <glyph glyph-name="hyphen" unicode="&#xad;" horiz-adv-x="381" 
d="M46 255l7 66l283 16l-9 -82h-281z" />
    <glyph glyph-name="period" unicode="." horiz-adv-x="280" 
d="M118 -43q-11 0 -39.5 33t-28.5 45q0 10 37 43t48 33t40 -32t29 -44q0 -9 -37.5 -43.5t-48.5 -34.5z" />
    <glyph glyph-name="slash" unicode="/" horiz-adv-x="367" 
d="M-13 -62l325 831h68l-325 -831h-68z" />
    <glyph glyph-name="zero" unicode="0" horiz-adv-x="488" 
d="M247 61q38 0 64 31.5t36.5 82.5t14 89.5t3.5 77.5q0 74 -12 112q-38 32 -111 32q-113 0 -113 -267q0 -76 9 -131q32 -27 109 -27zM218 -13q-97 0 -137.5 51t-40.5 151q0 57 10 115.5t33 117.5t68 96.5t106 37.5q197 0 197 -203q0 -45 -7.5 -92.5t-25.5 -97.5t-44 -88.5
t-67.5 -63t-91.5 -24.5z" />
    <glyph glyph-name="one" unicode="1" horiz-adv-x="328" 
d="M102 0l51 478h-123l6 57l212 29l-41 -403v-161h-105z" />
    <glyph glyph-name="two" unicode="2" horiz-adv-x="438" 
d="M24 0l-10 49q110 95 192.5 207.5t82.5 188.5q-21 24 -44 33t-60 9q-33 0 -95 -17l8 62q62 26 122 26q71 0 113.5 -35.5t42.5 -93.5q0 -142 -260 -356l257 19l-8 -92h-341z" />
    <glyph glyph-name="three" unicode="3" horiz-adv-x="377" 
d="M57 -167q-79 0 -143 29q6 33 36 86q30 -18 72.5 -30t75.5 -12q60 0 101 46.5t41 107.5q0 103 -127 127l-16 40q48 31 101.5 103.5t54.5 121.5q-29 35 -87 35q-57 0 -116 -24l9 65q61 30 140 30q57 0 97 -29t40 -84q0 -49 -48 -107t-102 -93q57 -12 99 -54t42 -97
q0 -102 -84 -181.5t-186 -79.5z" />
    <glyph glyph-name="four" unicode="4" horiz-adv-x="498" 
d="M233 -161l23 186h-257l-15 40l263 481h56l-227 -439h189l46 439h86l-46 -439h113l-9 -82h-113l-14 -186h-95z" />
    <glyph glyph-name="five" unicode="5" horiz-adv-x="442" 
d="M102 -168q-66 0 -142 30q12 44 38 85q82 -42 146 -42q140 0 140 154q0 46 -18.5 82.5t-53 62t-67.5 41.5t-79 32l56 269h292l-17 -93l-229 15l-26 -126q52 -14 104 -46.5t91 -84.5t39 -107q0 -108 -79 -190t-195 -82z" />
    <glyph glyph-name="six" unicode="6" horiz-adv-x="513" 
d="M207 -13q-82 0 -123 43.5t-41 139.5q0 90 22.5 185t63 177t105 135t139.5 53q60 0 100 -15q-7 -41 -28 -78q-47 15 -77 15q-200 0 -229 -399q-5 -55 -5 -133q45 -53 105 -53q120 0 120 286q-20 17 -35.5 23t-49.5 6q-39 0 -52 -2l2 56q45 12 86 12q87 0 114.5 -34
t27.5 -101q0 -75 -28.5 -146.5t-86 -120.5t-130.5 -49z" />
    <glyph glyph-name="seven" unicode="7" horiz-adv-x="424" 
d="M64 -192l-64 29l331 617l-288 -6q1 67 16 98h349l21 -46z" />
    <glyph glyph-name="eight" unicode="8" horiz-adv-x="527" 
d="M223 -14q-88 0 -135.5 31.5t-47.5 112.5q0 37 14 72t44 69t50 53t57 50q-92 86 -92 158q0 77 57 131.5t141 54.5q72 0 114 -31.5t42 -89.5q0 -98 -141 -210q43 -37 65 -58.5t43 -55.5t21 -65q0 -96 -67 -159t-165 -63zM258 44q46 0 74.5 39t28.5 101q0 9 -2 18.5
t-7.5 19.5t-9 17t-14 18.5t-15.5 17.5t-18.5 18.5l-18.5 17l-21.5 19t-20.5 18.5q-41 -51 -74.5 -124.5t-33.5 -127.5q49 -52 132 -52zM297 412q36 47 61.5 104t25.5 102q-36 43 -99 43q-40 0 -64.5 -25t-24.5 -69q0 -40 26 -76t75 -79z" />
    <glyph glyph-name="nine" unicode="9" horiz-adv-x="513" 
d="M129 -175q-59 0 -99 15q7 41 28 78q54 -15 77 -15q200 0 229 399q5 55 5 133q-46 54 -105 54q-120 0 -120 -287q20 -17 35.5 -23t49.5 -6q31 0 52 3l-2 -57q-41 -11 -86 -11q-87 0 -114.5 34t-27.5 100q0 76 28.5 147t86 120t129.5 49q83 0 124 -43.5t41 -139.5
q0 -90 -22.5 -185t-63 -177t-105 -135t-140.5 -53z" />
    <glyph glyph-name="colon" unicode=":" horiz-adv-x="280" 
d="M105 -43q-11 0 -39.5 33t-28.5 45q0 10 37 43t48 33t40 -32t29 -44q0 -9 -37.5 -43.5t-48.5 -34.5zM151 407q-11 0 -39.5 33t-28.5 45q0 10 37 43t48 33t40 -32t29 -44q0 -9 -37.5 -43.5t-48.5 -34.5z" />
    <glyph glyph-name="semicolon" unicode=";" horiz-adv-x="280" 
d="M54 -180l-31 27q38 53 55 114q-35 54 -35 91q0 19 38.5 30.5t66.5 11.5q7 -8 17 -32.5t10 -35.5q0 -41 -32 -99t-89 -107zM146 406q-11 0 -39.5 33t-28.5 45q0 10 36.5 43t47.5 33t40.5 -32t29.5 -44q0 -9 -38 -43.5t-48 -34.5z" />
    <glyph glyph-name="less" unicode="&#x3c;" horiz-adv-x="438" 
d="M367 160l-355 156l8 75l388 156l17 -59l-336 -135l308 -134z" />
    <glyph glyph-name="equal" unicode="=" horiz-adv-x="529" 
d="M57 226l7 66h389l-7 -66h-389zM76 413l7 66h390l-7 -66h-390z" />
    <glyph glyph-name="greater" unicode="&#x3e;" horiz-adv-x="438" 
d="M60 160l-17 59l336 134l-308 135l30 59l355 -156l-8 -75z" />
    <glyph glyph-name="question" unicode="?" horiz-adv-x="434" 
d="M142 165q-3 3 -9.5 11l-9 11t-7 9.5t-6 11.5t-3 12t-1.5 15q0 32 30.5 79t68.5 86.5l82.5 87t62.5 72.5q-7 31 -55.5 50.5t-90.5 19.5q-68 0 -116 -13q-17 25 -17 68q69 28 164 28q43 0 84 -12.5t73 -44t32 -77.5q0 -31 -22.5 -66.5t-56 -68.5l-68 -64t-62.5 -61t-36 -52
q2 -6 33 -60zM168 -43q-11 0 -39.5 33t-28.5 45q0 10 37 43t48 33t40 -32t29 -44q0 -9 -37.5 -43.5t-48.5 -34.5z" />
    <glyph glyph-name="at" unicode="@" horiz-adv-x="740" 
d="M305 -137q-129 0 -197 72.5t-68 203.5q0 140 50 254t153.5 185.5t244.5 71.5q114 0 173 -58.5t59 -172.5q0 -60 -14 -117t-42 -107t-77 -80.5t-113 -30.5q-33 0 -52 20t-15 53q-77 -65 -127 -65q-46 0 -61 16t-15 60q0 68 22.5 128t71.5 101t115 41t107 -22l-38 -224
q-3 -24 -3 -25q0 -20 14 -20q46 0 80.5 26.5t52.5 69t26.5 85.5t8.5 85q0 183 -181 183q-76 0 -139 -24t-107 -66t-74 -99.5t-44 -123.5t-14 -139q0 -113 53.5 -168t165.5 -55q77 0 149 18l7 -50q-63 -26 -172 -26zM298 167q33 0 113 41l27 169q-14 5 -33 5q-45 0 -75.5 -36
t-41 -80t-10.5 -92q10 -7 20 -7z" />
    <glyph glyph-name="A" unicode="A" horiz-adv-x="655" 
d="M-40 0q-2 22 0 40q66 50 83 81l314 579l91 25l94 -592q2 -13 7 -23.5t9 -17t14.5 -15.5t14.5 -12t19 -12.5t19 -12.5q-3 -30 -7 -40h-261q-1 21 0 40l60 20q34 11 34 66q0 10 -4 38l-18 124h-229l-83 -158q-5 -10 -5 -23q0 -16 13 -30t36 -22l49 -15l-4 -40h-246z
M232 349h189l-30 211l-6 69h-11l-31 -67z" />
    <glyph glyph-name="B" unicode="B" horiz-adv-x="628" 
d="M8 0q-1 9 1 44q3 1 15.5 3.5t19.5 4.5q35 8 54.5 23t21.5 48l36 481q4 33 -23 42l-65 26q0 20 7 35h250q43 0 80 -6.5t70.5 -22.5t53 -46.5t19.5 -73.5q0 -51 -29 -96t-79 -75v-2q62 -15 99 -58t37 -100q0 -99 -80.5 -163t-190.5 -64h-297zM209 61h92q85 0 136 35.5
t51 106.5q0 57 -41.5 94.5t-107.5 38.5l-112 3zM230 394l79 3q140 4 140 144q0 55 -40 80t-96 28l-67 3z" />
    <glyph glyph-name="C" unicode="C" horiz-adv-x="616" 
d="M363 -13q-165 0 -240.5 85t-75.5 250q0 172 104 284.5t271 112.5q101 0 182 -42l-11 -150h-36q-10 63 -47.5 95.5t-92.5 32.5q-130 0 -199 -87.5t-69 -223.5q0 -138 54 -210t188 -72q75 0 148 31l20 -61q-87 -45 -196 -45z" />
    <glyph glyph-name="D" unicode="D" horiz-adv-x="718" 
d="M10 0q-3 21 0 44q6 2 30.5 8t37.5 10q41 11 45 71l36 475q2 30 -24 38l-70 24q0 23 6 37l260 5q162 3 256.5 -77t94.5 -243q0 -194 -102 -293t-292 -99h-278zM211 61l73 2q151 4 222 84.5t71 234.5q0 263 -253 263h-79z" />
    <glyph glyph-name="E" unicode="E" horiz-adv-x="591" 
d="M10 0q-3 24 0 45l68 18q18 4 30 21t14 39l36 481q2 13 -4 25.5t-18 16.5l-72 26q0 18 7 35h474l-11 -157q-17 -3 -47 0q-6 47 -22.5 68.5t-53.5 22.5l-164 6l-18 -261l252 5l-5 -72l-251 5l-13 -263l170 4q50 1 85 31.5t52 71.5l39 -6l-29 -162h-519z" />
    <glyph glyph-name="F" unicode="F" horiz-adv-x="545" 
d="M20 0q-3 19 -1 40l58 18q18 5 30.5 24t14.5 41l36 481q2 13 -4 25.5t-18 16.5l-72 26q0 18 7 35h484l-12 -169q-23 -2 -35 3q-17 88 -94 94l-168 12l-19 -281l262 5l-5 -76l-261 9l-10 -194q-2 -32 21 -36l110 -23q-3 -38 -7 -51h-317z" />
    <glyph glyph-name="G" unicode="G" horiz-adv-x="665" 
d="M373 -10q-168 0 -247 82t-79 250q0 172 104 284.5t271 112.5q119 0 187 -42l-10 -150h-36q-14 62 -52 95t-94 33q-130 0 -199 -87.5t-69 -223.5q0 -138 54 -209.5t188 -71.5q43 0 104 14l15 227h86l-16 -263q-38 -20 -97 -35.5t-110 -15.5z" />
    <glyph glyph-name="H" unicode="H" horiz-adv-x="781" 
d="M8 0q-3 19 -1 40l59 21q21 8 34.5 33t15.5 50l32 438q5 58 -32 69l-65 19q3 26 7 37h267q3 -20 1 -41l-55 -13q-21 -5 -27.5 -13.5t-8.5 -29.5l-15 -224h355l12 186q2 22 -7.5 47.5t-29.5 33.5l-46 17q3 34 4 37h257q-3 -33 -5 -41l-52 -12q-17 -4 -24 -12t-8 -29
l-32 -503q-3 -37 18 -42l81 -19q-3 -35 -7 -49h-283q-3 24 0 44l41 11q30 9 45 38t18 59l13 172h-355l-11 -213q-1 -34 22 -40l92 -25q-3 -32 -7 -46h-303z" />
    <glyph glyph-name="I" unicode="I" horiz-adv-x="336" 
d="M12 0q-3 19 -1 40l54 21q38 14 44 72l32 441q6 62 -46 82l-37 14q-2 21 4 37h257q2 -15 0 -41l-40 -8q-24 -6 -36.5 -29.5t-14.5 -51.5l-30 -476q-2 -19 3 -27t21 -12l77 -16q-3 -31 -7 -46h-280z" />
    <glyph glyph-name="J" unicode="J" horiz-adv-x="338" 
d="M-13 -186l-28 55q83 49 120 110t44 166l30 433q2 23 -10 46.5t-35 31.5l-41 14q3 27 7 37h258q2 -22 0 -40l-48 -11q-24 -6 -32.5 -15.5t-9.5 -31.5l-37 -523q-4 -53 -20.5 -95t-47 -73.5t-65 -55t-85.5 -48.5z" />
    <glyph glyph-name="K" unicode="K" horiz-adv-x="673" 
d="M4 0q-4 27 -1 44l68 23q38 13 42 67l34 449q2 51 -26 62l-58 21q-3 23 4 41h262q2 -32 1 -39l-51 -19q-19 -7 -29.5 -27.5t-12.5 -43.5l-30 -470q-1 -18 3 -25.5t15 -10.5l63 -21q0 -32 -7 -51h-277zM657 -22q-19 0 -43 3t-64 18.5t-61 42.5l-229 300l3 41l197 205
q23 24 24 38q0 20 -18 27l-45 14q0 18 6 40h230l-3 -41l-306 -277l196 -257q52 -69 127 -101z" />
    <glyph glyph-name="L" unicode="L" horiz-adv-x="523" 
d="M7 0q-2 24 0 44l64 18q18 4 29.5 21t13.5 39l35 462q4 54 -27 65l-60 21q3 27 6 37h258q2 -28 1 -40l-48 -11q-22 -5 -31.5 -14t-10.5 -28l-33 -550l137 5q93 13 130 99l39 -6l-30 -162h-473z" />
    <glyph glyph-name="M" unicode="M" horiz-adv-x="964" 
d="M393 -20l-109 588h-11l-5 -52l-133 -408q-10 -30 11 -36l90 -29q-3 -33 -7 -43h-252q-3 19 -1 40l36 18q40 19 60 80l147 452q6 18 -3 36t-24 23l-60 21q3 27 7 37h201l83 -394l27 -152h7l70 147l195 399h185q2 -27 1 -35l-48 -16q-44 -15 -43 -82l8 -458q0 -34 33 -53
l42 -21q0 -20 -6 -42h-254q-2 28 0 40l43 13q20 6 30.5 26t12 37.5t2.5 43.5v6l1 348l1 56h-10l-269 -570z" />
    <glyph glyph-name="N" unicode="N" horiz-adv-x="802" 
d="M576 -21l-351 614h-11l4 -83l-26 -399q-1 -19 3 -26.5t20 -13.5l81 -29q0 -20 -6 -42h-278q-3 19 -1 40l58 18q23 7 38 33t17 53l30 451q1 18 -6.5 33.5t-20.5 20.5l-54 21q3 30 5 37h198l319 -547h11l-3 109l22 313q1 21 -9 41t-26 26l-59 21q3 27 6 37h258q2 -22 1 -35
l-58 -16q-19 -6 -32.5 -27t-15.5 -45l-41 -583z" />
    <glyph glyph-name="O" unicode="O" horiz-adv-x="726" 
d="M338 -11q-141 0 -217 88t-76 234q0 108 42.5 200.5t126.5 150.5t192 58q135 0 209.5 -90t74.5 -231q0 -109 -39 -200.5t-121 -150.5t-192 -59zM357 59q71 0 126 50t81 120.5t26 143.5q0 74 -19 134t-67.5 102t-120.5 42q-75 0 -130.5 -49.5t-80.5 -119t-25 -145.5
q0 -55 11 -102.5t34 -88t65.5 -64t99.5 -23.5z" />
    <glyph glyph-name="P" unicode="P" horiz-adv-x="566" 
d="M13 0q-2 26 -1 40q49 15 58 18q20 6 31.5 24.5t13.5 39.5l36 482q4 34 -22 42l-71 26q-1 15 6 35h292q99 0 154.5 -46.5t55.5 -143.5t-64.5 -159t-165.5 -62q-22 0 -46 3l6 56h24q143 0 143 142q0 34 -8 60t-26 41.5t-34.5 25t-48 14.5t-50.5 6.5t-56 2.5l-34 -544
q-2 -25 22 -32l98 -26q-2 -27 -7 -45h-306z" />
    <glyph glyph-name="Q" unicode="Q" horiz-adv-x="726" 
d="M338 -11q-141 0 -217 88t-76 234q0 108 42.5 200.5t126.5 150.5t192 58q135 0 209.5 -90t74.5 -231q0 -131 -59 -237.5t-166 -149.5l63 -48q59 -45 125 -45q51 0 83 8l13 -41q-53 -42 -112 -42q-77 0 -130 44l-125 104q-22 -3 -44 -3zM357 59q71 0 126 50t81 120.5
t26 143.5q0 74 -19 134t-67.5 102t-120.5 42q-75 0 -130.5 -49.5t-80.5 -119t-25 -145.5q0 -55 11 -102.5t34 -88t65.5 -64t99.5 -23.5z" />
    <glyph glyph-name="R" unicode="R" horiz-adv-x="653" 
d="M643 -23q-18 0 -26 1q-84 14 -130.5 57t-95.5 134l-65 127h-107l-13 -193q-2 -25 22 -32l98 -26q-2 -27 -7 -45h-306q-2 26 -1 40l58 18q20 6 31.5 24.5t13.5 39.5l36 482q4 34 -22 42l-71 26q-1 15 6 35h292q99 0 154.5 -46.5t55.5 -143.5q0 -73 -37.5 -127t-103.5 -79
q55 -98 58 -102q61 -101 94 -136q34 -36 74 -55zM222 356h98q66 0 104.5 31t38.5 110q0 34 -8 60t-26 41.5t-34.5 25t-48 14.5t-50.5 6.5t-56 2.5z" />
    <glyph glyph-name="S" unicode="S" horiz-adv-x="496" 
d="M214 -13q-128 0 -214 59q7 27 41 139h25q15 -65 55 -101.5t104 -36.5q50 0 90.5 28t40.5 78q0 28 -20 57t-49.5 53.5l-64 55t-64 60.5t-49.5 72t-20 87q0 73 63 124t138 51q113 0 176 -38q-7 -70 -19 -126h-32q-13 47 -50.5 74t-86.5 27q-43 0 -75.5 -22t-32.5 -63
q0 -34 20.5 -67.5t51.5 -60l67 -58.5l67 -61t51.5 -68.5t20.5 -81.5q0 -89 -71 -135t-163 -46z" />
    <glyph glyph-name="T" unicode="T" horiz-adv-x="632" 
d="M133 0q-2 24 0 45l74 19q18 4 31.5 26.5t15.5 44.5l39 509h-120q-65 0 -93 -101q-23 -2 -40 2l11 162h579l-11 -162q-16 -4 -41 -2q-13 101 -89 101h-110l-34 -543q-1 -19 3 -27t18 -12l92 -17q-3 -34 -7 -45h-318z" />
    <glyph glyph-name="U" unicode="U" horiz-adv-x="768" 
d="M344 -13q-108 0 -171 48t-63 169q0 23 1 35l24 356q2 17 -5.5 33t-21.5 21l-59 21q0 22 6 38h278q1 -20 -2 -43l-66 -11q-28 -5 -30 -34l-26 -374q-8 -110 37.5 -152t132.5 -42q88 0 133 47.5t53 170.5l20 317q2 55 -50 71l-40 12q0 2 3 38h264q1 -15 -1 -40l-59 -16
q-30 -8 -32 -42l-24 -343q-10 -149 -92.5 -214.5t-209.5 -65.5z" />
    <glyph glyph-name="V" unicode="V" horiz-adv-x="664" 
d="M261 -19l-155 600q-13 54 -31 64l-52 29q0 18 6 34h257q2 -24 0 -44l-50 -10q-42 -9 -33 -50l110 -485l198 441q6 12 6 33q0 46 -24 57l-44 22q3 24 7 36h218q1 -17 -2 -36l-19 -16q-39 -31 -61 -79l-264 -577z" />
    <glyph glyph-name="W" unicode="W" horiz-adv-x="993" 
d="M639 -20l-138 464l-219 -444l-64 -17l-130 616q-3 12 -10 24t-12 17t-19.5 17.5t-17.5 15.5q0 19 6 34h226q2 -24 0 -36l-50 -17q-19 -6 -25.5 -28t-1.5 -47l90 -460l202 411l-22 88q-9 32 -38 55q-1 18 1 34h191q2 -24 0 -36l-22 -16q-18 -12 -26.5 -32t-2.5 -42
l132 -467l170 463q6 20 6 34q0 26 -16 34l-54 27q0 20 6 35h204q2 -24 0 -36l-17 -16q-38 -34 -52 -71l-228 -586z" />
    <glyph glyph-name="X" unicode="X" horiz-adv-x="697" 
d="M-11 0q-2 28 0 40l37 18q36 16 93 79l194 220l-126 225q-5 9 -12.5 18t-13.5 15t-18 15t-16.5 12l-19.5 12.5t-17 11.5q-2 5 -1 19t3 22h240q2 -29 0 -41l-41 -18q-12 -5 -13.5 -19.5t8.5 -32.5l93 -164l141 158q12 13 12.5 31t-11.5 24l-41 22q3 36 4 40h231
q1 -9 -4 -40q-31 -8 -67 -30.5t-57 -47.5l-179 -208l142 -249q14 -24 29.5 -40t29.5 -25t46 -27q-3 -30 -6 -40h-251q-2 28 0 40l42 23q16 9 16 26q0 14 -9 29l-105 187l-153 -179q-12 -15 -12 -33q0 -20 13 -26l55 -27q-3 -30 -6 -40h-250z" />
    <glyph glyph-name="Y" unicode="Y" horiz-adv-x="623" 
d="M132 0q-2 32 0 46l70 18q38 9 43 59l16 185l-166 289q-17 28 -39 48q-6 6 -17.5 15.5t-15.5 12.5q0 24 4 34h237q1 -19 0 -36l-50 -19q-18 -6 -18 -33q0 -20 10 -39l113 -211l150 216q10 15 7 34t-17 26l-52 27q0 22 4 35h233q1 -12 1 -35q-55 -22 -83 -61l-215 -303
l-11 -187q-2 -19 5.5 -36t21.5 -21l81 -22q-3 -26 -7 -42h-305z" />
    <glyph glyph-name="Z" unicode="Z" horiz-adv-x="575" 
d="M20 0l-13 55l416 593l-216 -10q-68 -10 -91 -100q-21 -2 -41 2l11 167h449l13 -42l-424 -598l235 9q50 2 84 31.5t51 69.5l39 -6l-30 -171h-483z" />
    <glyph glyph-name="bracketleft" unicode="[" horiz-adv-x="347" 
d="M60 -220l109 1044h158l-6 -59h-90l-97 -926h90l-6 -59h-158z" />
    <glyph glyph-name="backslash" unicode="\" horiz-adv-x="367" 
d="M225 -62l-151 831h68l152 -831h-69z" />
    <glyph glyph-name="bracketright" unicode="]" horiz-adv-x="347" 
d="M19 -220l6 59h90l97 926h-90l6 59h158l-109 -1044h-158z" />
    <glyph glyph-name="asciicircum" unicode="^" horiz-adv-x="542" 
d="M42 294l218 413h78l113 -413h-74l-85 346l-181 -346h-69z" />
    <glyph glyph-name="underscore" unicode="_" horiz-adv-x="500" 
d="M0 -163v66h500v-66h-500z" />
    <glyph glyph-name="grave" unicode="`" horiz-adv-x="568" 
d="M353 615q-65 55 -162 154q26 33 52 50q60 -80 142 -175q-8 -15 -32 -29z" />
    <glyph glyph-name="a" unicode="a" horiz-adv-x="528" 
d="M116 -13q-45 0 -61.5 22t-16.5 70q0 75 14 150.5t45 151.5t91.5 123.5t141.5 47.5q60 0 118 -27l-48 -444l84 1v-24q-70 -70 -128 -70q-43 0 -43 39q0 10 8 82q-54 -57 -102 -89.5t-103 -32.5zM147 68q17 0 37 7.5t42 21.5l37.5 24.5t37.5 28l27 21.5l34 292
q-29 18 -79 18q-44 0 -77.5 -49t-50 -120t-24.5 -133.5t-8 -106.5q11 -4 24 -4z" />
    <glyph glyph-name="b" unicode="b" horiz-adv-x="496" 
d="M187 -13q-72 0 -140 44l72 658h-94v45q95 26 139 26q18 0 29 -7t9 -23l-33 -298q111 121 187 121q71 0 91.5 -35t20.5 -115q0 -53 -9 -108t-30.5 -111t-53 -99.5t-80.5 -70.5t-108 -27zM214 54q45 0 77.5 34t49 80t26 110.5t11.5 105.5t2 86q-18 5 -34 5q-31 0 -68 -19
t-58 -36t-55 -47l-30 -295q46 -24 79 -24z" />
    <glyph glyph-name="c" unicode="c" horiz-adv-x="418" 
d="M133 -13q-96 0 -96 91q0 477 253 477q73 0 118 -27q-2 -54 -25 -84q-64 40 -137 40q-120 0 -119 -395v-11q19 -10 47 -10q51 0 181 65l22 -43q-46 -40 -116.5 -71.5t-127.5 -31.5z" />
    <glyph glyph-name="d" unicode="d" horiz-adv-x="512" 
d="M116 -13q-45 0 -61.5 21.5t-16.5 70.5q0 75 14 150.5t45 151t91.5 123t141.5 47.5q26 0 41 -2l15 140h-98v51q82 20 150 20q20 0 27.5 -7t5.5 -24l-72 -648h85v-22q-69 -71 -128 -71q-43 0 -43 40q0 8 8 80q-55 -57 -102.5 -89t-102.5 -32zM123 72q38 -16 109 28
q9 5 96 69l33 299q-27 14 -78 14q-43 0 -76.5 -49t-50.5 -120.5t-25 -134t-8 -106.5z" />
    <glyph glyph-name="e" unicode="e" horiz-adv-x="434" 
d="M150 -13q-62 0 -85.5 35.5t-23.5 136.5q0 71 11.5 134.5t39 126.5t82.5 100.5t132 37.5q56 0 88 -23t32 -64q0 -97 -70 -152t-223 -82q-4 -53 -4 -152q30 -14 53 -14q53 0 169 53l21 -44q-45 -40 -105 -66.5t-117 -26.5zM138 290q81 16 122.5 37t55 47t13.5 71
q0 49 -70 49q-94 0 -121 -204z" />
    <glyph glyph-name="f" unicode="f" horiz-adv-x="328" 
d="M44 -220l74 707h-83l7 59h83l3 30q9 87 66 138.5t152 51.5q31 0 68.5 -7t53.5 -20q0 -20 -9.5 -49.5t-21.5 -42.5q-25 20 -66.5 39.5t-66.5 19.5q-46 0 -66.5 -30.5t-26.5 -95.5l-4 -34h119l-7 -59h-119l-61 -582v-125h-95z" />
    <glyph glyph-name="g" unicode="g" horiz-adv-x="490" 
d="M127 -226q-86 0 -152 19q1 36 19 84q87 -20 118 -20q37 0 60.5 1.5t49.5 8.5t41 20t26 36.5t15 57.5l14 129q-36 -37 -62 -59.5t-65.5 -42.5t-77.5 -20q-45 0 -61.5 21.5t-16.5 70.5q0 48 6 97.5t18.5 104t36 101.5t54.5 85.5t77 60.5t101 22q59 0 118 -26l-60 -560
q-6 -59 -52 -104.5t-101.5 -66t-105.5 -20.5zM142 69q21 0 49.5 13t44 23.5t51.5 37.5t38 28l35 294q-27 16 -79 16q-44 0 -78 -49.5t-50.5 -121.5t-24.5 -133.5t-8 -103.5q9 -4 22 -4z" />
    <glyph glyph-name="h" unicode="h" horiz-adv-x="544" 
d="M373 -12q-42 0 -42 40q0 26 5 61l50 364q-14 4 -23 4q-42 0 -102.5 -32t-87.5 -57l-23 -207v-161h-97l72 689h-99v51q82 20 150 20q34 0 34 -24v-7l-33 -303q48 50 113 88.5t111 38.5q36 0 51 -14t15 -47q0 -17 -3 -41l-49 -369h86v-21q-71 -73 -128 -73z" />
    <glyph glyph-name="i" unicode="i" horiz-adv-x="259" 
d="M91 -12q-43 0 -43 40q0 6 7 69l43 432l83 34l-48 -483h86v-21q-71 -71 -128 -71zM145 649q-10 0 -35.5 29t-25.5 40q0 10 33 39.5t43 29.5t36 -28.5t26 -39.5q0 -9 -33.5 -39.5t-43.5 -30.5z" />
    <glyph glyph-name="j" unicode="j" horiz-adv-x="254" 
d="M-70 -224q-42 0 -84 15q5 47 22 79q45 -15 74 -15q64 0 88.5 26.5t30.5 102.5l42 542l85 35l-46 -578q-6 -77 -74.5 -142t-137.5 -65zM149 649q-10 0 -35.5 29t-25.5 40q0 10 33 39.5t43 29.5t36 -28.5t26 -39.5q0 -9 -33.5 -39.5t-43.5 -30.5z" />
    <glyph glyph-name="k" unicode="k" horiz-adv-x="480" 
d="M396 -27q-27 23 -49.5 48t-37 42.5t-33.5 49l-27 45.5t-29.5 56l-29.5 58l137 180q29 37 -34 66l4 28h160l11 -25l-202 -235q39 -67 80.5 -122t108.5 -122q-18 -39 -59 -69zM50 0l73 689h-98v51q82 20 150 20q20 0 27.5 -7t5.5 -24l-60 -571v-158h-98z" />
    <glyph glyph-name="l" unicode="l" horiz-adv-x="283" 
d="M97 -11q-43 0 -43 40q0 2 7 69l70 591h-98v51q82 20 150 20q20 0 27.5 -7t5.5 -24l-74 -649h83v-21q-70 -70 -128 -70z" />
    <glyph glyph-name="m" unicode="m" horiz-adv-x="819" 
d="M646 -13q-43 0 -43 40q0 22 9 75l59 353q-9 4 -24 4q-42 0 -101 -32t-88 -58l-34 -235v-134h-99l61 455q-11 4 -24 4q-42 0 -101.5 -32.5t-87.5 -58.5l-23 -207v-161h-97l55 527l85 35l-14 -134q48 51 111 88t111 37q37 0 52.5 -14t15.5 -49q0 -21 -2 -34l-4 -28
q48 50 111.5 87.5t111.5 37.5q37 0 52 -14t15 -46q0 -21 -4 -42l-60 -367h87v-21q-76 -76 -130 -76z" />
    <glyph glyph-name="n" unicode="n" horiz-adv-x="544" 
d="M369 -12q-42 0 -42 40q0 26 5 61l50 364q-14 4 -22 4q-42 0 -102.5 -32t-87.5 -57l-24 -207v-161h-97l55 527l85 35l-13 -134q47 50 110.5 87.5t110.5 37.5q36 0 51 -14t15 -47q0 -17 -3 -41l-49 -369h86v-21q-71 -73 -128 -73z" />
    <glyph glyph-name="o" unicode="o" horiz-adv-x="480" 
d="M243 61q54 0 82 95.5t28 206.5q0 50 -7 87q-40 36 -107 36q-33 0 -56.5 -28.5t-35 -76t-16 -94.5t-4.5 -99q0 -55 4 -95q33 -32 112 -32zM206 -12q-86 0 -126 39.5t-40 124.5q0 48 6 99t22 106.5t39 98.5t61.5 71t85.5 28q186 0 186 -174q0 -60 -13 -124.5t-39.5 -126.5
t-74 -102t-107.5 -40z" />
    <glyph glyph-name="p" unicode="p" horiz-adv-x="498" 
d="M17 -220l82 746l83 34l-14 -131q113 120 193 120q62 0 83.5 -29.5t21.5 -119.5q0 -108 -31 -200t-95 -151t-150 -59q-30 0 -64 9l-12 -114v-105h-97zM211 57q30 0 55.5 14t42 40t30 55t21 67.5t12 69.5t6.5 68.5t2.5 56t0.5 41.5q-17 5 -31 5q-80 0 -188 -112l-29 -282
q52 -23 78 -23z" />
    <glyph glyph-name="q" unicode="q" horiz-adv-x="490" 
d="M282 -220l34 325q-52 -54 -99.5 -85t-100.5 -31q-45 0 -61.5 21.5t-16.5 70.5q0 48 6 97.5t18.5 104t35.5 101.5t54 85.5t77 60.5t101 22q58 0 118 -27l-65 -617v-128h-101zM144 70q17 0 37 7t43 21t38 24t38.5 28l27.5 21l34 295q-26 15 -79 15q-43 0 -77 -49
t-51 -119.5t-25.5 -133t-8.5 -105.5q9 -4 23 -4z" />
    <glyph glyph-name="r" unicode="r" horiz-adv-x="341" 
d="M48 0l55 529l86 33l-12 -102q27 28 46 45t51.5 33.5t63.5 16.5q9 0 18 -1l-14 -89q-6 1 -22 1q-67 0 -148 -53l-26 -252v-161h-98z" />
    <glyph glyph-name="s" unicode="s" horiz-adv-x="385" 
d="M141 -10q-76 0 -138 26q9 48 29 87q100 -37 187 -37q16 0 30.5 9t14.5 24q0 28 -31 68t-67.5 76t-67.5 85.5t-31 92.5q0 70 48 102t129 32q67 0 124 -24q0 -51 -28 -89q-42 29 -74.5 42t-76.5 13q-17 0 -31 -12t-14 -26q0 -31 20 -64t48.5 -62.5l57.5 -59t49 -63
t20 -64.5q0 -76 -59.5 -116t-138.5 -40z" />
    <glyph glyph-name="t" unicode="t" horiz-adv-x="372" 
d="M166 -10q-47 0 -71 15t-24 65q0 8 2 30l44 387h-83l7 59h86l12 110l82 41l-15 -151h151l-7 -59h-152l-41 -405q24 -9 42 -9q30 0 121 34l20 -41q-54 -40 -92 -58t-82 -18z" />
    <glyph glyph-name="u" unicode="u" horiz-adv-x="531" 
d="M117 -13q-75 0 -66 103l40 437l84 33l-41 -490q10 -5 20 -5q31 0 95 47t92 76l37 339l85 33l-54 -479h90v-20q-69 -71 -128 -71q-42 0 -42 40q0 14 1 24l7 79q-52 -69 -102 -107.5t-118 -38.5z" />
    <glyph glyph-name="v" unicode="v" horiz-adv-x="459" 
d="M137 -26l-68 425l-49 123q52 33 117 33l65 -512l135 317q6 13 9 33v153h105q1 -7 1 -26q0 -78 -41 -167l-160 -350z" />
    <glyph glyph-name="w" unicode="w" horiz-adv-x="763" 
d="M118 -32l-40 431l-47 126q42 29 125 30l28 -503l188 349l-18 133l87 23l56 -502l138 305q14 28 17 44v142h109v-29q0 -58 -52 -164l-172 -350l-110 -29l-41 318l-162 -290z" />
    <glyph glyph-name="x" unicode="x" horiz-adv-x="466" 
d="M359 -10q-40 0 -58 41l-83 188l-101 -137v-82h-111l-11 32l202 236l-64 142l-84 92q42 51 104 51l102 -217l93 107v103h102l1 -20q0 -53 -50 -105l-124 -132l101 -216h77l6 -33q-60 -50 -102 -50z" />
    <glyph glyph-name="y" unicode="y" horiz-adv-x="458" 
d="M68 -220l108 220h-52l-47 390l-57 127q72 38 123 38l63 -515l135 320q6 13 9 33v153h100q1 -7 1 -29q0 -29 -8 -62t-14 -48.5t-23 -54.5l-247 -572h-91z" />
    <glyph glyph-name="z" unicode="z" horiz-adv-x="418" 
d="M23 0l-21 44l324 433l-5 5q-153 -33 -262 -33q0 66 21 103q79 -9 166 -9q15 0 156 3l16 -38l-317 -429l4 -6q158 19 284 27q1 -5 1 -19q0 -51 -10 -81h-357z" />
    <glyph glyph-name="braceleft" unicode="{" horiz-adv-x="360" 
d="M233 -221q-79 -3 -128.5 25.5t-49.5 97.5q0 18 5 45l45 228q4 16 4 34q0 67 -72 67l6 54q89 0 89 102l4 235q1 85 54 121.5t141 34.5l35 -1l-6 -55h-26q-69 0 -101.5 -23.5t-31.5 -80.5l-3 -221q1 -109 -81 -138q55 -22 55 -98q0 -21 -4 -38l-45 -222q-4 -17 -4 -34
q0 -39 28 -57.5t89 -18.5h26l-5 -56z" />
    <glyph glyph-name="bar" unicode="|" horiz-adv-x="262" 
d="M73 -220l103 974h68l-103 -974h-68z" />
    <glyph glyph-name="braceright" unicode="}" horiz-adv-x="361" 
d="M-5 -221l6 57h26q72 0 103.5 26t31.5 84l3 222q0 51 22 88t57 48q-58 23 -58 91q0 20 6 47l44 221q4 24 4 31q0 39 -28.5 56t-86.5 17h-26l3 55h35q169 4 169 -114q0 -16 -5 -41l-46 -235q-3 -16 -3 -32q0 -70 72 -70l-6 -54q-88 0 -90 -101l-2 -228q-1 -94 -59.5 -133
t-148.5 -35h-23z" />
    <glyph glyph-name="asciitilde" unicode="~" horiz-adv-x="376" 
d="M233 284q-12 0 -59.5 22.5t-51.5 22.5q-19 0 -34.5 -5t-37 -18.5t-26.5 -15.5l-24 41q23 21 69 47.5t68 26.5q23 0 61.5 -21t44.5 -21q51 0 106 38l27 -37q-26 -28 -73.5 -54t-69.5 -26z" />
    <glyph glyph-name="uni00A0" unicode="&#xa0;" horiz-adv-x="180" 
 />
    <glyph glyph-name="exclamdown" unicode="&#xa1;" horiz-adv-x="328" 
d="M184 427q-11 0 -40 32t-29 43q0 10 37.5 44t48.5 34t39.5 -32.5t28.5 -44.5q0 -10 -37 -43t-48 -33zM120 -199l-56 30l76 527h77l-36 -527z" />
    <glyph glyph-name="cent" unicode="&#xa2;" horiz-adv-x="431" 
d="M173 -167l17 162q-32 -8 -57 -8q-96 0 -96 91q0 435 212 473l16 156h59l-16 -153h8q53 -3 92 -26q-2 -54 -25 -84q-64 40 -137 40q-120 0 -119 -395v-11q19 -10 47 -10q51 0 181 65l22 -43q-54 -46 -126 -75l-18 -182h-60z" />
    <glyph glyph-name="sterling" unicode="&#xa3;" horiz-adv-x="556" 
d="M17 0q-4 18 -4 49l60 17q20 6 28 20t11 45l18 163h-68l3 55h71l6 62q9 83 64.5 142t137.5 59q98 0 140 -33q0 -23 -10 -49t-22 -40q-30 22 -68.5 40t-64.5 18q-49 0 -68.5 -36t-26.5 -105l-5 -58h181l-3 -55h-184l-23 -220l186 11q40 2 77 38l44 -40q-22 -39 -49.5 -61
t-75.5 -22h-355z" />
    <glyph glyph-name="currency" unicode="&#xa4;" horiz-adv-x="496" 
d="M408 61l-65 70q-53 -30 -107 -30q-61 0 -101 32l-77 -70l-31 34l77 70q-30 42 -25 104q3 65 39 104l-66 71l35 32l65 -70q55 34 107 34q64 0 103 -32l74 70l32 -35l-75 -70q28 -34 25 -104q-5 -69 -42 -106l65 -70zM239 148q60 0 94 34t38 89q4 54 -26 89t-89 35t-94 -35
t-38 -89q-4 -53 26.5 -88t88.5 -35z" />
    <glyph glyph-name="yen" unicode="&#xa5;" horiz-adv-x="662" 
d="M235 0l21 106l3 31h-197l6 53h197l1 14q-20 51 -39 91h-148l5 53h116q-28 56 -58 104q-19 30 -57 41l1 35q81 24 118 24q18 -25 62 -134.5t61 -166.5q143 213 208 293q63 -3 105 -22l-17 -36q-37 -6 -50 -22l-98 -116h113l-6 -53h-149l-72 -93l-1 -12h211l-5 -53h-212
l-3 -33l-1 -104h-115z" />
    <glyph glyph-name="brokenbar" unicode="&#xa6;" horiz-adv-x="277" 
d="M82 -220l38 362h67l-38 -362h-67zM146 392l38 361h67l-38 -361h-67z" />
    <glyph glyph-name="section" unicode="&#xa7;" horiz-adv-x="441" 
d="M94 -82q-74 0 -118 44q5 20 19 42t30 35q47 -57 79 -57q31 0 46.5 33t15.5 72q0 15 -39.5 131t-39.5 155q0 104 82.5 167.5t193.5 63.5q85 0 115 -39q-15 -63 -39 -82q-45 60 -103 60q-28 0 -43.5 -26t-15.5 -58q0 -33 43 -145.5t42 -144.5q-4 -125 -79 -188t-189 -63z
M209 -7q86 47 86 127q0 50 -41.5 172.5t-41.5 147.5q0 58 24 88l-2 3q-43 -24 -61 -54.5t-18 -84.5q0 -28 41.5 -156.5t38.5 -157.5q-6 -58 -26 -83v-2z" />
    <glyph glyph-name="dieresis" unicode="&#xa8;" horiz-adv-x="408" 
d="M89 655q-10 0 -33.5 26.5t-21.5 35.5q1 10 30 36t38 26t33 -26t23 -36q-1 -8 -30 -35t-39 -27zM307 655q-10 0 -33.5 26.5t-21.5 35.5q1 10 30 36t38 26t33 -26t23 -36q-1 -8 -30 -35t-39 -27z" />
    <glyph glyph-name="copyright" unicode="&#xa9;" horiz-adv-x="761" 
d="M394 101q-180 0 -180 175q0 80 47.5 131t130.5 51q49 0 100 -20v-81q-15 -3 -34 -1q-10 29 -25 43t-43 14q-53 0 -84.5 -32t-31.5 -100q0 -67 34.5 -98.5t93.5 -31.5q45 0 82 9l14 -44q-46 -15 -104 -15zM383 -20q-54 0 -104.5 15t-96.5 47t-74 90.5t-28 136.5
q0 136 85.5 215t215.5 79q57 0 108.5 -16.5t95.5 -50t70 -92t26 -135.5q0 -135 -84 -212t-214 -77zM389 24q106 0 173 64.5t67 180.5q0 122 -72 185.5t-174 63.5q-109 0 -179 -60.5t-70 -183.5q0 -61 19 -108t46.5 -73t64.5 -42.5t66.5 -21.5t58.5 -5z" />
    <glyph glyph-name="ordfeminine" unicode="&#xaa;" horiz-adv-x="418" 
d="M122 381q-28 0 -38.5 14t-10.5 43q0 42 8 85.5t25.5 87.5t53 71.5t83.5 27.5q35 0 72 -17l-27 -249h47v-20q-43 -43 -78 -43q-29 0 -29 28q0 4 2 17t2 19q-62 -64 -110 -64zM139 437q28 0 97 51l19 166q-10 6 -39 6q-23 0 -41 -26t-26.5 -64.5t-13 -71.5t-4.5 -60
q2 -1 8 -1zM48 289l6 52h278l-6 -52h-278z" />
    <glyph glyph-name="guillemotleft" unicode="&#xab;" horiz-adv-x="513" 
d="M156 50q-20 84 -96 222q103 122 153 220q33 -7 57 -13q-58 -137 -115 -207q49 -120 64 -209q-39 -7 -63 -13zM362 61q-19 77 -92 211q103 122 146 206q33 -7 58 -13q-56 -128 -109 -193q46 -111 60 -198q-39 -7 -63 -13z" />
    <glyph glyph-name="logicalnot" unicode="&#xac;" horiz-adv-x="468" 
d="M364 121l16 149h-312l7 65h388l-23 -214h-76z" />
    <glyph glyph-name="registered" unicode="&#xae;" horiz-adv-x="614" 
d="M422 421q-52 0 -76 27q-25 25 -53 70q-6 -1 -15 -1h-9l2 -91h-50l2 93v145h86q79 0 79 -72q0 -49 -46 -68q27 -36 43 -51q18 -19 41 -29zM309 314q-41 0 -79.5 11.5t-73 35.5t-55.5 68t-21 103q0 103 64.5 162.5t163.5 59.5q93 0 159.5 -55t66.5 -167q0 -102 -63.5 -160
t-161.5 -58zM314 354q77 0 125.5 47t48.5 131q0 89 -52.5 135.5t-126.5 46.5q-79 0 -130 -44.5t-51 -133.5q0 -45 14 -79t34 -53t46.5 -31t48.5 -15.5t43 -3.5zM269 549h16q54 0 54 41q0 23 -11 32.5t-38 9.5h-21v-83z" />
    <glyph glyph-name="macron" unicode="&#xaf;" horiz-adv-x="540" 
d="M114 685l8 69h298l-8 -69h-298z" />
    <glyph glyph-name="macron" unicode="&#x2c9;" horiz-adv-x="540" 
d="M114 685l8 69h298l-8 -69h-298z" />
    <glyph glyph-name="degree" unicode="&#xb0;" horiz-adv-x="411" 
d="M250 455q-68 0 -102.5 30t-27.5 92q7 60 54.5 100.5t106.5 40.5q63 0 100.5 -31t31.5 -90q-6 -60 -54 -101t-109 -41zM257 502q74 0 83 85q5 38 -12.5 60.5t-52.5 22.5t-56.5 -22t-26.5 -61q-9 -85 65 -85z" />
    <glyph glyph-name="plusminus" unicode="&#xb1;" 
d="M278 141l22 192l-196 -2l7 64l196 -2l18 193h72l-22 -193l196 2l-7 -64l-196 2l-18 -192h-72zM60 0l6 65h480l-6 -65h-480z" />
    <glyph glyph-name="twosuperior" unicode="&#xb2;" horiz-adv-x="307" 
d="M71 415l5 52q101 81 135 120q52 58 52 99q0 37 -45 37q-47 0 -85 -24l-23 51q54 36 117 36q59 0 85 -25.5t26 -66.5q0 -103 -174 -218h164l-6 -61h-251z" />
    <glyph glyph-name="threesuperior" unicode="&#xb3;" horiz-adv-x="300" 
d="M174 411q-66 0 -110 19l22 58q43 -15 90 -15q74 0 74 54q0 29 -19.5 39.5t-74.5 14.5l6 51q89 5 89 66q0 28 -44 28q-16 0 -33.5 -3t-27.5 -7l-9 -3l-21 51q46 25 103 25q48 0 76.5 -21t28.5 -58q0 -58 -55 -96q23 -8 39 -29.5t16 -46.5q0 -63 -43.5 -95t-106.5 -32z" />
    <glyph glyph-name="acute" unicode="&#xb4;" horiz-adv-x="568" 
d="M243 615q-24 14 -32 29q82 95 142 175q26 -17 52 -50q-97 -99 -162 -154z" />
    <glyph glyph-name="mu" unicode="&#xb5;" horiz-adv-x="554" 
d="M100 -236q-71 63 -71 149q0 24 4 47l35 221l32 346l84 33l-41 -487q14 -5 24 -5q60 0 183 123l37 336l85 33l-54 -479h90v-20q-69 -71 -128 -71q-42 0 -42 40q0 15 1 24l8 85q-27 -36 -44.5 -56t-46 -45t-60.5 -36.5t-70 -11.5q-15 0 -26 3q-2 -81 87 -185z" />
    <glyph glyph-name="paragraph" unicode="&#xb6;" horiz-adv-x="657" 
d="M230 -226q-71 0 -128 41q19 72 50 92q13 -12 54.5 -36.5t53.5 -24.5q55 0 69 129l80 732h75l-75 -710q-4 -35 -6 -48t-11 -36t-26 -40l2 -3q87 19 98 129l75 708h75l-74 -700q-10 -99 -108.5 -166t-203.5 -67zM265 270q-95 0 -148 45t-53 139q0 126 65.5 189.5
t191.5 63.5l-46 -437h-10z" />
    <glyph glyph-name="periodcentered" unicode="&#xb7;" horiz-adv-x="277" 
d="M173 282q-12 0 -40.5 32t-26.5 43q1 12 36.5 43t46.5 31t39 -31.5t27 -42.5q-1 -10 -35.5 -42.5t-46.5 -32.5z" />
    <glyph glyph-name="cedilla" unicode="&#xb8;" horiz-adv-x="453" 
d="M188 -267q-34 0 -64 15l15 46q30 -6 60 -6q61 0 61 26q0 19 -36.5 43t-36.5 41q0 9 2.5 18.5t5.5 17t10.5 17t11.5 15t15 15.5l15.5 14l17.5 15t16 14l71 16q-15 -9 -61 -52t-46 -52q0 -7 23.5 -19.5t47 -32t23.5 -45.5q0 -42 -53 -74t-98 -32z" />
    <glyph glyph-name="onesuperior" unicode="&#xb9;" horiz-adv-x="235" 
d="M147 415l33 306h-72l6 58l145 3l-39 -367h-73z" />
    <glyph glyph-name="ordmasculine" unicode="&#xba;" horiz-adv-x="418" 
d="M195 381q-58 0 -78.5 23t-20.5 80q0 47 11.5 96t43 90t77.5 41q56 0 83 -29t27 -80q0 -46 -13.5 -94t-48 -87.5t-81.5 -39.5zM216 427q29 0 45.5 60t16.5 123q0 25 -3 40q-18 15 -56 15q-35 0 -49 -53t-14 -122q0 -26 2 -46q20 -17 58 -17zM48 289l6 52h278l-6 -52h-278z
" />
    <glyph glyph-name="guillemotright" unicode="&#xbb;" horiz-adv-x="513" 
d="M107 61l-60 13q32 87 101 198q-41 68 -68 193l60 13q25 -82 103 -206q-102 -136 -136 -211zM311 50l-60 13q33 91 107 209q-44 73 -71 207l59 13q29 -97 107 -220q-105 -139 -142 -222z" />
    <glyph glyph-name="onequarter" unicode="&#xbc;" horiz-adv-x="763" 
d="M177 94l-40 40l533 532l39 -39zM157 415l33 306h-72l6 58l145 3l-39 -367h-73zM630 0l9 90h-151l7 68l142 209h104l-23 -216h65l-7 -61h-65l-9 -90h-72zM559 151h87l17 156z" />
    <glyph glyph-name="onehalf" unicode="&#xbd;" horiz-adv-x="767" 
d="M166 94l-40 40l533 532l39 -39zM157 415l33 306h-72l6 58l145 3l-39 -367h-73zM521 0l5 52q101 81 135 120q52 58 52 99q0 37 -45 37q-47 0 -85 -24l-23 51q54 36 117 36q59 0 85 -25.5t26 -66.5q0 -103 -174 -218h164l-6 -61h-251z" />
    <glyph glyph-name="threequarters" unicode="&#xbe;" horiz-adv-x="785" 
d="M204 94l-40 40l533 532l39 -39zM196 411q-66 0 -110 19l22 58q43 -15 90 -15q74 0 74 54q0 29 -19.5 39.5t-74.5 14.5l6 51q89 5 89 66q0 28 -44 28q-16 0 -33.5 -3t-27.5 -7l-9 -3l-21 51q46 25 103 25q48 0 76.5 -21t28.5 -58q0 -58 -55 -96q23 -8 39 -29.5t16 -46.5
q0 -63 -43.5 -95t-106.5 -32zM652 0l9 90h-151l7 68l142 209h104l-23 -216h65l-7 -61h-65l-9 -90h-72zM581 151h87l17 156z" />
    <glyph glyph-name="questiondown" unicode="&#xbf;" horiz-adv-x="434" 
d="M207 -175q-43 0 -84 12.5t-73 44t-32 77.5q0 31 22.5 66.5t56 68.5l68 64t62.5 61t36 52q-2 6 -33 60l70 42q3 -3 9.5 -11l9 -11t7 -9.5t6 -11.5t3 -12t1.5 -15q0 -32 -30.5 -79t-68.5 -86.5l-82.5 -87t-62.5 -72.5q7 -31 55.5 -50.5t90.5 -19.5q68 0 116 13
q17 -25 17 -68q-69 -28 -164 -28zM257 427q-11 0 -40 32t-29 44q0 9 37.5 43t48.5 34t39.5 -32.5t28.5 -44.5q0 -10 -37 -43t-48 -33z" />
    <glyph glyph-name="Agrave" unicode="&#xc0;" horiz-adv-x="655" 
d="M-40 0q-2 22 0 40q66 50 83 81l314 579l91 25l94 -592q2 -13 7 -23.5t9 -17t14.5 -15.5t14.5 -12t19 -12.5t19 -12.5q-3 -30 -7 -40h-261q-1 21 0 40l60 20q34 11 34 66q0 10 -4 38l-18 124h-229l-83 -158q-5 -10 -5 -23q0 -16 13 -30t36 -22l49 -15l-4 -40h-246z
M232 349h189l-30 211l-6 69h-11l-31 -67zM433 740q-123 26 -207 60q13 42 28 63q89 -45 192 -84q-5 -25 -13 -39z" />
    <glyph glyph-name="Aacute" unicode="&#xc1;" horiz-adv-x="655" 
d="M-40 0q-2 22 0 40q66 50 83 81l314 579l91 25l94 -592q2 -13 7 -23.5t9 -17t14.5 -15.5t14.5 -12t19 -12.5t19 -12.5q-3 -30 -7 -40h-261q-1 21 0 40l60 20q34 11 34 66q0 10 -4 38l-18 124h-229l-83 -158q-5 -10 -5 -23q0 -16 13 -30t36 -22l49 -15l-4 -40h-246z
M232 349h189l-30 211l-6 69h-11l-31 -67zM336 740q-8 14 -13 39q103 39 192 84q15 -21 28 -63q-84 -34 -207 -60z" />
    <glyph glyph-name="Acircumflex" unicode="&#xc2;" horiz-adv-x="655" 
d="M-40 0q-2 22 0 40q66 50 83 81l314 579l91 25l94 -592q2 -13 7 -23.5t9 -17t14.5 -15.5t14.5 -12t19 -12.5t19 -12.5q-3 -30 -7 -40h-261q-1 21 0 40l60 20q34 11 34 66q0 10 -4 38l-18 124h-229l-83 -158q-5 -10 -5 -23q0 -16 13 -30t36 -22l49 -15l-4 -40h-246z
M232 349h189l-30 211l-6 69h-11l-31 -67zM535 733q-81 29 -137 78q-50 -38 -145 -72q-12 16 -18 37q114 63 175 118q38 -47 161 -110q-17 -31 -36 -51z" />
    <glyph glyph-name="Atilde" unicode="&#xc3;" horiz-adv-x="655" 
d="M-40 0q-2 22 0 40q66 50 83 81l314 579l91 25l94 -592q2 -13 7 -23.5t9 -17t14.5 -15.5t14.5 -12t19 -12.5t19 -12.5q-3 -30 -7 -40h-261q-1 21 0 40l60 20q34 11 34 66q0 10 -4 38l-18 124h-229l-83 -158q-5 -10 -5 -23q0 -16 13 -30t36 -22l49 -15l-4 -40h-246z
M232 349h189l-30 211l-6 69h-11l-31 -67zM464 752q-14 0 -57.5 18t-56.5 18q-32 0 -103 -33l-22 33q117 76 141 76q20 0 69.5 -19.5t59.5 -19.5q15 0 46 26l29 -30q-69 -69 -106 -69z" />
    <glyph glyph-name="Adieresis" unicode="&#xc4;" horiz-adv-x="655" 
d="M-40 0q-2 22 0 40q66 50 83 81l314 579l91 25l94 -592q2 -13 7 -23.5t9 -17t14.5 -15.5t14.5 -12t19 -12.5t19 -12.5q-3 -30 -7 -40h-261q-1 21 0 40l60 20q34 11 34 66q0 10 -4 38l-18 124h-229l-83 -158q-5 -10 -5 -23q0 -16 13 -30t36 -22l49 -15l-4 -40h-246z
M232 349h189l-30 211l-6 69h-11l-31 -67zM287 741q-10 0 -33.5 26.5t-21.5 35.5q1 10 30 36t38 26q10 0 34 -26t23 -36q-2 -8 -31 -35t-39 -27zM505 741q-10 0 -33.5 26.5t-21.5 35.5q1 10 30 36t38 26q10 0 34 -26t23 -36q-2 -8 -31 -35t-39 -27z" />
    <glyph glyph-name="Aring" unicode="&#xc5;" horiz-adv-x="655" 
d="M-40 0q-1 14 -1 40q68 52 83 81l304 560q-63 14 -63 74q0 55 35 96.5t89 41.5q112 0 112 -92q0 -38 -20 -69.5t-53 -45.5l96 -553q8 -51 82 -93q-3 -30 -6 -40h-261q-3 19 -1 40l61 20q33 11 33 66q0 9 -1 13l-20 149h-230l-82 -158q-6 -12 -6 -23q0 -16 13.5 -30.5
t35.5 -21.5l49 -15q0 -1 -0.5 -17.5t-2.5 -22.5h-246zM419 723q45 0 42 85v21q-28 18 -69 18q-20 0 -32 -18.5t-15 -37.5t-2 -39v-12q22 -17 76 -17zM231 349h189l-29 211l-7 69h-11l-30 -67z" />
    <glyph glyph-name="AE" unicode="&#xc6;" horiz-adv-x="820" 
d="M-76 0q0 31 4 44q53 40 82 80l431 583h365l-11 -160q-3 -1 -51 -1q-6 47 -22 68t-52 22l-131 6l-18 -254l221 5l-5 -76l-221 5l-13 -256l138 3q50 1 84.5 31.5t50.5 71.5l44 -7l-30 -165h-493q-3 23 -1 49l70 18q18 4 29.5 20.5t13.5 37.5l15 198h-186l-136 -193
q-10 -13 -10 -24q0 -31 39 -46l42 -16q0 -29 -7 -44h-242zM284 388h145l13 172l5 65h-5l-52 -86z" />
    <glyph glyph-name="Ccedilla" unicode="&#xc7;" horiz-adv-x="616" 
d="M308 -267q-34 0 -64 15l15 46q30 -6 60 -6q61 0 61 26q0 19 -36.5 43t-36.5 41q0 43 51 89q-163 1 -237 86t-74 249q0 172 104 284.5t271 112.5q101 0 182 -42l-11 -150h-36q-10 63 -47.5 95.5t-92.5 32.5q-130 0 -199 -87.5t-69 -223.5q0 -138 54 -210t188 -72
q75 0 148 31l20 -61q-61 -32 -147 -42q-47 -43 -47 -54q0 -7 23.5 -19.5t47 -32t23.5 -45.5q0 -42 -53 -74t-98 -32z" />
    <glyph glyph-name="Egrave" unicode="&#xc8;" horiz-adv-x="591" 
d="M10 0q-3 24 0 45l68 18q18 4 30 21t14 39l36 481q2 13 -4 25.5t-18 16.5l-72 26q0 18 7 35h474l-11 -157q-17 -3 -47 0q-6 47 -22.5 68.5t-53.5 22.5l-164 6l-18 -261l252 5l-5 -72l-251 5l-13 -263l170 4q50 1 85 31.5t52 71.5l39 -6l-29 -162h-519zM401 740
q-123 26 -207 60q13 42 28 63q89 -45 192 -84q-5 -25 -13 -39z" />
    <glyph glyph-name="Eacute" unicode="&#xc9;" horiz-adv-x="591" 
d="M10 0q-3 24 0 45l68 18q18 4 30 21t14 39l36 481q2 13 -4 25.5t-18 16.5l-72 26q0 18 7 35h474l-11 -157q-17 -3 -47 0q-6 47 -22.5 68.5t-53.5 22.5l-164 6l-18 -261l252 5l-5 -72l-251 5l-13 -263l170 4q50 1 85 31.5t52 71.5l39 -6l-29 -162h-519zM289 740
q-8 14 -13 39q103 39 192 84q15 -21 28 -63q-84 -34 -207 -60z" />
    <glyph glyph-name="Ecircumflex" unicode="&#xca;" horiz-adv-x="591" 
d="M10 0q-3 24 0 45l68 18q18 4 30 21t14 39l36 481q2 13 -4 25.5t-18 16.5l-72 26q0 18 7 35h474l-11 -157q-17 -3 -47 0q-6 47 -22.5 68.5t-53.5 22.5l-164 6l-18 -261l252 5l-5 -72l-251 5l-13 -263l170 4q50 1 85 31.5t52 71.5l39 -6l-29 -162h-519zM484 733
q-81 29 -137 78q-50 -38 -145 -72q-12 16 -18 37q114 63 175 118q38 -47 161 -110q-17 -31 -36 -51z" />
    <glyph glyph-name="Edieresis" unicode="&#xcb;" horiz-adv-x="591" 
d="M10 0q-3 24 0 45l68 18q18 4 30 21t14 39l36 481q2 13 -4 25.5t-18 16.5l-72 26q0 18 7 35h474l-11 -157q-17 -3 -47 0q-6 47 -22.5 68.5t-53.5 22.5l-164 6l-18 -261l252 5l-5 -72l-251 5l-13 -263l170 4q50 1 85 31.5t52 71.5l39 -6l-29 -162h-519zM226 741
q-10 0 -33.5 26.5t-21.5 35.5q1 10 30 36t38 26q10 0 34 -26t23 -36q-2 -8 -31 -35t-39 -27zM444 741q-10 0 -33.5 26.5t-21.5 35.5q1 10 30 36t38 26q10 0 34 -26t23 -36q-2 -8 -31 -35t-39 -27z" />
    <glyph glyph-name="Igrave" unicode="&#xcc;" horiz-adv-x="336" 
d="M12 0q-3 19 -1 40l54 21q38 14 44 72l32 441q6 62 -46 82l-37 14q-2 21 4 37h257q2 -15 0 -41l-40 -8q-24 -6 -36.5 -29.5t-14.5 -51.5l-30 -476q-2 -19 3 -27t21 -12l77 -16q-3 -31 -7 -46h-280zM234 740q-123 26 -207 60q13 42 28 63q89 -45 192 -84q-5 -25 -13 -39z
" />
    <glyph glyph-name="Iacute" unicode="&#xcd;" horiz-adv-x="336" 
d="M12 0q-3 19 -1 40l54 21q38 14 44 72l32 441q6 62 -46 82l-37 14q-2 21 4 37h257q2 -15 0 -41l-40 -8q-24 -6 -36.5 -29.5t-14.5 -51.5l-30 -476q-2 -19 3 -27t21 -12l77 -16q-3 -31 -7 -46h-280zM122 740q-8 14 -13 39q103 39 192 84q15 -21 28 -63q-84 -34 -207 -60z
" />
    <glyph glyph-name="Icircumflex" unicode="&#xce;" horiz-adv-x="336" 
d="M12 0q-3 19 -1 40l54 21q38 14 44 72l32 441q6 62 -46 82l-37 14q-2 21 4 37h257q2 -15 0 -41l-40 -8q-24 -6 -36.5 -29.5t-14.5 -51.5l-30 -476q-2 -19 3 -27t21 -12l77 -16q-3 -31 -7 -46h-280zM336 733q-81 29 -137 78q-50 -38 -145 -72q-12 16 -18 37q114 63 175 118
q38 -47 161 -110q-17 -31 -36 -51z" />
    <glyph glyph-name="Idieresis" unicode="&#xcf;" horiz-adv-x="336" 
d="M12 0q-3 19 -1 40l54 21q38 14 44 72l32 441q6 62 -46 82l-37 14q-2 21 4 37h257q2 -15 0 -41l-40 -8q-24 -6 -36.5 -29.5t-14.5 -51.5l-30 -476q-2 -19 3 -27t21 -12l77 -16q-3 -31 -7 -46h-280zM77 741q-10 0 -33.5 26.5t-21.5 35.5q1 10 30 36t38 26q10 0 34 -26
t23 -36q-2 -8 -31 -35t-39 -27zM295 741q-10 0 -33.5 26.5t-21.5 35.5q1 10 30 36t38 26q10 0 34 -26t23 -36q-2 -8 -31 -35t-39 -27z" />
    <glyph glyph-name="Eth" unicode="&#xd0;" horiz-adv-x="718" 
d="M10 0l-3 48l70 18q39 10 43 68l16 204h-92l4 59h92l16 209q2 28 -21 36l-72 24q0 21 7 41l261 5q162 3 258 -77t96 -243q0 -194 -102.5 -293t-294.5 -99h-278zM213 66l71 2q150 4 220 83t70 231q0 258 -250 258h-76l-15 -243h172l-4 -59h-171z" />
    <glyph glyph-name="Ntilde" unicode="&#xd1;" horiz-adv-x="802" 
d="M576 -21l-351 614h-11l4 -83l-26 -399q-1 -19 3 -26.5t20 -13.5l81 -29q0 -20 -6 -42h-278q-3 19 -1 40l58 18q23 7 38 33t17 53l30 451q1 18 -6.5 33.5t-20.5 20.5l-54 21q3 30 5 37h198l319 -547h11l-3 109l22 313q1 21 -9 41t-26 26l-59 21q3 27 6 37h258q2 -22 1 -35
l-58 -16q-19 -6 -32.5 -27t-15.5 -45l-41 -583zM532 752q-14 0 -57.5 18t-56.5 18q-32 0 -103 -33l-22 33q117 76 141 76q20 0 69.5 -19.5t59.5 -19.5q15 0 46 26l29 -30q-69 -69 -106 -69z" />
    <glyph glyph-name="Ograve" unicode="&#xd2;" horiz-adv-x="726" 
d="M338 -11q-141 0 -217 88t-76 234q0 108 42.5 200.5t126.5 150.5t192 58q135 0 209.5 -90t74.5 -231q0 -109 -39 -200.5t-121 -150.5t-192 -59zM357 59q71 0 126 50t81 120.5t26 143.5q0 74 -19 134t-67.5 102t-120.5 42q-75 0 -130.5 -49.5t-80.5 -119t-25 -145.5
q0 -55 11 -102.5t34 -88t65.5 -64t99.5 -23.5zM431 740q-123 26 -207 60q13 42 28 63q89 -45 192 -84q-5 -25 -13 -39z" />
    <glyph glyph-name="Oacute" unicode="&#xd3;" horiz-adv-x="726" 
d="M338 -11q-141 0 -217 88t-76 234q0 108 42.5 200.5t126.5 150.5t192 58q135 0 209.5 -90t74.5 -231q0 -109 -39 -200.5t-121 -150.5t-192 -59zM357 59q71 0 126 50t81 120.5t26 143.5q0 74 -19 134t-67.5 102t-120.5 42q-75 0 -130.5 -49.5t-80.5 -119t-25 -145.5
q0 -55 11 -102.5t34 -88t65.5 -64t99.5 -23.5zM314 740q-8 14 -13 39q103 39 192 84q15 -21 28 -63q-84 -34 -207 -60z" />
    <glyph glyph-name="Ocircumflex" unicode="&#xd4;" horiz-adv-x="726" 
d="M338 -11q-141 0 -217 88t-76 234q0 108 42.5 200.5t126.5 150.5t192 58q135 0 209.5 -90t74.5 -231q0 -109 -39 -200.5t-121 -150.5t-192 -59zM357 59q71 0 126 50t81 120.5t26 143.5q0 74 -19 134t-67.5 102t-120.5 42q-75 0 -130.5 -49.5t-80.5 -119t-25 -145.5
q0 -55 11 -102.5t34 -88t65.5 -64t99.5 -23.5zM549 733q-81 29 -137 78q-50 -38 -145 -72q-12 16 -18 37q114 63 175 118q38 -47 161 -110q-17 -31 -36 -51z" />
    <glyph glyph-name="Otilde" unicode="&#xd5;" horiz-adv-x="726" 
d="M338 -11q-141 0 -217 88t-76 234q0 108 42.5 200.5t126.5 150.5t192 58q135 0 209.5 -90t74.5 -231q0 -109 -39 -200.5t-121 -150.5t-192 -59zM357 59q71 0 126 50t81 120.5t26 143.5q0 74 -19 134t-67.5 102t-120.5 42q-75 0 -130.5 -49.5t-80.5 -119t-25 -145.5
q0 -55 11 -102.5t34 -88t65.5 -64t99.5 -23.5zM470 752q-14 0 -57.5 18t-56.5 18q-32 0 -103 -33l-22 33q117 76 141 76q20 0 69.5 -19.5t59.5 -19.5q15 0 46 26l29 -30q-69 -69 -106 -69z" />
    <glyph glyph-name="Odieresis" unicode="&#xd6;" horiz-adv-x="726" 
d="M338 -11q-141 0 -217 88t-76 234q0 108 42.5 200.5t126.5 150.5t192 58q135 0 209.5 -90t74.5 -231q0 -109 -39 -200.5t-121 -150.5t-192 -59zM357 59q71 0 126 50t81 120.5t26 143.5q0 74 -19 134t-67.5 102t-120.5 42q-75 0 -130.5 -49.5t-80.5 -119t-25 -145.5
q0 -55 11 -102.5t34 -88t65.5 -64t99.5 -23.5zM278 741q-10 0 -33.5 26.5t-21.5 35.5q1 10 30 36t38 26q10 0 34 -26t23 -36q-2 -8 -31 -35t-39 -27zM496 741q-10 0 -33.5 26.5t-21.5 35.5q1 10 30 36t38 26q10 0 34 -26t23 -36q-2 -8 -31 -35t-39 -27z" />
    <glyph glyph-name="multiply" unicode="&#xd7;" 
d="M106 40l-43 44l224 219l-177 218l52 44l174 -215l220 215l42 -44l-224 -218l179 -219l-51 -44l-176 215z" />
    <glyph glyph-name="Oslash" unicode="&#xd8;" horiz-adv-x="726" 
d="M14 -22l-36 34l112 109q-45 78 -45 190q0 108 42.5 200.5t126.5 150.5t192 58q119 0 194 -73l85 95l36 -33l-89 -100q58 -85 58 -210q0 -109 -39 -200.5t-121 -150.5t-192 -59q-141 0 -219 91zM357 59q71 0 126 50t81 120.5t26 143.5q0 92 -30 159l-370 -382
q54 -91 167 -91zM168 199l367 378q-54 74 -152 74q-75 0 -130.5 -49.5t-80.5 -119t-25 -145.5q0 -75 21 -138z" />
    <glyph glyph-name="Ugrave" unicode="&#xd9;" horiz-adv-x="768" 
d="M344 -13q-108 0 -171 48t-63 169q0 23 1 35l24 356q2 17 -5.5 33t-21.5 21l-59 21q0 22 6 38h278q1 -20 -2 -43l-66 -11q-28 -5 -30 -34l-26 -374q-8 -110 37.5 -152t132.5 -42q88 0 133 47.5t53 170.5l20 317q2 55 -50 71l-40 12q0 2 3 38h264q1 -15 -1 -40l-59 -16
q-30 -8 -32 -42l-24 -343q-10 -149 -92.5 -214.5t-209.5 -65.5zM449 740q-123 26 -207 60q13 42 28 63q89 -45 192 -84q-5 -25 -13 -39z" />
    <glyph glyph-name="Uacute" unicode="&#xda;" horiz-adv-x="768" 
d="M344 -13q-108 0 -171 48t-63 169q0 23 1 35l24 356q2 17 -5.5 33t-21.5 21l-59 21q0 22 6 38h278q1 -20 -2 -43l-66 -11q-28 -5 -30 -34l-26 -374q-8 -110 37.5 -152t132.5 -42q88 0 133 47.5t53 170.5l20 317q2 55 -50 71l-40 12q0 2 3 38h264q1 -15 -1 -40l-59 -16
q-30 -8 -32 -42l-24 -343q-10 -149 -92.5 -214.5t-209.5 -65.5zM361 740q-8 14 -13 39q103 39 192 84q15 -21 28 -63q-84 -34 -207 -60z" />
    <glyph glyph-name="Ucircumflex" unicode="&#xdb;" horiz-adv-x="768" 
d="M344 -13q-108 0 -171 48t-63 169q0 23 1 35l24 356q2 17 -5.5 33t-21.5 21l-59 21q0 22 6 38h278q1 -20 -2 -43l-66 -11q-28 -5 -30 -34l-26 -374q-8 -110 37.5 -152t132.5 -42q88 0 133 47.5t53 170.5l20 317q2 55 -50 71l-40 12q0 2 3 38h264q1 -15 -1 -40l-59 -16
q-30 -8 -32 -42l-24 -343q-10 -149 -92.5 -214.5t-209.5 -65.5zM568 733q-81 29 -137 78q-50 -38 -145 -72q-12 16 -18 37q114 63 175 118q38 -47 161 -110q-17 -31 -36 -51z" />
    <glyph glyph-name="Udieresis" unicode="&#xdc;" horiz-adv-x="768" 
d="M344 -13q-108 0 -171 48t-63 169q0 23 1 35l24 356q2 17 -5.5 33t-21.5 21l-59 21q0 22 6 38h278q1 -20 -2 -43l-66 -11q-28 -5 -30 -34l-26 -374q-8 -110 37.5 -152t132.5 -42q88 0 133 47.5t53 170.5l20 317q2 55 -50 71l-40 12q0 2 3 38h264q1 -15 -1 -40l-59 -16
q-30 -8 -32 -42l-24 -343q-10 -149 -92.5 -214.5t-209.5 -65.5zM306 741q-10 0 -33.5 26.5t-21.5 35.5q1 10 30 36t38 26q10 0 34 -26t23 -36q-2 -8 -31 -35t-39 -27zM524 741q-10 0 -33.5 26.5t-21.5 35.5q1 10 30 36t38 26q10 0 34 -26t23 -36q-2 -8 -31 -35t-39 -27z" />
    <glyph glyph-name="Yacute" unicode="&#xdd;" horiz-adv-x="623" 
d="M132 0q-2 32 0 46l70 18q38 9 43 59l16 185l-166 289q-17 28 -39 48q-6 6 -17.5 15.5t-15.5 12.5q0 24 4 34h237q1 -19 0 -36l-50 -19q-18 -6 -18 -33q0 -20 10 -39l113 -211l150 216q10 15 7 34t-17 26l-52 27q0 22 4 35h233q1 -12 1 -35q-55 -22 -83 -61l-215 -303
l-11 -187q-2 -19 5.5 -36t21.5 -21l81 -22q-3 -26 -7 -42h-305zM300 740q-8 14 -13 39q103 39 192 84q15 -21 28 -63q-84 -34 -207 -60z" />
    <glyph glyph-name="Thorn" unicode="&#xde;" horiz-adv-x="566" 
d="M20 0q-2 28 0 40l53 21q40 15 44 72l33 441q4 63 -46 82l-38 14q0 24 4 37h258q2 -25 -1 -41l-40 -8q-24 -5 -36.5 -29.5t-14.5 -52.5h104q209 0 209 -190q0 -97 -64.5 -159t-165.5 -62q-23 0 -45 3l5 56h25q143 0 143 142q0 40 -13 68t-30.5 43t-50 24t-57 11t-64.5 3
l-26 -414q-2 -19 3 -27t22 -12l76 -16q-3 -36 -7 -46h-280z" />
    <glyph glyph-name="germandbls" unicode="&#xdf;" horiz-adv-x="546" 
d="M43 -220l65 707h-79l6 59h79l2 24q8 87 68 142.5t151 55.5q34 0 68.5 -8.5t65 -34.5t30.5 -64q0 -43 -20.5 -81.5t-45.5 -60t-45.5 -41t-20.5 -29.5q0 -31 16 -63t39.5 -60l46.5 -56t39 -60.5t16 -63.5q0 -75 -59.5 -115.5t-138.5 -40.5q-56 0 -118 26q9 48 29 87l35 -12
t32.5 -11t27 -7t34 -5.5t38.5 -1.5q16 0 30.5 9t14.5 24q0 28 -25.5 68t-56 75.5t-56 85t-25.5 93.5q0 19 14 39.5t34 41l40 43t34 53t14 64.5q-32 46 -129 46q-46 0 -67 -34.5t-27 -99.5l-61 -666v-128h-95z" />
    <glyph glyph-name="agrave" unicode="&#xe0;" horiz-adv-x="528" 
d="M116 -13q-45 0 -61.5 22t-16.5 70q0 75 14 150.5t45 151.5t91.5 123.5t141.5 47.5q60 0 118 -27l-48 -444l84 1v-24q-70 -70 -128 -70q-43 0 -43 39q0 10 8 82q-54 -57 -102 -89.5t-103 -32.5zM147 68q17 0 37 7.5t42 21.5l37.5 24.5t37.5 28l27 21.5l34 292
q-29 18 -79 18q-44 0 -77.5 -49t-50 -120t-24.5 -133.5t-8 -106.5q11 -4 24 -4zM347 615q-65 55 -162 154q26 33 52 50q60 -80 142 -175q-8 -15 -32 -29z" />
    <glyph glyph-name="aacute" unicode="&#xe1;" horiz-adv-x="528" 
d="M116 -13q-45 0 -61.5 22t-16.5 70q0 75 14 150.5t45 151.5t91.5 123.5t141.5 47.5q60 0 118 -27l-48 -444l84 1v-24q-70 -70 -128 -70q-43 0 -43 39q0 10 8 82q-54 -57 -102 -89.5t-103 -32.5zM147 68q17 0 37 7.5t42 21.5l37.5 24.5t37.5 28l27 21.5l34 292
q-29 18 -79 18q-44 0 -77.5 -49t-50 -120t-24.5 -133.5t-8 -106.5q11 -4 24 -4zM318 615q-24 14 -32 29q82 95 142 175q26 -17 52 -50q-97 -99 -162 -154z" />
    <glyph glyph-name="acircumflex" unicode="&#xe2;" horiz-adv-x="528" 
d="M116 -13q-45 0 -61.5 22t-16.5 70q0 75 14 150.5t45 151.5t91.5 123.5t141.5 47.5q60 0 118 -27l-48 -444l84 1v-24q-70 -70 -128 -70q-43 0 -43 39q0 10 8 82q-54 -57 -102 -89.5t-103 -32.5zM147 68q17 0 37 7.5t42 21.5l37.5 24.5t37.5 28l27 21.5l34 292
q-29 18 -79 18q-44 0 -77.5 -49t-50 -120t-24.5 -133.5t-8 -106.5q11 -4 24 -4zM440 607q-62 67 -95 111q-57 -49 -140 -102q-12 12 -25 39q53 33 90 65.5t89 89.5q47 -64 133 -157q-29 -33 -52 -46z" />
    <glyph glyph-name="atilde" unicode="&#xe3;" horiz-adv-x="528" 
d="M116 -13q-45 0 -61.5 22t-16.5 70q0 75 14 150.5t45 151.5t91.5 123.5t141.5 47.5q60 0 118 -27l-48 -444l84 1v-24q-70 -70 -128 -70q-43 0 -43 39q0 10 8 82q-54 -57 -102 -89.5t-103 -32.5zM147 68q17 0 37 7.5t42 21.5l37.5 24.5t37.5 28l27 21.5l34 292
q-29 18 -79 18q-44 0 -77.5 -49t-50 -120t-24.5 -133.5t-8 -106.5q11 -4 24 -4zM404 655q-14 0 -57.5 18t-56.5 18q-32 0 -103 -33l-22 33q117 76 141 76q20 0 69.5 -19.5t59.5 -19.5q15 0 46 26l29 -30q-69 -69 -106 -69z" />
    <glyph glyph-name="adieresis" unicode="&#xe4;" horiz-adv-x="528" 
d="M116 -13q-45 0 -61.5 22t-16.5 70q0 75 14 150.5t45 151.5t91.5 123.5t141.5 47.5q60 0 118 -27l-48 -444l84 1v-24q-70 -70 -128 -70q-43 0 -43 39q0 10 8 82q-54 -57 -102 -89.5t-103 -32.5zM147 68q17 0 37 7.5t42 21.5l37.5 24.5t37.5 28l27 21.5l34 292
q-29 18 -79 18q-44 0 -77.5 -49t-50 -120t-24.5 -133.5t-8 -106.5q11 -4 24 -4zM222 655q-10 0 -33.5 26.5t-21.5 35.5q1 10 30 36t38 26t33 -26t23 -36q-1 -8 -30 -35t-39 -27zM440 655q-10 0 -33.5 26.5t-21.5 35.5q1 10 30 36t38 26t33 -26t23 -36q-1 -8 -30 -35t-39 -27
z" />
    <glyph glyph-name="aring" unicode="&#xe5;" horiz-adv-x="528" 
d="M116 -13q-45 0 -61.5 22t-16.5 70q0 75 14 150.5t45 151.5t91.5 123.5t141.5 47.5q60 0 118 -27l-48 -444l84 1v-24q-70 -70 -128 -70q-43 0 -43 39q0 10 8 82q-54 -57 -102 -89.5t-103 -32.5zM147 68q17 0 37 7.5t42 21.5l37.5 24.5t37.5 28l27 21.5l34 292
q-29 18 -79 18q-44 0 -77.5 -49t-50 -120t-24.5 -133.5t-8 -106.5q11 -4 24 -4zM357 662q45 0 42 85v21q-28 18 -69 18q-20 0 -32 -18.5t-15 -37.5t-2 -39v-12q22 -17 76 -17zM337 615q-116 0 -116 79q0 55 35 96.5t89 41.5q112 0 112 -92q0 -51 -35 -88t-85 -37z" />
    <glyph glyph-name="ae" unicode="&#xe6;" horiz-adv-x="687" 
d="M119 -13q-46 0 -61.5 22.5t-15.5 72.5q0 58 8 118t29.5 125.5t54 115.5t85.5 82.5t120 32.5q46 0 100 -25q49 27 114 27q56 0 88 -23t32 -64q0 -97 -70 -152t-223 -82q-4 -53 -4 -152q30 -14 53 -14q53 0 169 53l21 -44q-45 -40 -105 -66.5t-117 -26.5q-48 0 -71.5 19
t-32.5 69q-92 -88 -174 -88zM148 68q46 0 140 74v17q0 197 79 308q-34 18 -76 18t-76.5 -50t-53 -121t-28 -135.5t-9.5 -106.5q9 -4 24 -4zM385 290q81 16 122.5 37t55 47t13.5 71q0 49 -70 49q-94 0 -121 -204z" />
    <glyph glyph-name="ccedilla" unicode="&#xe7;" horiz-adv-x="418" 
d="M140 -267q-34 0 -64 15l15 46q30 -6 60 -6q61 0 61 26q0 19 -36.5 43t-36.5 41q0 44 63 100q-38 -11 -69 -11q-96 0 -96 91q0 477 253 477q73 0 118 -27q-2 -54 -25 -84q-64 40 -137 40q-120 0 -119 -395v-11q19 -10 47 -10q51 0 181 65l22 -43q-28 -25 -75 -51
q-18 -12 -61.5 -53t-43.5 -50q0 -7 23.5 -19.5t47 -32t23.5 -45.5q0 -42 -53 -74t-98 -32z" />
    <glyph glyph-name="egrave" unicode="&#xe8;" horiz-adv-x="434" 
d="M150 -13q-62 0 -85.5 35.5t-23.5 136.5q0 71 11.5 134.5t39 126.5t82.5 100.5t132 37.5q56 0 88 -23t32 -64q0 -97 -70 -152t-223 -82q-4 -53 -4 -152q30 -14 53 -14q53 0 169 53l21 -44q-45 -40 -105 -66.5t-117 -26.5zM138 290q81 16 122.5 37t55 47t13.5 71
q0 49 -70 49q-94 0 -121 -204zM312 615q-65 55 -162 154q26 33 52 50q60 -80 142 -175q-8 -15 -32 -29z" />
    <glyph glyph-name="eacute" unicode="&#xe9;" horiz-adv-x="434" 
d="M150 -13q-62 0 -85.5 35.5t-23.5 136.5q0 71 11.5 134.5t39 126.5t82.5 100.5t132 37.5q56 0 88 -23t32 -64q0 -97 -70 -152t-223 -82q-4 -53 -4 -152q30 -14 53 -14q53 0 169 53l21 -44q-45 -40 -105 -66.5t-117 -26.5zM138 290q81 16 122.5 37t55 47t13.5 71
q0 49 -70 49q-94 0 -121 -204zM263 615q-24 14 -32 29q82 95 142 175q26 -17 52 -50q-97 -99 -162 -154z" />
    <glyph glyph-name="ecircumflex" unicode="&#xea;" horiz-adv-x="434" 
d="M150 -13q-62 0 -85.5 35.5t-23.5 136.5q0 71 11.5 134.5t39 126.5t82.5 100.5t132 37.5q56 0 88 -23t32 -64q0 -97 -70 -152t-223 -82q-4 -53 -4 -152q30 -14 53 -14q53 0 169 53l21 -44q-45 -40 -105 -66.5t-117 -26.5zM138 290q81 16 122.5 37t55 47t13.5 71
q0 49 -70 49q-94 0 -121 -204zM397 607q-62 67 -95 111q-57 -49 -140 -102q-12 12 -25 39q53 33 90 65.5t89 89.5q47 -64 133 -157q-29 -33 -52 -46z" />
    <glyph glyph-name="edieresis" unicode="&#xeb;" horiz-adv-x="434" 
d="M150 -13q-62 0 -85.5 35.5t-23.5 136.5q0 71 11.5 134.5t39 126.5t82.5 100.5t132 37.5q56 0 88 -23t32 -64q0 -97 -70 -152t-223 -82q-4 -53 -4 -152q30 -14 53 -14q53 0 169 53l21 -44q-45 -40 -105 -66.5t-117 -26.5zM138 290q81 16 122.5 37t55 47t13.5 71
q0 49 -70 49q-94 0 -121 -204zM186 655q-10 0 -33.5 26.5t-21.5 35.5q1 10 30 36t38 26t33 -26t23 -36q-1 -8 -30 -35t-39 -27zM404 655q-10 0 -33.5 26.5t-21.5 35.5q1 10 30 36t38 26t33 -26t23 -36q-1 -8 -30 -35t-39 -27z" />
    <glyph glyph-name="igrave" unicode="&#xec;" horiz-adv-x="259" 
d="M91 -12q-43 0 -43 40q0 6 7 69l43 432l83 34l-48 -483h86v-21q-71 -71 -128 -71zM147 615q-65 55 -162 154q26 33 52 50q60 -80 142 -175q-8 -15 -32 -29z" />
    <glyph glyph-name="iacute" unicode="&#xed;" horiz-adv-x="259" 
d="M91 -12q-43 0 -43 40q0 6 7 69l43 432l83 34l-48 -483h86v-21q-71 -71 -128 -71zM146 615q-24 14 -32 29q82 95 142 175q26 -17 52 -50q-97 -99 -162 -154z" />
    <glyph glyph-name="icircumflex" unicode="&#xee;" horiz-adv-x="259" 
d="M91 -12q-43 0 -43 40q0 6 7 69l43 432l83 34l-48 -483h86v-21q-71 -71 -128 -71zM267 607q-62 67 -95 111q-57 -49 -140 -102q-12 12 -25 39q53 33 90 65.5t89 89.5q47 -64 133 -157q-29 -33 -52 -46z" />
    <glyph glyph-name="idieresis" unicode="&#xef;" horiz-adv-x="259" 
d="M91 -12q-43 0 -43 40q0 6 7 69l43 432l83 34l-48 -483h86v-21q-71 -71 -128 -71zM41 655q-10 0 -33.5 26.5t-21.5 35.5q1 10 30 36t38 26t33 -26t23 -36q-1 -8 -30 -35t-39 -27zM259 655q-10 0 -33.5 26.5t-21.5 35.5q1 10 30 36t38 26t33 -26t23 -36q-1 -8 -30 -35
t-39 -27z" />
    <glyph glyph-name="eth" unicode="&#xf0;" horiz-adv-x="488" 
d="M206 -12q-99 0 -132.5 37.5t-33.5 136.5q0 60 12.5 124.5t37 126.5t70.5 102t104 40q37 0 69 -8q-14 43 -35 90l-83 -36l-19 49l78 33q-25 39 -47 63l43 42q42 -35 70 -77l82 36l20 -47l-75 -33q39 -68 61 -148.5t22 -147.5q0 -59 -15 -123t-43 -123.5t-77 -98
t-109 -38.5zM243 61q29 0 53 32t38 81t21 102t7 102q0 45 -6 72q-15 14 -49.5 25t-57.5 11q-36 0 -61 -32.5t-37 -86t-17 -103.5t-5 -103q0 -38 2 -68q33 -32 112 -32z" />
    <glyph glyph-name="ntilde" unicode="&#xf1;" horiz-adv-x="544" 
d="M369 -12q-42 0 -42 40q0 26 5 61l50 364q-14 4 -22 4q-42 0 -102.5 -32t-87.5 -57l-24 -207v-161h-97l55 527l85 35l-13 -134q47 50 110.5 87.5t110.5 37.5q36 0 51 -14t15 -47q0 -17 -3 -41l-49 -369h86v-21q-71 -73 -128 -73zM393 655q-14 0 -57.5 18t-56.5 18
q-31 0 -103 -33l-22 33q117 76 141 76q20 0 69.5 -19.5t59.5 -19.5q15 0 46 26l29 -30q-69 -69 -106 -69z" />
    <glyph glyph-name="ograve" unicode="&#xf2;" horiz-adv-x="480" 
d="M243 61q54 0 82 95.5t28 206.5q0 50 -7 87q-40 36 -107 36q-33 0 -56.5 -28.5t-35 -76t-16 -94.5t-4.5 -99q0 -55 4 -95q33 -32 112 -32zM206 -12q-86 0 -126 39.5t-40 124.5q0 48 6 99t22 106.5t39 98.5t61.5 71t85.5 28q186 0 186 -174q0 -60 -13 -124.5t-39.5 -126.5
t-74 -102t-107.5 -40zM295 615q-65 55 -162 154q26 33 52 50q60 -80 142 -175q-8 -15 -32 -29z" />
    <glyph glyph-name="oacute" unicode="&#xf3;" horiz-adv-x="480" 
d="M243 61q54 0 82 95.5t28 206.5q0 50 -7 87q-40 36 -107 36q-33 0 -56.5 -28.5t-35 -76t-16 -94.5t-4.5 -99q0 -55 4 -95q33 -32 112 -32zM206 -12q-86 0 -126 39.5t-40 124.5q0 48 6 99t22 106.5t39 98.5t61.5 71t85.5 28q186 0 186 -174q0 -60 -13 -124.5t-39.5 -126.5
t-74 -102t-107.5 -40zM249 615q-24 14 -32 29q82 95 142 175q26 -17 52 -50q-97 -99 -162 -154z" />
    <glyph glyph-name="ocircumflex" unicode="&#xf4;" horiz-adv-x="480" 
d="M243 61q54 0 82 95.5t28 206.5q0 50 -7 87q-40 36 -107 36q-33 0 -56.5 -28.5t-35 -76t-16 -94.5t-4.5 -99q0 -55 4 -95q33 -32 112 -32zM206 -12q-86 0 -126 39.5t-40 124.5q0 48 6 99t22 106.5t39 98.5t61.5 71t85.5 28q186 0 186 -174q0 -60 -13 -124.5t-39.5 -126.5
t-74 -102t-107.5 -40zM385 607q-62 67 -95 111q-57 -49 -140 -102q-12 12 -25 39q53 33 90 65.5t89 89.5q47 -64 133 -157q-29 -33 -52 -46z" />
    <glyph glyph-name="otilde" unicode="&#xf5;" horiz-adv-x="480" 
d="M243 61q54 0 82 95.5t28 206.5q0 50 -7 87q-40 36 -107 36q-33 0 -56.5 -28.5t-35 -76t-16 -94.5t-4.5 -99q0 -55 4 -95q33 -32 112 -32zM206 -12q-86 0 -126 39.5t-40 124.5q0 48 6 99t22 106.5t39 98.5t61.5 71t85.5 28q186 0 186 -174q0 -60 -13 -124.5t-39.5 -126.5
t-74 -102t-107.5 -40zM354 655q-14 0 -57.5 18t-56.5 18q-31 0 -103 -33l-22 33q117 76 141 76q20 0 69.5 -19.5t59.5 -19.5q15 0 46 26l29 -30q-69 -69 -106 -69z" />
    <glyph glyph-name="odieresis" unicode="&#xf6;" horiz-adv-x="480" 
d="M243 61q54 0 82 95.5t28 206.5q0 50 -7 87q-40 36 -107 36q-33 0 -56.5 -28.5t-35 -76t-16 -94.5t-4.5 -99q0 -55 4 -95q33 -32 112 -32zM206 -12q-86 0 -126 39.5t-40 124.5q0 48 6 99t22 106.5t39 98.5t61.5 71t85.5 28q186 0 186 -174q0 -60 -13 -124.5t-39.5 -126.5
t-74 -102t-107.5 -40zM175 655q-10 0 -33.5 26.5t-21.5 35.5q1 10 30 36t38 26t33 -26t23 -36q-1 -8 -30 -35t-39 -27zM393 655q-10 0 -33.5 26.5t-21.5 35.5q1 10 30 36t38 26t33 -26t23 -36q-1 -8 -30 -35t-39 -27z" />
    <glyph glyph-name="divide" unicode="&#xf7;" 
d="M308 36q-10 0 -34 28t-23 38t31.5 37t39.5 27q10 0 34.5 -27t23.5 -37q-1 -9 -31 -37.5t-41 -28.5zM348 427q-10 0 -34 28t-23 38t31.5 37t39.5 27q10 0 34.5 -27t23.5 -37q-1 -9 -31 -37.5t-41 -28.5zM88 270l7 65h480l-7 -65h-480z" />
    <glyph glyph-name="oslash" unicode="&#xf8;" horiz-adv-x="488" 
d="M-7 -36l-38 32l90 97q-5 25 -5 69q0 60 12.5 124.5t37 126.5t70.5 102t104 40q94 0 140 -48l63 78l37 -32l-71 -89q17 -40 17 -93q0 -59 -15 -123t-43 -123.5t-77 -98t-109 -38.5q-109 0 -142 51zM243 61q29 0 53 32t38 81.5t21 102.5t7 101l-232 -267l1 -18
q33 -32 112 -32zM129 188l227 262q-8 6 -13 9q-47 27 -94 27q-33 0 -57.5 -28.5t-37 -76t-18.5 -94.5t-7 -99z" />
    <glyph glyph-name="ugrave" unicode="&#xf9;" horiz-adv-x="531" 
d="M117 -13q-75 0 -66 103l40 437l84 33l-41 -490q10 -5 20 -5q31 0 95 47t92 76l37 339l85 33l-54 -479h90v-20q-69 -71 -128 -71q-42 0 -42 40q0 14 1 24l7 79q-52 -69 -102 -107.5t-118 -38.5zM315 615q-65 55 -162 154q26 33 52 50q60 -80 142 -175q-8 -15 -32 -29z" />
    <glyph glyph-name="uacute" unicode="&#xfa;" horiz-adv-x="531" 
d="M117 -13q-75 0 -66 103l40 437l84 33l-41 -490q10 -5 20 -5q31 0 95 47t92 76l37 339l85 33l-54 -479h90v-20q-69 -71 -128 -71q-42 0 -42 40q0 14 1 24l7 79q-52 -69 -102 -107.5t-118 -38.5zM308 615q-24 14 -32 29q82 95 142 175q26 -17 52 -50q-97 -99 -162 -154z
" />
    <glyph glyph-name="ucircumflex" unicode="&#xfb;" horiz-adv-x="531" 
d="M117 -13q-75 0 -66 103l40 437l84 33l-41 -490q10 -5 20 -5q31 0 95 47t92 76l37 339l85 33l-54 -479h90v-20q-69 -71 -128 -71q-42 0 -42 40q0 14 1 24l7 79q-52 -69 -102 -107.5t-118 -38.5zM395 607q-62 67 -95 111q-57 -49 -140 -102q-12 12 -25 39q53 33 90 65.5
t89 89.5q47 -64 133 -157q-29 -33 -52 -46z" />
    <glyph glyph-name="udieresis" unicode="&#xfc;" horiz-adv-x="531" 
d="M117 -13q-75 0 -66 103l40 437l84 33l-41 -490q10 -5 20 -5q31 0 95 47t92 76l37 339l85 33l-54 -479h90v-20q-69 -71 -128 -71q-42 0 -42 40q0 14 1 24l7 79q-52 -69 -102 -107.5t-118 -38.5zM177 655q-10 0 -33.5 26.5t-21.5 35.5q1 10 30 36t38 26t33 -26t23 -36
q-1 -8 -30 -35t-39 -27zM395 655q-10 0 -33.5 26.5t-21.5 35.5q1 10 30 36t38 26t33 -26t23 -36q-1 -8 -30 -35t-39 -27z" />
    <glyph glyph-name="yacute" unicode="&#xfd;" horiz-adv-x="458" 
d="M68 -220l108 220h-52l-47 390l-57 127q72 38 123 38l63 -515l135 320q6 13 9 33v153h100q1 -7 1 -29q0 -29 -8 -62t-14 -48.5t-23 -54.5l-247 -572h-91zM276 615q-24 14 -32 29q82 95 142 175q26 -17 52 -50q-97 -99 -162 -154z" />
    <glyph glyph-name="thorn" unicode="&#xfe;" horiz-adv-x="498" 
d="M17 -220l99 909h-98v51q82 20 150 20q20 0 27.5 -7t5.5 -24l-32 -298q111 118 192 118q62 0 83.5 -29.5t21.5 -119.5q0 -108 -31 -200t-95 -151t-150 -59q-30 0 -64 9l-12 -114v-105h-97zM211 57q30 0 55.5 14t42 40t30 55t21 67.5t12 69.5t6.5 68.5t2.5 56t0.5 41.5
q-17 5 -31 5q-81 0 -188 -112l-29 -282q52 -23 78 -23z" />
    <glyph glyph-name="ydieresis" unicode="&#xff;" horiz-adv-x="458" 
d="M68 -220l108 220h-52l-47 390l-57 127q72 38 123 38l63 -515l135 320q6 13 9 33v153h100q1 -7 1 -29q0 -29 -8 -62t-14 -48.5t-23 -54.5l-247 -572h-91zM161 655q-10 0 -33.5 26.5t-21.5 35.5q1 10 30 36t38 26t33 -26t23 -36q-1 -8 -30 -35t-39 -27zM379 655
q-10 0 -33.5 26.5t-21.5 35.5q1 10 30 36t38 26t33 -26t23 -36q-1 -8 -30 -35t-39 -27z" />
    <glyph glyph-name="Amacron" unicode="&#x100;" horiz-adv-x="655" 
d="M-40 0q-2 22 0 40q66 50 83 81l314 579l91 25l94 -592q2 -13 7 -23.5t9 -17t14.5 -15.5t14.5 -12t19 -12.5t19 -12.5q-3 -30 -7 -40h-261q-1 21 0 40l60 20q34 11 34 66q0 10 -4 38l-18 124h-229l-83 -158q-5 -10 -5 -23q0 -16 13 -30t36 -22l49 -15l-4 -40h-246z
M232 349h189l-30 211l-6 69h-11l-31 -67zM259 775l4 69h298l-4 -69h-298z" />
    <glyph glyph-name="amacron" unicode="&#x101;" horiz-adv-x="528" 
d="M116 -13q-45 0 -61.5 22t-16.5 70q0 75 14 150.5t45 151.5t91.5 123.5t141.5 47.5q60 0 118 -27l-48 -444l84 1v-24q-70 -70 -128 -70q-43 0 -43 39q0 10 8 82q-54 -57 -102 -89.5t-103 -32.5zM147 68q17 0 37 7.5t42 21.5l37.5 24.5t37.5 28l27 21.5l34 292
q-29 18 -79 18q-44 0 -77.5 -49t-50 -120t-24.5 -133.5t-8 -106.5q11 -4 24 -4zM178 685l8 69h298l-8 -69h-298z" />
    <glyph glyph-name="Abreve" unicode="&#x102;" horiz-adv-x="655" 
d="M-40 0q-2 22 0 40q66 50 83 81l314 579l91 25l94 -592q2 -13 7 -23.5t9 -17t14.5 -15.5t14.5 -12t19 -12.5t19 -12.5q-3 -30 -7 -40h-261q-1 21 0 40l60 20q34 11 34 66q0 10 -4 38l-18 124h-229l-83 -158q-5 -10 -5 -23q0 -16 13 -30t36 -22l49 -15l-4 -40h-246z
M232 349h189l-30 211l-6 69h-11l-31 -67zM401 757q-102 0 -164 84l54 51q49 -66 124 -66q33 0 63.5 13t44 24.5t21.5 20.5l28 -27q-5 -9 -15 -21.5t-31.5 -32.5t-54.5 -33t-70 -13z" />
    <glyph glyph-name="abreve" unicode="&#x103;" horiz-adv-x="528" 
d="M116 -13q-45 0 -61.5 22t-16.5 70q0 75 14 150.5t45 151.5t91.5 123.5t141.5 47.5q60 0 118 -27l-48 -444l84 1v-24q-70 -70 -128 -70q-43 0 -43 39q0 10 8 82q-54 -57 -102 -89.5t-103 -32.5zM147 68q17 0 37 7.5t42 21.5l37.5 24.5t37.5 28l27 21.5l34 292
q-29 18 -79 18q-44 0 -77.5 -49t-50 -120t-24.5 -133.5t-8 -106.5q11 -4 24 -4zM329 636q-102 0 -164 84l54 51q49 -66 124 -66q33 0 63.5 13t44 24.5t21.5 20.5l28 -27q-5 -9 -15 -21.5t-31.5 -32.5t-54.5 -33t-70 -13z" />
    <glyph glyph-name="Aogonek" unicode="&#x104;" horiz-adv-x="655" 
d="M365 -251q-122 0 -122 77q0 45 50 100.5t114 97.5q44 29 44 102q0 10 -4 38l-18 124h-229l-83 -158q-5 -10 -5 -23q0 -16 13 -30t36 -22l49 -15l-4 -40h-246q-2 22 0 40q66 50 83 81l314 579l92 25l93 -592q2 -13 7 -23.5t9 -17t14.5 -15.5t14.5 -12t19 -12.5t19 -12.5
q-3 -30 -7 -40h-70q-89 0 -151 -45q-68 -51 -70 -121q23 -27 68 -27q19 0 42 5l13 -47q-39 -16 -85 -16zM232 349h189l-30 211l-6 69h-11l-31 -67z" />
    <glyph glyph-name="aogonek" unicode="&#x105;" horiz-adv-x="528" 
d="M338 -251q-122 0 -122 77q0 71 120 165q-23 9 -23 36q0 10 8 82q-54 -57 -102 -89.5t-103 -32.5q-45 0 -61.5 22t-16.5 70q0 75 14 150.5t45 151.5t91.5 123.5t141.5 47.5q60 0 118 -27l-48 -444l84 1v-24l-60 -50q-120 -103 -128 -173q24 -28 72 -28q20 0 42 5l13 -47
q-39 -16 -85 -16zM147 68q17 0 37 7.5t42 21.5l37.5 24.5t37.5 28l27 21.5l34 292q-29 18 -79 18q-44 0 -77.5 -49t-50 -120t-24.5 -133.5t-8 -106.5q11 -4 24 -4z" />
    <glyph glyph-name="Cacute" unicode="&#x106;" horiz-adv-x="616" 
d="M363 -13q-165 0 -240.5 85t-75.5 250q0 172 104 284.5t271 112.5q101 0 182 -42l-11 -150h-36q-10 63 -47.5 95.5t-92.5 32.5q-130 0 -199 -87.5t-69 -223.5q0 -138 54 -210t188 -72q75 0 148 31l20 -61q-87 -45 -196 -45zM316 740q-8 14 -13 39q103 39 192 84
q15 -21 28 -63q-84 -34 -207 -60z" />
    <glyph glyph-name="cacute" unicode="&#x107;" horiz-adv-x="418" 
d="M133 -13q-96 0 -96 91q0 477 253 477q73 0 118 -27q-2 -54 -25 -84q-64 40 -137 40q-120 0 -119 -395v-11q19 -10 47 -10q51 0 181 65l22 -43q-46 -40 -116.5 -71.5t-127.5 -31.5zM268 615q-24 14 -32 29q82 95 142 175q26 -17 52 -50q-97 -99 -162 -154z" />
    <glyph glyph-name="Ccircumflex" unicode="&#x108;" horiz-adv-x="616" 
d="M363 -13q-165 0 -240.5 85t-75.5 250q0 172 104 284.5t271 112.5q101 0 182 -42l-11 -150h-36q-10 63 -47.5 95.5t-92.5 32.5q-130 0 -199 -87.5t-69 -223.5q0 -138 54 -210t188 -72q75 0 148 31l20 -61q-87 -45 -196 -45zM558 733q-81 29 -137 78q-50 -38 -145 -72
q-12 16 -18 37q114 63 175 118q38 -47 161 -110q-17 -31 -36 -51z" />
    <glyph glyph-name="ccircumflex" unicode="&#x109;" horiz-adv-x="418" 
d="M133 -13q-96 0 -96 91q0 477 253 477q73 0 118 -27q-2 -54 -25 -84q-64 40 -137 40q-120 0 -119 -395v-11q19 -10 47 -10q51 0 181 65l22 -43q-46 -40 -116.5 -71.5t-127.5 -31.5zM396 607q-62 67 -95 111q-57 -49 -140 -102q-12 12 -25 39q53 33 90 65.5t89 89.5
q47 -64 133 -157q-29 -33 -52 -46z" />
    <glyph glyph-name="Cdotaccent" unicode="&#x10a;" horiz-adv-x="616" 
d="M363 -13q-165 0 -240.5 85t-75.5 250q0 172 104 284.5t271 112.5q101 0 182 -42l-11 -150h-36q-10 63 -47.5 95.5t-92.5 32.5q-130 0 -199 -87.5t-69 -223.5q0 -138 54 -210t188 -72q75 0 148 31l20 -61q-87 -45 -196 -45zM406 757q-10 0 -34.5 28t-23.5 38q1 11 31.5 38
t39.5 27q10 0 35.5 -27.5t24.5 -37.5q-2 -9 -32 -37.5t-41 -28.5z" />
    <glyph glyph-name="cdotaccent" unicode="&#x10b;" horiz-adv-x="418" 
d="M133 -13q-96 0 -96 91q0 477 253 477q73 0 118 -27q-2 -54 -25 -84q-64 40 -137 40q-120 0 -119 -395v-11q19 -10 47 -10q51 0 181 65l22 -43q-46 -40 -116.5 -71.5t-127.5 -31.5zM277 650q-10 0 -35 28t-23 38q1 10 31 37.5t40 27.5t35.5 -27.5t24.5 -37.5
q-2 -9 -32 -37.5t-41 -28.5z" />
    <glyph glyph-name="Ccaron" unicode="&#x10c;" horiz-adv-x="616" 
d="M363 -13q-165 0 -240.5 85t-75.5 250q0 172 104 284.5t271 112.5q101 0 182 -42l-11 -150h-36q-10 63 -47.5 95.5t-92.5 32.5q-130 0 -199 -87.5t-69 -223.5q0 -138 54 -210t188 -72q75 0 148 31l20 -61q-87 -45 -196 -45zM381 741q-38 47 -161 110q17 31 36 51
q80 -35 137 -78q61 42 145 72q12 -16 18 -37q-100 -54 -175 -118z" />
    <glyph glyph-name="ccaron" unicode="&#x10d;" horiz-adv-x="418" 
d="M133 -13q-96 0 -96 91q0 477 253 477q73 0 118 -27q-2 -54 -25 -84q-64 40 -137 40q-120 0 -119 -395v-11q19 -10 47 -10q51 0 181 65l22 -43q-46 -40 -116.5 -71.5t-127.5 -31.5zM270 616q-47 64 -133 157q29 33 52 46q62 -67 95 -111q57 49 140 102q12 -12 25 -39
q-53 -33 -90 -65.5t-89 -89.5z" />
    <glyph glyph-name="Dcaron" unicode="&#x10e;" horiz-adv-x="718" 
d="M10 0q-3 21 0 44q6 2 30.5 8t37.5 10q41 11 45 71l36 475q2 30 -24 38l-70 24q0 23 6 37l260 5q162 3 256.5 -77t94.5 -243q0 -194 -102 -293t-292 -99h-278zM211 61l73 2q151 4 222 84.5t71 234.5q0 263 -253 263h-79zM331 741q-38 47 -161 110q17 31 36 51
q80 -35 137 -78q61 42 145 72q12 -16 18 -37q-100 -54 -175 -118z" />
    <glyph glyph-name="dcaron" unicode="&#x10f;" horiz-adv-x="603" 
d="M116 -13q-45 0 -61.5 21.5t-16.5 70.5q0 75 14 150.5t45 151t91.5 123t141.5 47.5q26 0 41 -2l15 140h-98v51q82 20 150 20q20 0 27.5 -7t5.5 -24l-72 -648h85v-22q-69 -71 -128 -71q-43 0 -43 40q0 8 8 80q-55 -57 -102.5 -89t-102.5 -32zM123 72q38 -16 109 28
q9 5 96 69l33 299q-27 14 -78 14q-43 0 -76.5 -49t-50.5 -120.5t-25 -134t-8 -106.5zM563 596l-47 10q30 138 30 236l81 -5q-6 -135 -64 -241z" />
    <glyph glyph-name="Dcroat" unicode="&#x110;" horiz-adv-x="718" 
d="M10 0l-3 48l70 18q39 10 43 68l16 204h-92l4 59h92l16 209q2 28 -21 36l-72 24q0 21 7 41l261 5q162 3 258 -77t96 -243q0 -194 -102.5 -293t-294.5 -99h-278zM213 66l71 2q150 4 220 83t70 231q0 258 -250 258h-76l-15 -243h172l-4 -59h-171z" />
    <glyph glyph-name="dcroat" unicode="&#x111;" horiz-adv-x="512" 
d="M116 -13q-45 0 -61.5 21.5t-16.5 70.5q0 75 14 150.5t45 151t91.5 123t141.5 47.5q26 0 41 -2l7 73h-172l7 62h172l7 63l84 20l-10 -83h80l-7 -62h-80l-60 -541h85v-22q-69 -71 -128 -71q-43 0 -43 40q0 8 8 80q-55 -57 -102.5 -89t-102.5 -32zM232 100q9 5 96 69l33 298
q-29 15 -78 15q-43 0 -76.5 -49t-50.5 -120.5t-25 -134t-8 -106.5q38 -16 109 28z" />
    <glyph glyph-name="Emacron" unicode="&#x112;" horiz-adv-x="591" 
d="M10 0q-3 24 0 45l68 18q18 4 30 21t14 39l36 481q2 13 -4 25.5t-18 16.5l-72 26q0 18 7 35h474l-11 -157q-17 -3 -47 0q-6 47 -22.5 68.5t-53.5 22.5l-164 6l-18 -261l252 5l-5 -72l-251 5l-13 -263l170 4q50 1 85 31.5t52 71.5l39 -6l-29 -162h-519zM190 775l4 69h298
l-4 -69h-298z" />
    <glyph glyph-name="emacron" unicode="&#x113;" horiz-adv-x="434" 
d="M150 -13q-62 0 -85.5 35.5t-23.5 136.5q0 71 11.5 134.5t39 126.5t82.5 100.5t132 37.5q56 0 88 -23t32 -64q0 -97 -70 -152t-223 -82q-4 -53 -4 -152q30 -14 53 -14q53 0 169 53l21 -44q-45 -40 -105 -66.5t-117 -26.5zM138 290q81 16 122.5 37t55 47t13.5 71
q0 49 -70 49q-94 0 -121 -204zM136 685l8 69h298l-8 -69h-298z" />
    <glyph glyph-name="Ebreve" unicode="&#x114;" horiz-adv-x="591" 
d="M10 0q-3 24 0 45l68 18q18 4 30 21t14 39l36 481q2 13 -4 25.5t-18 16.5l-72 26q0 18 7 35h474l-11 -157q-17 -3 -47 0q-6 47 -22.5 68.5t-53.5 22.5l-164 6l-18 -261l252 5l-5 -72l-251 5l-13 -263l170 4q50 1 85 31.5t52 71.5l39 -6l-29 -162h-519zM346 757
q-102 0 -164 84l54 51q49 -66 124 -66q33 0 63.5 13t44 24.5t21.5 20.5l28 -27q-5 -9 -15 -21.5t-31.5 -32.5t-54.5 -33t-70 -13z" />
    <glyph glyph-name="ebreve" unicode="&#x115;" horiz-adv-x="434" 
d="M150 -13q-62 0 -85.5 35.5t-23.5 136.5q0 71 11.5 134.5t39 126.5t82.5 100.5t132 37.5q56 0 88 -23t32 -64q0 -97 -70 -152t-223 -82q-4 -53 -4 -152q30 -14 53 -14q53 0 169 53l21 -44q-45 -40 -105 -66.5t-117 -26.5zM138 290q81 16 122.5 37t55 47t13.5 71
q0 49 -70 49q-94 0 -121 -204zM292 636q-102 0 -164 84l54 51q49 -66 124 -66q33 0 63.5 13t44 24.5t21.5 20.5l28 -27q-5 -9 -15 -21.5t-31.5 -32.5t-54.5 -33t-70 -13z" />
    <glyph glyph-name="Edotaccent" unicode="&#x116;" horiz-adv-x="591" 
d="M10 0q-3 24 0 45l68 18q18 4 30 21t14 39l36 481q2 13 -4 25.5t-18 16.5l-72 26q0 18 7 35h474l-11 -157q-17 -3 -47 0q-6 47 -22.5 68.5t-53.5 22.5l-164 6l-18 -261l252 5l-5 -72l-251 5l-13 -263l170 4q50 1 85 31.5t52 71.5l39 -6l-29 -162h-519zM343 757
q-10 0 -34.5 28t-23.5 38q1 11 31.5 38t39.5 27q10 0 35.5 -27.5t24.5 -37.5q-2 -9 -32 -37.5t-41 -28.5z" />
    <glyph glyph-name="edotaccent" unicode="&#x117;" horiz-adv-x="434" 
d="M150 -13q-62 0 -85.5 35.5t-23.5 136.5q0 71 11.5 134.5t39 126.5t82.5 100.5t132 37.5q56 0 88 -23t32 -64q0 -97 -70 -152t-223 -82q-4 -53 -4 -152q30 -14 53 -14q53 0 169 53l21 -44q-45 -40 -105 -66.5t-117 -26.5zM138 290q81 16 122.5 37t55 47t13.5 71
q0 49 -70 49q-94 0 -121 -204zM283 650q-10 0 -35 28t-23 38q1 10 31 37.5t40 27.5t35.5 -27.5t24.5 -37.5q-2 -9 -32 -37.5t-41 -28.5z" />
    <glyph glyph-name="Eogonek" unicode="&#x118;" horiz-adv-x="591" 
d="M452 -251q-122 0 -122 77q0 75 131 174h-451q-3 24 0 45l68 18q18 4 30 21t14 39l36 481q2 13 -4 25.5t-18 16.5l-72 26q0 18 7 35h474l-11 -157q-17 -3 -47 0q-6 47 -22.5 68.5t-53.5 22.5l-164 6l-18 -261l252 5l-5 -72l-251 5l-13 -263l170 4q50 1 85 31.5t52 71.5
l39 -6l-30 -162q-45 -39 -81 -85.5t-37 -79.5q24 -28 72 -28q20 0 42 5l13 -47q-39 -16 -85 -16z" />
    <glyph glyph-name="eogonek" unicode="&#x119;" horiz-adv-x="434" 
d="M204 -251q-122 0 -122 77q0 70 129 169q-32 -8 -61 -8q-62 0 -85.5 35.5t-23.5 136.5q0 71 11.5 134.5t39 126.5t82.5 100.5t132 37.5q56 0 88 -23t32 -64q0 -97 -70 -152t-223 -82q-4 -53 -4 -152q30 -14 53 -14q53 0 169 53l21 -44q-29 -25 -60 -44
q-46 -35 -97.5 -99.5t-52.5 -101.5q24 -28 72 -28q20 0 42 5l13 -47q-39 -16 -85 -16zM138 290q81 16 122.5 37t55 47t13.5 71q0 49 -70 49q-94 0 -121 -204z" />
    <glyph glyph-name="Ecaron" unicode="&#x11a;" horiz-adv-x="591" 
d="M10 0q-3 24 0 45l68 18q18 4 30 21t14 39l36 481q2 13 -4 25.5t-18 16.5l-72 26q0 18 7 35h474l-11 -157q-17 -3 -47 0q-6 47 -22.5 68.5t-53.5 22.5l-164 6l-18 -261l252 5l-5 -72l-251 5l-13 -263l170 4q50 1 85 31.5t52 71.5l39 -6l-29 -162h-519zM338 741
q-38 47 -161 110q17 31 36 51q80 -35 137 -78q61 42 145 72q12 -16 18 -37q-100 -54 -175 -118z" />
    <glyph glyph-name="ecaron" unicode="&#x11b;" horiz-adv-x="434" 
d="M150 -13q-62 0 -85.5 35.5t-23.5 136.5q0 71 11.5 134.5t39 126.5t82.5 100.5t132 37.5q56 0 88 -23t32 -64q0 -97 -70 -152t-223 -82q-4 -53 -4 -152q30 -14 53 -14q53 0 169 53l21 -44q-45 -40 -105 -66.5t-117 -26.5zM138 290q81 16 122.5 37t55 47t13.5 71
q0 49 -70 49q-94 0 -121 -204zM273 616q-47 64 -133 157q29 33 52 46q62 -67 95 -111q57 49 140 102q12 -12 25 -39q-53 -33 -90 -65.5t-89 -89.5z" />
    <glyph glyph-name="Gcircumflex" unicode="&#x11c;" horiz-adv-x="665" 
d="M373 -10q-168 0 -247 82t-79 250q0 172 104 284.5t271 112.5q119 0 187 -42l-10 -150h-36q-14 62 -52 95t-94 33q-130 0 -199 -87.5t-69 -223.5q0 -138 54 -209.5t188 -71.5q43 0 104 14l15 227h86l-16 -263q-38 -20 -97 -35.5t-110 -15.5zM557 733q-81 29 -137 78
q-50 -38 -145 -72q-12 16 -18 37q114 63 175 118q38 -47 161 -110q-17 -31 -36 -51z" />
    <glyph glyph-name="gcircumflex" unicode="&#x11d;" horiz-adv-x="490" 
d="M127 -226q-86 0 -152 19q1 36 19 84q87 -20 118 -20q37 0 60.5 1.5t49.5 8.5t41 20t26 36.5t15 57.5l14 129q-36 -37 -62 -59.5t-65.5 -42.5t-77.5 -20q-45 0 -61.5 21.5t-16.5 70.5q0 48 6 97.5t18.5 104t36 101.5t54.5 85.5t77 60.5t101 22q59 0 118 -26l-60 -560
q-6 -59 -52 -104.5t-101.5 -66t-105.5 -20.5zM142 69q21 0 49.5 13t44 23.5t51.5 37.5t38 28l35 294q-27 16 -79 16q-44 0 -78 -49.5t-50.5 -121.5t-24.5 -133.5t-8 -103.5q9 -4 22 -4zM433 607q-62 67 -95 111q-57 -49 -140 -102q-12 12 -25 39q53 33 90 65.5t89 89.5
q47 -64 133 -157q-29 -33 -52 -46z" />
    <glyph glyph-name="Gbreve" unicode="&#x11e;" horiz-adv-x="665" 
d="M373 -10q-168 0 -247 82t-79 250q0 172 104 284.5t271 112.5q119 0 187 -42l-10 -150h-36q-14 62 -52 95t-94 33q-130 0 -199 -87.5t-69 -223.5q0 -138 54 -209.5t188 -71.5q43 0 104 14l15 227h86l-16 -263q-38 -20 -97 -35.5t-110 -15.5zM404 757q-102 0 -164 84l54 51
q49 -66 124 -66q33 0 63.5 13t44 24.5t21.5 20.5l28 -27q-5 -9 -15 -21.5t-31.5 -32.5t-54.5 -33t-70 -13z" />
    <glyph glyph-name="gbreve" unicode="&#x11f;" horiz-adv-x="490" 
d="M127 -226q-86 0 -152 19q1 36 19 84q87 -20 118 -20q37 0 60.5 1.5t49.5 8.5t41 20t26 36.5t15 57.5l14 129q-36 -37 -62 -59.5t-65.5 -42.5t-77.5 -20q-45 0 -61.5 21.5t-16.5 70.5q0 48 6 97.5t18.5 104t36 101.5t54.5 85.5t77 60.5t101 22q59 0 118 -26l-60 -560
q-6 -59 -52 -104.5t-101.5 -66t-105.5 -20.5zM142 69q21 0 49.5 13t44 23.5t51.5 37.5t38 28l35 294q-27 16 -79 16q-44 0 -78 -49.5t-50.5 -121.5t-24.5 -133.5t-8 -103.5q9 -4 22 -4zM323 636q-102 0 -164 84l54 51q49 -66 124 -66q33 0 63.5 13t44 24.5t21.5 20.5l28 -27
q-5 -9 -15 -21.5t-31.5 -32.5t-54.5 -33t-70 -13z" />
    <glyph glyph-name="Gdotaccent" unicode="&#x120;" horiz-adv-x="665" 
d="M373 -10q-168 0 -247 82t-79 250q0 172 104 284.5t271 112.5q119 0 187 -42l-10 -150h-36q-14 62 -52 95t-94 33q-130 0 -199 -87.5t-69 -223.5q0 -138 54 -209.5t188 -71.5q43 0 104 14l15 227h86l-16 -263q-38 -20 -97 -35.5t-110 -15.5zM409 757q-10 0 -34.5 28
t-23.5 38q1 11 31.5 38t39.5 27q10 0 35.5 -27.5t24.5 -37.5q-2 -9 -32 -37.5t-41 -28.5z" />
    <glyph glyph-name="gdotaccent" unicode="&#x121;" horiz-adv-x="490" 
d="M127 -226q-86 0 -152 19q1 36 19 84q87 -20 118 -20q37 0 60.5 1.5t49.5 8.5t41 20t26 36.5t15 57.5l14 129q-36 -37 -62 -59.5t-65.5 -42.5t-77.5 -20q-45 0 -61.5 21.5t-16.5 70.5q0 48 6 97.5t18.5 104t36 101.5t54.5 85.5t77 60.5t101 22q59 0 118 -26l-60 -560
q-6 -59 -52 -104.5t-101.5 -66t-105.5 -20.5zM142 69q21 0 49.5 13t44 23.5t51.5 37.5t38 28l35 294q-27 16 -79 16q-44 0 -78 -49.5t-50.5 -121.5t-24.5 -133.5t-8 -103.5q9 -4 22 -4zM323 650q-10 0 -35 28t-23 38q1 10 31 37.5t40 27.5t35.5 -27.5t24.5 -37.5
q-2 -9 -32 -37.5t-41 -28.5z" />
    <glyph glyph-name="Gcommaaccent" unicode="&#x122;" horiz-adv-x="665" 
d="M373 -10q-168 0 -247 82t-79 250q0 172 104 284.5t271 112.5q119 0 187 -42l-10 -150h-36q-14 62 -52 95t-94 33q-130 0 -199 -87.5t-69 -223.5q0 -138 54 -209.5t188 -71.5q43 0 104 14l15 227h86l-16 -263q-38 -20 -97 -35.5t-110 -15.5zM336 -307l-47 10
q30 138 30 236l81 -5q-6 -135 -64 -241z" />
    <glyph glyph-name="gcommaaccent" unicode="&#x123;" horiz-adv-x="490" 
d="M127 -226q-86 0 -152 19q1 36 19 84q87 -20 118 -20q37 0 60.5 1.5t49.5 8.5t41 20t26 36.5t15 57.5l14 129q-36 -37 -62 -59.5t-65.5 -42.5t-77.5 -20q-45 0 -61.5 21.5t-16.5 70.5q0 48 6 97.5t18.5 104t36 101.5t54.5 85.5t77 60.5t101 22q59 0 118 -26l-60 -560
q-6 -59 -52 -104.5t-101.5 -66t-105.5 -20.5zM142 69q21 0 49.5 13t44 23.5t51.5 37.5t38 28l35 294q-27 16 -79 16q-44 0 -78 -49.5t-50.5 -121.5t-24.5 -133.5t-8 -103.5q9 -4 22 -4zM349 854l47 -10q-30 -138 -30 -236l-81 5q6 135 64 241z" />
    <glyph glyph-name="Hcircumflex" unicode="&#x124;" horiz-adv-x="781" 
d="M8 0q-3 19 -1 40l59 21q21 8 34.5 33t15.5 50l32 438q5 58 -32 69l-65 19q3 26 7 37h267q3 -20 1 -41l-55 -13q-21 -5 -27.5 -13.5t-8.5 -29.5l-15 -224h355l12 186q2 22 -7.5 47.5t-29.5 33.5l-46 17q3 34 4 37h257q-3 -33 -5 -41l-52 -12q-17 -4 -24 -12t-8 -29
l-32 -503q-3 -37 18 -42l81 -19q-3 -35 -7 -49h-283q-3 24 0 44l41 11q30 9 45 38t18 59l13 172h-355l-11 -213q-1 -34 22 -40l92 -25q-3 -32 -7 -46h-303zM565 733q-81 29 -137 78q-50 -38 -145 -72q-12 16 -18 37q114 63 175 118q38 -47 161 -110q-17 -31 -36 -51z" />
    <glyph glyph-name="hcircumflex" unicode="&#x125;" horiz-adv-x="544" 
d="M373 -12q-42 0 -42 40q0 26 5 61l50 364q-14 4 -23 4q-42 0 -102.5 -32t-87.5 -57l-23 -207v-161h-97l72 689h-99v51q82 20 150 20q34 0 34 -24v-7l-33 -303q48 50 113 88.5t111 38.5q36 0 51 -14t15 -47q0 -17 -3 -41l-49 -369h86v-21q-71 -73 -128 -73zM304 760
q-81 29 -137 78q-50 -38 -145 -72q-12 16 -18 37q114 63 175 118q38 -47 161 -110q-17 -31 -36 -51z" />
    <glyph glyph-name="Hbar" unicode="&#x126;" horiz-adv-x="781" 
d="M8 0q-3 19 -1 40l59 21q21 8 34.5 33t15.5 50l24 337h-84l4 57h84l4 44q5 58 -32 69l-65 19q3 26 7 37h267q3 -20 1 -41l-55 -13q-21 -5 -27.5 -13.5t-8.5 -29.5l-5 -72h355l2 34q2 22 -7.5 47.5t-29.5 33.5l-46 17q3 34 4 37h257q-3 -33 -5 -41l-52 -12q-17 -4 -24 -12
t-8 -29l-5 -75h82l-4 -57h-82l-23 -371q-3 -37 18 -42l81 -19q-3 -35 -7 -49h-283q-3 24 0 44l41 11q30 9 45 38t18 59l13 172h-355l-11 -213q-1 -34 22 -40l92 -25q-3 -32 -7 -46h-303zM220 386h355l6 95h-355z" />
    <glyph glyph-name="hbar" unicode="&#x127;" horiz-adv-x="544" 
d="M373 -12q-42 0 -42 40q0 26 5 61l50 364q-14 4 -23 4q-42 0 -102.5 -32t-87.5 -57l-23 -207v-161h-97l65 622h-69l7 62h68l7 63l84 20l-10 -83h184l-7 -62h-184l-21 -196q48 50 113 88.5t111 38.5q36 0 51 -14t15 -47q0 -17 -3 -41l-49 -369h86v-21q-71 -73 -128 -73z
" />
    <glyph glyph-name="Itilde" unicode="&#x128;" horiz-adv-x="336" 
d="M12 0q-3 19 -1 40l54 21q38 14 44 72l32 441q6 62 -46 82l-37 14q-2 21 4 37h257q2 -15 0 -41l-40 -8q-24 -6 -36.5 -29.5t-14.5 -51.5l-30 -476q-2 -19 3 -27t21 -12l77 -16q-3 -31 -7 -46h-280zM248 752q-14 0 -57.5 18t-56.5 18q-32 0 -103 -33l-22 33q117 76 141 76
q20 0 69.5 -19.5t59.5 -19.5q15 0 46 26l29 -30q-69 -69 -106 -69z" />
    <glyph glyph-name="itilde" unicode="&#x129;" horiz-adv-x="259" 
d="M91 -12q-43 0 -43 40q0 6 7 69l43 432l83 34l-48 -483h86v-21q-71 -71 -128 -71zM224 655q-14 0 -57.5 18t-56.5 18q-32 0 -103 -33l-22 33q117 76 141 76q20 0 69.5 -19.5t59.5 -19.5q15 0 46 26l29 -30q-69 -69 -106 -69z" />
    <glyph glyph-name="Imacron" unicode="&#x12a;" horiz-adv-x="336" 
d="M12 0q-3 19 -1 40l54 21q38 14 44 72l32 441q6 62 -46 82l-37 14q-2 21 4 37h257q2 -15 0 -41l-40 -8q-24 -6 -36.5 -29.5t-14.5 -51.5l-30 -476q-2 -19 3 -27t21 -12l77 -16q-3 -31 -7 -46h-280zM47 775l4 69h298l-4 -69h-298z" />
    <glyph glyph-name="imacron" unicode="&#x12b;" horiz-adv-x="259" 
d="M91 -12q-43 0 -43 40q0 6 7 69l43 432l83 34l-48 -483h86v-21q-71 -71 -128 -71zM5 685l8 69h298l-8 -69h-298z" />
    <glyph glyph-name="Ibreve" unicode="&#x12c;" horiz-adv-x="336" 
d="M12 0q-3 19 -1 40l54 21q38 14 44 72l32 441q6 62 -46 82l-37 14q-2 21 4 37h257q2 -15 0 -41l-40 -8q-24 -6 -36.5 -29.5t-14.5 -51.5l-30 -476q-2 -19 3 -27t21 -12l77 -16q-3 -31 -7 -46h-280zM200 757q-102 0 -164 84l54 51q49 -66 124 -66q33 0 63.5 13t44 24.5
t21.5 20.5l28 -27q-5 -9 -15 -21.5t-31.5 -32.5t-54.5 -33t-70 -13z" />
    <glyph glyph-name="ibreve" unicode="&#x12d;" horiz-adv-x="259" 
d="M91 -12q-43 0 -43 40q0 6 7 69l43 432l83 34l-48 -483h86v-21q-71 -71 -128 -71zM153 636q-102 0 -164 84l54 51q49 -66 124 -66q33 0 63.5 13t44 24.5t21.5 20.5l28 -27q-5 -9 -15 -21.5t-31.5 -32.5t-54.5 -33t-70 -13z" />
    <glyph glyph-name="Iogonek" unicode="&#x12e;" horiz-adv-x="336" 
d="M77 -246q-46 0 -85 20.5t-39 65.5q0 108 117 192q6 5 11.5 11t9 10.5t6.5 13.5t4.5 13t3 14.5t2 12.5t1.5 14l1 12l32 441q6 62 -46 82l-37 14q-2 21 4 37h257q2 -15 0 -41l-40 -8q-24 -6 -36.5 -29.5t-14.5 -51.5l-30 -476q-2 -19 3 -27t21 -12l77 -16q-3 -31 -7 -46
h-60q-104 0 -148.5 -34.5t-55.5 -127.5q10 -11 33 -18.5t46 -7.5q19 0 42 5l13 -47q-39 -16 -85 -16z" />
    <glyph glyph-name="iogonek" unicode="&#x12f;" horiz-adv-x="259" 
d="M92 -251q-122 0 -122 77q0 40 27 84.5t73 80.5q-22 9 -22 37q0 6 7 69l43 432l83 34l-48 -483h86v-21q-29 -29 -54 -46q-41 -31 -77.5 -85.5t-37.5 -92.5q24 -28 72 -28q20 0 42 5l13 -47q-39 -16 -85 -16zM145 649q-10 0 -35.5 29t-25.5 40q0 10 33 39.5t43 29.5
t36 -28.5t26 -39.5q0 -9 -33.5 -39.5t-43.5 -30.5z" />
    <glyph glyph-name="Idotaccent" unicode="&#x130;" horiz-adv-x="336" 
d="M12 0q-3 19 -1 40l54 21q38 14 44 72l32 441q6 62 -46 82l-37 14q-2 21 4 37h257q2 -15 0 -41l-40 -8q-24 -6 -36.5 -29.5t-14.5 -51.5l-30 -476q-2 -19 3 -27t21 -12l77 -16q-3 -31 -7 -46h-280zM195 757q-10 0 -34.5 28t-23.5 38q1 11 31.5 38t39.5 27q10 0 35.5 -27.5
t24.5 -37.5q-2 -9 -32 -37.5t-41 -28.5z" />
    <glyph glyph-name="dotlessi" unicode="&#x131;" horiz-adv-x="259" 
d="M91 -12q-43 0 -43 40q0 6 7 69l43 432l83 34l-48 -483h86v-21q-71 -71 -128 -71z" />
    <glyph glyph-name="IJ" unicode="&#x132;" horiz-adv-x="674" 
d="M12 0q-3 19 -1 40l54 21q38 14 44 72l32 441q6 62 -46 82l-37 14q-2 21 4 37h257q2 -15 0 -41l-40 -8q-24 -6 -36.5 -29.5t-14.5 -51.5l-30 -476q-2 -19 3 -27t21 -12l77 -16q-3 -31 -7 -46h-280zM323 -186l-28 55q83 49 120 110t44 166l30 433q2 23 -10 46.5t-35 31.5
l-41 14q3 27 7 37h258q2 -22 0 -40l-48 -11q-24 -6 -32.5 -15.5t-9.5 -31.5l-37 -523q-4 -53 -20.5 -95t-47 -73.5t-65 -55t-85.5 -48.5z" />
    <glyph glyph-name="ij" unicode="&#x133;" horiz-adv-x="513" 
d="M91 -12q-43 0 -43 40q0 6 7 69l43 432l83 34l-48 -483h86v-21q-71 -71 -128 -71zM145 649q-10 0 -35.5 29t-25.5 40q0 10 33 39.5t43 29.5t36 -28.5t26 -39.5q0 -9 -33.5 -39.5t-43.5 -30.5zM189 -224q-42 0 -84 15q5 47 22 79q45 -15 74 -15q64 0 88.5 26.5t30.5 102.5
l42 542l85 35l-46 -578q-6 -77 -74.5 -142t-137.5 -65zM408 649q-10 0 -35.5 29t-25.5 40q0 10 33 39.5t43 29.5t36 -28.5t26 -39.5q0 -9 -33.5 -39.5t-43.5 -30.5z" />
    <glyph glyph-name="Jcircumflex" unicode="&#x134;" horiz-adv-x="338" 
d="M-13 -186l-28 55q83 49 120 110t44 166l30 433q2 23 -10 46.5t-35 31.5l-41 14q3 27 7 37h258q2 -22 0 -40l-48 -11q-24 -6 -32.5 -15.5t-9.5 -31.5l-37 -523q-4 -53 -20.5 -95t-47 -73.5t-65 -55t-85.5 -48.5zM349 733q-81 29 -137 78q-50 -38 -145 -72q-12 16 -18 37
q114 63 175 118q38 -47 161 -110q-17 -31 -36 -51z" />
    <glyph glyph-name="jcircumflex" unicode="&#x135;" horiz-adv-x="254" 
d="M-70 -224q-42 0 -84 15q5 47 22 79q45 -15 74 -15q64 0 88.5 26.5t30.5 102.5l42 542l85 35l-46 -578q-6 -77 -74.5 -142t-137.5 -65zM266 607q-62 67 -95 111q-57 -49 -140 -102q-12 12 -25 39q53 33 90 65.5t89 89.5q47 -64 133 -157q-29 -33 -52 -46z" />
    <glyph glyph-name="Kcommaaccent" unicode="&#x136;" horiz-adv-x="673" 
d="M4 0q-4 27 -1 44l68 23q38 13 42 67l34 449q2 51 -26 62l-58 21q-3 23 4 41h262q2 -32 1 -39l-51 -19q-19 -7 -29.5 -27.5t-12.5 -43.5l-30 -470q-1 -18 3 -25.5t15 -10.5l63 -21q0 -32 -7 -51h-277zM657 -22q-19 0 -43 3t-64 18.5t-61 42.5l-229 300l3 41l197 205
q23 24 24 38q0 20 -18 27l-45 14q0 18 6 40h230l-3 -41l-306 -277l196 -257q52 -69 127 -101zM336 -307l-47 10q30 138 30 236l81 -5q-6 -135 -64 -241z" />
    <glyph glyph-name="kcommaaccent" unicode="&#x137;" horiz-adv-x="480" 
d="M396 -27q-27 23 -49.5 48t-37 42.5t-33.5 49l-27 45.5t-29.5 56l-29.5 58l137 180q29 37 -34 66l4 28h160l11 -25l-202 -235q39 -67 80.5 -122t108.5 -122q-18 -39 -59 -69zM50 0l73 689h-98v51q82 20 150 20q20 0 27.5 -7t5.5 -24l-60 -571v-158h-98zM220 -307l-47 10
q30 138 30 236l81 -5q-6 -135 -64 -241z" />
    <glyph glyph-name="Lacute" unicode="&#x139;" horiz-adv-x="523" 
d="M7 0q-2 24 0 44l64 18q18 4 29.5 21t13.5 39l35 462q4 54 -27 65l-60 21q3 27 6 37h258q2 -28 1 -40l-48 -11q-22 -5 -31.5 -14t-10.5 -28l-33 -550l137 5q93 13 130 99l39 -6l-30 -162h-473zM128 740q-8 14 -13 39q103 39 192 84q15 -21 28 -63q-84 -34 -207 -60z" />
    <glyph glyph-name="lacute" unicode="&#x13a;" horiz-adv-x="283" 
d="M97 -11q-43 0 -43 40q0 2 7 69l70 591h-98v51q82 20 150 20q20 0 27.5 -7t5.5 -24l-74 -649h83v-21q-70 -70 -128 -70zM108 784q-8 14 -13 39q103 39 192 84q15 -21 28 -63q-84 -34 -207 -60z" />
    <glyph glyph-name="Lcommaaccent" unicode="&#x13b;" horiz-adv-x="523" 
d="M7 0q-2 24 0 44l64 18q18 4 29.5 21t13.5 39l35 462q4 54 -27 65l-60 21q3 27 6 37h258q2 -28 1 -40l-48 -11q-22 -5 -31.5 -14t-10.5 -28l-33 -550l137 5q93 13 130 99l39 -6l-30 -162h-473zM251 -307l-47 10q30 138 30 236l81 -5q-6 -135 -64 -241z" />
    <glyph glyph-name="lcommaaccent" unicode="&#x13c;" horiz-adv-x="283" 
d="M97 -11q-43 0 -43 40q0 2 7 69l70 591h-98v51q82 20 150 20q20 0 27.5 -7t5.5 -24l-74 -649h83v-21q-70 -70 -128 -70zM79 -307l-47 10q30 138 30 236l81 -5q-6 -135 -64 -241z" />
    <glyph glyph-name="Lcaron" unicode="&#x13d;" horiz-adv-x="523" 
d="M7 0q-2 24 0 44l64 18q18 4 29.5 21t13.5 39l35 462q4 54 -27 65l-60 21q3 27 6 37h258q2 -28 1 -40l-48 -11q-22 -5 -31.5 -14t-10.5 -28l-33 -550l137 5q93 13 130 99l39 -6l-30 -162h-473zM442 597l-47 10q30 138 30 236l81 -5q-6 -135 -64 -241z" />
    <glyph glyph-name="lcaron" unicode="&#x13e;" horiz-adv-x="357" 
d="M97 -11q-43 0 -43 40q0 2 7 69l70 591h-98v51q82 20 150 20q20 0 27.5 -7t5.5 -24l-74 -649h83v-21q-70 -70 -128 -70zM305 596l-47 10q30 138 30 236l81 -5q-6 -135 -64 -241z" />
    <glyph glyph-name="Ldot" unicode="&#x13f;" horiz-adv-x="523" 
d="M7 0q-2 24 0 44l64 18q18 4 29.5 21t13.5 39l35 462q4 54 -27 65l-60 21q3 27 6 37h258q2 -28 1 -40l-48 -11q-22 -5 -31.5 -14t-10.5 -28l-33 -550l137 5q93 13 130 99l39 -6l-30 -162h-473zM445 312q-12 0 -40.5 32t-26.5 43q1 12 36.5 43t46.5 31t39 -31.5t27 -42.5
q-1 -10 -35.5 -42.5t-46.5 -32.5z" />
    <glyph glyph-name="ldot" unicode="&#x140;" horiz-adv-x="358" 
d="M97 -11q-43 0 -43 40q0 2 7 69l70 591h-98v51q82 20 150 20q20 0 27.5 -7t5.5 -24l-74 -649h83v-21q-70 -70 -128 -70zM297 282q-12 0 -40.5 32t-26.5 43q1 12 36.5 43t46.5 31t39 -31.5t27 -42.5q-1 -10 -35.5 -42.5t-46.5 -32.5z" />
    <glyph glyph-name="Lslash" unicode="&#x141;" horiz-adv-x="523" 
d="M8 0q-3 24 0 45l65 18q17 4 28 20.5t13 37.5l15 195l-88 -48v63l92 47l16 209q2 20 -5 38.5t-21 23.5l-61 21q0 18 7 37h258q3 -19 1 -40l-50 -12q-22 -5 -30.5 -11.5t-9.5 -27.5l-11 -185l112 64v-63l-116 -63l-18 -304l135 4q48 7 80.5 34.5t47.5 64.5l42 -7l-30 -161
h-472z" />
    <glyph glyph-name="lslash" unicode="&#x142;" horiz-adv-x="283" 
d="M97 -11q-43 0 -43 40q0 2 7 69l24 231l-73 -39v59l80 43l31 297h-98v51q82 20 150 20q20 0 27.5 -7t5.5 -24l-31 -291l88 47v-59l-95 -51l-31 -295h86v-21q-70 -70 -128 -70z" />
    <glyph glyph-name="Nacute" unicode="&#x143;" horiz-adv-x="802" 
d="M576 -21l-351 614h-11l4 -83l-26 -399q-1 -19 3 -26.5t20 -13.5l81 -29q0 -20 -6 -42h-278q-3 19 -1 40l58 18q23 7 38 33t17 53l30 451q1 18 -6.5 33.5t-20.5 20.5l-54 21q3 30 5 37h198l319 -547h11l-3 109l22 313q1 21 -9 41t-26 26l-59 21q3 27 6 37h258q2 -22 1 -35
l-58 -16q-19 -6 -32.5 -27t-15.5 -45l-41 -583zM366 740q-8 14 -13 39q103 39 192 84q15 -21 28 -63q-84 -34 -207 -60z" />
    <glyph glyph-name="nacute" unicode="&#x144;" horiz-adv-x="544" 
d="M369 -12q-42 0 -42 40q0 26 5 61l50 364q-14 4 -22 4q-42 0 -102.5 -32t-87.5 -57l-24 -207v-161h-97l55 527l85 35l-13 -134q47 50 110.5 87.5t110.5 37.5q36 0 51 -14t15 -47q0 -17 -3 -41l-49 -369h86v-21q-71 -73 -128 -73zM303 615q-24 14 -32 29q82 95 142 175
q26 -17 52 -50q-97 -99 -162 -154z" />
    <glyph glyph-name="Ncommaaccent" unicode="&#x145;" horiz-adv-x="802" 
d="M576 -21l-351 614h-11l4 -83l-26 -399q-1 -19 3 -26.5t20 -13.5l81 -29q0 -20 -6 -42h-278q-3 19 -1 40l58 18q23 7 38 33t17 53l30 451q1 18 -6.5 33.5t-20.5 20.5l-54 21q3 30 5 37h198l319 -547h11l-3 109l22 313q1 21 -9 41t-26 26l-59 21q3 27 6 37h258q2 -22 1 -35
l-58 -16q-19 -6 -32.5 -27t-15.5 -45l-41 -583zM381 -307l-47 10q30 138 30 236l81 -5q-6 -135 -64 -241z" />
    <glyph glyph-name="ncommaaccent" unicode="&#x146;" horiz-adv-x="544" 
d="M369 -12q-42 0 -42 40q0 26 5 61l50 364q-14 4 -22 4q-42 0 -102.5 -32t-87.5 -57l-24 -207v-161h-97l55 527l85 35l-13 -134q47 50 110.5 87.5t110.5 37.5q36 0 51 -14t15 -47q0 -17 -3 -41l-49 -369h86v-21q-71 -73 -128 -73zM215 -307l-47 10q30 138 30 236l81 -5
q-6 -135 -64 -241z" />
    <glyph glyph-name="Ncaron" unicode="&#x147;" horiz-adv-x="802" 
d="M576 -21l-351 614h-11l4 -83l-26 -399q-1 -19 3 -26.5t20 -13.5l81 -29q0 -20 -6 -42h-278q-3 19 -1 40l58 18q23 7 38 33t17 53l30 451q1 18 -6.5 33.5t-20.5 20.5l-54 21q3 30 5 37h198l319 -547h11l-3 109l22 313q1 21 -9 41t-26 26l-59 21q3 27 6 37h258q2 -22 1 -35
l-58 -16q-19 -6 -32.5 -27t-15.5 -45l-41 -583zM431 741q-38 47 -161 110q17 31 36 51q80 -35 137 -78q61 42 145 72q12 -16 18 -37q-100 -54 -175 -118z" />
    <glyph glyph-name="ncaron" unicode="&#x148;" horiz-adv-x="544" 
d="M369 -12q-42 0 -42 40q0 26 5 61l50 364q-14 4 -22 4q-42 0 -102.5 -32t-87.5 -57l-24 -207v-161h-97l55 527l85 35l-13 -134q47 50 110.5 87.5t110.5 37.5q36 0 51 -14t15 -47q0 -17 -3 -41l-49 -369h86v-21q-71 -73 -128 -73zM297 616q-47 64 -133 157q29 33 52 46
q62 -67 95 -111q57 49 140 102q12 -12 25 -39q-53 -33 -90 -65.5t-89 -89.5z" />
    <glyph glyph-name="napostrophe" unicode="&#x149;" horiz-adv-x="611" 
d="M436 -12q-42 0 -42 40q0 26 5 61l50 364q-14 4 -22 4q-42 0 -102.5 -32t-87.5 -57l-24 -207v-161h-97l55 527l85 35l-13 -134q47 50 110.5 87.5t110.5 37.5q36 0 51 -14t15 -47q0 -17 -3 -41l-49 -369h86v-21q-71 -73 -128 -73zM28 489l-32 27q41 59 55 114
q-30 46 -30 91q0 19 32 30.5t58 11.5q7 -8 17 -32.5t10 -35.5q0 -43 -27.5 -101t-82.5 -105z" />
    <glyph glyph-name="Eng" unicode="&#x14a;" horiz-adv-x="802" 
d="M433 -224q-42 0 -84 15q5 47 22 79q45 -15 74 -15q64 0 88.5 28.5t31.5 114.5l-340 595h-11l4 -83l-26 -399q-1 -19 3 -26.5t20 -13.5l81 -29q0 -20 -6 -42h-278q-3 19 -1 40l58 18q23 7 38 33t17 53l30 451q1 18 -6.5 33.5t-20.5 20.5l-54 21q3 30 5 37h198l319 -547h11
l-3 109l22 313q1 21 -9 41t-26 26l-59 21q3 27 6 37h258q2 -22 1 -35l-58 -16q-19 -6 -32.5 -27t-15.5 -45l-45 -601q-7 -77 -75.5 -142t-136.5 -65z" />
    <glyph glyph-name="eng" unicode="&#x14b;" horiz-adv-x="544" 
d="M201 -224q-42 0 -84 15q5 47 22 79q45 -15 74 -15q63 0 87 26.5t32 102.5l50 469q-14 4 -22 4q-42 0 -102.5 -32t-87.5 -57l-24 -207v-161h-97l55 527l85 35l-13 -134q47 50 110.5 87.5t110.5 37.5q36 0 51 -14t15 -47q0 -17 -3 -41l-47 -468q-7 -77 -75.5 -142
t-136.5 -65z" />
    <glyph glyph-name="Omacron" unicode="&#x14c;" horiz-adv-x="726" 
d="M338 -11q-141 0 -217 88t-76 234q0 108 42.5 200.5t126.5 150.5t192 58q135 0 209.5 -90t74.5 -231q0 -109 -39 -200.5t-121 -150.5t-192 -59zM357 59q71 0 126 50t81 120.5t26 143.5q0 74 -19 134t-67.5 102t-120.5 42q-75 0 -130.5 -49.5t-80.5 -119t-25 -145.5
q0 -55 11 -102.5t34 -88t65.5 -64t99.5 -23.5zM254 775l4 69h298l-4 -69h-298z" />
    <glyph glyph-name="omacron" unicode="&#x14d;" horiz-adv-x="480" 
d="M243 61q54 0 82 95.5t28 206.5q0 50 -7 87q-40 36 -107 36q-33 0 -56.5 -28.5t-35 -76t-16 -94.5t-4.5 -99q0 -55 4 -95q33 -32 112 -32zM206 -12q-86 0 -126 39.5t-40 124.5q0 48 6 99t22 106.5t39 98.5t61.5 71t85.5 28q186 0 186 -174q0 -60 -13 -124.5t-39.5 -126.5
t-74 -102t-107.5 -40zM136 685l8 69h298l-8 -69h-298z" />
    <glyph glyph-name="Obreve" unicode="&#x14e;" horiz-adv-x="726" 
d="M338 -11q-141 0 -217 88t-76 234q0 108 42.5 200.5t126.5 150.5t192 58q135 0 209.5 -90t74.5 -231q0 -109 -39 -200.5t-121 -150.5t-192 -59zM357 59q71 0 126 50t81 120.5t26 143.5q0 74 -19 134t-67.5 102t-120.5 42q-75 0 -130.5 -49.5t-80.5 -119t-25 -145.5
q0 -55 11 -102.5t34 -88t65.5 -64t99.5 -23.5zM393 757q-102 0 -164 84l54 51q49 -66 124 -66q33 0 63.5 13t44 24.5t21.5 20.5l28 -27q-5 -9 -15 -21.5t-31.5 -32.5t-54.5 -33t-70 -13z" />
    <glyph glyph-name="obreve" unicode="&#x14f;" horiz-adv-x="480" 
d="M243 61q54 0 82 95.5t28 206.5q0 50 -7 87q-40 36 -107 36q-33 0 -56.5 -28.5t-35 -76t-16 -94.5t-4.5 -99q0 -55 4 -95q33 -32 112 -32zM206 -12q-86 0 -126 39.5t-40 124.5q0 48 6 99t22 106.5t39 98.5t61.5 71t85.5 28q186 0 186 -174q0 -60 -13 -124.5t-39.5 -126.5
t-74 -102t-107.5 -40zM287 636q-102 0 -164 84l54 51q49 -66 124 -66q33 0 63.5 13t44 24.5t21.5 20.5l28 -27q-5 -9 -15 -21.5t-31.5 -32.5t-54.5 -33t-70 -13z" />
    <glyph glyph-name="Ohungarumlaut" unicode="&#x150;" horiz-adv-x="726" 
d="M338 -11q-141 0 -217 88t-76 234q0 108 42.5 200.5t126.5 150.5t192 58q135 0 209.5 -90t74.5 -231q0 -109 -39 -200.5t-121 -150.5t-192 -59zM357 59q71 0 126 50t81 120.5t26 143.5q0 74 -19 134t-67.5 102t-120.5 42q-75 0 -130.5 -49.5t-80.5 -119t-25 -145.5
q0 -55 11 -102.5t34 -88t65.5 -64t99.5 -23.5zM285 747q-12 14 -22 35q100 68 167 127q20 -17 42 -55q-77 -55 -187 -107zM483 747q-8 14 -13 39q103 39 192 84q15 -21 28 -63q-84 -34 -207 -60z" />
    <glyph glyph-name="ohungarumlaut" unicode="&#x151;" horiz-adv-x="480" 
d="M243 61q54 0 82 95.5t28 206.5q0 50 -7 87q-40 36 -107 36q-33 0 -56.5 -28.5t-35 -76t-16 -94.5t-4.5 -99q0 -55 4 -95q33 -32 112 -32zM206 -12q-86 0 -126 39.5t-40 124.5q0 48 6 99t22 106.5t39 98.5t61.5 71t85.5 28q186 0 186 -174q0 -60 -13 -124.5t-39.5 -126.5
t-74 -102t-107.5 -40zM198 613q-25 10 -36 24q63 99 113 194q29 -13 59 -41q-86 -119 -136 -177zM385 615q-24 14 -32 29q82 95 142 175q26 -17 52 -50q-97 -99 -162 -154z" />
    <glyph glyph-name="OE" unicode="&#x152;" horiz-adv-x="938" 
d="M338 -11q-141 0 -217 88t-76 234q0 108 42.5 200.5t126.5 150.5t192 58q55 0 95 -13h392l-11 -157q-17 -3 -47 0q-6 47 -22.5 68.5t-53.5 22.5l-164 6l-18 -261l252 5l-5 -72l-251 5l-13 -263l170 4q50 1 85 31.5t52 71.5l39 -6l-29 -162h-453q-41 -11 -86 -11zM357 64
q58 0 107 33q6 16 6 26l36 473v8q-50 42 -123 42q-75 0 -130.5 -48t-80.5 -116.5t-25 -144.5q0 -55 11 -101.5t34 -86.5t65.5 -62.5t99.5 -22.5z" />
    <glyph glyph-name="oe" unicode="&#x153;" horiz-adv-x="687" 
d="M403 -13q-40 0 -62.5 13t-33.5 46q-53 -57 -139 -57q-59 0 -93.5 39t-34.5 138q0 60 12.5 124t37.5 126t71 102t106 40q89 0 137 -56q61 56 155 56q56 0 88 -23t32 -64q0 -97 -70 -152t-223 -82q-4 -53 -4 -152q30 -14 53 -14q53 0 169 53l21 -44q-45 -40 -105 -66.5
t-117 -26.5zM246 68q18 0 51 22q-3 28 -3 69q0 187 69 295q-43 29 -111 29q-35 0 -59.5 -32t-36 -84t-16.5 -101t-5 -101q0 -35 2 -67q31 -30 109 -30zM391 290q81 16 122.5 37t55 47t13.5 71q0 49 -70 49q-94 0 -121 -204z" />
    <glyph glyph-name="Racute" unicode="&#x154;" horiz-adv-x="653" 
d="M643 -23q-18 0 -26 1q-84 14 -130.5 57t-95.5 134l-65 127h-107l-13 -193q-2 -25 22 -32l98 -26q-2 -27 -7 -45h-306q-2 26 -1 40l58 18q20 6 31.5 24.5t13.5 39.5l36 482q4 34 -22 42l-71 26q-1 15 6 35h292q99 0 154.5 -46.5t55.5 -143.5q0 -73 -37.5 -127t-103.5 -79
q55 -98 58 -102q61 -101 94 -136q34 -36 74 -55zM222 356h98q66 0 104.5 31t38.5 110q0 34 -8 60t-26 41.5t-34.5 25t-48 14.5t-50.5 6.5t-56 2.5zM241 740q-8 14 -13 39q103 39 192 84q15 -21 28 -63q-84 -34 -207 -60z" />
    <glyph glyph-name="racute" unicode="&#x155;" horiz-adv-x="341" 
d="M48 0l55 529l86 33l-12 -102q27 28 46 45t51.5 33.5t63.5 16.5q9 0 18 -1l-14 -89q-6 1 -22 1q-67 0 -148 -53l-26 -252v-161h-98zM254 615q-24 14 -32 29q82 95 142 175q26 -17 52 -50q-97 -99 -162 -154z" />
    <glyph glyph-name="Rcommaaccent" unicode="&#x156;" horiz-adv-x="653" 
d="M643 -23q-18 0 -26 1q-84 14 -130.5 57t-95.5 134l-65 127h-107l-13 -193q-2 -25 22 -32l98 -26q-2 -27 -7 -45h-306q-2 26 -1 40l58 18q20 6 31.5 24.5t13.5 39.5l36 482q4 34 -22 42l-71 26q-1 15 6 35h292q99 0 154.5 -46.5t55.5 -143.5q0 -73 -37.5 -127t-103.5 -79
q55 -98 58 -102q61 -101 94 -136q34 -36 74 -55zM222 356h98q66 0 104.5 31t38.5 110q0 34 -8 60t-26 41.5t-34.5 25t-48 14.5t-50.5 6.5t-56 2.5zM351 -307l-47 10q30 138 30 236l81 -5q-6 -135 -64 -241z" />
    <glyph glyph-name="rcommaaccent" unicode="&#x157;" horiz-adv-x="341" 
d="M48 0l55 529l86 33l-12 -102q27 28 46 45t51.5 33.5t63.5 16.5q9 0 18 -1l-14 -89q-6 1 -22 1q-67 0 -148 -53l-26 -252v-161h-98zM62 -307l-47 10q30 138 30 236l81 -5q-6 -135 -64 -241z" />
    <glyph glyph-name="Rcaron" unicode="&#x158;" horiz-adv-x="653" 
d="M643 -23q-18 0 -26 1q-84 14 -130.5 57t-95.5 134l-65 127h-107l-13 -193q-2 -25 22 -32l98 -26q-2 -27 -7 -45h-306q-2 26 -1 40l58 18q20 6 31.5 24.5t13.5 39.5l36 482q4 34 -22 42l-71 26q-1 15 6 35h292q99 0 154.5 -46.5t55.5 -143.5q0 -73 -37.5 -127t-103.5 -79
q55 -98 58 -102q61 -101 94 -136q34 -36 74 -55zM222 356h98q66 0 104.5 31t38.5 110q0 34 -8 60t-26 41.5t-34.5 25t-48 14.5t-50.5 6.5t-56 2.5zM323 741q-38 47 -161 110q17 31 36 51q80 -35 137 -78q61 42 145 72q12 -16 18 -37q-100 -54 -175 -118z" />
    <glyph glyph-name="rcaron" unicode="&#x159;" horiz-adv-x="341" 
d="M48 0l55 529l86 33l-12 -102q27 28 46 45t51.5 33.5t63.5 16.5q9 0 18 -1l-14 -89q-6 1 -22 1q-67 0 -148 -53l-26 -252v-161h-98zM240 616q-47 64 -133 157q29 33 52 46q62 -67 95 -111q57 49 140 102q12 -12 25 -39q-53 -33 -90 -65.5t-89 -89.5z" />
    <glyph glyph-name="Sacute" unicode="&#x15a;" horiz-adv-x="496" 
d="M214 -13q-128 0 -214 59q7 27 41 139h25q15 -65 55 -101.5t104 -36.5q50 0 90.5 28t40.5 78q0 28 -20 57t-49.5 53.5l-64 55t-64 60.5t-49.5 72t-20 87q0 73 63 124t138 51q113 0 176 -38q-7 -70 -19 -126h-32q-13 47 -50.5 74t-86.5 27q-43 0 -75.5 -22t-32.5 -63
q0 -34 20.5 -67.5t51.5 -60l67 -58.5l67 -61t51.5 -68.5t20.5 -81.5q0 -89 -71 -135t-163 -46zM234 740q-8 14 -13 39q103 39 192 84q15 -21 28 -63q-84 -34 -207 -60z" />
    <glyph glyph-name="sacute" unicode="&#x15b;" horiz-adv-x="385" 
d="M141 -10q-76 0 -138 26q9 48 29 87q100 -37 187 -37q16 0 30.5 9t14.5 24q0 28 -31 68t-67.5 76t-67.5 85.5t-31 92.5q0 70 48 102t129 32q67 0 124 -24q0 -51 -28 -89q-42 29 -74.5 42t-76.5 13q-17 0 -31 -12t-14 -26q0 -31 20 -64t48.5 -62.5l57.5 -59t49 -63
t20 -64.5q0 -76 -59.5 -116t-138.5 -40zM233 615q-24 14 -32 29q82 95 142 175q26 -17 52 -50q-97 -99 -162 -154z" />
    <glyph glyph-name="Scircumflex" unicode="&#x15c;" horiz-adv-x="496" 
d="M214 -13q-128 0 -214 59q7 27 41 139h25q15 -65 55 -101.5t104 -36.5q50 0 90.5 28t40.5 78q0 28 -20 57t-49.5 53.5l-64 55t-64 60.5t-49.5 72t-20 87q0 73 63 124t138 51q113 0 176 -38q-7 -70 -19 -126h-32q-13 47 -50.5 74t-86.5 27q-43 0 -75.5 -22t-32.5 -63
q0 -34 20.5 -67.5t51.5 -60l67 -58.5l67 -61t51.5 -68.5t20.5 -81.5q0 -89 -71 -135t-163 -46zM442 733q-81 29 -137 78q-50 -38 -145 -72q-12 16 -18 37q114 63 175 118q38 -47 161 -110q-17 -31 -36 -51z" />
    <glyph glyph-name="scircumflex" unicode="&#x15d;" horiz-adv-x="385" 
d="M141 -10q-76 0 -138 26q9 48 29 87q100 -37 187 -37q16 0 30.5 9t14.5 24q0 28 -31 68t-67.5 76t-67.5 85.5t-31 92.5q0 70 48 102t129 32q67 0 124 -24q0 -51 -28 -89q-42 29 -74.5 42t-76.5 13q-17 0 -31 -12t-14 -26q0 -31 20 -64t48.5 -62.5l57.5 -59t49 -63
t20 -64.5q0 -76 -59.5 -116t-138.5 -40zM347 607q-62 67 -95 111q-57 -49 -140 -102q-12 12 -25 39q53 33 90 65.5t89 89.5q47 -64 133 -157q-29 -33 -52 -46z" />
    <glyph glyph-name="Scedilla" unicode="&#x15e;" horiz-adv-x="496" 
d="M154 -267q-34 0 -64 15l15 46q30 -6 60 -6q61 0 61 26q0 19 -36.5 43t-36.5 41q0 43 51 89q-124 4 -204 59q7 27 41 139h25q15 -65 55 -101.5t104 -36.5q50 0 90.5 28t40.5 78q0 28 -20 57t-49.5 53.5l-64 55t-64 60.5t-49.5 72t-20 87q0 73 63 124t138 51q113 0 176 -38
q-7 -70 -19 -126h-32q-13 47 -50.5 74t-86.5 27q-43 0 -75.5 -22t-32.5 -63q0 -34 20.5 -67.5t51.5 -60l67 -58.5l67 -61t51.5 -68.5t20.5 -81.5q0 -78 -55 -123t-135 -55q-47 -43 -47 -54q0 -7 23.5 -19.5t47 -32t23.5 -45.5q0 -42 -53 -74t-98 -32z" />
    <glyph glyph-name="scedilla" unicode="&#x15f;" horiz-adv-x="385" 
d="M77 -267q-34 0 -64 15l15 46q30 -6 60 -6q61 0 61 26q0 19 -36.5 43t-36.5 41q0 43 54 92q-66 2 -127 26q9 48 29 87q100 -37 187 -37q16 0 30.5 9t14.5 24q0 28 -31 68t-67.5 76t-67.5 85.5t-31 92.5q0 70 48 102t129 32q67 0 124 -24q0 -51 -28 -89q-42 29 -74.5 42
t-76.5 13q-17 0 -31 -12t-14 -26q0 -31 20 -64t48.5 -62.5l57.5 -59t49 -63t20 -64.5q0 -64 -44 -103t-110 -49q-51 -49 -51 -58q0 -7 23.5 -19.5t47 -32t23.5 -45.5q0 -42 -53 -74t-98 -32z" />
    <glyph glyph-name="Scaron" unicode="&#x160;" horiz-adv-x="496" 
d="M214 -13q-128 0 -214 59q7 27 41 139h25q15 -65 55 -101.5t104 -36.5q50 0 90.5 28t40.5 78q0 28 -20 57t-49.5 53.5l-64 55t-64 60.5t-49.5 72t-20 87q0 73 63 124t138 51q113 0 176 -38q-7 -70 -19 -126h-32q-13 47 -50.5 74t-86.5 27q-43 0 -75.5 -22t-32.5 -63
q0 -34 20.5 -67.5t51.5 -60l67 -58.5l67 -61t51.5 -68.5t20.5 -81.5q0 -89 -71 -135t-163 -46zM289 741q-38 47 -161 110q17 31 36 51q80 -35 137 -78q61 42 145 72q12 -16 18 -37q-100 -54 -175 -118z" />
    <glyph glyph-name="scaron" unicode="&#x161;" horiz-adv-x="385" 
d="M141 -10q-76 0 -138 26q9 48 29 87q100 -37 187 -37q16 0 30.5 9t14.5 24q0 28 -31 68t-67.5 76t-67.5 85.5t-31 92.5q0 70 48 102t129 32q67 0 124 -24q0 -51 -28 -89q-42 29 -74.5 42t-76.5 13q-17 0 -31 -12t-14 -26q0 -31 20 -64t48.5 -62.5l57.5 -59t49 -63
t20 -64.5q0 -76 -59.5 -116t-138.5 -40zM218 616q-47 64 -133 157q29 33 52 46q62 -67 95 -111q57 49 140 102q12 -12 25 -39q-53 -33 -90 -65.5t-89 -89.5z" />
    <glyph glyph-name="Tcommaaccent" unicode="&#x162;" horiz-adv-x="632" 
d="M133 0q-2 24 0 45l74 19q18 4 31.5 26.5t15.5 44.5l39 509h-120q-65 0 -93 -101q-23 -2 -40 2l11 162h579l-11 -162q-16 -4 -41 -2q-13 101 -89 101h-110l-34 -543q-1 -19 3 -27t18 -12l92 -17q-3 -34 -7 -45h-318zM257 -307l-47 10q30 138 30 236l81 -5
q-6 -135 -64 -241z" />
    <glyph glyph-name="tcommaaccent" unicode="&#x163;" horiz-adv-x="372" 
d="M166 -10q-47 0 -71 15t-24 65q0 8 2 30l44 387h-83l7 59h86l12 110l82 41l-15 -151h151l-7 -59h-152l-41 -405q24 -9 42 -9q30 0 121 34l20 -41q-54 -40 -92 -58t-82 -18zM134 -307l-47 10q30 138 30 236l81 -5q-6 -135 -64 -241z" />
    <glyph glyph-name="tcommaaccent" unicode="&#x21b;" horiz-adv-x="372" 
d="M166 -10q-47 0 -71 15t-24 65q0 8 2 30l44 387h-83l7 59h86l12 110l82 41l-15 -151h151l-7 -59h-152l-41 -405q24 -9 42 -9q30 0 121 34l20 -41q-54 -40 -92 -58t-82 -18zM134 -307l-47 10q30 138 30 236l81 -5q-6 -135 -64 -241z" />
    <glyph glyph-name="Tcaron" unicode="&#x164;" horiz-adv-x="632" 
d="M133 0q-2 24 0 45l74 19q18 4 31.5 26.5t15.5 44.5l39 509h-120q-65 0 -93 -101q-23 -2 -40 2l11 162h579l-11 -162q-16 -4 -41 -2q-13 101 -89 101h-110l-34 -543q-1 -19 3 -27t18 -12l92 -17q-3 -34 -7 -45h-318zM340 741q-38 47 -161 110q17 31 36 51q80 -35 137 -78
q61 42 145 72q12 -16 18 -37q-100 -54 -175 -118z" />
    <glyph glyph-name="tcaron" unicode="&#x165;" horiz-adv-x="421" 
d="M166 -10q-47 0 -71 15t-24 65q0 8 2 30l44 387h-83l7 59h86l12 110l82 41l-15 -151h151l-7 -59h-152l-41 -405q24 -9 42 -9q30 0 121 34l20 -41q-54 -40 -92 -58t-82 -18zM335 632l-47 10q30 138 30 236l81 -5q-6 -135 -64 -241z" />
    <glyph glyph-name="Tbar" unicode="&#x166;" horiz-adv-x="632" 
d="M133 0q-2 24 0 45l74 19q18 4 31.5 26.5t15.5 44.5l14 191h-126l4 62h127l20 256h-120q-65 0 -93 -101q-23 -2 -40 2l11 162h579l-11 -162q-16 -4 -41 -2q-13 101 -89 101h-110l-16 -256h124l-4 -62h-124l-14 -225q-1 -19 3 -27t18 -12l92 -17q-3 -34 -7 -45h-318z" />
    <glyph glyph-name="tbar" unicode="&#x167;" horiz-adv-x="372" 
d="M166 -10q-47 0 -71 15t-24 65q0 8 2 30l20 175h-54l7 62h54l17 150h-79l7 59h82l12 110l82 41l-15 -151h155l-7 -59h-156l-15 -150h154l-7 -62h-154l-19 -193q24 -9 42 -9q30 0 121 34l20 -41q-54 -40 -92 -58t-82 -18z" />
    <glyph glyph-name="Utilde" unicode="&#x168;" horiz-adv-x="768" 
d="M344 -13q-108 0 -171 48t-63 169q0 23 1 35l24 356q2 17 -5.5 33t-21.5 21l-59 21q0 22 6 38h278q1 -20 -2 -43l-66 -11q-28 -5 -30 -34l-26 -374q-8 -110 37.5 -152t132.5 -42q88 0 133 47.5t53 170.5l20 317q2 55 -50 71l-40 12q0 2 3 38h264q1 -15 -1 -40l-59 -16
q-30 -8 -32 -42l-24 -343q-10 -149 -92.5 -214.5t-209.5 -65.5zM494 752q-14 0 -57.5 18t-56.5 18q-32 0 -103 -33l-22 33q117 76 141 76q20 0 69.5 -19.5t59.5 -19.5q15 0 46 26l29 -30q-69 -69 -106 -69z" />
    <glyph glyph-name="utilde" unicode="&#x169;" horiz-adv-x="531" 
d="M117 -13q-75 0 -66 103l40 437l84 33l-41 -490q10 -5 20 -5q31 0 95 47t92 76l37 339l85 33l-54 -479h90v-20q-69 -71 -128 -71q-42 0 -42 40q0 14 1 24l7 79q-52 -69 -102 -107.5t-118 -38.5zM370 655q-14 0 -57.5 18t-56.5 18q-32 0 -103 -33l-22 33q117 76 141 76
q20 0 69.5 -19.5t59.5 -19.5q15 0 46 26l29 -30q-69 -69 -106 -69z" />
    <glyph glyph-name="Umacron" unicode="&#x16a;" horiz-adv-x="768" 
d="M344 -13q-108 0 -171 48t-63 169q0 23 1 35l24 356q2 17 -5.5 33t-21.5 21l-59 21q0 22 6 38h278q1 -20 -2 -43l-66 -11q-28 -5 -30 -34l-26 -374q-8 -110 37.5 -152t132.5 -42q88 0 133 47.5t53 170.5l20 317q2 55 -50 71l-40 12q0 2 3 38h264q1 -15 -1 -40l-59 -16
q-30 -8 -32 -42l-24 -343q-10 -149 -92.5 -214.5t-209.5 -65.5zM274 775l4 69h298l-4 -69h-298z" />
    <glyph glyph-name="umacron" unicode="&#x16b;" horiz-adv-x="531" 
d="M117 -13q-75 0 -66 103l40 437l84 33l-41 -490q10 -5 20 -5q31 0 95 47t92 76l37 339l85 33l-54 -479h90v-20q-69 -71 -128 -71q-42 0 -42 40q0 14 1 24l7 79q-52 -69 -102 -107.5t-118 -38.5zM146 685l8 69h298l-8 -69h-298z" />
    <glyph glyph-name="Ubreve" unicode="&#x16c;" horiz-adv-x="768" 
d="M344 -13q-108 0 -171 48t-63 169q0 23 1 35l24 356q2 17 -5.5 33t-21.5 21l-59 21q0 22 6 38h278q1 -20 -2 -43l-66 -11q-28 -5 -30 -34l-26 -374q-8 -110 37.5 -152t132.5 -42q88 0 133 47.5t53 170.5l20 317q2 55 -50 71l-40 12q0 2 3 38h264q1 -15 -1 -40l-59 -16
q-30 -8 -32 -42l-24 -343q-10 -149 -92.5 -214.5t-209.5 -65.5zM420 757q-102 0 -164 84l54 51q49 -66 124 -66q33 0 63.5 13t44 24.5t21.5 20.5l28 -27q-5 -9 -15 -21.5t-31.5 -32.5t-54.5 -33t-70 -13z" />
    <glyph glyph-name="ubreve" unicode="&#x16d;" horiz-adv-x="531" 
d="M117 -13q-75 0 -66 103l40 437l84 33l-41 -490q10 -5 20 -5q31 0 95 47t92 76l37 339l85 33l-54 -479h90v-20q-69 -71 -128 -71q-42 0 -42 40q0 14 1 24l7 79q-52 -69 -102 -107.5t-118 -38.5zM304 636q-102 0 -164 84l54 51q49 -66 124 -66q33 0 63.5 13t44 24.5
t21.5 20.5l28 -27q-5 -9 -15 -21.5t-31.5 -32.5t-54.5 -33t-70 -13z" />
    <glyph glyph-name="Uring" unicode="&#x16e;" horiz-adv-x="768" 
d="M344 -13q-108 0 -171 48t-63 169q0 23 1 35l24 356q2 17 -5.5 33t-21.5 21l-59 21q0 22 6 38h242q1 -20 -2 -43l-30 -11q-28 -5 -30 -34l-26 -374q-8 -110 37.5 -152t132.5 -42q89 0 134.5 47.5t51.5 170.5l20 377q-45 -29 -106 -29q-50 0 -84.5 30t-34.5 74
q0 72 46.5 126.5t117.5 54.5q148 0 148 -120v-15h-77l1 52q-36 24 -92 24q-27 0 -43 -24.5t-20 -50.5t-3 -53v-16q18 -13 31 -17t40 -4q29 0 117 34l46 -4l-26 -442q-10 -149 -92.5 -214.5t-209.5 -65.5z" />
    <glyph glyph-name="uring" unicode="&#x16f;" horiz-adv-x="531" 
d="M117 -13q-75 0 -66 103l40 437l84 33l-41 -490q10 -5 20 -5q31 0 95 47t92 76l37 339l85 33l-54 -479h90v-20q-69 -71 -128 -71q-42 0 -42 40q0 14 1 24l7 79q-52 -69 -102 -107.5t-118 -38.5zM292 611q-52 0 -79.5 19.5t-27.5 69.5q0 51 38.5 94.5t82.5 43.5
q118 0 118 -92l-67 -24q3 12 3 57q-20 16 -58 16q-30 0 -42.5 -30t-12.5 -65q0 -16 1 -23q20 -17 55 -17q41 0 66 27l46 -3q-22 -28 -54.5 -50.5t-68.5 -22.5z" />
    <glyph glyph-name="Uhungarumlaut" unicode="&#x170;" horiz-adv-x="768" 
d="M344 -13q-108 0 -171 48t-63 169q0 23 1 35l24 356q2 17 -5.5 33t-21.5 21l-59 21q0 22 6 38h278q1 -20 -2 -43l-66 -11q-28 -5 -30 -34l-26 -374q-8 -110 37.5 -152t132.5 -42q88 0 133 47.5t53 170.5l20 317q2 55 -50 71l-40 12q0 2 3 38h264q1 -15 -1 -40l-59 -16
q-30 -8 -32 -42l-24 -343q-10 -149 -92.5 -214.5t-209.5 -65.5zM304 747q-12 14 -22 35q100 68 167 127q20 -17 42 -55q-77 -55 -187 -107zM502 747q-8 14 -13 39q103 39 192 84q15 -21 28 -63q-84 -34 -207 -60z" />
    <glyph glyph-name="uhungarumlaut" unicode="&#x171;" horiz-adv-x="531" 
d="M117 -13q-75 0 -66 103l40 437l84 33l-41 -490q10 -5 20 -5q31 0 95 47t92 76l37 339l85 33l-54 -479h90v-20q-69 -71 -128 -71q-42 0 -42 40q0 14 1 24l7 79q-52 -69 -102 -107.5t-118 -38.5zM218 613q-25 10 -36 24q63 99 113 194q29 -13 59 -41q-86 -119 -136 -177z
M405 615q-24 14 -32 29q82 95 142 175q26 -17 52 -50q-97 -99 -162 -154z" />
    <glyph glyph-name="Uogonek" unicode="&#x172;" horiz-adv-x="768" 
d="M400 -251q-122 0 -122 77q0 70 118 164q-26 -3 -52 -3q-108 0 -171 48t-63 169q0 23 1 35l24 356q2 17 -5.5 33t-21.5 21l-59 21q0 22 6 38h278q1 -20 -2 -43l-66 -11q-28 -5 -30 -34l-26 -374q-8 -110 37.5 -152t132.5 -42q88 0 133 47.5t53 170.5l20 317q2 55 -50 71
l-40 12q0 2 3 38h264q1 -15 -1 -40l-59 -16q-30 -8 -32 -42l-24 -343q-12 -188 -149 -250q-46 -34 -92 -89.5t-47 -92.5q24 -28 72 -28q20 0 42 5l13 -47q-39 -16 -85 -16z" />
    <glyph glyph-name="uogonek" unicode="&#x173;" horiz-adv-x="531" 
d="M349 -251q-122 0 -122 77q0 71 123 168q-21 8 -21 36q0 14 1 24l7 79q-52 -69 -102 -107.5t-118 -38.5q-75 0 -66 103l40 437l84 33l-41 -490q10 -5 20 -5q31 0 95 47t92 76l37 339l85 33l-54 -479h90v-20q-99 -81 -134 -120q-53 -59 -58 -106q24 -28 72 -28q19 0 42 5
l13 -47q-39 -16 -85 -16z" />
    <glyph glyph-name="Wcircumflex" unicode="&#x174;" horiz-adv-x="993" 
d="M639 -20l-138 464l-219 -444l-64 -17l-130 616q-3 12 -10 24t-12 17t-19.5 17.5t-17.5 15.5q0 19 6 34h226q2 -24 0 -36l-50 -17q-19 -6 -25.5 -28t-1.5 -47l90 -460l202 411l-22 88q-9 32 -38 55q-1 18 1 34h191q2 -24 0 -36l-22 -16q-18 -12 -26.5 -32t-2.5 -42
l132 -467l170 463q6 20 6 34q0 26 -16 34l-54 27q0 20 6 35h204q2 -24 0 -36l-17 -16q-38 -34 -52 -71l-228 -586zM655 733q-81 29 -137 78q-50 -38 -145 -72q-12 16 -18 37q114 63 175 118q38 -47 161 -110q-17 -31 -36 -51z" />
    <glyph glyph-name="wcircumflex" unicode="&#x175;" horiz-adv-x="763" 
d="M118 -32l-40 431l-47 126q42 29 125 30l28 -503l188 349l-18 133l87 23l56 -502l138 305q14 28 17 44v142h109v-29q0 -58 -52 -164l-172 -350l-110 -29l-41 318l-162 -290zM536 607q-62 67 -95 111q-57 -49 -140 -102q-12 12 -25 39q53 33 90 65.5t89 89.5
q47 -64 133 -157q-29 -33 -52 -46z" />
    <glyph glyph-name="Ycircumflex" unicode="&#x176;" horiz-adv-x="623" 
d="M132 0q-2 32 0 46l70 18q38 9 43 59l16 185l-166 289q-17 28 -39 48q-6 6 -17.5 15.5t-15.5 12.5q0 24 4 34h237q1 -19 0 -36l-50 -19q-18 -6 -18 -33q0 -20 10 -39l113 -211l150 216q10 15 7 34t-17 26l-52 27q0 22 4 35h233q1 -12 1 -35q-55 -22 -83 -61l-215 -303
l-11 -187q-2 -19 5.5 -36t21.5 -21l81 -22q-3 -26 -7 -42h-305zM491 733q-81 29 -137 78q-50 -38 -145 -72q-12 16 -18 37q114 63 175 118q38 -47 161 -110q-17 -31 -36 -51z" />
    <glyph glyph-name="ycircumflex" unicode="&#x177;" horiz-adv-x="458" 
d="M68 -220l108 220h-52l-47 390l-57 127q72 38 123 38l63 -515l135 320q6 13 9 33v153h100q1 -7 1 -29q0 -29 -8 -62t-14 -48.5t-23 -54.5l-247 -572h-91zM374 607q-62 67 -95 111q-57 -49 -140 -102q-12 12 -25 39q53 33 90 65.5t89 89.5q47 -64 133 -157q-29 -33 -52 -46
z" />
    <glyph glyph-name="Ydieresis" unicode="&#x178;" horiz-adv-x="623" 
d="M132 0q-2 32 0 46l70 18q38 9 43 59l16 185l-166 289q-17 28 -39 48q-6 6 -17.5 15.5t-15.5 12.5q0 24 4 34h237q1 -19 0 -36l-50 -19q-18 -6 -18 -33q0 -20 10 -39l113 -211l150 216q10 15 7 34t-17 26l-52 27q0 22 4 35h233q1 -12 1 -35q-55 -22 -83 -61l-215 -303
l-11 -187q-2 -19 5.5 -36t21.5 -21l81 -22q-3 -26 -7 -42h-305zM244 741q-10 0 -33.5 26.5t-21.5 35.5q1 10 30 36t38 26q10 0 34 -26t23 -36q-2 -8 -31 -35t-39 -27zM462 741q-10 0 -33.5 26.5t-21.5 35.5q1 10 30 36t38 26q10 0 34 -26t23 -36q-2 -8 -31 -35t-39 -27z" />
    <glyph glyph-name="Zacute" unicode="&#x179;" horiz-adv-x="575" 
d="M20 0l-13 55l416 593l-216 -10q-68 -10 -91 -100q-21 -2 -41 2l11 167h449l13 -42l-424 -598l235 9q50 2 84 31.5t51 69.5l39 -6l-30 -171h-483zM246 740q-8 14 -13 39q103 39 192 84q15 -21 28 -63q-84 -34 -207 -60z" />
    <glyph glyph-name="zacute" unicode="&#x17a;" horiz-adv-x="418" 
d="M23 0l-21 44l324 433l-5 5q-153 -33 -262 -33q0 66 21 103q79 -9 166 -9q15 0 156 3l16 -38l-317 -429l4 -6q158 19 284 27q1 -5 1 -19q0 -51 -10 -81h-357zM247 615q-24 14 -32 29q82 95 142 175q26 -17 52 -50q-97 -99 -162 -154z" />
    <glyph glyph-name="Zdotaccent" unicode="&#x17b;" horiz-adv-x="575" 
d="M20 0l-13 55l416 593l-216 -10q-68 -10 -91 -100q-21 -2 -41 2l11 167h449l13 -42l-424 -598l235 9q50 2 84 31.5t51 69.5l39 -6l-30 -171h-483zM326 757q-10 0 -34.5 28t-23.5 38q1 11 31.5 38t39.5 27q10 0 35.5 -27.5t24.5 -37.5q-2 -9 -32 -37.5t-41 -28.5z" />
    <glyph glyph-name="zdotaccent" unicode="&#x17c;" horiz-adv-x="418" 
d="M23 0l-21 44l324 433l-5 5q-153 -33 -262 -33q0 66 21 103q79 -9 166 -9q15 0 156 3l16 -38l-317 -429l4 -6q158 19 284 27q1 -5 1 -19q0 -51 -10 -81h-357zM252 650q-10 0 -35 28t-23 38q1 10 31 37.5t40 27.5t35.5 -27.5t24.5 -37.5q-2 -9 -32 -37.5t-41 -28.5z" />
    <glyph glyph-name="Zcaron" unicode="&#x17d;" horiz-adv-x="575" 
d="M20 0l-13 55l416 593l-216 -10q-68 -10 -91 -100q-21 -2 -41 2l11 167h449l13 -42l-424 -598l235 9q50 2 84 31.5t51 69.5l39 -6l-30 -171h-483zM320 741q-38 47 -161 110q17 31 36 51q80 -35 137 -78q61 42 145 72q12 -16 18 -37q-100 -54 -175 -118z" />
    <glyph glyph-name="zcaron" unicode="&#x17e;" horiz-adv-x="418" 
d="M23 0l-21 44l324 433l-5 5q-153 -33 -262 -33q0 66 21 103q79 -9 166 -9q15 0 156 3l16 -38l-317 -429l4 -6q158 19 284 27q1 -5 1 -19q0 -51 -10 -81h-357zM248 616q-47 64 -133 157q29 33 52 46q62 -67 95 -111q57 49 140 102q12 -12 25 -39q-53 -33 -90 -65.5
t-89 -89.5z" />
    <glyph glyph-name="longs" unicode="&#x17f;" horiz-adv-x="327" 
d="M-54 -224q-68 0 -102 27q1 18 11.5 46t20.5 42q72 -55 103 -55q33 0 54.5 33t28.5 93l45 614q8 87 65.5 138.5t152.5 51.5q68 0 102 -27q0 -19 -10 -49t-21 -43q-66 59 -110 59q-46 0 -68 -31t-29 -95l-45 -614q-8 -84 -64 -137t-134 -53z" />
    <glyph glyph-name="uni018F" unicode="&#x18f;" horiz-adv-x="726" 
d="M338 -11q-145 0 -219 89t-74 262v23h545q0 287 -217 287q-53 0 -101.5 -14t-68 -24.5t-56.5 -33.5l-9 15l-18 31l-9 15q65 39 129 60t156 21q140 0 217 -84t77 -237q0 -109 -39 -200.5t-121 -150.5t-192 -59zM357 59q90 0 150 73t77 175h-436q3 -105 55.5 -176.5
t153.5 -71.5z" />
    <glyph glyph-name="florin" unicode="&#x192;" horiz-adv-x="412" 
d="M29 -96q-38 0 -90 27q1 18 11.5 46t20.5 42q53 -55 91 -55q24 0 44.5 28t23.5 70l14 195h-93l3 52h93l10 129q5 71 59 119t132 48q56 0 85 -23q0 -19 -9 -46t-20 -40q-54 49 -95 49q-38 0 -52 -23.5t-18 -79.5l-10 -133h126l-3 -52h-127l-13 -191q-5 -64 -59.5 -113
t-123.5 -49z" />
    <glyph glyph-name="uni01D3" unicode="&#x1d3;" horiz-adv-x="768" 
d="M344 -13q-108 0 -171 48t-63 169q0 23 1 35l24 356q2 17 -5.5 33t-21.5 21l-59 21q0 22 6 38h278q1 -20 -2 -43l-66 -11q-28 -5 -30 -34l-26 -374q-8 -110 37.5 -152t132.5 -42q88 0 133 47.5t53 170.5l20 317q2 55 -50 71l-40 12q0 2 3 38h264q1 -15 -1 -40l-59 -16
q-30 -8 -32 -42l-24 -343q-10 -149 -92.5 -214.5t-209.5 -65.5zM413 741q-38 47 -161 110q17 31 36 51q80 -35 137 -78q61 42 145 72q12 -16 18 -37q-100 -54 -175 -118z" />
    <glyph glyph-name="uni01D4" unicode="&#x1d4;" horiz-adv-x="531" 
d="M117 -13q-75 0 -66 103l40 437l84 33l-41 -490q10 -5 20 -5q31 0 95 47t92 76l37 339l85 33l-54 -479h90v-20q-69 -71 -128 -71q-42 0 -42 40q0 14 1 24l7 79q-52 -69 -102 -107.5t-118 -38.5zM284 616q-47 64 -133 157q29 33 52 46q62 -67 95 -111q57 49 140 102
q12 -12 25 -39q-53 -33 -90 -65.5t-89 -89.5z" />
    <glyph glyph-name="AEmacron" unicode="&#x1e2;" horiz-adv-x="820" 
d="M468 775l4 69h298l-4 -69h-298zM-76 0q0 31 4 44q53 40 82 80l431 583h365l-11 -160q-3 -1 -51 -1q-6 47 -22 68t-52 22l-131 6l-18 -254l221 5l-5 -76l-221 5l-13 -256l138 3q50 1 84.5 31.5t50.5 71.5l44 -7l-30 -165h-493q-3 23 -1 49l70 18q18 4 29.5 20.5t13.5 37.5
l15 198h-186l-136 -193q-10 -13 -10 -24q0 -31 39 -46l42 -16q0 -29 -7 -44h-242zM284 388h145l13 172l5 65h-5l-52 -86z" />
    <glyph glyph-name="aemacron" unicode="&#x1e3;" horiz-adv-x="687" 
d="M119 -13q-46 0 -61.5 22.5t-15.5 72.5q0 58 8 118t29.5 125.5t54 115.5t85.5 82.5t120 32.5q46 0 100 -25q49 27 114 27q56 0 88 -23t32 -64q0 -97 -70 -152t-223 -82q-4 -53 -4 -152q30 -14 53 -14q53 0 169 53l21 -44q-45 -40 -105 -66.5t-117 -26.5q-48 0 -71.5 19
t-32.5 69q-92 -88 -174 -88zM148 68q46 0 140 74v17q0 197 79 308q-34 18 -76 18t-76.5 -50t-53 -121t-28 -135.5t-9.5 -106.5q9 -4 24 -4zM385 290q81 16 122.5 37t55 47t13.5 71q0 49 -70 49q-94 0 -121 -204zM273 685l8 69h298l-8 -69h-298z" />
    <glyph glyph-name="AEacute" unicode="&#x1fc;" horiz-adv-x="820" 
d="M529 740q-8 14 -13 39q103 39 192 84q15 -21 28 -63q-84 -34 -207 -60zM-76 0q0 31 4 44q53 40 82 80l431 583h365l-11 -160q-3 -1 -51 -1q-6 47 -22 68t-52 22l-131 6l-18 -254l221 5l-5 -76l-221 5l-13 -256l138 3q50 1 84.5 31.5t50.5 71.5l44 -7l-30 -165h-493
q-3 23 -1 49l70 18q18 4 29.5 20.5t13.5 37.5l15 198h-186l-136 -193q-10 -13 -10 -24q0 -31 39 -46l42 -16q0 -29 -7 -44h-242zM284 388h145l13 172l5 65h-5l-52 -86z" />
    <glyph glyph-name="aeacute" unicode="&#x1fd;" horiz-adv-x="687" 
d="M119 -13q-46 0 -61.5 22.5t-15.5 72.5q0 58 8 118t29.5 125.5t54 115.5t85.5 82.5t120 32.5q46 0 100 -25q49 27 114 27q56 0 88 -23t32 -64q0 -97 -70 -152t-223 -82q-4 -53 -4 -152q30 -14 53 -14q53 0 169 53l21 -44q-45 -40 -105 -66.5t-117 -26.5q-48 0 -71.5 19
t-32.5 69q-92 -88 -174 -88zM148 68q46 0 140 74v17q0 197 79 308q-34 18 -76 18t-76.5 -50t-53 -121t-28 -135.5t-9.5 -106.5q9 -4 24 -4zM385 290q81 16 122.5 37t55 47t13.5 71q0 49 -70 49q-94 0 -121 -204zM431 615q-24 14 -32 29q82 95 142 175q26 -17 52 -50
q-97 -99 -162 -154z" />
    <glyph glyph-name="Oslashacute" unicode="&#x1fe;" horiz-adv-x="726" 
d="M14 -22l-36 34l112 109q-45 78 -45 190q0 108 42.5 200.5t126.5 150.5t192 58q119 0 194 -73l85 95l36 -33l-89 -100q58 -85 58 -210q0 -109 -39 -200.5t-121 -150.5t-192 -59q-141 0 -219 91zM357 59q71 0 126 50t81 120.5t26 143.5q0 92 -30 159l-370 -382
q54 -91 167 -91zM168 199l367 378q-54 74 -152 74q-75 0 -130.5 -49.5t-80.5 -119t-25 -145.5q0 -75 21 -138zM313 740q-8 14 -13 39q103 39 192 84q15 -21 28 -63q-84 -34 -207 -60z" />
    <glyph glyph-name="oslashacute" unicode="&#x1ff;" horiz-adv-x="488" 
d="M-7 -36l-38 32l90 97q-5 25 -5 69q0 60 12.5 124.5t37 126.5t70.5 102t104 40q94 0 140 -48l63 78l37 -32l-71 -89q17 -40 17 -93q0 -59 -15 -123t-43 -123.5t-77 -98t-109 -38.5q-109 0 -142 51zM243 61q29 0 53 32t38 81.5t21 102.5t7 101l-232 -267l1 -18
q33 -32 112 -32zM129 188l227 262q-8 6 -13 9q-47 27 -94 27q-33 0 -57.5 -28.5t-37 -76t-18.5 -94.5t-7 -99zM279 615q-24 14 -32 29q82 95 142 175q26 -17 52 -50q-97 -99 -162 -154z" />
    <glyph glyph-name="Scommaaccent" unicode="&#x218;" horiz-adv-x="496" 
d="M214 -13q-128 0 -214 59q7 27 41 139h25q15 -65 55 -101.5t104 -36.5q50 0 90.5 28t40.5 78q0 28 -20 57t-49.5 53.5l-64 55t-64 60.5t-49.5 72t-20 87q0 73 63 124t138 51q113 0 176 -38q-7 -70 -19 -126h-32q-13 47 -50.5 74t-86.5 27q-43 0 -75.5 -22t-32.5 -63
q0 -34 20.5 -67.5t51.5 -60l67 -58.5l67 -61t51.5 -68.5t20.5 -81.5q0 -89 -71 -135t-163 -46zM205 -307l-47 10q30 138 30 236l81 -5q-6 -135 -64 -241z" />
    <glyph glyph-name="scommaaccent" unicode="&#x219;" horiz-adv-x="385" 
d="M141 -10q-76 0 -138 26q9 48 29 87q100 -37 187 -37q16 0 30.5 9t14.5 24q0 28 -31 68t-67.5 76t-67.5 85.5t-31 92.5q0 70 48 102t129 32q67 0 124 -24q0 -51 -28 -89q-42 29 -74.5 42t-76.5 13q-17 0 -31 -12t-14 -26q0 -31 20 -64t48.5 -62.5l57.5 -59t49 -63
t20 -64.5q0 -76 -59.5 -116t-138.5 -40zM137 -307l-47 10q30 138 30 236l81 -5q-6 -135 -64 -241z" />
    <glyph glyph-name="uni021A" unicode="&#x21a;" horiz-adv-x="632" 
d="M133 0q-2 24 0 45l74 19q18 4 31.5 26.5t15.5 44.5l39 509h-120q-65 0 -93 -101q-23 -2 -40 2l11 162h579l-11 -162q-16 -4 -41 -2q-13 101 -89 101h-110l-34 -543q-1 -19 3 -27t18 -12l92 -17q-3 -34 -7 -45h-318zM260 -307l-47 10q30 138 30 236l81 -5
q-6 -135 -64 -241z" />
    <glyph glyph-name="Ymacron" unicode="&#x232;" horiz-adv-x="623" 
d="M132 0q-2 32 0 46l70 18q38 9 43 59l16 185l-166 289q-17 28 -39 48q-6 6 -17.5 15.5t-15.5 12.5q0 24 4 34h237q1 -19 0 -36l-50 -19q-18 -6 -18 -33q0 -20 10 -39l113 -211l150 216q10 15 7 34t-17 26l-52 27q0 22 4 35h233q1 -12 1 -35q-55 -22 -83 -61l-215 -303
l-11 -187q-2 -19 5.5 -36t21.5 -21l81 -22q-3 -26 -7 -42h-305zM198 775l4 69h298l-4 -69h-298z" />
    <glyph glyph-name="ymacron" unicode="&#x233;" horiz-adv-x="458" 
d="M68 -220l108 220h-52l-47 390l-57 127q72 38 123 38l63 -515l135 320q6 13 9 33v153h100q1 -7 1 -29q0 -29 -8 -62t-14 -48.5t-23 -54.5l-247 -572h-91zM113 685l8 69h298l-8 -69h-298z" />
    <glyph glyph-name="schwa" unicode="&#x259;" horiz-adv-x="434" 
d="M290 564q62 0 85.5 -35.5t23.5 -136.5q0 -71 -11.5 -134.5t-39 -126.5t-82.5 -100.5t-132 -37.5q-56 0 -88 23t-32 64q0 97 70 152t223 82q4 53 4 152q-30 14 -53 14q-53 0 -169 -53l-21 44q45 40 105 66.5t117 26.5zM302 261q-81 -16 -122.5 -37t-55 -47t-13.5 -71
q0 -49 70 -49q94 0 121 204z" />
    <glyph glyph-name="h.superior" unicode="&#x2b0;" horiz-adv-x="402" 
d="M273 406q-30 0 -30 29q0 6 0.5 11t1.5 12.5l2 15.5l31 235q-6 3 -16 3q-26 0 -70.5 -18t-58.5 -30l-16 -142v-108h-80l48 460h-61v38q58 14 107 14q25 0 25 -21v-5l-20 -197q30 32 81 57.5t85 25.5q25 0 36 -10t11 -33q0 -16 -2 -25l-31 -244h55v-17q-56 -51 -98 -51z
" />
    <glyph glyph-name="j.superior" unicode="&#x2b2;" horiz-adv-x="206" 
d="M-39 266q-26 0 -51 9q2 27 16 61q28 -7 44 -7q40 0 54.5 15t18.5 61l29 363l73 23l-32 -372q-5 -58 -51.5 -105.5t-100.5 -47.5zM111 848q-7 0 -26 22t-19 29t24 28.5t32 21.5q7 0 26 -21t19 -28t-24 -29.5t-32 -22.5z" />
    <glyph glyph-name="r.superior" unicode="&#x2b3;" horiz-adv-x="268" 
d="M35 414l36 356l74 22l-8 -72q20 25 57 46t68 21q9 0 14 -1l-10 -72q-5 2 -19 2q-68 0 -114 -30l-17 -164v-108h-81z" />
    <glyph glyph-name="w.superior" unicode="&#x2b7;" horiz-adv-x="544" 
d="M80 394l-28 286l-33 85q38 22 97 22l21 -326l120 215l-13 96l73 17l36 -326l92 188l10 32v98h85q2 -7 2 -23q0 -37 -36 -111l-124 -232l-86 -19l-28 198l-105 -179z" />
    <glyph glyph-name="y.superior" unicode="&#x2b8;" horiz-adv-x="341" 
d="M43 265l77 149h-35l-35 264l-36 85q46 24 95 24l40 -331l99 196q3 6 7 22v107h82q1 -4 1 -19q0 -40 -30 -112l-194 -385h-71z" />
    <glyph glyph-name="circumflex" unicode="&#x2c6;" horiz-adv-x="540" 
d="M415 607q-62 67 -95 111q-57 -49 -140 -102q-12 12 -25 39q53 33 90 65.5t89 89.5q47 -64 133 -157q-29 -33 -52 -46z" />
    <glyph glyph-name="caron" unicode="&#x2c7;" horiz-adv-x="540" 
d="M266 616q-47 64 -133 157q29 33 52 46q62 -67 95 -111q57 49 140 102q12 -12 25 -39q-53 -33 -90 -65.5t-89 -89.5z" />
    <glyph glyph-name="breve" unicode="&#x2d8;" horiz-adv-x="500" 
d="M258 636q-102 0 -164 84l54 51q49 -66 124 -66q33 0 63.5 13t44 24.5t21.5 20.5l28 -27q-5 -9 -15 -21.5t-31.5 -32.5t-54.5 -33t-70 -13z" />
    <glyph glyph-name="dotaccent" unicode="&#x2d9;" horiz-adv-x="348" 
d="M167 650q-10 0 -35 28t-23 38q1 10 31 37.5t40 27.5t35.5 -27.5t24.5 -37.5q-2 -9 -32 -37.5t-41 -28.5z" />
    <glyph glyph-name="ring" unicode="&#x2da;" horiz-adv-x="444" 
d="M230 662q45 0 42 85v21q-28 18 -69 18q-20 0 -32 -18.5t-15 -37.5t-2 -39v-12q22 -17 76 -17zM210 615q-116 0 -116 79q0 55 35 96.5t89 41.5q112 0 112 -92q0 -51 -35 -88t-85 -37z" />
    <glyph glyph-name="ogonek" unicode="&#x2db;" horiz-adv-x="565" 
d="M383 -251q-122 0 -122 77q0 56 71.5 123t140.5 103l19 -27q-44 -29 -97 -89.5t-54 -100.5q24 -28 72 -28q19 0 42 5l13 -47q-39 -16 -85 -16z" />
    <glyph glyph-name="tilde" unicode="&#x2dc;" horiz-adv-x="540" 
d="M340 655q-14 0 -57.5 18t-56.5 18q-32 0 -103 -33l-22 33q117 76 141 76q20 0 69.5 -19.5t59.5 -19.5q15 0 46 26l29 -30q-69 -69 -106 -69z" />
    <glyph glyph-name="hungarumlaut" unicode="&#x2dd;" horiz-adv-x="568" 
d="M154 613q-25 10 -36 24q63 99 113 194q29 -13 59 -41q-86 -119 -136 -177zM341 615q-24 14 -32 29q82 95 142 175q26 -17 52 -50q-97 -99 -162 -154z" />
    <glyph glyph-name="x.superior" unicode="&#x2e3;" horiz-adv-x="351" 
d="M263 407q-27 0 -39 28l-60 113l-76 -79v-55h-80l-11 25l146 151l-52 100l-56 61q35 35 85 35l74 -141l65 67v69h81v-13q0 -35 -34 -71l-90 -94l71 -133h53l4 -22q-47 -41 -81 -41z" />
    <glyph glyph-name="uni0374" unicode="&#x374;" horiz-adv-x="226" 
d="M109 489l-32 27q41 59 55 114q-30 46 -30 91q0 19 32 30.5t58 11.5q7 -8 17 -32.5t10 -35.5q0 -43 -27.5 -101t-82.5 -105z" />
    <glyph glyph-name="uni0375" unicode="&#x375;" horiz-adv-x="226" 
d="M37 -182l-31 27q38 55 55 114q-35 54 -35 91q0 19 38 30.5t67 11.5q7 -8 17 -32t10 -36q0 -40 -32 -99t-89 -107z" />
    <glyph glyph-name="uni037E" unicode="&#x37e;" horiz-adv-x="280" 
d="M54 -180l-31 27q38 53 55 114q-35 54 -35 91q0 19 38.5 30.5t66.5 11.5q7 -8 17 -32.5t10 -35.5q0 -41 -32 -99t-89 -107zM146 406q-11 0 -39.5 33t-28.5 45q0 10 36.5 43t47.5 33t40.5 -32t29.5 -44q0 -9 -38 -43.5t-48 -34.5z" />
    <glyph glyph-name="tonos" unicode="&#x384;" horiz-adv-x="500" 
d="M326 603l-43 31q77 105 132 222l76 -49q-62 -94 -165 -204z" />
    <glyph glyph-name="dieresistonos" unicode="&#x385;" horiz-adv-x="500" 
d="M49 635q-10 0 -33 25.5t-23 36.5q0 9 30 35.5t39 26.5q10 0 33 -25.5t23 -36.5q0 -9 -30 -35.5t-39 -26.5zM317 635q-10 0 -33 25.5t-23 36.5q0 9 30 35.5t39 26.5q10 0 33 -25.5t23 -36.5q0 -9 -30 -35.5t-39 -26.5zM160 623l-43 31q77 105 132 222l76 -49
q-62 -94 -165 -204z" />
    <glyph glyph-name="Alphatonos" unicode="&#x386;" horiz-adv-x="655" 
d="M-40 0q-2 22 0 40q66 50 83 81l314 579l91 25l94 -592q2 -13 7 -23.5t9 -17t14.5 -15.5t14.5 -12t19 -12.5t19 -12.5q-3 -30 -7 -40h-261q-1 21 0 40l60 20q34 11 34 66q0 10 -4 38l-18 124h-229l-83 -158q-5 -10 -5 -23q0 -16 13 -30t36 -22l49 -15l-4 -40h-246z
M232 349h189l-30 211l-6 69h-11l-31 -67zM22 472l-43 31q77 105 132 222l76 -49q-62 -94 -165 -204z" />
    <glyph glyph-name="anoteleia" unicode="&#x387;" horiz-adv-x="277" 
d="M173 282q-12 0 -40.5 32t-26.5 43q1 12 36.5 43t46.5 31t39 -31.5t27 -42.5q-1 -10 -35.5 -42.5t-46.5 -32.5z" />
    <glyph glyph-name="Epsilontonos" unicode="&#x388;" horiz-adv-x="591" 
d="M-140 472l-43 31q77 105 132 222l76 -49q-62 -94 -165 -204zM10 0q-3 24 0 45l68 18q18 4 30 21t14 39l36 481q2 13 -4 25.5t-18 16.5l-72 26q0 18 7 35h474l-11 -157q-17 -3 -47 0q-6 47 -22.5 68.5t-53.5 22.5l-164 6l-18 -261l252 5l-5 -72l-251 5l-13 -263l170 4
q50 1 85 31.5t52 71.5l39 -6l-29 -162h-519z" />
    <glyph glyph-name="Etatonos" unicode="&#x389;" horiz-adv-x="783" 
d="M-140 472l-43 31q77 105 132 222l76 -49q-62 -94 -165 -204zM8 0q-3 19 -1 40l59 21q21 8 34.5 33t15.5 50l32 438q5 58 -32 69l-65 19q3 26 7 37h267q3 -20 1 -41l-55 -13q-21 -5 -27.5 -13.5t-8.5 -29.5l-15 -224h355l12 186q2 22 -7.5 47.5t-29.5 33.5l-46 17
q3 34 4 37h257q-3 -33 -5 -41l-52 -12q-17 -4 -24 -12t-8 -29l-32 -503q-3 -37 18 -42l81 -19q-3 -35 -7 -49h-283q-3 24 0 44l41 11q30 9 45 38t18 59l13 172h-355l-11 -213q-1 -34 22 -40l92 -25q-3 -32 -7 -46h-303z" />
    <glyph glyph-name="Iotatonos" unicode="&#x38a;" horiz-adv-x="336" 
d="M-140 472l-43 31q77 105 132 222l76 -49q-62 -94 -165 -204zM12 0q-3 19 -1 40l54 21q38 14 44 72l32 441q6 62 -46 82l-37 14q-2 21 4 37h257q2 -15 0 -41l-40 -8q-24 -6 -36.5 -29.5t-14.5 -51.5l-30 -476q-2 -19 3 -27t21 -12l77 -16q-3 -31 -7 -46h-280z" />
    <glyph glyph-name="Omicrontonos" unicode="&#x38c;" horiz-adv-x="726" 
d="M-90 472l-43 31q77 105 132 222l76 -49q-62 -94 -165 -204zM338 -11q-141 0 -217 88t-76 234q0 108 42.5 200.5t126.5 150.5t192 58q135 0 209.5 -90t74.5 -231q0 -109 -39 -200.5t-121 -150.5t-192 -59zM357 59q71 0 126 50t81 120.5t26 143.5q0 74 -19 134t-67.5 102
t-120.5 42q-75 0 -130.5 -49.5t-80.5 -119t-25 -145.5q0 -55 11 -102.5t34 -88t65.5 -64t99.5 -23.5z" />
    <glyph glyph-name="Upsilontonos" unicode="&#x38e;" horiz-adv-x="623" 
d="M-173 472l-43 31q76 105 132 222l76 -49q-62 -94 -165 -204zM671 710l-12 -56q-6 1 -20 1q-53 0 -108.5 -56.5t-95 -135t-65.5 -156.5t-29 -127l-4 -63q-2 -17 6.5 -33t21.5 -20l83 -23q-3 -31 -7 -41h-309q-4 28 -1 45l71 18q19 4 30.5 20t13.5 37l6 70q6 78 -24 189
t-84.5 196t-106.5 85q-13 0 -27 -2l-6 30q20 13 53.5 22t57.5 9q72 0 125 -95t75 -288h5q51 199 132.5 291t166.5 91q41 0 52 -8z" />
    <glyph glyph-name="Omegatonos" unicode="&#x38f;" horiz-adv-x="712" 
d="M-90 472l-43 31q77 105 132 222l76 -49q-62 -94 -165 -204zM23 0l8 86l181 -23l1 2q-73 31 -114.5 109.5t-41.5 163.5q0 99 39.5 185t118.5 141.5t182 55.5q139 0 209.5 -83t70.5 -225q0 -104 -54.5 -203.5t-143.5 -143.5l1 -2l188 23l-9 -86h-256l5 69q169 123 169 334
q0 107 -47 177.5t-145 70.5q-62 0 -108.5 -28.5t-71.5 -75.5t-36.5 -97t-11.5 -103q0 -85 32.5 -145t101.5 -125l-5 -77h-263z" />
    <glyph glyph-name="iotadieresistonos" unicode="&#x390;" horiz-adv-x="259" 
d="M49 635q-10 0 -33 25.5t-23 36.5q0 9 30 35.5t39 26.5q10 0 33 -25.5t23 -36.5q0 -9 -30 -35.5t-39 -26.5zM317 635q-10 0 -33 25.5t-23 36.5q0 9 30 35.5t39 26.5q10 0 33 -25.5t23 -36.5q0 -9 -30 -35.5t-39 -26.5zM160 623l-43 31q77 105 132 222l76 -49
q-62 -94 -165 -204zM91 -12q-43 0 -43 40q0 6 7 69l43 432l83 34l-48 -483h86v-21q-71 -71 -128 -71z" />
    <glyph glyph-name="Alpha" unicode="&#x391;" horiz-adv-x="655" 
d="M-40 0q-2 22 0 40q66 50 83 81l314 579l91 25l94 -592q2 -13 7 -23.5t9 -17t14.5 -15.5t14.5 -12t19 -12.5t19 -12.5q-3 -30 -7 -40h-261q-1 21 0 40l60 20q34 11 34 66q0 10 -4 38l-18 124h-229l-83 -158q-5 -10 -5 -23q0 -16 13 -30t36 -22l49 -15l-4 -40h-246z
M232 349h189l-30 211l-6 69h-11l-31 -67z" />
    <glyph glyph-name="Beta" unicode="&#x392;" horiz-adv-x="628" 
d="M8 0q-1 9 1 44q3 1 15.5 3.5t19.5 4.5q35 8 54.5 23t21.5 48l36 481q4 33 -23 42l-65 26q0 20 7 35h250q43 0 80 -6.5t70.5 -22.5t53 -46.5t19.5 -73.5q0 -51 -29 -96t-79 -75v-2q62 -15 99 -58t37 -100q0 -99 -80.5 -163t-190.5 -64h-297zM209 61h92q85 0 136 35.5
t51 106.5q0 57 -41.5 94.5t-107.5 38.5l-112 3zM230 394l79 3q140 4 140 144q0 55 -40 80t-96 28l-67 3z" />
    <glyph glyph-name="Gamma" unicode="&#x393;" horiz-adv-x="534" 
d="M20 0q-2 29 -1 40l58 18q18 6 30.5 24.5t14.5 40.5l13 149l23 332q2 33 -22 42l-72 26q0 18 7 35h474l-14 -194q-19 -5 -36 3q-4 54 -24 85t-71 34l-154 11l-24 -373l-9 -163q-1 -17 2.5 -25t18.5 -11l110 -23q-4 -42 -7 -51h-317z" />
    <glyph glyph-name="uni0394" unicode="&#x394;" horiz-adv-x="628" 
d="M-19 0q-2 28 -1 40l359 659l85 26l139 -685q-3 -32 -6 -40h-576zM71 68l387 6l-81 484l-9 84h-7l-37 -82z" />
    <glyph glyph-name="Epsilon" unicode="&#x395;" horiz-adv-x="591" 
d="M10 0q-3 24 0 45l68 18q18 4 30 21t14 39l36 481q2 13 -4 25.5t-18 16.5l-72 26q0 18 7 35h474l-11 -157q-17 -3 -47 0q-6 47 -22.5 68.5t-53.5 22.5l-164 6l-18 -261l252 5l-5 -72l-251 5l-13 -263l170 4q50 1 85 31.5t52 71.5l39 -6l-29 -162h-519z" />
    <glyph glyph-name="Zeta" unicode="&#x396;" horiz-adv-x="575" 
d="M20 0l-13 55l416 593l-216 -10q-68 -10 -91 -100q-21 -2 -41 2l11 167h449l13 -42l-424 -598l235 9q50 2 84 31.5t51 69.5l39 -6l-30 -171h-483z" />
    <glyph glyph-name="Eta" unicode="&#x397;" horiz-adv-x="783" 
d="M8 0q-3 19 -1 40l59 21q21 8 34.5 33t15.5 50l32 438q5 58 -32 69l-65 19q3 26 7 37h267q3 -20 1 -41l-55 -13q-21 -5 -27.5 -13.5t-8.5 -29.5l-15 -224h355l12 186q2 22 -7.5 47.5t-29.5 33.5l-46 17q3 34 4 37h257q-3 -33 -5 -41l-52 -12q-17 -4 -24 -12t-8 -29
l-32 -503q-3 -37 18 -42l81 -19q-3 -35 -7 -49h-283q-3 24 0 44l41 11q30 9 45 38t18 59l13 172h-355l-11 -213q-1 -34 22 -40l92 -25q-3 -32 -7 -46h-303z" />
    <glyph glyph-name="Theta" unicode="&#x398;" horiz-adv-x="726" 
d="M510 319l-289 5l3 62l291 5zM338 -11q-141 0 -217 88t-76 234q0 108 42.5 200.5t126.5 150.5t192 58q135 0 209.5 -90t74.5 -231q0 -109 -39 -200.5t-121 -150.5t-192 -59zM357 59q71 0 126 50t81 120.5t26 143.5q0 74 -19 134t-67.5 102t-120.5 42q-75 0 -130.5 -49.5
t-80.5 -119t-25 -145.5q0 -55 11 -102.5t34 -88t65.5 -64t99.5 -23.5z" />
    <glyph glyph-name="Iota" unicode="&#x399;" horiz-adv-x="336" 
d="M12 0q-3 19 -1 40l54 21q38 14 44 72l32 441q6 62 -46 82l-37 14q-2 21 4 37h257q2 -15 0 -41l-40 -8q-24 -6 -36.5 -29.5t-14.5 -51.5l-30 -476q-2 -19 3 -27t21 -12l77 -16q-3 -31 -7 -46h-280z" />
    <glyph glyph-name="Kappa" unicode="&#x39a;" horiz-adv-x="673" 
d="M4 0q-4 27 -1 44l68 23q38 13 42 67l34 449q2 51 -26 62l-58 21q-3 23 4 41h262q2 -32 1 -39l-51 -19q-19 -7 -29.5 -27.5t-12.5 -43.5l-30 -470q-1 -18 3 -25.5t15 -10.5l63 -21q0 -32 -7 -51h-277zM657 -22q-19 0 -43 3t-64 18.5t-61 42.5l-229 300l3 41l197 205
q23 24 24 38q0 20 -18 27l-45 14q0 18 6 40h230l-3 -41l-306 -277l196 -257q52 -69 127 -101z" />
    <glyph glyph-name="Lambda" unicode="&#x39b;" horiz-adv-x="609" 
d="M-50 0q-2 29 -1 40q72 58 83 81l292 578l85 26l93 -592q9 -53 83 -93q-3 -28 -7 -40h-261q-1 21 0 40l60 20q20 6 28 29.5t5 49.5l-6 48l-48 372l-6 71h-7l-30 -70l-179 -373l-27 -57q-11 -24 1 -45t42 -30l49 -15l-1 -16q0 -17 -2 -24h-246z" />
    <glyph glyph-name="Mu" unicode="&#x39c;" horiz-adv-x="964" 
d="M393 -20l-109 588h-11l-5 -52l-133 -408q-10 -30 11 -36l90 -29q-3 -33 -7 -43h-252q-3 19 -1 40l36 18q40 19 60 80l147 452q6 18 -3 36t-24 23l-60 21q3 27 7 37h201l83 -394l27 -152h7l70 147l195 399h185q2 -27 1 -35l-48 -16q-44 -15 -43 -82l8 -458q0 -34 33 -53
l42 -21q0 -20 -6 -42h-254q-2 28 0 40l43 13q20 6 30.5 26t12 37.5t2.5 43.5v6l1 348l1 56h-10l-269 -570z" />
    <glyph glyph-name="Nu" unicode="&#x39d;" horiz-adv-x="802" 
d="M576 -21l-351 614h-11l4 -83l-26 -399q-1 -19 3 -26.5t20 -13.5l81 -29q0 -20 -6 -42h-278q-3 19 -1 40l58 18q23 7 38 33t17 53l30 451q1 18 -6.5 33.5t-20.5 20.5l-54 21q3 30 5 37h198l319 -547h11l-3 109l22 313q1 21 -9 41t-26 26l-59 21q3 27 6 37h258q2 -22 1 -35
l-58 -16q-19 -6 -32.5 -27t-15.5 -45l-41 -583z" />
    <glyph glyph-name="Xi" unicode="&#x39e;" horiz-adv-x="615" 
d="M41 0l-6 174q19 9 41 7q7 -22 9 -29.5t11 -26t18 -25.5t25.5 -14.5t37.5 -7.5l236 4q26 0 45.5 9t33 27.5t20.5 31t16 35.5q24 0 40 -7l-31 -178h-496zM107 531q-17 -3 -42 3l13 173h502l-12 -169q-26 -6 -43 -3q-6 47 -24 73.5t-52 25.5l-262 -4q-33 -1 -50 -25t-30 -74
zM480 320l-336 7l5 70l337 7z" />
    <glyph glyph-name="Omicron" unicode="&#x39f;" horiz-adv-x="726" 
d="M338 -11q-141 0 -217 88t-76 234q0 108 42.5 200.5t126.5 150.5t192 58q135 0 209.5 -90t74.5 -231q0 -109 -39 -200.5t-121 -150.5t-192 -59zM357 59q71 0 126 50t81 120.5t26 143.5q0 74 -19 134t-67.5 102t-120.5 42q-75 0 -130.5 -49.5t-80.5 -119t-25 -145.5
q0 -55 11 -102.5t34 -88t65.5 -64t99.5 -23.5z" />
    <glyph glyph-name="Pi" unicode="&#x3a0;" horiz-adv-x="758" 
d="M8 0q-2 34 -1 40l61 22q20 8 32.5 33t15.5 51l10 127l22 308q6 57 -26 68l-71 21q3 26 7 37h682q-2 -32 -5 -41l-53 -12q-16 -4 -23 -13t-9 -30l-22 -338l-10 -161q-2 -40 17 -44l82 -19q0 -35 -8 -49h-282q-2 34 0 44l43 12q53 17 61 98l9 119l26 369h-328l-25 -369
l-9 -164q-1 -32 20 -37l94 -26q-4 -35 -8 -46h-302z" />
    <glyph glyph-name="Rho" unicode="&#x3a1;" horiz-adv-x="566" 
d="M13 0q-2 26 -1 40q49 15 58 18q20 6 31.5 24.5t13.5 39.5l36 482q4 34 -22 42l-71 26q-1 15 6 35h292q99 0 154.5 -46.5t55.5 -143.5t-64.5 -159t-165.5 -62q-22 0 -46 3l6 56h24q143 0 143 142q0 34 -8 60t-26 41.5t-34.5 25t-48 14.5t-50.5 6.5t-56 2.5l-34 -544
q-2 -25 22 -32l98 -26q-2 -27 -7 -45h-306z" />
    <glyph glyph-name="Sigma" unicode="&#x3a3;" horiz-adv-x="582" 
d="M20 0l-13 53l239 313l-182 296l14 45h477l-13 -167q-21 -5 -41 -2q-11 96 -77 100l-237 9l155 -254l-240 -309l268 4q26 0 45.5 9.5t34 30t20.5 32.5t16 37q24 0 40 -7l-35 -190h-471z" />
    <glyph glyph-name="Tau" unicode="&#x3a4;" horiz-adv-x="632" 
d="M133 0q-2 24 0 45l74 19q18 4 31.5 26.5t15.5 44.5l39 509h-120q-65 0 -93 -101q-23 -2 -40 2l11 162h579l-11 -162q-16 -4 -41 -2q-13 101 -89 101h-110l-34 -543q-1 -19 3 -27t18 -12l92 -17q-3 -34 -7 -45h-318z" />
    <glyph glyph-name="Upsilon" unicode="&#x3a5;" horiz-adv-x="623" 
d="M671 710l-12 -56q-6 1 -20 1q-53 0 -108.5 -56.5t-95 -135t-65.5 -156.5t-29 -127l-4 -63q-2 -17 6.5 -33t21.5 -20l83 -23q-3 -31 -7 -41h-309q-4 28 -1 45l71 18q19 4 30.5 20t13.5 37l6 70q6 78 -24 189t-84.5 196t-106.5 85q-13 0 -27 -2l-6 30q20 13 53.5 22t57.5 9
q72 0 125 -95t75 -288h5q51 199 132.5 291t166.5 91q41 0 52 -8z" />
    <glyph glyph-name="Phi" unicode="&#x3a6;" horiz-adv-x="703" 
d="M192 0q-2 35 -1 40l56 22q16 6 27.5 20.5t12.5 32.5q-108 0 -180 52.5t-72 156.5q0 118 82 196t205 82l1 14q1 10 -11 20.5t-30 17.5l-44 16q-2 16 4 37h258q2 -27 -1 -41l-42 -9q-16 -3 -30.5 -17t-16.5 -30l-1 -6q71 0 126.5 -18.5t94 -66.5t38.5 -121
q0 -124 -82 -200.5t-208 -80.5v-14q0 -23 4.5 -31t16.5 -10l80 -16q-3 -36 -7 -46h-280zM381 169q89 8 138 69.5t49 139.5q0 82 -41.5 128t-120.5 47zM291 168l29 384q-88 -8 -136.5 -68t-48.5 -139q0 -80 40 -127t116 -50z" />
    <glyph glyph-name="Chi" unicode="&#x3a7;" horiz-adv-x="697" 
d="M-11 0q-2 28 0 40l37 18q36 16 93 79l194 220l-126 225q-5 9 -12.5 18t-13.5 15t-18 15t-16.5 12l-19.5 12.5t-17 11.5q-2 5 -1 19t3 22h240q2 -29 0 -41l-41 -18q-12 -5 -13.5 -19.5t8.5 -32.5l93 -164l141 158q12 13 12.5 31t-11.5 24l-41 22q3 36 4 40h231
q1 -9 -4 -40q-31 -8 -67 -30.5t-57 -47.5l-179 -208l142 -249q14 -24 29.5 -40t29.5 -25t46 -27q-3 -30 -6 -40h-251q-2 28 0 40l42 23q16 9 16 26q0 14 -9 29l-105 187l-153 -179q-12 -15 -12 -33q0 -20 13 -26l55 -27q-3 -30 -6 -40h-250z" />
    <glyph glyph-name="Psi" unicode="&#x3a8;" horiz-adv-x="819" 
d="M265 0q-2 35 -1 40l55 21q37 14 43 74l5 72q-257 9 -257 225q0 28 5.5 84t5.5 82q0 41 -26 51l-61 21q2 25 6 37h185q-18 -262 -18 -269q0 -157 166 -165l21 316q0 30 -10.5 45t-34.5 26q-3 1 -11.5 4.5l-13.5 5.5q-2 21 4 37h232v-3q1 -2 1 -6.5v-9.5v-11t-1 -11l-29 -6
q-43 -10 -50 -81l-19 -306q184 7 197 218l15 216h154q1 -15 -1 -39l-50 -16q-28 -9 -30 -44l-9 -121q-9 -129 -81 -201.5t-200 -78.5q-6 -74 -6 -112q0 -15 4.5 -22t18.5 -10l79 -17q-3 -36 -7 -46h-281z" />
    <glyph glyph-name="uni03A9" unicode="&#x3a9;" horiz-adv-x="712" 
d="M23 0l8 86l181 -23l1 2q-73 31 -114.5 109.5t-41.5 163.5q0 99 39.5 185t118.5 141.5t182 55.5q139 0 209.5 -83t70.5 -225q0 -104 -54.5 -203.5t-143.5 -143.5l1 -2l188 23l-9 -86h-256l5 69q169 123 169 334q0 107 -47 177.5t-145 70.5q-62 0 -108.5 -28.5t-71.5 -75.5
t-36.5 -97t-11.5 -103q0 -85 32.5 -145t101.5 -125l-5 -77h-263z" />
    <glyph glyph-name="Iotadieresis" unicode="&#x3aa;" horiz-adv-x="336" 
d="M84 741q-9 0 -33 26.5t-24 35.5q0 10 29 36t38 26t33.5 -26.5t24.5 -35.5q0 -8 -29.5 -35t-38.5 -27zM302 741q-9 0 -33 26.5t-24 35.5q0 10 29 36t38 26t33.5 -26.5t24.5 -35.5q0 -8 -29.5 -35t-38.5 -27zM12 0q-3 19 -1 40l54 21q38 14 44 72l32 441q6 62 -46 82
l-37 14q-2 21 4 37h257q2 -15 0 -41l-40 -8q-24 -6 -36.5 -29.5t-14.5 -51.5l-30 -476q-2 -19 3 -27t21 -12l77 -16q-3 -31 -7 -46h-280z" />
    <glyph glyph-name="Upsilondieresis" unicode="&#x3ab;" horiz-adv-x="623" 
d="M671 710l-12 -56q-6 1 -20 1q-53 0 -108.5 -56.5t-95 -135t-65.5 -156.5t-29 -127l-4 -63q-2 -17 6.5 -33t21.5 -20l83 -23q-3 -31 -7 -41h-309q-4 28 -1 45l71 18q19 4 30.5 20t13.5 37l6 70q6 78 -24 189t-84.5 196t-106.5 85q-13 0 -27 -2l-6 30q20 13 53.5 22t57.5 9
q72 0 125 -95t75 -288h5q51 199 132.5 291t166.5 91q41 0 52 -8zM241 741q-9 0 -33 26.5t-24 35.5q0 10 29 36t38 26t33.5 -26.5t24.5 -35.5q0 -8 -29.5 -35t-38.5 -27zM459 741q-9 0 -33 26.5t-24 35.5q0 10 29 36t38 26t33.5 -26.5t24.5 -35.5q0 -8 -29.5 -35t-38.5 -27z
" />
    <glyph glyph-name="alphatonos" unicode="&#x3ac;" horiz-adv-x="564" 
d="M108 -12q-45 0 -61.5 22t-16.5 70q0 200 69 336.5t177 136.5q44 0 71 -37.5t46 -120.5q27 65 54 151h99q-75 -160 -132 -259l28 -180q4 -25 11.5 -34t23.5 -9q5 0 12 1t17.5 2t17.5 2l11 -35q-48 -45 -110 -45q-58 0 -62 58l-18 128q-126 -187 -237 -187zM139 73
q41 0 91.5 49.5t101.5 141.5q-31 199 -63 228q-48 0 -84 -64.5t-53 -157t-17 -193.5q11 -4 24 -4zM318 603l-43 31q77 105 132 222l76 -49q-62 -94 -165 -204z" />
    <glyph glyph-name="epsilontonos" unicode="&#x3ad;" horiz-adv-x="425" 
d="M171 -13q-64 0 -104.5 29.5t-40.5 84.5q0 58 31 113t79 81q-31 11 -49.5 37.5t-18.5 59.5q0 75 59 120t136 45q91 0 144 -30q0 -42 -22 -78q-66 48 -134 48q-101 0 -101 -101q0 -29 15.5 -43t45.5 -20q60 12 86 7q4 -12 4 -28q-1 -23 -15 -50q-12 -2 -48.5 0.5t-48.5 7.5
q-38 -19 -59 -67t-14 -110q32 -24 85 -24q47 0 96.5 16.5t80.5 40.5l25 -44q-49 -46 -111.5 -70.5t-120.5 -24.5zM276 603l-43 31q77 105 132 222l76 -49q-62 -94 -165 -204z" />
    <glyph glyph-name="etatonos" unicode="&#x3ae;" horiz-adv-x="504" 
d="M301 -220l79 673q-8 4 -23 4q-36 0 -87 -25.5t-92 -55.5l-24 -198l2 -178h-97l51 482q-15 0 -69 -10l-7 46q89 37 157 37q6 -27 -3 -96l-3 -22q44 44 103 80t107 36q36 0 51 -14t15 -49q0 -8 -59 -549v-161h-101zM286 603l-43 31q77 105 132 222l76 -49
q-62 -94 -165 -204z" />
    <glyph glyph-name="iotatonos" unicode="&#x3af;" horiz-adv-x="259" 
d="M91 -12q-43 0 -43 40q0 6 7 69l43 432l83 34l-48 -483h86v-21q-71 -71 -128 -71zM138 603l-43 31q77 105 132 222l76 -49q-62 -94 -165 -204z" />
    <glyph glyph-name="upsilondieresistonos" unicode="&#x3b0;" horiz-adv-x="500" 
d="M149 635q-10 0 -33 25.5t-23 36.5q0 9 30 35.5t39 26.5q10 0 33 -25.5t23 -36.5q0 -9 -30 -35.5t-39 -26.5zM417 635q-10 0 -33 25.5t-23 36.5q0 9 30 35.5t39 26.5q10 0 33 -25.5t23 -36.5q0 -9 -30 -35.5t-39 -26.5zM260 623l-43 31q77 105 132 222l76 -49
q-62 -94 -165 -204zM228 -12q-85 0 -121.5 34.5t-36.5 115.5l28 344q-16 0 -70 -10l-7 46q89 37 157 37q3 -39 3 -51q0 -9 -2 -45l-22 -259q-3 -32 -3 -63q0 -30 3 -44q32 -32 106 -32q29 0 52 34.5t34.5 83.5t17 92t5.5 71q0 97 -79 168l78 52q44 -34 66.5 -87t22.5 -111
q0 -52 -13.5 -113t-40 -122t-73.5 -101t-105 -40z" />
    <glyph glyph-name="alpha" unicode="&#x3b1;" horiz-adv-x="564" 
d="M108 -12q-45 0 -61.5 22t-16.5 70q0 200 69 336.5t177 136.5q44 0 71 -37.5t46 -120.5q27 65 54 151h99q-75 -160 -132 -259l28 -180q4 -25 11.5 -34t23.5 -9q5 0 12 1t17.5 2t17.5 2l11 -35q-48 -45 -110 -45q-58 0 -62 58l-18 128q-126 -187 -237 -187zM139 73
q41 0 91.5 49.5t101.5 141.5q-31 199 -63 228q-48 0 -84 -64.5t-53 -157t-17 -193.5q11 -4 24 -4z" />
    <glyph glyph-name="beta" unicode="&#x3b2;" horiz-adv-x="512" 
d="M234 -10q-92 0 -138 62t-46 202q0 141 22.5 243t63 159.5t90 84t110.5 26.5q56 0 92.5 -30.5t36.5 -83.5q0 -68 -33 -131.5t-90 -93.5q59 -8 93 -42.5t34 -91.5q0 -72 -24.5 -139.5t-80 -116t-130.5 -48.5zM272 62q30 0 53 23t34.5 59.5t16.5 73.5t5 74q0 9 -2.5 25
t-2.5 22q-12 14 -53 25.5t-77 9.5l-4 56q76 21 110.5 80.5t34.5 143.5l-1 25q-10 10 -40 19t-51 9q-63 0 -112 -107t-49 -286q0 -35 2 -81t4 -75l3 -29q37 -67 129 -67z" />
    <glyph glyph-name="gamma" unicode="&#x3b3;" horiz-adv-x="457" 
d="M75 -220l65 235l-62 386l-58 121q56 35 125 35l57 -466l133 269q3 6 9 33v153h105q1 -3 1 -13v-13q0 -43 -13 -92t-28 -75l-193 -345l-29 -212z" />
    <glyph glyph-name="delta" unicode="&#x3b4;" horiz-adv-x="484" 
d="M206 -12q-98 0 -132 37.5t-34 136.5q0 52 10.5 102t32 98.5t61 82.5t92.5 44l-43 44t-35 48t-20 56q0 68 50 98.5t122 30.5q86 0 178 -41q0 -51 -28 -89q-44 32 -98 53t-93 21q-54 0 -54 -41q0 -31 36 -75.5t78.5 -84.5t78.5 -96t36 -108q0 -46 -15 -99t-42.5 -103
t-75 -82.5t-105.5 -32.5zM243 61q32 0 55.5 30.5t35.5 76t17.5 86.5t5.5 73q-18 44 -62 99l-30 33q-39 -11 -67.5 -44t-43 -77.5t-21 -87t-6.5 -83.5t4 -74q34 -32 112 -32z" />
    <glyph glyph-name="epsilon" unicode="&#x3b5;" horiz-adv-x="425" 
d="M171 -13q-64 0 -104.5 29.5t-40.5 84.5q0 58 31 113t79 81q-31 11 -49.5 37.5t-18.5 59.5q0 75 59 120t136 45q91 0 144 -30q0 -42 -22 -78q-66 48 -134 48q-101 0 -101 -101q0 -29 15.5 -43t45.5 -20q60 12 86 7q4 -12 4 -28q-1 -23 -15 -50q-12 -2 -48.5 0.5t-48.5 7.5
q-38 -19 -59 -67t-14 -110q32 -24 85 -24q47 0 96.5 16.5t80.5 40.5l25 -44q-49 -46 -111.5 -70.5t-120.5 -24.5z" />
    <glyph glyph-name="zeta" unicode="&#x3b6;" horiz-adv-x="422" 
d="M293 -160l-37 24q54 96 53 164q-90 -40 -158 -40q-57 0 -84 22t-27 75q0 128 91.5 297t182.5 252h-73q-50 0 -88 24t-50 52q6 17 24.5 40t34.5 34q19 -37 53 -57t99 -20h111q4 -9 4 -23q0 -18 -10 -34q-111 -91 -200 -249t-89 -285q0 -30 1 -35q17 -9 48 -9q29 0 83.5 17
t74.5 17q44 0 44 -53q0 -45 -27 -105t-61 -108z" />
    <glyph glyph-name="eta" unicode="&#x3b7;" horiz-adv-x="504" 
d="M301 -220l79 673q-8 4 -23 4q-36 0 -87 -25.5t-92 -55.5l-24 -198l2 -178h-97l51 482q-15 0 -69 -10l-7 46q89 37 157 37q6 -27 -3 -96l-3 -22q44 44 103 80t107 36q36 0 51 -14t15 -49q0 -8 -59 -549v-161h-101z" />
    <glyph glyph-name="theta" unicode="&#x3b8;" horiz-adv-x="517" 
d="M230 -13q-76 0 -113.5 34t-37.5 109q0 12 2 34l14 158q-16 0 -70 -10l-7 46q89 37 158 37q3 -14 -2 -96l-9 -129q-1 -12 -1 -33q0 -19 3 -44q30 -32 92 -32q35 0 62 46t41 116.5t21 130.5t9 112q-67 -21 -118 -21q-137 0 -137 107q0 85 52.5 149.5t132.5 64.5
q47 0 80.5 -29t49.5 -75.5t23 -90.5t7 -88q0 -49 -7 -108t-25.5 -129t-46 -126.5t-73 -94.5t-100.5 -38zM307 513q37 0 86 9q-2 97 -25 141t-75 44q-41 0 -59 -38t-18 -87q0 -34 6 -54q33 -15 85 -15z" />
    <glyph glyph-name="iota" unicode="&#x3b9;" horiz-adv-x="259" 
d="M91 -12q-43 0 -43 40q0 6 7 69l43 432l83 34l-48 -483h86v-21q-71 -71 -128 -71z" />
    <glyph glyph-name="kappa" unicode="&#x3ba;" horiz-adv-x="482" 
d="M416 -18q-123 74 -220 273l-44 -54l-4 -43v-158h-98l52 482q-16 0 -70 -10l-7 46q89 37 157 37q6 -27 -3 -96l-17 -160l83 111q60 81 105 113t118 32q17 0 29 -4q0 -49 -17 -95q-36 11 -71 11q-25 0 -49 -14.5t-37 -30t-32 -41.5l-42 -58q89 -173 222 -265
q-16 -45 -55 -76z" />
    <glyph glyph-name="lambda" unicode="&#x3bb;" horiz-adv-x="440" 
d="M183 768q69 -27 88 -147l86 -517q4 -24 11.5 -33.5t23.5 -9.5q14 0 47 5l11 -35q-46 -43 -111 -43q-48 0 -57 58l-60 404l-142 -450h-93l200 530h21l-21 106q-10 48 -54 62q-16 4 -24 4l46 73q17 -3 28 -7z" />
    <glyph glyph-name="uni03BC" unicode="&#x3bc;" horiz-adv-x="554" 
d="M100 -236q-71 63 -71 149q0 24 4 47l35 221l32 346l84 33l-41 -487q14 -5 24 -5q60 0 183 123l37 336l85 33l-54 -479h90v-20q-69 -71 -128 -71q-42 0 -42 40q0 15 1 24l8 85q-27 -36 -44.5 -56t-46 -45t-60.5 -36.5t-70 -11.5q-15 0 -26 3q-2 -81 87 -185z" />
    <glyph glyph-name="nu" unicode="&#x3bd;" horiz-adv-x="459" 
d="M137 -26l-68 425l-49 123q52 33 117 33l65 -512q135 180 135 384v119h105q1 -7 1 -26q0 -269 -198 -517z" />
    <glyph glyph-name="xi" unicode="&#x3be;" horiz-adv-x="412" 
d="M286 -160l-37 24q53 94 53 164q-90 -40 -151 -40q-64 0 -87.5 32.5t-23.5 98.5q0 208 137 308q-37 11 -57 43t-20 71q0 104 58 164.5t162 60.5q91 0 128 -27q-2 -56 -32 -92q-27 20 -69.5 39.5t-69.5 19.5q-92 0 -92 -160q0 -36 16.5 -53t53.5 -23q27 9 85 9q4 -11 4 -25
q0 -34 -20 -63q-65 0 -92 12q-104 -40 -104 -253q0 -34 3 -69q17 -9 48 -9q29 0 80.5 17t70.5 17q44 0 44 -53q0 -45 -27 -105t-61 -108z" />
    <glyph glyph-name="omicron" unicode="&#x3bf;" horiz-adv-x="480" 
d="M243 61q54 0 82 95.5t28 206.5q0 50 -7 87q-40 36 -107 36q-33 0 -56.5 -28.5t-35 -76t-16 -94.5t-4.5 -99q0 -55 4 -95q33 -32 112 -32zM206 -12q-86 0 -126 39.5t-40 124.5q0 48 6 99t22 106.5t39 98.5t61.5 71t85.5 28q186 0 186 -174q0 -60 -13 -124.5t-39.5 -126.5
t-74 -102t-107.5 -40z" />
    <glyph glyph-name="pi" unicode="&#x3c0;" horiz-adv-x="554" 
d="M373 -11q-43 0 -43 39q0 13 3 38t4 31l38 366l-180 -11l-32 -293v-159h-97l51 448l-81 -5q0 63 17 103l486 1q2 -33 -5 -74l-79 -5l-40 -388h86v-21q-68 -70 -128 -70z" />
    <glyph glyph-name="rho" unicode="&#x3c1;" horiz-adv-x="480" 
d="M3 -220l57 504q5 48 19.5 93t39 86.5t65 66.5t90.5 25q83 0 124.5 -49.5t41.5 -134.5q0 -71 -18 -140q-11 -42 -28.5 -81t-44 -76.5t-63.5 -60.5t-80 -23q-58 0 -96 26l-18 -236h-89zM227 57q34 0 60 38.5t39 94.5t19 104t6 81q0 45 -6 75q-40 38 -89 38q-27 0 -47.5 -15
t-32 -34.5t-20 -52t-11.5 -53t-6 -51.5l-20 -186q31 -22 52.5 -30.5t55.5 -8.5z" />
    <glyph glyph-name="sigma1" unicode="&#x3c2;" horiz-adv-x="419" 
d="M275 -161l-37 24q53 94 53 164q-88 -39 -147 -39q-68 0 -87.5 28.5t-19.5 98.5q0 46 4 91t14 97t29 95t46 79.5t68.5 57t92.5 20.5q72 0 118 -27q-2 -47 -25 -84q-65 40 -137 40q-31 0 -55 -28t-36 -66.5t-19.5 -89.5t-9 -85.5t-1.5 -66.5q0 -35 3 -68q17 -9 48 -9
q29 0 75.5 17t66.5 17q44 0 44 -53q0 -45 -27 -105t-61 -108z" />
    <glyph glyph-name="sigma" unicode="&#x3c3;" horiz-adv-x="494" 
d="M207 -12q-53 0 -88 14.5t-51 41t-22 52t-6 57.5q0 95 24 184t79.5 154.5t132.5 65.5q45 0 98 -2.5t84 -5.5l31 -3l-13 -85q-33 3 -74 6q36 -54 36 -115q0 -37 -7 -81t-24.5 -95t-42.5 -92t-66 -68.5t-91 -27.5zM238 61q34 0 58.5 34.5t36 88.5t16 100t4.5 89q0 53 -5 98
q-48 3 -91 3q-38 0 -66 -36.5t-40.5 -92t-18 -101.5t-5.5 -83q0 -39 5 -68q37 -32 106 -32z" />
    <glyph glyph-name="tau" unicode="&#x3c4;" horiz-adv-x="431" 
d="M216 -12q-49 0 -71.5 20t-22.5 76q0 112 61 372l-163 -12q6 63 22 102h377q0 -49 -5 -72l-161 -12l-39 -380q21 -9 42 -9q44 0 121 34l20 -41q-87 -78 -181 -78z" />
    <glyph glyph-name="upsilon" unicode="&#x3c5;" horiz-adv-x="500" 
d="M228 -12q-85 0 -121.5 34.5t-36.5 115.5l28 344q-16 0 -70 -10l-7 46q89 37 157 37q3 -39 3 -51q0 -9 -2 -45l-22 -259q-3 -32 -3 -63q0 -30 3 -44q32 -32 106 -32q29 0 52 34.5t34.5 83.5t17 92t5.5 71q0 97 -79 168l78 52q44 -34 66.5 -87t22.5 -111q0 -52 -13.5 -113
t-40 -122t-73.5 -101t-105 -40z" />
    <glyph glyph-name="phi" unicode="&#x3c6;" horiz-adv-x="617" 
d="M213 -220l24 209q-109 2 -153 37.5t-44 135.5q0 68 19.5 145t64.5 148t105 96l29 -31q-66 -44 -97.5 -148t-31.5 -204q0 -7 -0.5 -21.5t-0.5 -21.5q0 -10 2 -32q37 -24 116 -29l33 279q5 39 15 73t28 67t49.5 52.5t73.5 19.5q40 0 67.5 -14.5t41 -42.5t18.5 -58.5
t5 -70.5q0 -162 -68 -264.5t-191 -110.5l-20 -214h-85zM324 62q53 3 87 28.5t50 75t21.5 101.5t5.5 130q0 56 -17 93q-23 6 -47 6q-26 0 -42.5 -23t-22 -51t-8.5 -69z" />
    <glyph glyph-name="chi" unicode="&#x3c7;" horiz-adv-x="423" 
d="M325 -230q-39 0 -57 58l-78 261l-151 -309h-99l227 384l-75 240l-79 98q49 49 110 51l95 -299l106 198v94h92q2 -14 2 -26q0 -45 -27 -90l-151 -248l96 -296q8 -24 15.5 -33.5t22.5 -9.5q18 0 51 5l11 -35q-46 -43 -111 -43z" />
    <glyph glyph-name="psi" unicode="&#x3c8;" horiz-adv-x="603" 
d="M212 -220l20 208q-85 1 -123.5 35t-38.5 115q0 24 7 110t14 160l7 74q-16 0 -70 -10l-7 46q89 37 156 37q0 -4 1.5 -14t2 -20.5t0.5 -21.5q0 -10 -2 -40l-22 -259q-3 -32 -3 -63q0 -30 3 -44q25 -25 84 -31l70 685l62 15l-56 -703q44 7 77 37t49.5 73.5t24 86.5t7.5 86
q0 54 -16.5 93t-55.5 74l71 47q44 -35 66.5 -90.5t22.5 -116.5q0 -124 -67.5 -232.5t-182.5 -125.5l-16 -211h-85z" />
    <glyph glyph-name="omega" unicode="&#x3c9;" horiz-adv-x="632" 
d="M182 -12q-80 0 -111 40t-31 134q0 68 19.5 145t64.5 148t105 96l29 -31q-66 -44 -97.5 -148t-31.5 -204q0 -38 3 -75q38 -30 67 -30q57 0 87 91q-12 73 -12 153v41q14 13 47 13q34 0 49 -13q0 -38 -12 -97.5t-27 -96.5q4 -34 23.5 -62t50.5 -28q28 0 48.5 25t30.5 63
t14.5 71t4.5 60q0 166 -79 237l61 31q55 -41 81 -111t26 -148q0 -46 -11 -96t-32.5 -98t-61 -79t-89.5 -31q-36 0 -59.5 27.5t-35.5 67.5q-51 -95 -121 -95z" />
    <glyph glyph-name="iotadieresis" unicode="&#x3ca;" horiz-adv-x="259" 
d="M65 635q-10 0 -33 25.5t-23 36.5q0 9 30 35.5t39 26.5q10 0 33 -25.5t23 -36.5q0 -9 -30 -35.5t-39 -26.5zM252 635q-10 0 -33 25.5t-23 36.5q0 9 30 35.5t39 26.5q10 0 33 -25.5t23 -36.5q0 -9 -30 -35.5t-39 -26.5zM91 -12q-43 0 -43 40q0 6 7 69l43 432l83 34
l-48 -483h86v-21q-71 -71 -128 -71z" />
    <glyph glyph-name="upsilondieresis" unicode="&#x3cb;" horiz-adv-x="500" 
d="M175 635q-10 0 -33 25.5t-23 36.5q0 9 30 35.5t39 26.5q10 0 33 -25.5t23 -36.5q0 -9 -30 -35.5t-39 -26.5zM362 635q-10 0 -33 25.5t-23 36.5q0 9 30 35.5t39 26.5q10 0 33 -25.5t23 -36.5q0 -9 -30 -35.5t-39 -26.5zM228 -12q-85 0 -121.5 34.5t-36.5 115.5l28 344
q-16 0 -70 -10l-7 46q89 37 157 37q3 -39 3 -51q0 -9 -2 -45l-22 -259q-3 -32 -3 -63q0 -30 3 -44q32 -32 106 -32q29 0 52 34.5t34.5 83.5t17 92t5.5 71q0 97 -79 168l78 52q44 -34 66.5 -87t22.5 -111q0 -52 -13.5 -113t-40 -122t-73.5 -101t-105 -40z" />
    <glyph glyph-name="omicrontonos" unicode="&#x3cc;" horiz-adv-x="480" 
d="M243 61q54 0 82 95.5t28 206.5q0 50 -7 87q-40 36 -107 36q-33 0 -56.5 -28.5t-35 -76t-16 -94.5t-4.5 -99q0 -55 4 -95q33 -32 112 -32zM206 -12q-86 0 -126 39.5t-40 124.5q0 48 6 99t22 106.5t39 98.5t61.5 71t85.5 28q186 0 186 -174q0 -60 -13 -124.5t-39.5 -126.5
t-74 -102t-107.5 -40zM276 603l-43 31q77 105 132 222l76 -49q-62 -94 -165 -204z" />
    <glyph glyph-name="upsilontonos" unicode="&#x3cd;" horiz-adv-x="500" 
d="M266 603l-43 31q77 105 132 222l76 -49q-62 -94 -165 -204zM228 -12q-85 0 -121.5 34.5t-36.5 115.5l28 344q-16 0 -70 -10l-7 46q89 37 157 37q3 -39 3 -51q0 -9 -2 -45l-22 -259q-3 -32 -3 -63q0 -30 3 -44q32 -32 106 -32q29 0 52 34.5t34.5 83.5t17 92t5.5 71
q0 97 -79 168l78 52q44 -34 66.5 -87t22.5 -111q0 -52 -13.5 -113t-40 -122t-73.5 -101t-105 -40z" />
    <glyph glyph-name="omegatonos" unicode="&#x3ce;" horiz-adv-x="632" 
d="M356 603l-43 31q77 105 132 222l76 -49q-62 -94 -165 -204zM182 -12q-80 0 -111 40t-31 134q0 68 19.5 145t64.5 148t105 96l29 -31q-66 -44 -97.5 -148t-31.5 -204q0 -38 3 -75q38 -30 67 -30q57 0 87 91q-12 73 -12 153v41q14 13 47 13q34 0 49 -13q0 -38 -12 -97.5
t-27 -96.5q4 -34 23.5 -62t50.5 -28q28 0 48.5 25t30.5 63t14.5 71t4.5 60q0 166 -79 237l61 31q55 -41 81 -111t26 -148q0 -46 -11 -96t-32.5 -98t-61 -79t-89.5 -31q-36 0 -59.5 27.5t-35.5 67.5q-51 -95 -121 -95z" />
    <glyph glyph-name="beta.alt" unicode="&#x3d0;" horiz-adv-x="506" 
d="M17 -220l82 755q10 97 74 164.5t157 67.5q56 0 92.5 -30.5t36.5 -83.5q0 -68 -33 -131.5t-90 -93.5q59 -8 93 -42.5t34 -91.5q0 -72 -24.5 -139.5t-80 -116t-130.5 -48.5q-55 0 -103 16l-11 -98v-128h-97zM267 66q108 0 108 226q0 9 -2.5 25t-2.5 22q-12 14 -53 25.5
t-77 9.5l-4 56q76 21 110.5 80.5t34.5 143.5l-1 25q-10 10 -40 19t-51 9q-36 0 -61 -30t-34.5 -64t-12.5 -71l-47 -445q40 -19 65.5 -25t67.5 -6z" />
    <glyph glyph-name="theta.alt" unicode="&#x3d1;" horiz-adv-x="517" 
d="M252 61q36 0 64.5 83.5t44.5 206.5l-218 5q-7 -83 -7 -168q0 -55 4 -95q33 -32 112 -32zM147 401l220 7q9 87 9 160q0 50 -7 87q-40 36 -107 36q-82 0 -115 -290zM215 -12q-86 0 -126 39.5t-40 124.5q0 115 13 219.5t39 193.5t71.5 142t104.5 53q186 0 186 -174
q0 -102 -15.5 -204.5t-44.5 -192t-78 -145.5t-110 -56z" />
    <glyph glyph-name="phi.alt" unicode="&#x3d5;" horiz-adv-x="652" 
d="M229 -219l24 209q-106 5 -159.5 46.5t-53.5 129.5q0 370 277 392l23 188l68 16l-20 -203q111 -5 167.5 -47t56.5 -129q0 -362 -271 -391l-17 -211h-95zM346 53q92 8 135 80.5t43 216.5q0 48 -8 82q-59 49 -133 60zM260 58l50 435q-96 -10 -141 -85t-45 -215q0 -60 4 -77
q43 -40 132 -58z" />
    <glyph glyph-name="uni03D7" unicode="&#x3d7;" horiz-adv-x="716" 
d="M355 -225q-86 0 -153.5 29.5t-108.5 81t-62 115.5t-21 137q0 117 51.5 228t143.5 180h60q-75 -58 -115.5 -156.5t-40.5 -206.5q0 -91 28 -165.5t90.5 -123t150.5 -48.5q69 0 136 38t104 91q-63 42 -122 118.5t-101 160.5l-40 -49l-7 -47v-158h-98l59 546h83l-29 -246
l102 137q88 118 194 118q17 0 33 -3q5 -55 -12 -96q-33 12 -58 12q-69 0 -121 -73l-52 -72q9 -19 21.5 -39.5l23.5 -37.5t28 -38l28.5 -35t31 -34.5l29 -30.5t30 -29.5t26.5 -24.5t25 -23l20 -18q-42 -100 -143.5 -169t-213.5 -69z" />
    <glyph glyph-name="uni03D8" unicode="&#x3d8;" horiz-adv-x="726" 
d="M272 -221l28 212q-123 12 -189 98t-66 222q0 108 42.5 200.5t126.5 150.5t192 58q135 0 209.5 -90t74.5 -231q0 -100 -33.5 -186.5t-103 -147t-164.5 -73.5l-17 -213h-100zM357 59q71 0 126 50t81 120.5t26 143.5q0 74 -19 134t-67.5 102t-120.5 42q-75 0 -130.5 -49.5
t-80.5 -119t-25 -145.5q0 -55 11 -102.5t34 -88t65.5 -64t99.5 -23.5z" />
    <glyph glyph-name="uni03D9" unicode="&#x3d9;" horiz-adv-x="480" 
d="M139 -221l25 212q-64 8 -94 47.5t-30 113.5q0 48 6 99t22 106.5t39 98.5t61.5 71t85.5 28q186 0 186 -174q0 -54 -10.5 -112t-32 -115.5t-59 -101t-85.5 -57.5l-14 -216h-100zM243 61q54 0 82 95.5t28 206.5q0 50 -7 87q-40 36 -107 36q-33 0 -56.5 -28.5t-35 -76
t-16 -94.5t-4.5 -99q0 -55 4 -95q33 -32 112 -32z" />
    <glyph glyph-name="uni03DA" unicode="&#x3da;" horiz-adv-x="513" 
d="M350 -148l-37 24q53 94 53 164q-36 -15 -93 -27.5t-95 -12.5q-93 0 -115.5 23t-22.5 121q0 56 17 123.5t48 130.5t81.5 105.5t109.5 42.5h117q24 0 43 11.5t27.5 23t24.5 36.5q3 -2 7 -7t10.5 -22t5.5 -36q-6 -47 -45 -77t-88 -30h-125q-42 0 -72 -37t-44.5 -94
t-20.5 -107t-6 -94q0 -19 1 -25q14 -2 42 -2q10 0 31 0.5t32 0.5q29 0 83.5 17t74.5 17q44 0 44 -53q0 -45 -27.5 -106.5t-60.5 -109.5z" />
    <glyph glyph-name="uni03DB" unicode="&#x3db;" horiz-adv-x="513" 
d="M350 -148l-37 24q53 94 53 164q-36 -15 -93 -27.5t-95 -12.5q-93 0 -115.5 23t-22.5 121q0 56 17 123.5t48 130.5t81.5 105.5t109.5 42.5h117q24 0 43 11.5t27.5 23t24.5 36.5q3 -2 7 -7t10.5 -22t5.5 -36q-6 -47 -45 -77t-88 -30h-125q-42 0 -72 -37t-44.5 -94
t-20.5 -107t-6 -94q0 -19 1 -25q14 -2 42 -2q10 0 31 0.5t32 0.5q29 0 83.5 17t74.5 17q44 0 44 -53q0 -45 -27.5 -106.5t-60.5 -109.5z" />
    <glyph glyph-name="uni03DC" unicode="&#x3dc;" horiz-adv-x="539" 
d="M573 624l-322 18l-19 -274l283 9l-6 -80l-282 5l-16 -302h-100l57 707h411z" />
    <glyph glyph-name="uni03DD" unicode="&#x3dd;" horiz-adv-x="439" 
d="M466 462l-221 18l-29 -274l183 9l-8 -80l-182 5l-34 -359h-100l89 764h311z" />
    <glyph glyph-name="uni03DE" unicode="&#x3de;" horiz-adv-x="454" 
d="M261 -28q-9 0 -29.5 29.5t-18.5 39.5l163 323l-305 -77l-19 25l147 319q-22 -14 -30 -14t-28 29.5t-18 39.5q1 9 32.5 31.5t41.5 22.5q9 0 29 -29.5t19 -39.5q-2 -15 -11 -40l-88 -234l304 77l30 -33l-190 -347q10 -5 28 -32t17 -36t-32.5 -31.5t-41.5 -22.5z" />
    <glyph glyph-name="uni03DF" unicode="&#x3df;" horiz-adv-x="405" 
d="M437 499l-315 -568l-106 33l344 509l-263 -24l-19 25l122 233q-22 -14 -30 -14t-28 29.5t-18 39.5q1 9 32.5 31.5t41.5 22.5q9 0 29 -29.5t19 -39.5q-1 -4 -9 -20.5l-10 -20.5l-64 -171l249 19z" />
    <glyph glyph-name="uni03E0" unicode="&#x3e0;" horiz-adv-x="744" 
d="M700 -77q-4 -45 -9 -84h-84l4 46q9 97 9 155q0 105 -24 185l-315 -240l-31 38l330 248q-25 67 -73 124l-335 -250l-28 38l330 246q-128 119 -354 130q-18 1 -55 1l4 37q68 8 84 8q140 0 246.5 -44t172.5 -123.5t99 -185.5t33 -235q0 -51 -4 -94z" />
    <glyph glyph-name="uni03E1" unicode="&#x3e1;" horiz-adv-x="539" 
d="M349 -305l-43 15q48 113 71 203t22 185l-245 -92l-16 47l261 95q-3 78 -28 145l-266 -96l-13 47l260 93q-49 96 -114 151.5t-174 93.5l15 35q201 -39 303.5 -168.5t102.5 -319.5q0 -42 -4 -78q-8 -72 -41 -161t-62 -142z" />
    <glyph glyph-name="uni03F0" unicode="&#x3f0;" horiz-adv-x="611" 
d="M98 -13q-39 3 -60 27.5t-16 44.5l101 74q48 156 48 251q0 47 -14.5 69.5t-52.5 22.5q-26 0 -71 -18l-16 46q68 51 135 51q45 0 72.5 -31.5t27.5 -77.5q0 -91 -54 -239l310 351q26 1 50 -13.5t26 -51.5l-92 -67q-51 -188 -51 -260q0 -50 12 -74.5t49 -24.5q26 0 71 18
l16 -46q-68 -51 -135 -51q-44 0 -69 34t-25 82q0 92 48 236z" />
    <glyph glyph-name="uni0400" unicode="&#x400;" horiz-adv-x="591" 
d="M10 0q-3 24 0 45l68 18q18 4 30 21t14 39l36 481q2 13 -4 25.5t-18 16.5l-72 26q0 18 7 35h474l-11 -157q-17 -3 -47 0q-6 47 -22.5 68.5t-53.5 22.5l-164 6l-18 -261l252 5l-5 -72l-251 5l-13 -263l170 4q50 1 85 31.5t52 71.5l39 -6l-29 -162h-519zM430 740
q-123 26 -207 60q13 42 28 63q89 -45 192 -84q-5 -25 -13 -39z" />
    <glyph glyph-name="afii10023" unicode="&#x401;" horiz-adv-x="591" 
d="M226 741q-10 0 -33.5 26.5t-21.5 35.5q1 10 30 36t38 26q10 0 34 -26t23 -36q-2 -8 -31 -35t-39 -27zM444 741q-10 0 -33.5 26.5t-21.5 35.5q1 10 30 36t38 26q10 0 34 -26t23 -36q-2 -8 -31 -35t-39 -27zM10 0q-3 24 0 45l68 18q18 4 30 21t14 39l36 481q2 13 -4 25.5
t-18 16.5l-72 26q0 18 7 35h474l-11 -157q-17 -3 -47 0q-6 47 -22.5 68.5t-53.5 22.5l-164 6l-18 -261l252 5l-5 -72l-251 5l-13 -263l170 4q50 1 85 31.5t52 71.5l39 -6l-29 -162h-519z" />
    <glyph glyph-name="afii10051" unicode="&#x402;" horiz-adv-x="723" 
d="M450 -220l-42 49q73 67 130.5 171.5t57.5 207.5q0 86 -38 120.5t-109 34.5q-63 0 -136 -36l-14 -226q-1 -19 3 -27t18 -12l92 -17q-3 -34 -7 -45h-318q-2 24 0 45l74 19q18 4 31.5 26.5t15.5 44.5l39 509h-90q-65 0 -93 -101q-23 -2 -40 2l11 162h562l-11 -162
q-16 -4 -41 -2q-13 101 -89 101h-123l-16 -248q6 2 23 9l25 10.5t25 8.5t30.5 7.5t34 4.5t42.5 2q200 0 200 -214q0 -66 -28 -140.5t-69.5 -134t-81 -103.5t-68.5 -66z" />
    <glyph glyph-name="afii10052" unicode="&#x403;" horiz-adv-x="583" 
d="M20 0q-3 19 -1 40l58 18q18 5 30.5 24t14.5 41l36 481q2 13 -4 25.5t-18 16.5l-72 26q0 18 7 35h484l-12 -169q-31 -3 -45 3q-6 29 -12 45.5t-24 31.5t-48 17l-168 12l-33 -537q-2 -32 21 -36l110 -23q-3 -38 -7 -51h-317zM233 740q-8 14 -13 39q103 39 192 84
q15 -21 28 -63q-84 -34 -207 -60z" />
    <glyph glyph-name="afii10053" unicode="&#x404;" horiz-adv-x="616" 
d="M363 -13q-165 0 -240.5 85t-75.5 250q0 172 104 284.5t271 112.5q101 0 182 -42l-11 -150h-36q-10 63 -47.5 95.5t-92.5 32.5q-118 0 -185.5 -72.5t-80.5 -189.5l312 5l-5 -76l-309 9q0 -130 55.5 -199.5t186.5 -69.5q75 0 148 31l20 -61q-87 -45 -196 -45z" />
    <glyph glyph-name="afii10054" unicode="&#x405;" horiz-adv-x="496" 
d="M214 -13q-128 0 -214 59q7 27 41 139h25q15 -65 55 -101.5t104 -36.5q50 0 90.5 28t40.5 78q0 28 -20 57t-49.5 53.5l-64 55t-64 60.5t-49.5 72t-20 87q0 73 63 124t138 51q113 0 176 -38q-7 -70 -19 -126h-32q-13 47 -50.5 74t-86.5 27q-43 0 -75.5 -22t-32.5 -63
q0 -34 20.5 -67.5t51.5 -60l67 -58.5l67 -61t51.5 -68.5t20.5 -81.5q0 -89 -71 -135t-163 -46z" />
    <glyph glyph-name="afii10055" unicode="&#x406;" horiz-adv-x="336" 
d="M12 0q-3 19 -1 40l54 21q38 14 44 72l32 441q6 62 -46 82l-37 14q-2 21 4 37h257q2 -15 0 -41l-40 -8q-24 -6 -36.5 -29.5t-14.5 -51.5l-30 -476q-2 -19 3 -27t21 -12l77 -16q-3 -31 -7 -46h-280z" />
    <glyph glyph-name="afii10056" unicode="&#x407;" horiz-adv-x="336" 
d="M12 0q-3 19 -1 40l54 21q38 14 44 72l32 441q6 62 -46 82l-37 14q-2 21 4 37h257q2 -15 0 -41l-40 -8q-24 -6 -36.5 -29.5t-14.5 -51.5l-30 -476q-2 -19 3 -27t21 -12l77 -16q-3 -31 -7 -46h-280zM77 741q-10 0 -33.5 26.5t-21.5 35.5q1 10 30 36t38 26q10 0 34 -26
t23 -36q-2 -8 -31 -35t-39 -27zM295 741q-10 0 -33.5 26.5t-21.5 35.5q1 10 30 36t38 26q10 0 34 -26t23 -36q-2 -8 -31 -35t-39 -27z" />
    <glyph glyph-name="afii10057" unicode="&#x408;" horiz-adv-x="338" 
d="M-13 -186l-28 55q83 49 120 110t44 166l30 433q2 23 -10 46.5t-35 31.5l-41 14q3 27 7 37h258q2 -22 0 -40l-48 -11q-24 -6 -32.5 -15.5t-9.5 -31.5l-37 -523q-4 -53 -20.5 -95t-47 -73.5t-65 -55t-85.5 -48.5z" />
    <glyph glyph-name="afii10058" unicode="&#x409;" horiz-adv-x="880" 
d="M12 -22l-38 100q46 10 88.5 34.5t53.5 45.5q32 64 70.5 234.5t38.5 210.5q0 38 -22 45l-56 22q0 15 6 37h502q3 -21 -5 -41l-52 -12q-17 -5 -24 -12.5t-8 -26.5l-13 -197h104q94 0 150.5 -49t56.5 -146q0 -102 -81 -162.5t-193 -60.5h-246q-3 20 -1 44l42 12
q33 9 46 29.5t16 67.5l35 486h-183l-11 -63q-5 -25 -18 -98t-19.5 -104t-18.5 -84t-25 -90.5t-29 -70.5q-60 -121 -166 -151zM530 62h64q77 2 127.5 36t50.5 109q0 141 -150 144l-73 2z" />
    <glyph glyph-name="afii10059" unicode="&#x40a;" horiz-adv-x="991" 
d="M8 0q-3 19 -1 40l59 21q21 8 34.5 33t15.5 50l32 438q5 58 -32 69l-65 19q3 26 7 37h267q3 -20 1 -41l-55 -13q-21 -5 -27.5 -13.5t-8.5 -29.5l-14 -208h355l11 170q2 22 -7.5 47.5t-29.5 33.5l-46 17q3 34 4 37h257q-3 -33 -5 -41l-52 -12q-17 -4 -24 -12t-8 -29
l-13 -211h105q95 0 151 -45.5t56 -141.5t-82 -155.5t-192 -59.5h-248q-3 24 0 44l41 11q30 9 45 38t18 59l14 188h-355l-12 -229q-1 -34 22 -40l92 -25q-3 -32 -7 -46h-303zM641 62h64q76 2 127 35.5t51 101.5q0 73 -38 103.5t-112 32.5l-74 2z" />
    <glyph glyph-name="afii10060" unicode="&#x40b;" horiz-adv-x="822" 
d="M87 0q-2 24 0 45l74 19q18 4 31.5 26.5t15.5 44.5l39 509h-90q-65 0 -93 -101q-23 -2 -40 2l11 162h562l-11 -162q-16 -4 -41 -2q-13 101 -89 101h-123l-15 -248q108 42 198 42q54 0 90.5 -12.5t53.5 -36t23 -48t6 -57.5q0 -13 -10 -183q-1 -19 3 -27t18 -12l92 -17
q-3 -34 -7 -45h-308q-2 24 0 45l64 19q18 4 31.5 26t15.5 45q10 113 10 123q0 58 -28.5 81.5t-101.5 23.5q-82 0 -155 -36l-14 -226q-1 -19 3 -27t18 -12l92 -17q-3 -34 -7 -45h-318z" />
    <glyph glyph-name="afii10061" unicode="&#x40c;" horiz-adv-x="673" 
d="M293 740q-8 14 -13 39q103 39 192 84q15 -21 28 -63q-84 -34 -207 -60zM4 0q-4 27 -1 44l68 23q38 13 42 67l34 449q2 51 -26 62l-58 21q-3 23 4 41h262q2 -32 1 -39l-51 -19q-19 -7 -29.5 -27.5t-12.5 -43.5l-30 -470q-1 -18 3 -25.5t15 -10.5l63 -21q0 -32 -7 -51h-277
zM657 -22q-19 0 -43 3t-64 18.5t-61 42.5l-229 300l3 41l197 205q23 24 24 38q0 20 -18 27l-45 14q0 18 6 40h230l-3 -41l-306 -277l196 -257q52 -69 127 -101z" />
    <glyph glyph-name="uni040D" unicode="&#x40d;" horiz-adv-x="791" 
d="M8 0q-3 19 -1 40l59 21q21 8 34.5 33t15.5 50l32 438q5 58 -32 69l-65 19q3 26 7 37h267q3 -20 1 -41l-55 -13q-21 -5 -27.5 -13.5t-8.5 -29.5l-26 -389l388 371q-1 48 -37 61l-46 17q3 34 4 37h257q-3 -33 -5 -41l-52 -12q-17 -4 -24 -12t-8 -29l-32 -503q-3 -37 18 -42
l81 -19q-3 -35 -7 -49h-283q-3 24 0 44l41 11q30 9 45 38t18 59l26 349l-389 -371q-1 -32 3.5 -43.5t18.5 -15.5l92 -25q-3 -32 -7 -46h-303zM516 740q-123 26 -207 60q13 42 28 63q89 -45 192 -84q-5 -25 -13 -39z" />
    <glyph glyph-name="afii10062" unicode="&#x40e;" horiz-adv-x="698" 
d="M163 -38l-20 93q86 17 122 44q20 15 60 90l-215 408q-19 32 -35 47t-48 29q1 25 4 34h251q3 -23 2 -37l-53 -19q-16 -6 -16 -28q-2 -22 10 -44l152 -288l144 298q4 7 6 22q2 25 -15 34l-54 27q1 26 5 35h232q2 -24 1 -35q-3 -1 -16.5 -6t-18.5 -7.5l-16 -8t-17 -10
t-13 -12t-11 -16.5l-218 -443q-56 -108 -100.5 -150t-122.5 -57zM359 766q-43 0 -80.5 34t-53.5 73l79 48q13 -32 35.5 -57t34.5 -25q30 0 78.5 21t92.5 60l26 -33q-22 -23 -50.5 -46.5t-76 -49t-85.5 -25.5z" />
    <glyph glyph-name="afii10145" unicode="&#x40f;" horiz-adv-x="775" 
d="M306 -183l14 183h-312q-3 19 -1 40l59 21q21 8 34.5 33t15.5 50l32 438q5 58 -32 69l-65 19q3 26 7 37h267q3 -20 1 -41l-55 -13q-21 -5 -27.5 -13.5t-8.5 -29.5l-36 -548h335l38 510q2 22 -7.5 47.5t-29.5 33.5l-46 17q3 34 4 37h257q-3 -33 -5 -41l-52 -12
q-17 -4 -24 -12t-8 -29l-33 -510q-2 -32 19 -35l81 -19q-3 -35 -7 -49h-311l-10 -183h-94z" />
    <glyph glyph-name="afii10017" unicode="&#x410;" horiz-adv-x="655" 
d="M-40 0q-2 22 0 40q66 50 83 81l314 579l91 25l94 -592q2 -13 7 -23.5t9 -17t14.5 -15.5t14.5 -12t19 -12.5t19 -12.5q-3 -30 -7 -40h-261q-1 21 0 40l60 20q34 11 34 66q0 10 -4 38l-18 124h-229l-83 -158q-5 -10 -5 -23q0 -16 13 -30t36 -22l49 -15l-4 -40h-246z
M232 349h189l-30 211l-6 69h-11l-31 -67z" />
    <glyph glyph-name="afii10018" unicode="&#x411;" horiz-adv-x="623" 
d="M291 0l-284 1l1 43l46 12q60 17 65 68l36 478q0 35 -23 44l-65 26q0 19 7 35h480l-8 -169q-27 0 -35 3q-6 40 -31.5 65.5t-66.5 28.5l-168 12l-14 -229h127q94 0 150.5 -49t56.5 -146q0 -96 -81.5 -160t-192.5 -63zM208 62h78q50 1 89.5 13.5t68.5 46t29 85.5
q0 141 -150 144l-96 2z" />
    <glyph glyph-name="afii10019" unicode="&#x412;" horiz-adv-x="628" 
d="M8 0q-1 9 1 44q3 1 15.5 3.5t19.5 4.5q35 8 54.5 23t21.5 48l36 481q4 33 -23 42l-65 26q0 20 7 35h250q43 0 80 -6.5t70.5 -22.5t53 -46.5t19.5 -73.5q0 -51 -29 -96t-79 -75v-2q62 -15 99 -58t37 -100q0 -99 -80.5 -163t-190.5 -64h-297zM209 61h92q85 0 136 35.5
t51 106.5q0 57 -41.5 94.5t-107.5 38.5l-112 3zM230 394l79 3q140 4 140 144q0 55 -40 80t-96 28l-67 3z" />
    <glyph glyph-name="afii10020" unicode="&#x413;" horiz-adv-x="583" 
d="M20 0q-3 19 -1 40l58 18q18 5 30.5 24t14.5 41l36 481q2 13 -4 25.5t-18 16.5l-72 26q0 18 7 35h484l-12 -169q-31 -3 -45 3q-6 29 -12 45.5t-24 31.5t-48 17l-168 12l-33 -537q-2 -32 21 -36l110 -23q-3 -38 -7 -51h-317z" />
    <glyph glyph-name="afii10021" unicode="&#x414;" horiz-adv-x="737" 
d="M0 -183l20 247h60q35 37 72 99t50 96q17 44 42 168t25 166q0 48 -22 55l-56 22q0 15 6 37h512q-2 -31 -5 -41l-52 -12q-17 -5 -24 -12.5t-8 -26.5l-35 -551h96l-13 -245q-39 -6 -52 1q-35 180 -107 180h-307q-36 0 -62.5 -13.5t-41 -38t-22 -45.5t-13.5 -49.5t-8 -35.5
q-5 -3 -25 -3t-30 2zM180 64h316l39 579h-193q-45 -314 -69 -387q-28 -85 -93 -192z" />
    <glyph glyph-name="afii10022" unicode="&#x415;" horiz-adv-x="591" 
d="M10 0q-3 24 0 45l68 18q18 4 30 21t14 39l36 481q2 13 -4 25.5t-18 16.5l-72 26q0 18 7 35h474l-11 -157q-17 -3 -47 0q-6 47 -22.5 68.5t-53.5 22.5l-164 6l-18 -261l252 5l-5 -72l-251 5l-13 -263l170 4q50 1 85 31.5t52 71.5l39 -6l-29 -162h-519z" />
    <glyph glyph-name="afii10024" unicode="&#x416;" horiz-adv-x="977" 
d="M318 0q-4 27 -1 44l68 23q38 13 42 67l34 449q2 51 -26 62l-58 21q-3 23 4 41h262q2 -32 1 -39l-51 -19q-19 -7 -29.5 -27.5t-12.5 -43.5l-30 -470q-1 -18 3 -25.5t15 -10.5l63 -21q0 -32 -7 -51h-277zM-14 -22l-12 53q33 11 73.5 39t68.5 61l204 243l-263 289l3 44h233
q1 -4 1 -44l-68 -15q-17 -5 -19 -24q-1 -13 18 -36l185 -214l-3 -41l-245 -290q-50 -60 -176 -65zM961 -22q-20 0 -43.5 2.5t-63.5 18.5t-61 43l-219 291l3 41l197 214q23 24 24 38q0 20 -18 27l-45 14q0 18 6 40h230l-3 -41l-306 -286l186 -248q52 -69 127 -101z" />
    <glyph glyph-name="afii10025" unicode="&#x417;" horiz-adv-x="513" 
d="M232 -13q-45 0 -98.5 15.5t-95.5 43.5l32 67q102 -53 170 -53q62 0 97.5 37.5t35.5 108.5q0 60 -43.5 91t-102.5 31q-24 0 -69 -3l7 78q29 -3 78 -3q52 0 89.5 39t39.5 110q0 52 -28 82t-79 30q-16 0 -30.5 -2.5t-25.5 -8.5t-19.5 -11.5t-15.5 -15t-12 -15.5t-9 -17
t-6 -15.5t-5 -14.5t-3 -11h-32q-7 42 -15 126q90 44 186 44q89 0 143.5 -44.5t54.5 -120.5q-2 -69 -43.5 -115.5t-99.5 -63.5v-1q62 -10 104 -53t42 -110q0 -103 -69 -164t-178 -61z" />
    <glyph glyph-name="afii10026" unicode="&#x418;" horiz-adv-x="791" 
d="M8 0q-3 19 -1 40l59 21q21 8 34.5 33t15.5 50l32 438q5 58 -32 69l-65 19q3 26 7 37h267q3 -20 1 -41l-55 -13q-21 -5 -27.5 -13.5t-8.5 -29.5l-26 -389l388 371q-1 48 -37 61l-46 17q3 34 4 37h257q-3 -33 -5 -41l-52 -12q-17 -4 -24 -12t-8 -29l-32 -503q-3 -37 18 -42
l81 -19q-3 -35 -7 -49h-283q-3 24 0 44l41 11q30 9 45 38t18 59l26 349l-389 -371q-1 -32 3.5 -43.5t18.5 -15.5l92 -25q-3 -32 -7 -46h-303z" />
    <glyph glyph-name="afii10027" unicode="&#x419;" horiz-adv-x="791" 
d="M8 0q-3 19 -1 40l59 21q21 8 34.5 33t15.5 50l32 438q5 58 -32 69l-65 19q3 26 7 37h267q3 -20 1 -41l-55 -13q-21 -5 -27.5 -13.5t-8.5 -29.5l-26 -389l388 371q-1 48 -37 61l-46 17q3 34 4 37h257q-3 -33 -5 -41l-52 -12q-17 -4 -24 -12t-8 -29l-32 -503q-3 -37 18 -42
l81 -19q-3 -35 -7 -49h-283q-3 24 0 44l41 11q30 9 45 38t18 59l26 349l-389 -371q-1 -32 3.5 -43.5t18.5 -15.5l92 -25q-3 -32 -7 -46h-303zM409 766q-43 0 -80.5 34t-53.5 73l79 48q13 -32 35.5 -57t34.5 -25q30 0 78.5 21t92.5 60l26 -33q-22 -23 -50.5 -46.5t-76 -49
t-85.5 -25.5z" />
    <glyph glyph-name="afii10028" unicode="&#x41a;" horiz-adv-x="673" 
d="M4 0q-4 27 -1 44l68 23q38 13 42 67l34 449q2 51 -26 62l-58 21q-3 23 4 41h262q2 -32 1 -39l-51 -19q-19 -7 -29.5 -27.5t-12.5 -43.5l-30 -470q-1 -18 3 -25.5t15 -10.5l63 -21q0 -32 -7 -51h-277zM657 -22q-19 0 -43 3t-64 18.5t-61 42.5l-229 300l3 41l197 205
q23 24 24 38q0 20 -18 27l-45 14q0 18 6 40h230l-3 -41l-306 -277l196 -257q52 -69 127 -101z" />
    <glyph glyph-name="afii10029" unicode="&#x41b;" horiz-adv-x="671" 
d="M12 -22l-38 100q46 10 88.5 34.5t53.5 45.5q32 64 70.5 234.5t38.5 210.5q0 38 -22 45l-56 22q0 15 6 37h502q-2 -34 -5 -41l-52 -12q-17 -5 -24 -12.5t-8 -26.5l-32 -503q-2 -21 2.5 -31t19.5 -14l77 -18q-5 -43 -7 -49h-282q-4 26 -1 44l42 12q29 8 44.5 38t17.5 59
l35 486h-183l-11 -63q-6 -30 -15.5 -83l-14.5 -82.5t-15 -76.5t-18 -74.5t-20.5 -66.5t-25 -62.5t-30 -51.5t-37.5 -45t-45.5 -32.5t-54.5 -23.5z" />
    <glyph glyph-name="afii10030" unicode="&#x41c;" horiz-adv-x="964" 
d="M393 -20l-109 588h-11l-5 -52l-133 -408q-10 -30 11 -36l90 -29q-3 -33 -7 -43h-252q-3 19 -1 40l36 18q40 19 60 80l147 452q6 18 -3 36t-24 23l-60 21q3 27 7 37h201l83 -394l27 -152h7l70 147l195 399h185q2 -27 1 -35l-48 -16q-44 -15 -43 -82l8 -458q0 -34 33 -53
l42 -21q0 -20 -6 -42h-254q-2 28 0 40l43 13q20 6 30.5 26t12 37.5t2.5 43.5v6l1 348l1 56h-10l-269 -570z" />
    <glyph glyph-name="afii10031" unicode="&#x41d;" horiz-adv-x="781" 
d="M8 0q-3 19 -1 40l59 21q21 8 34.5 33t15.5 50l32 438q5 58 -32 69l-65 19q3 26 7 37h267q3 -20 1 -41l-55 -13q-21 -5 -27.5 -13.5t-8.5 -29.5l-15 -224h355l12 186q2 22 -7.5 47.5t-29.5 33.5l-46 17q3 34 4 37h257q-3 -33 -5 -41l-52 -12q-17 -4 -24 -12t-8 -29
l-32 -503q-3 -37 18 -42l81 -19q-3 -35 -7 -49h-283q-3 24 0 44l41 11q30 9 45 38t18 59l13 172h-355l-11 -213q-1 -34 22 -40l92 -25q-3 -32 -7 -46h-303z" />
    <glyph glyph-name="afii10032" unicode="&#x41e;" horiz-adv-x="726" 
d="M338 -11q-141 0 -217 88t-76 234q0 108 42.5 200.5t126.5 150.5t192 58q135 0 209.5 -90t74.5 -231q0 -109 -39 -200.5t-121 -150.5t-192 -59zM357 59q71 0 126 50t81 120.5t26 143.5q0 74 -19 134t-67.5 102t-120.5 42q-75 0 -130.5 -49.5t-80.5 -119t-25 -145.5
q0 -55 11 -102.5t34 -88t65.5 -64t99.5 -23.5z" />
    <glyph glyph-name="afii10033" unicode="&#x41f;" horiz-adv-x="776" 
d="M8 0q-3 19 -1 40l59 21q21 8 34.5 33t15.5 50l32 438q5 58 -32 69l-65 19q3 26 7 37h702q-3 -33 -5 -41l-52 -12q-17 -4 -24 -12t-8 -29l-32 -503q-3 -37 18 -42l81 -19q-3 -35 -7 -49h-283q-3 24 0 44l41 11q30 9 45 38t18 59l36 494h-350l-34 -535q-1 -34 22 -40
l92 -25q-3 -32 -7 -46h-303z" />
    <glyph glyph-name="afii10034" unicode="&#x420;" horiz-adv-x="566" 
d="M13 0q-2 26 -1 40q49 15 58 18q20 6 31.5 24.5t13.5 39.5l36 482q4 34 -22 42l-71 26q-1 15 6 35h292q99 0 154.5 -46.5t55.5 -143.5t-64.5 -159t-165.5 -62q-22 0 -46 3l6 56h24q143 0 143 142q0 34 -8 60t-26 41.5t-34.5 25t-48 14.5t-50.5 6.5t-56 2.5l-34 -544
q-2 -25 22 -32l98 -26q-2 -27 -7 -45h-306z" />
    <glyph glyph-name="afii10035" unicode="&#x421;" horiz-adv-x="616" 
d="M363 -13q-165 0 -240.5 85t-75.5 250q0 172 104 284.5t271 112.5q101 0 182 -42l-11 -150h-36q-10 63 -47.5 95.5t-92.5 32.5q-130 0 -199 -87.5t-69 -223.5q0 -138 54 -210t188 -72q75 0 148 31l20 -61q-87 -45 -196 -45z" />
    <glyph glyph-name="afii10036" unicode="&#x422;" horiz-adv-x="632" 
d="M133 0q-2 24 0 45l74 19q18 4 31.5 26.5t15.5 44.5l39 509h-120q-65 0 -93 -101q-23 -2 -40 2l11 162h579l-11 -162q-16 -4 -41 -2q-13 101 -89 101h-110l-34 -543q-1 -19 3 -27t18 -12l92 -17q-3 -34 -7 -45h-318z" />
    <glyph glyph-name="afii10037" unicode="&#x423;" horiz-adv-x="698" 
d="M163 -38l-20 93q86 17 122 44q20 15 60 90l-215 408q-19 32 -35 47t-48 29q1 25 4 34h251q3 -23 2 -37l-53 -19q-16 -6 -16 -28q-2 -22 10 -44l152 -288l144 298q4 7 6 22q2 25 -15 34l-54 27q1 26 5 35h232q2 -24 1 -35q-3 -1 -16.5 -6t-18.5 -7.5l-16 -8t-17 -10
t-13 -12t-11 -16.5l-218 -443q-56 -108 -100.5 -150t-122.5 -57z" />
    <glyph glyph-name="afii10038" unicode="&#x424;" horiz-adv-x="721" 
d="M202 0q-3 19 -1 40l54 21q33 11 42 58q-121 0 -201.5 60t-80.5 165q0 124 87.5 200t232.5 76q-2 49 -47 67l-37 14q-2 21 4 37h257q2 -15 0 -41l-40 -8q-39 -9 -49 -66q122 0 199.5 -59.5t77.5 -161.5q0 -125 -84.5 -203t-225.5 -78q-5 -32 -0.5 -43.5t22.5 -15.5l77 -16
q-3 -31 -7 -46h-280zM302 170l30 404q-103 0 -161 -59t-58 -171q0 -79 52 -126t137 -48zM393 171q99 0 154.5 56t55.5 167q0 85 -49 132t-135 47z" />
    <glyph glyph-name="afii10039" unicode="&#x425;" horiz-adv-x="697" 
d="M-11 0q-2 28 0 40l37 18q36 16 93 79l194 220l-126 225q-5 9 -12.5 18t-13.5 15t-18 15t-16.5 12l-19.5 12.5t-17 11.5q-2 5 -1 19t3 22h240q2 -29 0 -41l-41 -18q-12 -5 -13.5 -19.5t8.5 -32.5l93 -164l141 158q12 13 12.5 31t-11.5 24l-41 22q3 36 4 40h231
q1 -9 -4 -40q-31 -8 -67 -30.5t-57 -47.5l-179 -208l142 -249q14 -24 29.5 -40t29.5 -25t46 -27q-3 -30 -6 -40h-251q-2 28 0 40l42 23q16 9 16 26q0 14 -9 29l-105 187l-153 -179q-12 -15 -12 -33q0 -20 13 -26l55 -27q-3 -30 -6 -40h-250z" />
    <glyph glyph-name="afii10040" unicode="&#x426;" horiz-adv-x="778" 
d="M719 -181q-39 -6 -52 1q0 1 -3 15.5t-4 21t-5 22.5t-7 24.5l-8.5 23.5t-10.5 23.5t-12.5 19t-16 16.5t-18.5 10t-22 4h-552q-3 19 -1 40l59 21q21 8 34.5 33t15.5 50l32 438q5 58 -32 69l-65 19q3 26 7 37h267q3 -20 1 -41l-55 -13q-21 -5 -27.5 -13.5t-8.5 -29.5
l-36 -548h335l38 510q2 22 -7.5 47.5t-29.5 33.5l-46 17q3 34 4 37h257q-3 -33 -5 -41l-52 -12q-17 -4 -24 -12t-8 -29l-35 -549h106z" />
    <glyph glyph-name="afii10041" unicode="&#x427;" horiz-adv-x="687" 
d="M361 0q-4 22 -1 44l42 12q29 8 44 38t17 59l13 171q-106 -42 -188 -42q-106 0 -142.5 47t-30.5 137l8 123q0 52 -26 60l-71 21q0 15 6 37h268q3 -22 0 -41l-56 -13q-20 -5 -26.5 -15t-7.5 -30l-9 -130q-4 -68 28 -96.5t107 -28.5q83 0 145 36l12 182q2 22 -8 48.5
t-29 33.5l-46 17q0 26 3 37h258q-2 -31 -5 -41l-52 -12q-17 -5 -24 -12.5t-8 -26.5l-32 -507q-3 -36 16 -40l83 -19q-4 -39 -8 -49h-280z" />
    <glyph glyph-name="afii10042" unicode="&#x428;" horiz-adv-x="1006" 
d="M8 0q-3 19 -1 40l59 21q21 8 34.5 33t15.5 50l32 438q5 58 -32 69l-65 19q3 26 7 37h267q3 -20 1 -41l-55 -13q-21 -5 -27.5 -13.5t-8.5 -29.5l-36 -548h248l36 500q6 74 -35 90l-47 18q0 27 4 37h257q0 -21 -5 -41l-49 -11q-21 -5 -27.5 -14.5t-8.5 -30.5l-36 -548h238
l38 510q2 22 -7.5 47.5t-29.5 33.5l-46 17q3 34 4 37h257q-3 -33 -5 -41l-52 -12q-17 -4 -24 -12t-8 -29l-32 -503q-1 -39 18 -42l81 -19q-3 -35 -7 -49h-953z" />
    <glyph glyph-name="afii10043" unicode="&#x429;" horiz-adv-x="1018" 
d="M959 -181q-39 -6 -52 1q-35 180 -107 180h-792q-3 19 -1 40l59 21q21 8 34.5 33t15.5 50l32 438q5 58 -32 69l-65 19q3 26 7 37h267q3 -20 1 -41l-55 -13q-21 -5 -27.5 -13.5t-8.5 -29.5l-36 -548h248l35 500q7 76 -39 92l-43 16q0 24 4 37h257q-2 -30 -4 -41l-51 -11
q-14 -3 -21 -9t-9.5 -13.5t-3.5 -22.5l-36 -548h238l38 510q2 22 -7.5 47.5t-29.5 33.5l-46 17q3 34 4 37h257q-3 -33 -5 -41l-52 -12q-17 -4 -24 -12t-8 -29l-35 -549h106z" />
    <glyph glyph-name="afii10044" unicode="&#x42a;" horiz-adv-x="650" 
d="M360 0l-261 1l1 43l46 12q60 17 65 68l40 527l-84 -7q-23 -1 -40 -10t-28.5 -28t-16 -30t-13.5 -37q-9 -6 -36 -1l15 169h375q3 -21 -1 -45l-44 -6q-41 -15 -45 -79l-10 -159h104q94 0 150.5 -49t56.5 -146q0 -102 -81 -162.5t-193 -60.5zM300 62h64q77 2 127.5 36
t50.5 109q0 141 -150 144l-73 2z" />
    <glyph glyph-name="afii10045" unicode="&#x42b;" horiz-adv-x="862" 
d="M267 0l-261 1l1 43l46 12q60 17 65 68l36 475q1 23 -5 32.5t-23 16.5l-60 24q-2 14 7 35h257q3 -20 1 -41l-40 -8q-24 -6 -36.5 -29.5t-14.5 -51.5l-10 -159h104q94 0 150.5 -49t56.5 -146q0 -102 -81 -162.5t-193 -60.5zM207 62h64q77 2 127.5 36t50.5 109
q0 141 -150 144l-73 2zM537 0q-3 19 -1 40l54 21q38 14 44 72l32 441q6 62 -46 82l-37 14q-2 21 4 37h257q2 -15 0 -41l-40 -8q-24 -6 -36.5 -29.5t-14.5 -51.5l-30 -476q-2 -19 3 -27t21 -12l77 -16q-3 -31 -7 -46h-280z" />
    <glyph glyph-name="afii10046" unicode="&#x42c;" horiz-adv-x="557" 
d="M267 0l-261 1l1 43l46 12q60 17 65 68l36 475q1 23 -5 32.5t-23 16.5l-60 24q-2 14 7 35h257q3 -20 1 -41l-40 -8q-24 -6 -36.5 -29.5t-14.5 -51.5l-10 -159h104q94 0 150.5 -49t56.5 -146q0 -102 -81 -162.5t-193 -60.5zM207 62h64q77 2 127.5 36t50.5 109
q0 141 -150 144l-73 2z" />
    <glyph glyph-name="afii10047" unicode="&#x42d;" horiz-adv-x="642" 
d="M240 -13q-93 0 -191 45l24 64q77 -34 179 -34q212 0 248 260l-311 -5l5 80l308 -9q0 124 -50.5 193.5t-148.5 69.5q-135 0 -173 -123h-36l11 150q108 42 212 42q150 0 219.5 -86.5t69.5 -238.5q0 -174 -101 -291t-265 -117z" />
    <glyph glyph-name="afii10048" unicode="&#x42e;" horiz-adv-x="1072" 
d="M681 -11q-141 0 -217 88t-76 234v13h-148l-11 -213q-1 -34 22 -40l92 -25q-3 -32 -7 -46h-303q-3 19 -1 40l59 21q21 8 34.5 33t15.5 50l32 438q5 58 -32 69l-65 19q3 26 7 37h267q3 -20 1 -41l-55 -13q-21 -5 -27.5 -13.5t-8.5 -29.5l-15 -224h149q22 143 117 238.5
t238 95.5q135 0 209.5 -90t74.5 -231q0 -109 -39 -200.5t-121 -150.5t-192 -59zM700 59q71 0 126 50t81 120.5t26 143.5q0 74 -19 134t-67.5 102t-120.5 42q-75 0 -130.5 -49.5t-80.5 -119t-25 -145.5q0 -55 11 -102.5t34 -88t65.5 -64t99.5 -23.5z" />
    <glyph glyph-name="afii10049" unicode="&#x42f;" horiz-adv-x="664" 
d="M-1 -19l-6 54q62 20 86 42q56 50 181 230q-129 56 -129 179q0 71 43 123t102 75t121 23h251q-2 -31 -5 -41l-52 -12q-17 -5 -24 -12.5t-8 -26.5l-32 -507q-3 -35 16 -40l83 -19q-4 -39 -8 -49h-282q-4 22 -1 43l42 12q29 8 45.5 39t18.5 59l9 136h-97l-28.5 -44
l-37.5 -56.5l-37 -53t-45 -59.5t-44 -49q-6 -7 -14.5 -12.5t-16.5 -10t-18.5 -8t-18.5 -5.5t-19.5 -4t-18.5 -3t-17.5 -1.5t-15.5 -0.5t-13.5 -0.5t-9.5 -0.5zM400 355h55l19 269q-75 9 -93 9q-150 0 -150 -147q0 -60 49 -95.5t120 -35.5z" />
    <glyph glyph-name="afii10065" unicode="&#x430;" horiz-adv-x="528" 
d="M116 -13q-45 0 -61.5 22t-16.5 70q0 75 14 150.5t45 151.5t91.5 123.5t141.5 47.5q60 0 118 -27l-48 -444l84 1v-24q-70 -70 -128 -70q-43 0 -43 39q0 10 8 82q-54 -57 -102 -89.5t-103 -32.5zM147 68q17 0 37 7.5t42 21.5l37.5 24.5t37.5 28l27 21.5l34 292
q-29 18 -79 18q-44 0 -77.5 -49t-50 -120t-24.5 -133.5t-8 -106.5q11 -4 24 -4z" />
    <glyph glyph-name="afii10066" unicode="&#x431;" horiz-adv-x="480" 
d="M206 -26q-86 0 -126 39.5t-40 124.5q0 145 30.5 295t94.5 229q11 14 36.5 25t46 16.5t65 15t60.5 13.5q39 9 82 35l22 -24l-84 -101q-19 -4 -65 -8.5t-80.5 -11.5t-58.5 -22q-7 -4 -12.5 -17.5t-11.5 -40.5t-9 -44.5l-9.5 -58t-8.5 -50.5q62 65 104.5 93t82.5 28
q70 0 92.5 -35t22.5 -112q0 -60 -13 -124t-39.5 -125t-74 -100.5t-107.5 -39.5zM243 47q17 0 31.5 9t25 27t18.5 38t13 49t8.5 52.5t6 56.5t3.5 54t1.5 52t1.5 42q-15 4 -34 5q-31 2 -82.5 -25t-101.5 -77q-7 -58 -7 -167q0 -60 4 -84q35 -34 112 -32z" />
    <glyph glyph-name="afii10067" unicode="&#x432;" horiz-adv-x="491" 
d="M189 -12q-149 -3 -149 112q0 86 15.5 164.5t47 146t86 108t125.5 40.5q55 0 92.5 -30t37.5 -84q0 -98 -89 -145q40 -13 64 -42t24 -67q0 -51 -26.5 -92t-67 -64t-82.5 -35t-78 -12zM218 54q62 0 98.5 34.5t36.5 95.5q0 60 -54 84q-78 -22 -158 -35l-16 -154
q42 -25 93 -25zM146 286q119 25 162.5 56.5t43.5 85.5q0 33 -21.5 50t-53.5 17q-104 0 -131 -209z" />
    <glyph glyph-name="afii10068" unicode="&#x433;" horiz-adv-x="416" 
d="M151 -13q-44 0 -78.5 39.5t-34.5 89.5q0 43 24 72t117 107l53 44q48 40 48 76q0 24 -11 44t-25 20q-60 0 -138 -38l-24 44q34 25 92 48.5t96 23.5q42 0 75.5 -43t33.5 -91q0 -57 -75 -114q-107 -82 -139 -116t-32 -61q0 -23 13.5 -43t25.5 -20q64 0 169 62l29 -44
q-50 -42 -109.5 -71t-109.5 -29z" />
    <glyph glyph-name="afii10069" unicode="&#x434;" horiz-adv-x="505" 
d="M198 -12q-77 0 -117.5 35t-40.5 99q0 98 22.5 184.5t73 146t119.5 59.5q57 4 122 -59q1 21 1 26q0 151 -24 182q-3 4 -9.5 7t-18 5t-23 3t-30 2t-33 1t-39 1t-40.5 1v40q103 28 166 28q28 0 49.5 -9.5t36 -24.5t24.5 -39t15.5 -46t8.5 -53t3.5 -52.5t0.5 -52.5
q0 -117 -30.5 -226t-93 -183.5t-143.5 -74.5zM235 61q98 0 139 335q-71 47 -138 47q-52 0 -80.5 -80.5t-28.5 -194.5q0 -35 4 -75q33 -32 104 -32z" />
    <glyph glyph-name="afii10070" unicode="&#x435;" horiz-adv-x="434" 
d="M150 -13q-62 0 -85.5 35.5t-23.5 136.5q0 71 11.5 134.5t39 126.5t82.5 100.5t132 37.5q56 0 88 -23t32 -64q0 -97 -70 -152t-223 -82q-4 -53 -4 -152q30 -14 53 -14q53 0 169 53l21 -44q-45 -40 -105 -66.5t-117 -26.5zM138 290q81 16 122.5 37t55 47t13.5 71
q0 49 -70 49q-94 0 -121 -204z" />
    <glyph glyph-name="afii10072" unicode="&#x436;" horiz-adv-x="750" 
d="M658 -27q-43 37 -75.5 79.5t-45 66.5l-44.5 88l-9 18.5l-11.5 23.5t-10.5 20l145 183q29 37 -34 66l4 28h160l11 -25l-210 -238l48 -79.5t51 -71t80 -90.5q-18 -39 -59 -69zM77 -27q-43 37 -55 82q76 58 121 104t108 125l-162 237l17 25h160l-4 -28q-72 -29 -52 -66
l113 -183l-50 -70l-58.5 -83.5t-56 -66t-81.5 -76.5zM322 0l20 190l35 337l85 35l-33 -321l-9 -83v-158h-98z" />
    <glyph glyph-name="afii10073" unicode="&#x437;" horiz-adv-x="412" 
d="M151 -8q-69 0 -133 29q6 33 36 86q71 -42 118 -42q44 0 73 24.5t29 79.5q0 42 -33 61.5t-94 25.5l-5 40q30 16 48 27.5t44 32.5t39.5 46.5t13.5 55.5q-25 26 -92 24q-41 -1 -101 -24q-2 42 9 75q50 24 120 24q63 0 105 -27t42 -76q0 -46 -36.5 -85t-84.5 -60
q53 -11 82.5 -42t29.5 -74q0 -86 -61.5 -143.5t-148.5 -57.5z" />
    <glyph glyph-name="afii10074" unicode="&#x438;" horiz-adv-x="531" 
d="M117 -13q-75 0 -66 103l40 437l84 33l-41 -490q10 -5 20 -5q31 0 95 47t92 76l37 339l85 33l-54 -479h90v-20q-69 -71 -128 -71q-42 0 -42 40q0 14 1 24l7 79q-52 -69 -102 -107.5t-118 -38.5z" />
    <glyph glyph-name="afii10075" unicode="&#x439;" horiz-adv-x="531" 
d="M266 619q-41 0 -72.5 31t-48.5 71l77 46q13 -33 30.5 -55.5t28.5 -22.5q65 0 157 77l25 -31q-112 -116 -197 -116zM117 -13q-75 0 -66 103l40 437l84 33l-41 -490q10 -5 20 -5q31 0 95 47t92 76l37 339l85 33l-54 -479h90v-20q-69 -71 -128 -71q-42 0 -42 40q0 14 1 24
l7 79q-52 -69 -102 -107.5t-118 -38.5z" />
    <glyph glyph-name="afii10076" unicode="&#x43a;" horiz-adv-x="477" 
d="M395 -27q-78 66 -130 153l-76 143l145 183q29 37 -34 66l4 28h160l11 -25l-210 -238q72 -123 189 -241q-18 -39 -59 -69zM49 0l55 527l85 35l-42 -404v-158h-98z" />
    <glyph glyph-name="afii10077" unicode="&#x43b;" horiz-adv-x="471" 
d="M314 -17l-22 512l-155 -317q-8 -14 -12 -33l-13 -153h-105q-1 4 0 14.5t1 11.5q6 76 55 167l184 350l116 29l32 -425l39 -123q-54 -33 -120 -33z" />
    <glyph glyph-name="afii10078" unicode="&#x43c;" horiz-adv-x="757" 
d="M282 -19l-52 481l-87 -286q-6 -19 -11 -44v-142h-99v29q0 59 40 164l116 350l110 29l50 -489l222 468l111 21l-47 -482h86v-21q-71 -71 -128 -71q-43 0 -43 40q0 6 7 69l39 357l-210 -444z" />
    <glyph glyph-name="afii10079" unicode="&#x43d;" horiz-adv-x="544" 
d="M380 -12q-42 0 -42 40q0 26 5 61l20 173l-208 -18l-9 -83v-161h-97l55 527l85 35l-28 -259l208 18l21 206l85 35l-53 -480h86v-21q-71 -73 -128 -73z" />
    <glyph glyph-name="afii10080" unicode="&#x43e;" horiz-adv-x="480" 
d="M243 61q54 0 82 95.5t28 206.5q0 50 -7 87q-40 36 -107 36q-33 0 -56.5 -28.5t-35 -76t-16 -94.5t-4.5 -99q0 -55 4 -95q33 -32 112 -32zM206 -12q-86 0 -126 39.5t-40 124.5q0 48 6 99t22 106.5t39 98.5t61.5 71t85.5 28q186 0 186 -174q0 -60 -13 -124.5t-39.5 -126.5
t-74 -102t-107.5 -40z" />
    <glyph glyph-name="afii10081" unicode="&#x43f;" horiz-adv-x="544" 
d="M369 -12q-42 0 -42 40q0 26 5 61l50 364q-14 4 -22 4q-42 0 -102.5 -32t-87.5 -57l-24 -207v-161h-97l55 527l85 35l-13 -134q47 50 110.5 87.5t110.5 37.5q36 0 51 -14t15 -47q0 -17 -3 -41l-49 -369h86v-21q-71 -73 -128 -73z" />
    <glyph glyph-name="afii10082" unicode="&#x440;" horiz-adv-x="498" 
d="M17 -220l82 746l83 34l-14 -131q113 120 193 120q62 0 83.5 -29.5t21.5 -119.5q0 -108 -31 -200t-95 -151t-150 -59q-30 0 -64 9l-12 -114v-105h-97zM211 57q30 0 55.5 14t42 40t30 55t21 67.5t12 69.5t6.5 68.5t2.5 56t0.5 41.5q-17 5 -31 5q-80 0 -188 -112l-29 -282
q52 -23 78 -23z" />
    <glyph glyph-name="afii10083" unicode="&#x441;" horiz-adv-x="418" 
d="M133 -13q-96 0 -96 91q0 477 253 477q73 0 118 -27q-2 -54 -25 -84q-64 40 -137 40q-120 0 -119 -395v-11q19 -10 47 -10q51 0 181 65l22 -43q-46 -40 -116.5 -71.5t-127.5 -31.5z" />
    <glyph glyph-name="afii10084" unicode="&#x442;" horiz-adv-x="819" 
d="M646 -13q-43 0 -43 40q0 22 9 75l59 353q-9 4 -24 4q-42 0 -101 -32t-88 -58l-34 -235v-134h-99l61 455q-11 4 -24 4q-42 0 -101.5 -32.5t-87.5 -58.5l-23 -207v-161h-97l55 527l85 35l-14 -134q48 51 111 88t111 37q37 0 52.5 -14t15.5 -49q0 -21 -2 -34l-4 -28
q48 50 111.5 87.5t111.5 37.5q37 0 52 -14t15 -46q0 -21 -4 -42l-60 -367h87v-21q-76 -76 -130 -76z" />
    <glyph glyph-name="afii10085" unicode="&#x443;" horiz-adv-x="458" 
d="M68 -220l108 220h-52l-47 390l-57 127q72 38 123 38l63 -515l135 320q6 13 9 33v153h100q1 -7 1 -29q0 -29 -8 -62t-14 -48.5t-23 -54.5l-247 -572h-91z" />
    <glyph glyph-name="afii10086" unicode="&#x444;" horiz-adv-x="671" 
d="M238 -220l23 209q-221 0 -221 177q0 181 71 285.5t214 104.5l14 133h-98v51q82 20 150 20q20 0 27.5 -7t5.5 -24l-20 -173q44 0 78.5 -6t71 -22.5t57 -53t20.5 -91.5q0 -181 -71 -285.5t-214 -104.5l-11 -108v-105h-97zM353 62q103 0 147 63t44 230q0 63 -8 97
q-40 34 -139 34zM271 62l44 424q-103 0 -147 -63t-44 -230q0 -63 8 -97q40 -34 139 -34z" />
    <glyph glyph-name="afii10087" unicode="&#x445;" horiz-adv-x="466" 
d="M359 -10q-40 0 -58 41l-83 188l-101 -137v-82h-111l-11 32l202 236l-64 142l-84 92q42 51 104 51l102 -217l93 107v103h102l1 -20q0 -53 -50 -105l-124 -132l101 -216h77l6 -33q-60 -50 -102 -50z" />
    <glyph glyph-name="afii10088" unicode="&#x446;" horiz-adv-x="547" 
d="M384 -157l68 184q-52 -37 -81 -37q-42 0 -42 40q0 14 1 24l7 79q-52 -69 -102 -107.5t-118 -38.5q-75 0 -66 103l40 437l84 33l-41 -490q10 -5 20 -5q31 0 95 47t92 76l37 339l85 33l-54 -479h102l-33 -215z" />
    <glyph glyph-name="afii10089" unicode="&#x447;" horiz-adv-x="491" 
d="M327 -10q-42 0 -42 40q0 14 1 24l26 233q-117 -103 -205 -103q-42 0 -59 23t-12 80l21 240l84 33l-24 -291q10 -7 36 -7q29 0 78 26t85 56l18 183l85 33l-54 -479h90v-20q-69 -71 -128 -71z" />
    <glyph glyph-name="afii10090" unicode="&#x448;" horiz-adv-x="812" 
d="M117 -13q-75 0 -66 103l40 437l84 33l-41 -490q10 -5 20 -5q30 0 90 41.5t96 75.5l32 345l84 33l-41 -490q10 -5 20 -5q31 0 95 47t92 76l37 339l85 33l-54 -479h90v-20q-69 -71 -128 -71q-42 0 -42 40q0 14 1 24l7 79q-52 -69 -102 -107.5t-118 -38.5q-75 0 -66 103
l3 33q-105 -136 -218 -136z" />
    <glyph glyph-name="afii10091" unicode="&#x449;" horiz-adv-x="786" 
d="M623 -157l68 184q-52 -37 -81 -37q-42 0 -42 40q0 11 8 102q-57 -73 -103.5 -109t-96.5 -36q-79 0 -70 103l4 42q-50 -67 -98 -106t-102 -39q-75 0 -66 103l56 437l84 33l-57 -490q10 -5 20 -5q22 0 62 28.5t65 52t44 43.5l50 338l85 33l-65 -490q10 -5 20 -5
q26 0 74.5 36t101.5 92l48 334l85 33l-69 -479h102l-33 -215z" />
    <glyph glyph-name="afii10092" unicode="&#x44a;" horiz-adv-x="511" 
d="M236 -13q-61 0 -100 26t-39 84q0 95 37 198t104 186q-149 -32 -227 -32q0 66 21 103q79 -9 126 -9q121 0 191 22l16 -38q-48 -38 -88.5 -100.5t-64.5 -135.5q35 38 79 63.5t86 25.5q60 0 83.5 -30.5t18.5 -99.5q-5 -60 -33 -118.5t-84 -101.5t-126 -43zM265 54
q60 0 95 63.5t35 143.5q0 12 -2 36q-18 5 -34 5q-84 0 -163 -71q-18 -97 -14 -153q46 -24 83 -24z" />
    <glyph glyph-name="afii10093" unicode="&#x44b;" horiz-adv-x="687" 
d="M187 -13q-72 0 -140 44l75 498l87 35l-42 -274q82 90 161 90q60 0 83.5 -30.5t18.5 -99.5q-5 -60 -33 -118.5t-84 -101.5t-126 -43zM216 54q61 0 95.5 62t34.5 143q0 14 -2 38q-18 5 -34 5q-46 0 -77.5 -17t-73.5 -54l-23 -153q46 -24 80 -24zM523 -12q-43 0 -43 40
q0 6 7 69l43 432l83 34l-48 -483h86v-21q-71 -71 -128 -71z" />
    <glyph glyph-name="afii10094" unicode="&#x44c;" horiz-adv-x="462" 
d="M187 -13q-72 0 -140 44l75 498l87 35l-42 -274q82 90 161 90q60 0 83.5 -30.5t18.5 -99.5q-5 -60 -33 -118.5t-84 -101.5t-126 -43zM216 54q61 0 95.5 62t34.5 143q0 14 -2 38q-18 5 -34 5q-46 0 -77.5 -17t-73.5 -54l-23 -153q46 -24 80 -24z" />
    <glyph glyph-name="afii10095" unicode="&#x44d;" horiz-adv-x="435" 
d="M161 -12q-38 0 -79 13t-63 30q16 36 43 73q20 -14 58 -28.5t78 -14.5t65.5 52t36.5 133l-168 -3l5 67l168 -5q3 54 3 58q0 52 -7 89q-33 30 -97 30q-52 0 -99 -32q-28 35 -20 72q59 35 134 35q95 0 135.5 -44.5t40.5 -131.5q0 -60 -13 -124.5t-39.5 -126.5t-74 -102
t-107.5 -40z" />
    <glyph glyph-name="afii10096" unicode="&#x44e;" horiz-adv-x="699" 
d="M425 -12q-86 0 -126 39.5t-40 124.5q0 53 6 107l-110 -17l-9 -81v-161h-97l55 527l85 35l-28 -261l114 17q14 65 37 115t65 86t96 36q186 0 186 -174q0 -60 -13 -124.5t-39.5 -126.5t-74 -102t-107.5 -40zM462 61q54 0 82 95.5t28 206.5q0 50 -7 87q-40 36 -107 36
q-33 0 -56.5 -28.5t-35 -76t-16 -94.5t-4.5 -99q0 -55 4 -95q33 -32 112 -32z" />
    <glyph glyph-name="afii10097" unicode="&#x44f;" horiz-adv-x="510" 
d="M354 -12q-43 0 -43 40q0 6 7 69l8 105l-71 3l-63.5 -94.5t-52 -67t-54.5 -52.5q-19 3 -39 23.5t-27 40.5q40 21 83.5 67t76.5 99q-39 14 -66 38t-27 52q0 52 29.5 110.5t69.5 91.5t113 33q51 0 129 -25q9 -3 13 -4l-44 -437h86v-21q-71 -71 -128 -71zM332 257l23 206
q-31 21 -83 21q-27 0 -43 -9q-19 -11 -37 -58t-18 -82q0 -33 41.5 -55t116.5 -23z" />
    <glyph glyph-name="uni0450" unicode="&#x450;" horiz-adv-x="434" 
d="M150 -13q-62 0 -85.5 35.5t-23.5 136.5q0 71 11.5 134.5t39 126.5t82.5 100.5t132 37.5q56 0 88 -23t32 -64q0 -97 -70 -152t-223 -82q-4 -53 -4 -152q30 -14 53 -14q53 0 169 53l21 -44q-45 -40 -105 -66.5t-117 -26.5zM138 290q81 16 122.5 37t55 47t13.5 71
q0 49 -70 49q-94 0 -121 -204zM312 615q-65 55 -162 154q26 33 52 50q60 -80 142 -175q-8 -15 -32 -29z" />
    <glyph glyph-name="afii10071" unicode="&#x451;" horiz-adv-x="434" 
d="M150 -13q-62 0 -85.5 35.5t-23.5 136.5q0 71 11.5 134.5t39 126.5t82.5 100.5t132 37.5q56 0 88 -23t32 -64q0 -97 -70 -152t-223 -82q-4 -53 -4 -152q30 -14 53 -14q53 0 169 53l21 -44q-45 -40 -105 -66.5t-117 -26.5zM138 290q81 16 122.5 37t55 47t13.5 71
q0 49 -70 49q-94 0 -121 -204zM190 655q-10 0 -33.5 26.5t-21.5 35.5q1 10 30 36t38 26t33 -26t23 -36q-1 -8 -30 -35t-39 -27zM408 655q-10 0 -33.5 26.5t-21.5 35.5q1 10 30 36t38 26t33 -26t23 -36q-1 -8 -30 -35t-39 -27z" />
    </font>
</defs>
</svg>
