<?xml version="1.0" standalone="no"?>
<!DOCTYPE svg PUBLIC "-//W3C//DTD SVG 1.1//EN" "http://www.w3.org/Graphics/SVG/1.1/DTD/svg11.dtd" >
<svg>
<metadata>
Created by FontForge 20090622 at Fri Sep 29 00:39:59 2017
 By deploy user
Copyright (c) 2003-2006 Peter Bilak, Typotheque V.O.F. All rights reserved.
</metadata>
<defs>
<font id="FedraSerifAPro-Medium" horiz-adv-x="600" >
  <font-face 
    font-family="Fedra Serif A Pro Medium"
    font-weight="500"
    font-stretch="normal"
    units-per-em="1000"
    panose-1="2 0 6 5 0 0 0 2 0 4"
    ascent="780"
    descent="-220"
    x-height="546"
    cap-height="707"
    bbox="-521 -1237 2316 989"
    underline-thickness="50"
    underline-position="-50"
    unicode-range="U+0020-U+FE69"
  />
<missing-glyph horiz-adv-x="712" 
d="M305 375v27h27v-27h-27zM380 525v27h27v-27h-27zM305 525v27h27v-27h-27zM230 525v27h27v-27h-27zM80 0v27h27v-27h-27zM155 0v27h27v-27h-27zM230 0v27h27v-27h-27zM305 0v27h27v-27h-27zM380 0v27h27v-27h-27zM80 75v27h27v-27h-27zM80 150v27h27v-27h-27zM80 225v27
h27v-27h-27zM80 300v27h27v-27h-27zM80 375v27h27v-27h-27zM80 450v27h27v-27h-27zM80 525v27h27v-27h-27zM80 600v27h27v-27h-27zM80 675v27h27v-27h-27zM155 675v27h27v-27h-27zM230 675v27h27v-27h-27zM305 675v27h27v-27h-27zM380 675v27h27v-27h-27zM455 675v27h27v-27
h-27zM530 675v27h27v-27h-27zM530 0v27h27v-27h-27zM455 0v27h27v-27h-27zM605 0v27h27v-27h-27zM605 675v27h27v-27h-27zM305 300v27h27v-27h-27zM305 150v27h27v-27h-27zM380 375v27h27v-27h-27zM455 375v27h27v-27h-27zM455 450v27h27v-27h-27zM455 525v27h27v-27h-27z
M605 600v27h27v-27h-27zM605 525v27h27v-27h-27zM605 375v27h27v-27h-27zM605 300v27h27v-27h-27zM605 150v27h27v-27h-27zM605 75v27h27v-27h-27zM605 225v27h27v-27h-27zM605 450v27h27v-27h-27z" />
    <glyph glyph-name="f_f" unicode="ff" horiz-adv-x="806" 
d="M32 0q-6 36 -4 54l52 18q28 9 30 60l2 148v191h-80v58l80 16v22q0 81 83.5 142.5t176.5 61.5q133 0 193 -53q69 63 156 63q169 0 169 -72q0 -54 -59 -85q-63 77 -97 77q-103 0 -103 -106v-51h119v-73h-119v-191l5 -164q0 -30 32 -36l109 -21q0 -40 -8 -59h-355
q-4 27 -4 54l46 15q34 11 36 63l2 148v191h-245v-191l4 -159q1 -21 9 -30.5t28 -14.5l67 -17q0 -42 -8 -59h-317zM249 544h245v32q0 23 8 47q-66 69 -129 68q-124 -2 -124 -98v-49z" />
    <glyph glyph-name="fi" unicode="fi" horiz-adv-x="762" 
d="M33 0q-6 24 -4 54l51 18q28 9 30 60l2 148v191h-79v58l79 15v20q0 84 85 153.5t174 69.5q100 0 154 -22.5t54 -64.5q0 -53 -70 -86q-22 31 -56.5 62t-52.5 32q-65 0 -108 -26.5t-43 -88.5v-49h205q78 14 144 14q25 0 36 -9t11 -34v-242l3 -161q0 -32 16 -36l74 -18
q0 -38 -5 -58h-304q-5 23 -5 56l55 19q26 9 28 44l3 154v198h-261v-191l5 -159q0 -21 6 -29.5t23 -12.5q81 -18 85 -20q0 -42 -8 -59h-327z" />
    <glyph glyph-name="fl" unicode="fl" horiz-adv-x="748" 
d="M731 58q0 -38 -5 -58h-309q-6 24 -4 53l57 17q28 9 28 46l4 158v382q-64 46 -119 46q-71 -1 -102.5 -25.5t-31.5 -73.5v-59h119v-73h-119v-191l4 -159q1 -39 37 -45q63 -15 67 -17q0 -42 -8 -59h-317q-5 38 -4 54l52 18q28 9 30 60l2 148v191h-80v58l80 16v28
q0 81 83.5 143t176.5 62q75 0 130 -20q50 6 89 6q24 0 35.5 -10t11.5 -34v-446l3 -163q2 -32 14 -35z" />
    <glyph glyph-name="f_f_i" unicode="ffi" horiz-adv-x="1135" 
d="M32 0q-5 29 -4 54l52 18q28 9 30 60l2 148v191h-80v58l80 16v22q0 81 83.5 142.5t176.5 61.5q148 0 198 -60q86 76 182 76q100 0 154 -22.5t54 -64.5q0 -54 -70 -86q-21 31 -55.5 62t-52.5 32q-66 0 -109 -26.5t-43 -88.5v-49h196q79 14 145 14q25 0 36 -9t11 -34v-242
l2 -161q1 -32 17 -36l74 -18q0 -38 -5 -58h-304q-5 23 -5 56l55 19q27 9 27 44l3 154v198h-252v-191l5 -159q0 -21 6 -29.5t23 -12.5q75 -18 80 -20q0 -40 -8 -59h-318q-7 31 -4 54l47 18q30 10 30 60l3 148v191h-245v-191l4 -159q1 -38 37 -45q63 -15 67 -17q0 -42 -8 -59
h-317zM249 544h245v20q0 30 10 56q-67 72 -131 71q-124 -2 -124 -98v-49z" />
    <glyph glyph-name="f_f_l" unicode="ffl" horiz-adv-x="1132" 
d="M32 0q-5 29 -4 54l52 18q28 9 30 60l2 148v191h-80v58l80 16v22q0 81 83.5 142.5t176.5 61.5q144 0 196 -57q83 70 186 70q88 0 144 -25q50 5 77 5q24 0 35.5 -10t11.5 -34v-446l3 -163q2 -32 14 -35l76 -18q0 -38 -5 -58h-309q-4 20 -4 53l57 17q28 9 28 46l4 158v386
q-63 48 -121 48q-71 -1 -103 -25.5t-32 -73.5v-65h119v-73h-119v-191l5 -159q0 -37 36 -45q63 -15 68 -17q0 -40 -8 -59h-317q-5 39 -4 54l51 18q30 10 30 60l3 148v191h-245v-191l4 -159q1 -38 37 -45q63 -15 67 -17q0 -42 -8 -59h-317zM249 544h245v36q0 23 7 43
q-64 69 -128 68q-124 -2 -124 -98v-49z" />
    <glyph glyph-name="f_h" unicode="fh" horiz-adv-x="1126" 
d="M32 0q-4 18 -4 54l47 16q35 11 35 62l2 148v191h-80v58l80 16v28q0 81 83.5 143t176.5 62q73 0 130 -20q49 7 94 7q21 0 30 -8.5t9 -26.5v-240q93 69 191 69q50 0 84 -9.5t52.5 -23t28 -40t11.5 -48.5t2 -60v-104l3 -173q1 -24 16 -28l63 -15q0 -38 -7 -58h-271
q-5 33 -3 56l38 17q23 11 23 45l2 156v65q0 64 -15.5 91.5t-72.5 27.5q-79 0 -142 -27v-157l3 -158q0 -35 25 -42l63 -16q0 -39 -6 -58h-289q-5 35 -4 53l40 15q29 11 29 53l3 153v382q-64 46 -119 46q-71 -1 -102.5 -25.5t-31.5 -73.5v-59h116v-73h-116v-191l4 -159
q1 -38 36 -44q64 -16 68 -18q0 -42 -8 -59h-317z" />
    <glyph glyph-name="f_b" unicode="fb" horiz-adv-x="1045" 
d="M1010 290q0 -129 -84 -213t-211 -84q-130 0 -218 26l6 261v375q-63 47 -120 47q-71 -1 -102.5 -25.5t-31.5 -73.5v-59h119v-73h-119v-191l4 -159q1 -20 9.5 -29t26.5 -13q64 -18 68 -20q0 -42 -8 -59h-317q-4 22 -4 54l52 18q28 9 30 60l2 148v191h-80v58l80 16v28
q0 81 83.5 143t176.5 62q78 0 135 -21q49 7 81 7q29 0 39.5 -10t10.5 -40v-435l4 -187q44 -7 76 -7q72 0 108.5 55t36.5 143q0 87 -28.5 134.5t-95.5 47.5q-28 0 -60 -4l-13 66q16 9 47.5 18t56.5 9q123 0 181.5 -58.5t58.5 -205.5z" />
    <glyph glyph-name="f_j" unicode="fj" horiz-adv-x="737" 
d="M428 -220q-53 0 -89 17l33 107q34 -18 76 -18q35 0 50.5 23t15.5 77v485h-265v-191l5 -159q0 -19 8 -27.5t27 -14.5q73 -18 77 -20q0 -42 -7 -59h-326q-5 30 -4 54l51 18q28 9 30 60l2 148v191h-79v58l79 15v20q0 67 48 120t111.5 78.5t123.5 25.5q95 0 155.5 -21.5
t60.5 -61.5q0 -26 -17 -52t-40 -37l-22 21.5l-26.5 25t-25.5 22t-25 18t-18 7.5q-45 0 -75.5 -4t-58 -16t-41 -36t-13.5 -62v-48h212q76 14 142 14q25 0 36 -9t11 -34v-242l1 -224q1 -103 -73 -186t-150 -83z" />
    <glyph glyph-name="f_k" unicode="fk" horiz-adv-x="1029" 
d="M1011 -21q-167 11 -249 127l-123 169v-14l2 -135q2 -40 21 -52l30 -20q0 -34 -5 -54h-263q-4 23 -4 53l51 18q28 9 28 49l4 154v381q-63 47 -120 47q-71 -1 -102.5 -25.5t-31.5 -73.5v-59h119v-73h-119v-191l4 -159q1 -38 37 -45q63 -15 67 -17q0 -42 -8 -59h-317
q-5 28 -4 54l52 18q28 9 30 60l2 148v191h-80v58l80 16v28q0 81 83.5 143t176.5 62q74 0 131 -20q50 6 89 6q47 0 47 -44v-429l157 142q14 11 14 26q0 20 -16 25l-37 17q0 33 4 45h218v-47l-211 -180l113 -146q82 -101 145 -124z" />
    <glyph glyph-name="f_idieresis" unicode="f&#xef;" horiz-adv-x="794" 
d="M32 0q-4 27 -4 54l46 15q34 12 36 63l2 148v191h-80v58l80 15v28q0 84 84.5 150.5t171.5 66.5q67 0 117 -13q13 -6 42 -33.5t29 -37.5q0 -9 -33 -42.5t-43 -33.5q-9 0 -33 22.5t-34 39.5q-23 16 -43 16q-55 0 -88 -33.5t-33 -82.5v-47h245q76 14 140 14q25 0 36 -9
t11 -34v-242l2 -161q1 -32 17 -36l74 -18q0 -38 -5 -58h-304q-5 23 -5 56l55 19q27 9 27 44l3 154v198h-296v-191l5 -164q0 -30 32 -36l90 -21q0 -40 -7 -59h-337zM731 629q-12 0 -43.5 33t-31.5 43q0 12 32 43.5t43 31.5t43.5 -32t32.5 -43q0 -9 -32.5 -42.5t-43.5 -33.5z
" />
    <glyph glyph-name="f_f_j" unicode="ffj" horiz-adv-x="1096" 
d="M788 -220q-53 0 -90 17l33 107q34 -18 76 -18q35 0 50.5 23t15.5 77v485h-243v-191l5 -159q0 -21 6 -29.5t23 -12.5q81 -18 85 -20q0 -42 -7 -59h-324q-6 24 -4 54l47 18q30 10 30 60l3 148v191h-245v-191l4 -159q1 -38 37 -45q63 -15 67 -17q0 -42 -8 -59h-317
q-5 29 -4 54l52 18q28 9 30 60l2 148v191h-80v58l80 16v22q0 81 83.5 142.5t176.5 61.5q148 0 198 -60q86 76 182 76q100 0 154 -22.5t54 -64.5q0 -54 -70 -86q-21 31 -55.5 62t-52.5 32q-66 0 -109 -26.5t-43 -88.5v-49h190q76 14 142 14q25 0 36 -9t11 -34v-242l1 -224
q1 -103 -72.5 -186t-149.5 -83zM249 544h245v20q0 30 10 56q-67 72 -131 71q-124 -2 -124 -98v-49z" />
    <glyph glyph-name="f_f_b" unicode="ffb" horiz-adv-x="1423" 
d="M1093 -7q-130 0 -218 26l6 261v379q-63 49 -116 49q-71 -1 -103 -25.5t-32 -73.5v-65h116v-73h-116v-191l5 -159q0 -20 8.5 -29t27.5 -13l78 -20q0 -42 -7 -59h-328q-6 30 -4 54l51 18q30 10 30 60l3 148v191h-245v-191l4 -159q1 -20 8.5 -27.5t27.5 -14.5l67 -19
q-6 -50 -10 -60h-314q-7 41 -4 54l52 18q28 9 30 60l2 148v191h-80v58l80 16v22q0 81 83.5 142.5t176.5 61.5q144 0 196 -57q83 70 186 70q80 0 142 -26q37 6 70 6q29 0 39.5 -10t10.5 -40v-435l4 -187q44 -7 76 -7q72 0 108.5 55t36.5 143q0 87 -28.5 134.5t-95.5 47.5
q-28 0 -60 -4l-13 66q16 9 47.5 18t55.5 9q123 0 182 -58.5t59 -205.5q0 -129 -84 -213t-211 -84zM249 544h245v36q0 23 7 43q-64 69 -128 68q-124 -2 -124 -98v-49z" />
    <glyph glyph-name="f_f_h" unicode="ffh" horiz-adv-x="1496" 
d="M32 0q-5 29 -4 54l52 18q28 9 30 60l2 148v191h-80v58l80 16v22q0 81 83.5 142.5t176.5 61.5q144 0 196 -57q83 70 186 70q83 0 145 -25q48 6 87 6t39 -35v-240q90 69 190 69q50 0 84 -9.5t52.5 -23t28 -40t11.5 -48.5t2 -60v-104l3 -173q1 -24 16 -28l63 -15
q-3 -41 -7 -58h-270q-6 31 -4 56l38 17q23 11 23 45l2 156v65q0 64 -15.5 91.5t-72.5 27.5q-79 0 -142 -27v-157l3 -158q0 -33 17 -40l59 -18q0 -39 -6 -58h-284q-5 22 -3 53l48 18q27 9 28 50l2 153v383q-68 51 -126 51q-71 -1 -103 -25.5t-32 -73.5v-65h121v-73h-121v-191
l5 -159q0 -40 38 -47q61 -13 66 -15q0 -40 -8 -59h-317q-5 31 -4 54l51 18q30 10 30 60l3 148v191h-245v-191l4 -159q1 -38 37 -45q63 -15 67 -17q0 -42 -8 -59h-317zM249 544h245v36q0 23 7 43q-64 69 -128 68q-124 -2 -124 -98v-49z" />
    <glyph glyph-name="f_f_k" unicode="ffk" horiz-adv-x="1411" 
d="M1394 -21q-168 11 -250 127l-123 170v-15l2 -135q2 -40 22 -52l30 -20q-2 -33 -6 -54h-263q-5 22 -3 53l50 18q28 9 28 49l4 154v382q-65 52 -120 52q-71 -1 -103 -25.5t-32 -73.5v-65h119v-73h-119v-191l5 -159q0 -39 36 -45q63 -15 68 -17q0 -40 -8 -59h-317
q-5 32 -4 54l51 18q30 10 30 60l3 148v191h-245v-191l4 -159q1 -38 37 -45q63 -15 67 -17q0 -42 -8 -59h-317q-5 29 -4 54l52 18q28 9 30 60l2 148v191h-80v58l80 16v22q0 81 83.5 142.5t176.5 61.5q144 0 196 -57q83 70 186 70q83 0 139 -25q52 5 81 5q24 0 35.5 -10
t11.5 -34v-428l157 141q14 11 14 26q0 20 -16 25l-37 17q0 30 4 45h218v-47l-211 -180l114 -146q80 -100 144 -124zM249 544h245v36q0 23 7 43q-64 69 -128 68q-124 -2 -124 -98v-49z" />
    <glyph glyph-name="aogonek_j" unicode="&#x105;j" horiz-adv-x="965" 
d="M540 -249q-90 0 -139 33.5t-49 91.5q0 67 66 119q-66 12 -71 84q-82 -88 -174 -88q-65 0 -103.5 32t-38.5 95q0 146 208 176q13 2 106 13v69q0 43 -23 58.5t-91 15.5q-58 0 -142 -21l-24 95q90 34 193 34q41 0 72 -4t69 -17.5t59.5 -47.5t21.5 -86v-129l7 -183h84l6 -44
q-61 -37 -91.5 -68t-30.5 -75q0 -41 25.5 -59.5t64.5 -18.5q82 0 127.5 45t45.5 134v466h-89v66q94 21 179 21q25 0 35.5 -9t10.5 -34v-242l1 -213q0 -92 -46.5 -164t-118 -108.5t-150.5 -36.5zM229 99q34 0 116 29v112q-1 0 -32 -4t-50 -8q-95 -18 -95 -78q0 -23 15.5 -37
t45.5 -14zM785 636q-14 0 -50.5 37.5t-36.5 51.5q0 15 36.5 51.5t50.5 36.5q13 0 51 -37.5t38 -50.5q0 -11 -37.5 -50t-51.5 -39z" />
    <glyph glyph-name=".notdef" horiz-adv-x="712" 
d="M305 375v27h27v-27h-27zM380 525v27h27v-27h-27zM305 525v27h27v-27h-27zM230 525v27h27v-27h-27zM80 0v27h27v-27h-27zM155 0v27h27v-27h-27zM230 0v27h27v-27h-27zM305 0v27h27v-27h-27zM380 0v27h27v-27h-27zM80 75v27h27v-27h-27zM80 150v27h27v-27h-27zM80 225v27
h27v-27h-27zM80 300v27h27v-27h-27zM80 375v27h27v-27h-27zM80 450v27h27v-27h-27zM80 525v27h27v-27h-27zM80 600v27h27v-27h-27zM80 675v27h27v-27h-27zM155 675v27h27v-27h-27zM230 675v27h27v-27h-27zM305 675v27h27v-27h-27zM380 675v27h27v-27h-27zM455 675v27h27v-27
h-27zM530 675v27h27v-27h-27zM530 0v27h27v-27h-27zM455 0v27h27v-27h-27zM605 0v27h27v-27h-27zM605 675v27h27v-27h-27zM305 300v27h27v-27h-27zM305 150v27h27v-27h-27zM380 375v27h27v-27h-27zM455 375v27h27v-27h-27zM455 450v27h27v-27h-27zM455 525v27h27v-27h-27z
M605 600v27h27v-27h-27zM605 525v27h27v-27h-27zM605 375v27h27v-27h-27zM605 300v27h27v-27h-27zM605 150v27h27v-27h-27zM605 75v27h27v-27h-27zM605 225v27h27v-27h-27zM605 450v27h27v-27h-27z" />
    <glyph glyph-name=".null" horiz-adv-x="0" 
 />
    <glyph glyph-name="nonmarkingreturn" horiz-adv-x="333" 
 />
    <glyph glyph-name="space" unicode=" " horiz-adv-x="268" 
 />
    <glyph glyph-name="exclam" unicode="!" horiz-adv-x="297" 
d="M229 705l-31 -494h-98l-32 494l80 41zM237 41q0 -14 -38.5 -52.5t-53.5 -38.5q-14 0 -51.5 38t-37.5 53t37.5 52.5t51.5 37.5q15 0 53.5 -37.5t38.5 -52.5z" />
    <glyph glyph-name="quotedbl" unicode="&#x22;" horiz-adv-x="523" 
d="M313 503v252h134l-32 -252h-102zM80 503v252h134q-5 -31 -17.5 -135t-14.5 -117h-102z" />
    <glyph glyph-name="numbersign" unicode="#" horiz-adv-x="614" 
d="M562 134h-108q-6 -104 -8 -166h-84l8 166h-145q-6 -104 -8 -166h-84l8 166h-90v83h95l7 130h-102v82h105q8 125 9 154h84l-8 -154h145q6 94 8 154h84l-8 -154h92v-82h-96q-3 -38 -7 -130h103v-83zM381 347h-144q-3 -38 -7 -130h144q3 38 7 130z" />
    <glyph glyph-name="dollar" unicode="$" horiz-adv-x="566" 
d="M494 171q0 -71 -53 -121t-135 -61v-156h-59v152q-75 2 -125 26t-50 63q0 44 38 79q111 -88 153 -88q112 0 112 66q0 22 -29.5 37.5t-72 30t-85 34.5t-72 61t-29.5 99q0 57 47 104.5t113 62.5v144h59v-139q73 -2 120.5 -23t47.5 -59q0 -22 -5.5 -35.5t-11.5 -19.5t-23 -18
l-28.5 18.5l-32 20.5t-28.5 16t-31.5 13t-27.5 4q-89 0 -89 -57q0 -18 20 -30.5t61 -25.5q6 -2 26.5 -9.5l29.5 -11l28.5 -11.5t29.5 -13.5t26.5 -15.5t25 -19.5l20 -22.5t17 -27t9.5 -31.5t4 -36.5z" />
    <glyph glyph-name="percent" unicode="%" horiz-adv-x="703" 
d="M218 368q-56 0 -92 28.5t-36 89.5q0 57 38.5 91t91.5 34q56 0 93.5 -28.5t37.5 -91.5q0 -58 -39 -90.5t-94 -32.5zM218 427q25 0 38.5 18t13.5 47q0 60 -51 60q-49 0 -49 -67q0 -58 48 -58zM493 -19q-56 0 -92 28.5t-36 89.5q0 57 38.5 91t91.5 34q57 0 94 -28.5
t37 -91.5q0 -58 -39 -90.5t-94 -32.5zM494 40q25 0 38.5 18t13.5 46q0 60 -52 60q-49 0 -49 -66q0 -58 49 -58zM122 57l-45 62l501 405l45 -60z" />
    <glyph glyph-name="ampersand" unicode="&#x26;" horiz-adv-x="759" 
d="M782 36q-42 -52 -116 -52q-107 0 -237 84q-32 -34 -84 -55.5t-102 -21.5q-85 0 -144.5 41t-59.5 126q0 57 39 104.5t96 77.5q-46 71 -46 159q0 87 65 152.5t145 65.5q84 0 128.5 -35.5t44.5 -98.5q0 -69 -59 -123t-137 -88q72 -108 174 -185q17 30 17 56q0 50 -55 85
q0 24 5 43h189v-27q-13 -40 -51.5 -92t-74.5 -87q98 -68 178 -78q40 -11 71 -5zM390 572q0 34 -19 54.5t-52 20.5q-34 0 -55.5 -24.5t-21.5 -66.5q0 -33 14 -74.5t36 -72.5q98 72 98 163zM381 104q-92 69 -178 189q-37 -34 -37 -88q0 -63 37 -92.5t92 -29.5q46 0 86 21z" />
    <glyph glyph-name="quotesingle" unicode="'" horiz-adv-x="290" 
d="M80 503v252h135q-4 -23 -10 -72.5l-13.5 -106.5l-9.5 -73h-102z" />
    <glyph glyph-name="parenleft" unicode="(" horiz-adv-x="353" 
d="M268 -222q-14 12 -36 39t-53.5 79t-58 112t-45.5 144.5t-19 169.5q0 106 27.5 204t66.5 162t70.5 102.5t50.5 51.5l49 -50q-18 -15 -45 -51.5t-60.5 -95.5t-56.5 -145.5t-23 -176.5q0 -91 23.5 -181t57 -153.5t60.5 -103.5t44 -56z" />
    <glyph glyph-name="parenright" unicode=")" horiz-adv-x="353" 
d="M100 -222l-51 51q17 17 43.5 56.5t60.5 103t57 153.5t23 181q0 90 -23 176.5t-56.5 145.5t-60.5 95.5t-45 51.5l50 50q14 -10 36.5 -34.5t54.5 -72.5t59 -105.5t46 -139.5t19 -168q0 -105 -27.5 -206t-66.5 -170t-69.5 -110.5t-49.5 -57.5z" />
    <glyph glyph-name="asterisk" unicode="*" horiz-adv-x="440" 
d="M391 527l-7 -34l-28 -27l-96 52l-6 -110l-34 -10l-35 10l-1 112l-101 -54l-24 24l-9 36l94 57l-94 60l7 36l27 24l102 -55v114l34 10l35 -10l8 -111l94 52l28 -23l6 -36l-100 -58z" />
    <glyph glyph-name="plus" unicode="+" 
d="M540 257l-193 2l2 -224h-98l2 224l-193 -2v86l193 -2l-2 224h98l-2 -224l193 2v-86z" />
    <glyph glyph-name="comma" unicode="," horiz-adv-x="422" 
d="M314 25q0 -53 -52 -123.5t-111 -109.5l-43 38q70 73 81 120q-22 17 -47.5 46.5t-25.5 39.5q0 17 41.5 57t56.5 40q19 0 59.5 -41t40.5 -67z" />
    <glyph glyph-name="hyphen" unicode="-" horiz-adv-x="381" 
d="M331 254h-281v74l281 14v-88z" />
    <glyph glyph-name="hyphen" unicode="&#xad;" horiz-adv-x="381" 
d="M331 254h-281v74l281 14v-88z" />
    <glyph glyph-name="period" unicode="." horiz-adv-x="398" 
d="M296 35q0 -15 -41.5 -56.5t-56.5 -41.5t-55.5 41t-40.5 57t40.5 56t55.5 40t56.5 -40t41.5 -56z" />
    <glyph glyph-name="slash" unicode="/" horiz-adv-x="374" 
d="M350 769l-236 -831h-89l237 831h88z" />
    <glyph glyph-name="zero" unicode="0" horiz-adv-x="668" 
d="M632 276q0 -128 -93 -207t-222 -79t-205.5 67.5t-76.5 201.5q0 131 93 215t221 84q129 0 206 -73t77 -209zM478 270q0 88 -39.5 143.5t-109.5 55.5t-106.5 -48.5t-36.5 -141.5q0 -85 42 -141t113 -56q137 0 137 188z" />
    <glyph glyph-name="one" unicode="1" horiz-adv-x="469" 
d="M449 65q0 -45 -6 -65h-400q-8 27 -6 63l91 28q15 4 26 17.5t12 34.5l5 136v178h-140v76l280 40v-295l2 -151q1 -33 38 -40z" />
    <glyph glyph-name="two" unicode="2" horiz-adv-x="511" 
d="M473 0h-434l-22 75q5 4 47 35t75.5 58.5t74 64.5t64 73t23.5 64q0 77 -98 77q-79 0 -148 -28l-30 84q103 59 211 59q219 0 219 -169q0 -40 -21.5 -79.5t-62.5 -76t-79.5 -63t-91.5 -58.5l273 17v-133z" />
    <glyph glyph-name="three" unicode="3" horiz-adv-x="503" 
d="M464 65q0 -102 -84 -167.5t-190 -65.5q-93 0 -182 33l28 100q84 -33 152 -33q125 0 125 106q0 115 -163 131l-12 63q59 11 101.5 47t42.5 90q0 87 -101 87q-56 0 -125 -25l-28 77q87 53 196 53q91 0 147.5 -39.5t56.5 -124.5q0 -50 -42 -96t-84 -62q57 -8 109.5 -58
t52.5 -116z" />
    <glyph glyph-name="four" unicode="4" horiz-adv-x="574" 
d="M545 24h-100l5 -185h-147l4 185h-257l-43 81l212 441h78l-181 -398h191v398h138v-398h100v-124z" />
    <glyph glyph-name="five" unicode="5" horiz-adv-x="542" 
d="M496 77q0 -98 -85 -173.5t-197 -75.5q-104 0 -197 33l29 100q105 -35 174 -35q61 0 91 23.5t30 78.5q0 26 -10.5 47.5t-25 35.5t-41 25t-46.5 17t-54 10.5t-51 6.5t-50 4l37 372h378l-9 -131l-286 23l-11 -131q65 -6 116 -17.5t101.5 -36t78.5 -69.5t28 -107z" />
    <glyph glyph-name="six" unicode="6" horiz-adv-x="594" 
d="M555 252q0 -105 -74.5 -183.5t-178.5 -78.5q-147 0 -205.5 77.5t-58.5 231.5q0 79 26 155t72.5 135.5t116.5 96t152 36.5q63 0 101 -13l-26 -99q-50 13 -93 13q-64 0 -107 -28t-62.5 -79t-26 -99t-6.5 -112q0 -36 5 -71t17.5 -73.5t39.5 -62t65 -23.5q54 0 77 42.5
t23 101.5t-30.5 101t-85.5 42q-26 0 -49 -4l-12 77q57 19 111 19q100 0 154.5 -51t54.5 -151z" />
    <glyph glyph-name="seven" unicode="7" horiz-adv-x="499" 
d="M491 488l-365 -694l-105 48l326 586l-332 -12l-1 130h448z" />
    <glyph glyph-name="eight" unicode="8" horiz-adv-x="583" 
d="M548 207q0 -95 -77 -156.5t-189 -61.5q-109 0 -178 50t-69 141q0 104 120 171q-96 71 -96 166q0 71 66 136t162 65q106 0 171.5 -45.5t65.5 -125.5q0 -104 -122 -166q146 -78 146 -174zM399 535q0 37 -28 71.5t-83 34.5q-47 0 -74.5 -26t-27.5 -68q0 -22 13 -41t43 -38.5
t48 -29.5t60 -30q49 48 49 127zM407 167q0 18 -10 34t-32.5 31.5t-42 26t-55 28t-54.5 28.5q-50 -60 -50 -127q0 -46 36 -83t92 -37q58 0 87 26t29 73z" />
    <glyph glyph-name="nine" unicode="9" horiz-adv-x="594" 
d="M555 247q0 -80 -26 -155t-72.5 -134t-117 -95t-152.5 -36q-62 0 -101 13l27 99q50 -13 92 -13q52 0 90.5 20t59.5 49.5t33.5 75t16 84.5t3.5 89q0 36 -5 71t-17.5 73.5t-40 62t-65.5 23.5q-54 0 -76.5 -42t-22.5 -102q0 -59 30.5 -101t85.5 -42q26 0 49 4l11 -77
q-54 -18 -111 -18q-100 0 -154 52t-54 152q0 104 74.5 181.5t178.5 77.5q147 0 205.5 -78.5t58.5 -233.5z" />
    <glyph glyph-name="colon" unicode=":" horiz-adv-x="422" 
d="M296 485q0 -15 -41.5 -56.5t-56.5 -41.5t-55.5 41t-40.5 57t40.5 56t55.5 40t56.5 -40t41.5 -56zM296 35q0 -15 -41.5 -56.5t-56.5 -41.5t-55.5 41t-40.5 57t40.5 56t55.5 40t56.5 -40t41.5 -56z" />
    <glyph glyph-name="semicolon" unicode=";" horiz-adv-x="422" 
d="M291 484q0 -15 -41.5 -56.5t-56.5 -41.5t-55.5 41t-40.5 57t40.5 56t55.5 40t56.5 -40t41.5 -56zM305 25q0 -53 -52 -123.5t-111 -109.5l-43 38q70 73 81 120q-22 17 -47.5 46.5t-25.5 39.5q0 17 41.5 57t56.5 40q19 0 59.5 -41.5t40.5 -66.5z" />
    <glyph glyph-name="less" unicode="&#x3c;" 
d="M205 300l335 -179l-42 -79l-438 234v48l438 234l42 -79z" />
    <glyph glyph-name="equal" unicode="=" 
d="M540 355h-480v87h480v-87zM540 161h-480v86h480v-86z" />
    <glyph glyph-name="greater" unicode="&#x3e;" 
d="M60 121l335 179l-335 179l42 79l438 -234v-48l-438 -234z" />
    <glyph glyph-name="question" unicode="?" horiz-adv-x="462" 
d="M433 547q0 -49 -21 -90t-51.5 -68.5t-60.5 -51t-51 -48t-21 -48.5q0 -16 7 -37l-87 -20q-35 75 -35 99q0 32 21.5 64.5t52 59.5l60.5 52t51.5 51t21.5 49q0 20 -23.5 42t-73.5 22q-24 0 -44.5 -4.5t-49 -15t-43.5 -14.5q-20 29 -20 54q0 77 132 77q96 0 165.5 -53.5
t69.5 -119.5zM290 35q0 -14 -38 -52.5t-53 -38.5q-14 0 -52 38t-38 53t38 52.5t52 37.5t52.5 -37.5t38.5 -52.5z" />
    <glyph glyph-name="at" unicode="@" horiz-adv-x="788" 
d="M365 -137q-150 0 -229.5 84.5t-79.5 248.5q0 117 33.5 207.5t91.5 144t130 80.5t155 27q125 0 197.5 -69.5t72.5 -218.5q0 -147 -62 -218t-158 -71q-37 0 -60.5 20t-19.5 57q-19 -30 -50 -50t-61 -20q-46 0 -78.5 34.5t-32.5 100.5q0 97 63.5 161t152.5 64q70 0 126 -24
l-26 -229q-6 -45 14 -45q18 0 36.5 9t39 30.5t33 68t12.5 110.5q0 231 -202 231q-68 0 -125 -20t-105 -63t-75.5 -121t-27.5 -185q0 -153 61 -217t183 -64q71 0 147 18l14 -55q-63 -26 -170 -26zM363 170q8 0 16.5 2t14 4t13 7t10.5 7.5t11 8.5t10 8l19 167q-12 4 -26 4
q-60 4 -88 -37.5t-28 -108.5q0 -31 14 -46.5t34 -15.5z" />
    <glyph glyph-name="A" unicode="A" horiz-adv-x="760" 
d="M732 53q0 -33 -5 -53h-300q-7 22 -7 57l60 20q32 9 32 45q0 12 -7 33l-39 120h-233l-46 -119q-6 -16 -6 -29q0 -38 43 -51l65 -19q0 -41 -5 -57h-260q-5 20 -5 54q42 36 56 68l243 571l132 31l225 -599q14 -33 57 -72zM441 351l-55 172l-23 83h-7l-27 -81l-66 -174h178z
" />
    <glyph glyph-name="B" unicode="B" horiz-adv-x="711" 
d="M665 217q0 -99 -71 -158t-212 -59h-351q-6 23 -6 57l49 14q19 5 32 19.5t14 35.5l2 152v315q0 34 -45 49l-47 15q0 31 5 50h316q263 0 263 -179q0 -101 -118 -144v-4q24 -3 49 -11.5t54 -26t47.5 -50t18.5 -75.5zM462 517q0 58 -31.5 84t-102.5 26h-67v-224h77
q71 0 97.5 30t26.5 84zM513 202q0 64 -43 92.5t-145 28.5h-64v-47l4 -195h98q150 0 150 121z" />
    <glyph glyph-name="C" unicode="C" horiz-adv-x="693" 
d="M656 31q-97 -38 -224 -38q-188 0 -288.5 87.5t-100.5 268.5q0 158 108.5 264t276.5 106q79 0 122 -9.5t100 -33.5v-164q-25 -5 -58 -1q-44 119 -168 119q-108 0 -171 -65t-63 -206q0 -125 70.5 -191t187.5 -66q77 0 180 21z" />
    <glyph glyph-name="D" unicode="D" horiz-adv-x="801" 
d="M758 368q0 -179 -112 -273.5t-302 -94.5h-309q-6 26 -6 58l54 15q38 9 38 51l3 155l1 292q0 46 -41 64l-50 19q0 39 4 53h300q75 0 134.5 -9t114.5 -32t91.5 -60.5t58 -97.5t21.5 -140zM605 347q0 133 -69 205.5t-201 72.5h-70v-347l6 -197h84q250 0 250 266z" />
    <glyph glyph-name="E" unicode="E" horiz-adv-x="660" 
d="M626 171l-24 -171h-570q-7 27 -5 59l52 13q43 11 43 43l3 164v298q0 39 -28 50l-63 26q-2 37 4 54h550v-164q-23 -4 -63 -4q-9 46 -28.5 64t-53.5 18l-178 5v-230l271 5v-92l-271 5v-36l4 -197l152 4q111 3 144 99z" />
    <glyph glyph-name="F" unicode="F" horiz-adv-x="604" 
d="M584 541q-28 -6 -62 -4q-17 81 -89 82l-173 7v-251l276 6v-93l-276 5v-17l3 -150q2 -36 26 -41l109 -22q0 -40 -7 -63h-359q-5 21 -5 56l55 16q15 5 25 20t10 34l4 153v302q0 36 -29 48l-61 22q0 39 4 56h549v-166z" />
    <glyph glyph-name="G" unicode="G" horiz-adv-x="746" 
d="M432 -7q-188 0 -288.5 87.5t-100.5 268.5q0 158 108.5 264t276.5 106q80 0 127.5 -10.5t109.5 -35.5v-165q-20 -2 -57 0q-46 123 -184 123q-107 0 -170.5 -68t-63.5 -210q0 -133 76.5 -196t202.5 -65q28 0 58 5v200h140l1 -264q-99 -40 -236 -40z" />
    <glyph glyph-name="H" unicode="H" horiz-adv-x="870" 
d="M836 55q0 -39 -6 -55h-319q-5 23 -5 53l55 20q38 12 39 62l2 143v36h-342v-36l4 -164q0 -20 7.5 -28.5t28.5 -13.5l71 -18q0 -36 -6 -54h-327q-5 27 -5 52l50 19q22 8 29.5 20.5t7.5 41.5l2 145v312q0 40 -33 51l-52 18q0 32 4 48h297q5 -17 5 -49l-50 -15
q-18 -5 -25.5 -16.5t-7.5 -34.5v-197h342v190q0 47 -37 58l-47 16q-4 31 1 48h296q3 -25 1 -49l-47 -15q-29 -11 -29 -42v-323l4 -154q0 -42 21 -48z" />
    <glyph glyph-name="I" unicode="I" horiz-adv-x="381" 
d="M353 61q0 -38 -7 -61h-314q-3 12 -3 54l43 15q43 16 44 61l2 148v294q0 47 -50 66l-38 16q-2 36 2 53h309q3 -35 -1 -59l-43 -10q-39 -10 -39 -63v-297l2 -170q1 -16 6 -22t19 -10z" />
    <glyph glyph-name="J" unicode="J" horiz-adv-x="376" 
d="M344 651l-48 -12q-24 -6 -31 -14t-7 -30v-501q0 -53 -19.5 -97t-57 -77t-74 -55t-86.5 -45l-44 78q86 53 113.5 99t27.5 149v419q0 57 -48 74l-44 15q0 38 4 53h311q5 -35 3 -56z" />
    <glyph glyph-name="K" unicode="K" horiz-adv-x="752" 
d="M737 -16q-153 3 -224 83l-250 272v-58l2 -171q1 -16 5 -22.5t17 -9.5l63 -17q0 -41 -6 -61h-312q-3 19 -3 54l48 15q18 6 30.5 22.5t13.5 38.5l2 148v298q0 21 -13 37t-29 23l-46 18q-2 31 3 53h308q3 -34 -1 -57l-46 -14q-36 -11 -36 -60v-212l218 204q17 14 17 33
q0 28 -18 35l-36 15q0 40 4 56h264v-47l-315 -271l183 -189q98 -102 172 -145z" />
    <glyph glyph-name="L" unicode="L" horiz-adv-x="617" 
d="M606 199l-32 -199h-542q-4 23 -4 56l47 13q18 6 30.5 21t13.5 36l3 151v299q0 21 -13 37t-30 23l-46 18q0 37 4 53h307q3 -35 -1 -59l-44 -11q-37 -9 -37 -48v-311l4 -196l153 9q40 2 73.5 39t49.5 80z" />
    <glyph glyph-name="M" unicode="M" horiz-adv-x="1064" 
d="M1046 52q0 -37 -4 -52h-309q-4 30 -4 50l32 11q53 17 42 112l-40 287l-10 85h-5l-184 -534l-116 -33l-185 572h-6l-9 -81l-55 -354q-5 -28 11 -32l88 -30q0 -42 -4 -53h-272q-6 28 -4 50l36 18q20 10 34.5 32t18.5 46l82 437q4 17 -4.5 30.5t-23.5 18.5l-64 21q0 39 4 54
h266l123 -374l39 -132h9l43 136l133 370h253q6 -29 4 -53l-49 -13q-47 -14 -36 -75l81 -451q6 -31 34 -41z" />
    <glyph glyph-name="N" unicode="N" horiz-adv-x="845" 
d="M819 661l-53 -23q-18 -8 -29.5 -27t-11.5 -42v-563l-109 -32l-396 555h-7l6 -80v-176l3 -155q0 -19 4 -26t20 -12l85 -25q0 -41 -5 -55h-293q-6 29 -4 53l52 15q22 6 34.5 31t13.5 56l2 118v308q0 36 -29 51l-61 27q0 41 2 48h220l375 -512h7l-8 105v268q0 46 -37 64
l-63 27q0 37 4 48h274q4 -30 4 -46z" />
    <glyph glyph-name="O" unicode="O" horiz-adv-x="830" 
d="M787 382q0 -167 -105 -280.5t-281 -113.5q-175 0 -266.5 87t-91.5 248q0 169 109 282t280 113q178 0 266.5 -89t88.5 -247zM629 358q0 122 -51.5 195.5t-160.5 73.5q-113 0 -164 -76t-51 -199q0 -121 49.5 -196t158.5 -75q219 0 219 277z" />
    <glyph glyph-name="P" unicode="P" horiz-adv-x="685" 
d="M665 497q0 -105 -76.5 -172t-209.5 -67h-56v72l31 1q157 4 157 150q0 141 -155 145l-95 2v-355l3 -152q0 -34 22 -38l102 -24q0 -45 -5 -59h-352q-5 34 -3 55l52 14q17 4 27.5 21t11.5 41l3 142v315q0 30 -24 40l-69 26q-1 8 0.5 26t4.5 27h390q111 0 176 -52t65 -158z
" />
    <glyph glyph-name="Q" unicode="Q" horiz-adv-x="830" 
d="M733 -194q-59 0 -123 48l-173 136q-22 -2 -36 -2q-175 0 -266.5 87t-91.5 248q0 169 109 282t280 113q178 0 266.5 -89t88.5 -247q0 -128 -63 -227.5t-175 -141.5l105 -62q52 -35 107 -35q36 0 109 17l16 -72q-76 -55 -153 -55zM410 81q219 0 219 277q0 122 -51.5 195.5
t-160.5 73.5q-113 0 -164 -76t-51 -199q0 -121 49.5 -196t158.5 -75z" />
    <glyph glyph-name="R" unicode="R" horiz-adv-x="762" 
d="M781 45l-7 -69q-155 -9 -250 79q-75 70 -153 235q-8 -2 -33 -2h-77l3 -175q0 -27 20 -32l69 -20q0 -50 -4 -61h-315q-5 34 -3 55l48 14q37 10 39 62l3 142v319q0 27 -23 36l-69 26q-1 8 0.5 26t4.5 27h357q55 0 100.5 -11t81.5 -33.5t56.5 -62.5t20.5 -93
q0 -58 -33 -109.5t-93 -77.5q58 -110 110 -171q75 -87 147 -104zM494 495q0 132 -170 132l-64 1v-264h81q81 1 117 32t36 99z" />
    <glyph glyph-name="S" unicode="S" horiz-adv-x="612" 
d="M572 207q0 -74 -46 -125t-110 -72t-137 -21q-145 0 -242 53l15 176h64q7 -71 57.5 -110t126.5 -39q49 0 87.5 22.5t38.5 67.5t-71 80q-19 10 -77 34q-37 16 -60.5 27.5t-55.5 32.5t-50.5 42t-32 52t-13.5 67q0 91 78.5 156t173.5 65q134 0 225 -44v-156h-56
q-13 56 -60 86.5t-107 30.5q-55 0 -88.5 -21.5t-33.5 -67.5q0 -19 11 -34.5t36.5 -31t45.5 -25t61 -26.5q50 -21 80 -36.5t67 -42.5t55 -62t18 -78z" />
    <glyph glyph-name="T" unicode="T" horiz-adv-x="681" 
d="M677 707v-185q-27 -8 -57 -3q-19 98 -94 102l-116 4v-352l5 -159q0 -19 3.5 -26t17.5 -10l89 -18q0 -45 -4 -60h-359q-6 31 -4 60l68 19q16 5 28 26.5t13 42.5l3 125v352l-125 -4q-64 -3 -83 -102q-7 -2 -27.5 -1t-30.5 4v185h673z" />
    <glyph glyph-name="U" unicode="U" horiz-adv-x="815" 
d="M793 652l-50 -16q-9 -3 -13.5 -6t-9 -11.5t-4.5 -22.5v-327q0 -63 -19.5 -113t-50 -80.5t-71.5 -50.5t-80.5 -28t-79.5 -8q-47 0 -85 4.5t-81.5 20.5t-72.5 42t-48.5 74t-19.5 112v339q0 17 -8 32t-21 20l-57 21q0 38 4 53h317q2 -10 2.5 -29.5t-0.5 -28.5l-64 -12
q-26 -5 -26 -32v-343q0 -54 17 -92.5t46 -57.5t59 -27t64 -8q163 0 163 209v287q0 52 -56 68l-43 13q0 49 1 53h283q4 -20 4 -55z" />
    <glyph glyph-name="V" unicode="V" horiz-adv-x="754" 
d="M749 655l-30 -17q-27 -15 -45 -57l-251 -575l-105 -30l-231 608q-16 41 -34 52l-34 21q0 30 5 50h301q7 -27 7 -58l-52 -13q-33 -9 -33 -40q0 -14 6 -30l144 -403l162 381q7 15 7 31q0 19 -10 34.5t-23 21.5l-50 21q0 39 5 55h258q5 -21 3 -52z" />
    <glyph glyph-name="W" unicode="W" horiz-adv-x="1093" 
d="M1103 655l-26 -14q-28 -16 -44 -57l-223 -580l-104 -29l-156 425l-186 -394l-101 -29l-185 614q-7 28 -30 42l-40 24q0 37 4 50h296q4 -30 3 -55l-48 -16q-29 -10 -29 -44q0 -11 6 -35l109 -395l161 345l-23 71q-11 29 -15 31q-3 7 -20.5 25.5t-20.5 22.5q0 39 2 50h275
q5 -14 5 -55l-37 -16q-30 -14 -30 -47q0 -15 6 -32l134 -396l137 389q7 18 7 35q0 39 -28 49l-44 18q0 36 6 55h235q4 -18 4 -52z" />
    <glyph glyph-name="X" unicode="X" horiz-adv-x="723" 
d="M713 50q0 -39 -4 -50h-294q-4 33 -3 50l37 23q27 16 2 52l-106 152l-118 -145q-12 -14 -11.5 -31.5t12.5 -23.5l54 -27q0 -39 -4 -50h-265q-6 28 -4 50l29 18q34 22 83 78l171 204l-174 222q-27 35 -85 84q-3 8 -3.5 25t1.5 26h276q4 -33 3 -51l-36 -18q-10 -5 -11 -17.5
t10 -30.5l101 -142l112 136q10 13 10 29t-11 22l-40 22q0 43 2 50h247q2 -14 -1 -50q-53 -21 -99 -77l-166 -203l188 -236l19 -22.5l13.5 -15.5t14.5 -13.5l12.5 -10.5t17.5 -13.5t20 -15.5z" />
    <glyph glyph-name="Y" unicode="Y" horiz-adv-x="699" 
d="M693 655q-44 -23 -69 -60l-208 -313l3 -166q0 -34 25 -39l70 -18q0 -39 -6 -59h-324q-4 20 -4 57l50 13q18 5 30.5 20t12.5 36l3 148l-207 316q-21 32 -63 67q-2 32 2 50h289q4 -16 4 -55l-43 -17q-28 -10 -28 -42q0 -17 11 -36l133 -208l130 205q10 14 10 29
q0 29 -32 46l-48 23q-2 30 3 55h252q4 -17 4 -52z" />
    <glyph glyph-name="Z" unicode="Z" horiz-adv-x="633" 
d="M615 200l-24 -200h-540l-24 72l375 550l-221 -4q-45 -7 -64 -105q-18 -3 -31 -3q-6 0 -36 4v193h531l16 -54l-386 -565l229 9q74 6 111 115z" />
    <glyph glyph-name="bracketleft" unicode="[" horiz-adv-x="347" 
d="M273 -220h-180v1044h180v-77h-92v-890h92v-77z" />
    <glyph glyph-name="backslash" unicode="\" horiz-adv-x="380" 
d="M265 -62l-236 831h88l237 -831h-89z" />
    <glyph glyph-name="bracketright" unicode="]" horiz-adv-x="347" 
d="M254 -220h-180v77h92v890h-92v77h180v-1044z" />
    <glyph glyph-name="asciicircum" unicode="^" horiz-adv-x="542" 
d="M487 294h-92l-118 325l-134 -325h-89l174 413h99z" />
    <glyph glyph-name="underscore" unicode="_" horiz-adv-x="500" 
d="M500 -164h-500v79h500v-79z" />
    <glyph glyph-name="grave" unicode="`" horiz-adv-x="568" 
d="M157 766l69 81q106 -107 214 -182l-34 -52q-110 48 -249 153z" />
    <glyph glyph-name="a" unicode="a" horiz-adv-x="594" 
d="M577 47q-23 -22 -64 -38.5t-70 -16.5q-52 0 -72.5 20.5t-23.5 66.5q-82 -88 -174 -88q-65 0 -103.5 32t-38.5 95q0 146 208 176q13 2 106 13v69q0 42 -24 58t-90 16q-58 0 -142 -21l-24 95q95 36 193 36q27 0 46.5 -1t48 -5t48.5 -14t39.5 -26t29.5 -42.5t10 -62.5v-135
l7 -183h84zM345 128v112q-1 0 -32 -4t-50 -8q-95 -18 -95 -78q0 -23 15.5 -37t45.5 -14q34 0 116 29z" />
    <glyph glyph-name="b" unicode="b" horiz-adv-x="643" 
d="M607 290q0 -129 -84 -213.5t-210 -84.5q-132 0 -218 26l5 262v398h-92v61q115 25 177 25q29 0 39.5 -10t10.5 -40v-435l4 -188q44 -7 77 -7q71 0 107.5 55.5t36.5 143.5q0 87 -28.5 134.5t-95.5 47.5q-28 0 -60 -4l-13 66q16 9 47.5 18t56.5 9q123 0 181.5 -58.5
t58.5 -205.5z" />
    <glyph glyph-name="c" unicode="c" horiz-adv-x="525" 
d="M503 474q0 -66 -58 -94q-81 94 -132 94q-69 0 -103.5 -45t-34.5 -154q0 -82 41.5 -130.5t123.5 -48.5q51 0 132 17l23 -72q-92 -53 -193 -53q-146 0 -206.5 67t-60.5 223q0 110 78 195.5t204 85.5q44 0 83.5 -7t71 -27.5t31.5 -50.5z" />
    <glyph glyph-name="d" unicode="d" horiz-adv-x="653" 
d="M634 41q-88 -49 -169 -49q-34 0 -49 24.5t-15 57.5q-71 -81 -148 -81q-218 0 -218 259q0 135 80.5 216.5t201.5 81.5q46 0 86 -5v133h-92v65q103 21 176 21q29 0 40.5 -10.5t11.5 -39.5v-435l4 -188h81zM403 280v184q-46 11 -89 11q-135 0 -135 -211q0 -160 124 -160
q46 0 96 24z" />
    <glyph glyph-name="e" unicode="e" horiz-adv-x="569" 
d="M536 257h-359q4 -91 47.5 -124.5t124.5 -33.5q76 0 153 18l23 -75q-93 -53 -201 -53q-72 0 -122 11.5t-89.5 41t-58.5 83.5t-19 136q0 120 75.5 209t195.5 89t175 -70.5t55 -190.5v-41zM390 324q0 159 -98 159q-51 0 -83.5 -45.5t-34.5 -113.5h216z" />
    <glyph glyph-name="f" unicode="f" horiz-adv-x="424" 
d="M508 697q0 -53 -59 -86q-64 78 -97 78q-103 0 -103 -106v-39h119v-73h-119v-191l5 -164q0 -30 32 -36l108 -21q0 -36 -7 -59h-355q-4 20 -4 54l46 15q34 12 36 63l2 148v191h-80v58l80 16v19q0 81 71 143t155 62q170 0 170 -72z" />
    <glyph glyph-name="g" unicode="g" horiz-adv-x="611" 
d="M601 450h-105q12 -31 12 -71q0 -81 -64 -132t-164 -51q-69 0 -117 18v-89h181q130 0 177.5 -32t47.5 -108q0 -92 -93.5 -150t-226.5 -58q-223 0 -223 126q0 37 27 69t61 47q-20 0 -39.5 16t-19.5 49q0 57 67 148q-71 43 -71 132q0 80 59 137t166 57q109 0 166 -42l159 36
v-102zM368 374q0 50 -23.5 81t-66.5 31q-98 0 -98 -114q0 -106 96 -106q45 0 68.5 28.5t23.5 79.5zM433 -43q0 29 -23.5 41.5t-73.5 12.5h-168q-29 -29 -29 -61q0 -40 40.5 -64.5t123.5 -24.5q61 0 95.5 26t34.5 70z" />
    <glyph glyph-name="h" unicode="h" horiz-adv-x="720" 
d="M695 58q0 -41 -6 -58h-271q-5 32 -4 56l38 17q23 11 23 45l3 156v64q0 64 -16 92t-73 28q-77 0 -142 -28v-156l3 -158q0 -33 17 -40l59 -18q0 -39 -6 -58h-283q-4 16 -4 53l48 18q28 9 28 50l3 153v406h-87v63q99 22 181 22q21 0 30 -8.5t9 -26.5v-241q93 69 190 69
q42 0 73 -5.5t50 -18.5t31 -26.5t17 -37.5t6.5 -43t1.5 -50v-103l3 -173q0 -24 16 -28z" />
    <glyph glyph-name="i" unicode="i" horiz-adv-x="373" 
d="M33 0q-4 19 -4 56l61 19q27 7 27 44l3 154v197h-92v65q99 22 181 22q25 0 36 -9.5t11 -34.5v-240l2 -161q1 -32 17 -36l74 -18q0 -39 -6 -58h-310zM185 636q-14 0 -51 37.5t-37 50.5q0 15 37 51.5t51 36.5q12 0 50.5 -37.5t38.5 -50.5q0 -11 -37.5 -49.5t-51.5 -38.5z
" />
    <glyph glyph-name="j" unicode="j" horiz-adv-x="367" 
d="M35 -220q-53 0 -89 17l32 107q34 -18 76 -18q35 0 50.5 23t15.5 77v484h-89v65q99 22 179 22q24 0 35 -9.5t11 -34.5v-240l1 -224q1 -103 -72.5 -186t-149.5 -83zM187 636q-14 0 -50.5 37.5t-36.5 51.5q0 15 36.5 51.5t50.5 36.5q13 0 51 -37.5t38 -50.5q0 -11 -37.5 -50
t-51.5 -39z" />
    <glyph glyph-name="k" unicode="k" horiz-adv-x="644" 
d="M641 49l-15 -70q-87 5 -144.5 33.5t-105.5 93.5l-122 165l2 -145q2 -40 21 -52l30 -20q0 -35 -6 -54h-268q-4 16 -4 53l57 18q28 9 28 49l3 154v404h-90v65q96 21 179 21q48 0 48 -44v-403v-27l156 143q14 11 14 26q0 20 -16 25l-36 17q0 34 3 45h218v-47l-210 -180
l113 -146q80 -100 145 -124z" />
    <glyph glyph-name="l" unicode="l" horiz-adv-x="366" 
d="M351 58q0 -38 -5 -58h-309q-4 16 -4 53l57 17q28 9 28 46l4 158v404h-90v65q88 21 179 21q24 0 35.5 -10t11.5 -34v-446l3 -163q2 -32 14 -35z" />
    <glyph glyph-name="m" unicode="m" horiz-adv-x="1066" 
d="M1044 57q0 -37 -7 -57h-270q-6 25 -4 57l36 17q22 12 22 43l3 156v65q0 33 -2 50.5t-10 36t-26.5 26t-48.5 7.5q-71 0 -136 -25q2 -34 2 -56v-103l3 -172q0 -25 14 -29l70 -16q0 -40 -6 -57h-272q-5 31 -4 56l35 16q21 10 21 39l3 162v65q0 33 -2 50.5t-9.5 36t-25.5 26
t-48 7.5q-74 0 -136 -29v-155l3 -159q0 -35 15 -38l63 -18q0 -39 -5 -59h-287q-4 15 -4 53l47 17q29 11 29 48l3 156v196h-85v65q94 21 179 21q21 0 30 -8.5t9 -27.5v-31q90 69 184 69q136 0 163 -71q98 71 193 71q42 0 72.5 -5.5t49.5 -18.5t30.5 -26.5t16.5 -37.5
t6.5 -42.5t1.5 -50.5v-103l3 -172q0 -25 16 -29z" />
    <glyph glyph-name="n" unicode="n" horiz-adv-x="715" 
d="M694 57q0 -41 -7 -57h-267q-5 32 -4 56l33 17q23 13 23 44l2 157v63q0 64 -15.5 92t-72.5 28q-79 0 -139 -28v-155l2 -161q0 -31 15 -37l63 -18q0 -39 -6 -58h-285q-3 22 -3 53l47 18q28 11 28 47l3 156v196h-87v65q94 21 182 21q21 0 29.5 -8.5t8.5 -27.5v-31
q93 69 188 69q50 0 84 -9.5t52.5 -23t28 -40t11.5 -48.5t2 -60v-103l3 -176q1 -23 14 -25z" />
    <glyph glyph-name="o" unicode="o" horiz-adv-x="613" 
d="M577 277q0 -112 -81 -200t-196 -88q-127 0 -196 69t-69 208q0 113 81 203t193 90q268 0 268 -282zM430 274q0 199 -132 199q-118 0 -118 -199q0 -195 136 -195q65 0 89.5 52.5t24.5 142.5z" />
    <glyph glyph-name="p" unicode="p" horiz-adv-x="656" 
d="M620 284q0 -82 -24.5 -141.5t-67.5 -91t-92.5 -45.5t-108.5 -14q-40 0 -70 3l4 -106q0 -17 6.5 -22.5t25.5 -10.5l74 -15q2 -39 -5 -61h-326q-6 22 -4 57l37 13q42 14 42 61l3 360v199h-90v63q105 23 181 23q42 0 42 -41v-19q64 60 136 60q117 0 177 -62.5t60 -209.5z
M474 265q0 88 -31 144.5t-92 56.5q-45 0 -100 -26v-171l4 -195q36 -8 76 -8q71 0 107 55t36 144z" />
    <glyph glyph-name="q" unicode="q" horiz-adv-x="633" 
d="M624 -160q0 -37 -5 -60h-313q-3 14 -3 57l51 14q39 11 41 72l3 138q-24 -21 -39 -32t-43.5 -23t-56.5 -12q-46 0 -82 10.5t-70 37.5t-53 82.5t-19 137.5q0 134 80.5 215t201.5 81q125 0 221 -31v-306l6 -333q1 -18 7 -25t21 -11zM402 274v191q-55 13 -87 13
q-137 0 -137 -215q0 -86 30.5 -124t92.5 -38q49 0 98 18z" />
    <glyph glyph-name="r" unicode="r" horiz-adv-x="494" 
d="M491 535l-39 -120q-40 22 -88 22q-77 0 -112 -28v-134l4 -162q0 -13 3 -18t11 -7l119 -25q0 -48 -6 -63h-347q-5 27 -5 55l45 17q20 7 29 19t10 37l2 147v196h-90v65q112 21 177 21q46 0 46 -39v-40q22 32 60.5 55.5t83.5 23.5q57 0 97 -22z" />
    <glyph glyph-name="s" unicode="s" horiz-adv-x="510" 
d="M470 165q0 -48 -21.5 -84t-56.5 -55.5t-73.5 -28.5t-80.5 -9q-101 0 -200 43l9 149l55 -1q7 -54 44 -83.5t94 -29.5q93 0 93 58q0 14 -7 25t-27.5 23t-34.5 18.5t-50 21.5q-70 29 -111.5 68t-41.5 109q0 82 60.5 125.5t150.5 43.5q94 0 187 -41l-18 -140l-50 6
q-21 95 -132 95q-37 0 -56.5 -16t-19.5 -39q0 -7 2 -13t6.5 -12t8.5 -10.5t12.5 -9.5l14.5 -8.5t17.5 -8.5l18.5 -8l20.5 -8.5l20.5 -8.5q37 -16 60 -28t51 -33t41.5 -48.5t13.5 -61.5z" />
    <glyph glyph-name="t" unicode="t" horiz-adv-x="466" 
d="M430 114l19 -71q-79 -54 -186 -54q-87 0 -124 38t-36 134l3 298h-80v53l190 146h29v-112h183v-87h-183v-183l4 -113q1 -34 20 -49t61 -15q46 0 100 15z" />
    <glyph glyph-name="u" unicode="u" horiz-adv-x="706" 
d="M676 91l10 -58q-80 -40 -148 -40q-80 0 -84 80q-91 -84 -181 -84q-39 0 -68 5.5t-47 18.5t-29 26.5t-16 36t-6.5 40t-1.5 45.5v309h-85v60q117 26 159 26q63 0 63 -55v-219l1 -95q1 -49 14 -72t51 -23q61 0 140 43l4 138v197h-83v60q87 26 155 26q64 0 64 -55v-229
l5 -181h83z" />
    <glyph glyph-name="v" unicode="v" horiz-adv-x="577" 
d="M234 -27l-165 453q-13 34 -48 58q0 35 5 62h242q0 -66 -2 -69h-65l111 -334l111 274q6 17 1.5 32t-15.5 21q-7 8 -35 13q-3 44 3 63h190q0 -48 -2 -56q-33 -33 -55 -86l-173 -400z" />
    <glyph glyph-name="w" unicode="w" horiz-adv-x="882" 
d="M566 -23l-135 363l-129 -338l-105 -25l-134 445q-8 26 -17.5 37.5t-29.5 23.5q0 37 6 63h243q0 -58 -3 -69h-69l83 -330l130 383l95 26l141 -409l85 283q3 13 -3.5 26.5t-19.5 19.5l-30 11q0 49 3 59h191q0 -49 -1 -53q-36 -27 -57 -86l-144 -407z" />
    <glyph glyph-name="x" unicode="x" horiz-adv-x="587" 
d="M573 60q0 -41 -7 -60h-240q-5 25 -5 53l9 5q17 8 17 29q0 12 -10 25l-70 92l-85 -113q-5 -6 -5 -12q0 -7 9 -9l53 -12q0 -36 -7 -58h-215q-7 26 -5 54q33 15 57 40l153 167l-131 169q-28 36 -70 57q-2 18 -2 29q0 15 3 30h248q0 -59 -2 -69h-53l103 -137l77 92
q11 15 11 25q0 13 -12 19l-24 16q0 31 6 54h189q0 -35 -4 -51q-24 -6 -61 -47l-142 -159l153 -182q14 -17 24.5 -25t37.5 -22z" />
    <glyph glyph-name="y" unicode="y" horiz-adv-x="582" 
d="M575 546q0 -46 -5 -58q-34 -19 -59 -82l-215 -513q-36 -85 -131 -130l-78 112q62 26 101 66q14 7 44 47l-158 440q-11 31 -67 57q0 39 6 61h260q0 -59 -2 -69h-67l113 -348l107 288q6 16 0.5 32.5t-18.5 22.5q-3 3 -9.5 5.5t-14 4t-8.5 2.5q-5 37 2 62h199z" />
    <glyph glyph-name="z" unicode="z" horiz-adv-x="536" 
d="M519 175l-33 -175h-447l-23 58l330 384h-200q-15 0 -31 -11.5t-25 -22t-26 -34.5q-32 10 -39 18l40 154h411l6 -77l-309 -364h190q30 0 61 26.5t49 57.5q12 -2 23.5 -5.5t17.5 -5.5z" />
    <glyph glyph-name="braceleft" unicode="{" horiz-adv-x="392" 
d="M336 -220h-30q-43 -1 -78.5 7t-67 26t-46.5 54t-9 86l20 220q4 36 -17.5 62t-67.5 26v78q44 0 67 35t19 74l-19 209q-5 49 9 83t44 51t64.5 24t78.5 7h34l-1 -71h-32q-62 0 -92 -23.5t-24 -73.5l20 -194q6 -57 -14 -99.5t-54 -57.5q76 -35 66 -139l-21 -213
q-5 -48 25 -71.5t93 -23.5h32z" />
    <glyph glyph-name="bar" unicode="|" horiz-adv-x="289" 
d="M191 -220h-92v974h92v-974z" />
    <glyph glyph-name="braceright" unicode="}" horiz-adv-x="392" 
d="M353 261q-46 0 -67.5 -26t-17.5 -62l20 -220q5 -50 -10 -86t-46 -54t-67 -26t-79 -7h-29l1 76h31q63 0 93.5 24t24.5 71l-20 213q-6 52 12.5 88t53.5 51q-34 15 -54 57.5t-14 99.5l20 194q5 50 -24.5 73.5t-91.5 23.5h-32l-2 71h35q212 2 196 -165l-20 -209
q-3 -39 20 -74t67 -35v-78z" />
    <glyph glyph-name="asciitilde" unicode="~" horiz-adv-x="537" 
d="M502 364q-23 -36 -57.5 -61.5t-70.5 -25.5q-54 0 -118.5 26.5t-99.5 26.5q-50 0 -90 -26l-37 41q19 29 57.5 57t75.5 28q52 0 111.5 -27t100.5 -27q51 0 88 29z" />
    <glyph glyph-name="uni00A0" unicode="&#xa0;" horiz-adv-x="268" 
 />
    <glyph glyph-name="exclamdown" unicode="&#xa1;" horiz-adv-x="297" 
d="M241 505q0 -15 -38 -53t-51 -38q-15 0 -53.5 38t-38.5 53q0 14 38.5 52.5t53.5 38.5q14 0 51.5 -38.5t37.5 -52.5zM229 -160l-80 -41l-81 41l32 495h98z" />
    <glyph glyph-name="cent" unicode="&#xa2;" horiz-adv-x="542" 
d="M509 475q0 -38 -13.5 -58.5t-44.5 -36.5q-80 95 -132 95q-69 0 -103 -45.5t-34 -154.5q0 -82 41 -129t123 -47q65 0 132 14l24 -72q-78 -44 -156 -49v-159h-60v158q-133 4 -188.5 71t-55.5 216q0 102 66.5 183.5t177.5 95.5v147h60v-145q67 -4 115 -24t48 -60z" />
    <glyph glyph-name="sterling" unicode="&#xa3;" horiz-adv-x="584" 
d="M553 78q-38 -78 -118 -78h-408q-4 17 -4 56l41 12q27 9 36.5 23.5t11.5 45.5l17 150h-76v62h82l6 57q9 81 81 143t155 62q150 0 150 -76q0 -45 -52 -72q-5 4 -17 16t-20 19l-18.5 16t-19.5 13t-16 4q-94 0 -104 -106l-8 -76h161v-62h-167l-19 -187l198 9q28 1 52 24z" />
    <glyph glyph-name="currency" unicode="&#xa4;" horiz-adv-x="508" 
d="M83 102l-50 49l63 63q-40 45 -40 109q0 65 39 110l-62 62l49 49l69 -69q50 26 103 26q58 0 104 -25l68 69l50 -50l-63 -63q39 -42 39 -109q0 -65 -40 -110l63 -62l-49 -50l-69 69q-48 -24 -103 -24q-58 0 -102 25zM254 237q44 0 65.5 24t21.5 62t-22 63t-65 25t-65 -25
t-22 -63q0 -37 22.5 -61.5t64.5 -24.5z" />
    <glyph glyph-name="yen" unicode="&#xa5;" horiz-adv-x="662" 
d="M633 526l-22 -55q-38 -6 -46 -17q-38 -46 -81 -106h114v-59h-156q-30 -42 -51 -75v-18h207v-59h-207v-20l11 -117h-162l10 119v18h-192v59h192v14q-21 40 -46 79h-146v59h108q-36 53 -65 90q-19 25 -62 37l-5 55q92 26 156 26q22 -25 72.5 -117.5t82.5 -159.5l46.5 79.5
l72 120t50.5 75.5q56 -2 119 -28z" />
    <glyph glyph-name="brokenbar" unicode="&#xa6;" horiz-adv-x="295" 
d="M189 392h-95v362h95v-362zM189 -220h-95v361h95v-361z" />
    <glyph glyph-name="section" unicode="&#xa7;" horiz-adv-x="572" 
d="M513 547q0 -41 -32 -71q-66 52 -83 52q-24 0 -38 -16t-14 -43q0 -25 53 -152t53 -160q0 -99 -82 -171t-201 -72q-43 0 -77.5 17.5t-34.5 52.5q0 40 34 59q61 -51 77 -51q41 0 41 79q0 19 -49.5 144t-49.5 161q0 99 84.5 166t209.5 67q109 0 109 -62zM360 124
q0 29 -55 163t-55 168q0 41 11 60l-3 3q-57 -36 -57 -103q0 -27 55.5 -164.5t55.5 -167.5q0 -50 -19 -86l2 -2q65 46 65 129z" />
    <glyph glyph-name="dieresis" unicode="&#xa8;" horiz-adv-x="460" 
d="M112 643q-11 0 -41.5 31t-30.5 42q0 12 30.5 42.5t41.5 30.5q12 0 43 -31t31 -42q0 -10 -30.5 -41.5t-43.5 -31.5zM349 643q-12 0 -42.5 31t-30.5 42q0 12 31 42.5t42 30.5t42.5 -31t31.5 -42q0 -10 -30.5 -41.5t-43.5 -31.5z" />
    <glyph glyph-name="copyright" unicode="&#xa9;" horiz-adv-x="756" 
d="M683 269q0 -137 -85.5 -215.5t-216.5 -78.5q-43 0 -84.5 9t-82.5 31t-72 54.5t-50 84t-19 115.5q0 138 87 218.5t219 80.5q57 0 109.5 -17t97 -51t71 -93.5t26.5 -137.5zM622 269q0 120 -70.5 182t-170.5 62q-108 0 -176.5 -59t-68.5 -180q0 -60 18.5 -106t45.5 -71.5
t63 -41.5t65.5 -21t58.5 -5q104 0 169.5 63t65.5 177zM502 120q-50 -18 -104 -18q-93 0 -138 41.5t-45 131.5q0 78 49.5 128.5t128.5 50.5q54 0 105 -22v-81q-17 -2 -39 0q-22 53 -68 53q-43 0 -64 -29t-21 -95q0 -54 25.5 -83.5t72.5 -29.5q48 0 83 8z" />
    <glyph glyph-name="ordfeminine" unicode="&#xaa;" horiz-adv-x="418" 
d="M391 412q-15 -14 -38.5 -24t-41.5 -10q-33 0 -48.5 12t-17.5 40q-47 -53 -103 -53q-40 0 -63 19t-23 57q0 88 126 106q37 6 62 8v35q0 24 -13 32.5t-53 8.5q-33 0 -87 -12l-14 66q50 20 117 20q141 3 141 -93v-77l4 -109h48zM372 275h-314v63h314v-63zM244 460v65
q-20 0 -49 -6q-53 -12 -53 -44q0 -13 9 -22t26 -9q23 0 67 16z" />
    <glyph glyph-name="guillemotleft" unicode="&#xab;" horiz-adv-x="513" 
d="M461 469q-41 -129 -89 -198q53 -99 81 -201q-44 -9 -73 -16q-25 76 -117 218q96 131 128 213q38 -8 70 -16zM256 483q-45 -140 -94 -212q58 -111 86 -213q-44 -8 -73 -15q-27 82 -122 229q95 130 133 227q38 -8 70 -16z" />
    <glyph glyph-name="logicalnot" unicode="&#xac;" 
d="M540 141h-99v149h-381v86h480v-235z" />
    <glyph glyph-name="registered" unicode="&#xae;" horiz-adv-x="638" 
d="M558 531q0 -105 -67 -164.5t-170 -59.5q-43 0 -83 12t-76.5 36.5t-59 70t-22.5 105.5q0 107 68 168t172 61q36 0 69 -7.5t64 -25t54 -43.5t37 -65.5t14 -87.5zM505 531q0 90 -54 137t-130 47q-82 0 -134 -44.5t-52 -135.5q0 -45 14 -79t34.5 -53.5t48 -31.5t50 -15.5
t44.5 -3.5q79 0 129 47t50 132zM446 447l-6 -36q-58 1 -85 26q-18 16 -47 71q-3 -1 -9 -1h-7l2 -91h-71l2 100v150l98 1q43 0 68.5 -20.5t25.5 -59.5q0 -46 -43 -69q16 -28 35 -46q15 -15 37 -25zM349 586q0 22 -8.5 32t-32.5 10h-17v-85h13q45 0 45 43z" />
    <glyph glyph-name="macron" unicode="&#xaf;" horiz-adv-x="540" 
d="M418 686h-303v81h303v-81z" />
    <glyph glyph-name="macron" unicode="&#x2c9;" horiz-adv-x="540" 
d="M418 686h-303v81h303v-81z" />
    <glyph glyph-name="degree" unicode="&#xb0;" horiz-adv-x="447" 
d="M399 584q0 -69 -52.5 -115.5t-125.5 -46.5q-173 0 -173 134q0 68 53 114.5t123 46.5q76 0 125.5 -33.5t49.5 -99.5zM298 570q0 37 -22 58t-58 21q-33 0 -51.5 -21.5t-18.5 -57.5q0 -81 80 -81q70 0 70 81z" />
    <glyph glyph-name="plusminus" unicode="&#xb1;" 
d="M540 0h-480v86h480v-86zM347 417l184 2v-86l-184 2l2 -187h-98l2 187l-184 -2v86l184 -2l-2 187h98z" />
    <glyph glyph-name="twosuperior" unicode="&#xb2;" horiz-adv-x="306" 
d="M287 415h-274v66q164 124 164 177q0 42 -45 42q-42 0 -76 -23l-35 69q53 40 126 40q67 0 100 -34t33 -83q0 -88 -137 -172h144v-82z" />
    <glyph glyph-name="threesuperior" unicode="&#xb3;" horiz-adv-x="303" 
d="M282 526q0 -61 -41.5 -88.5t-109.5 -27.5q-63 0 -117 18l18 76q48 -12 90 -12q57 0 57 41q0 27 -19.5 36.5t-68.5 11.5v51q41 4 56.5 15.5t15.5 34.5q-2 28 -37 28q-45 0 -75 -15l-25 67q51 27 108 27q61 0 95.5 -24.5t34.5 -73.5q0 -52 -44 -76q62 -27 62 -89z" />
    <glyph glyph-name="acute" unicode="&#xb4;" horiz-adv-x="568" 
d="M382 847l70 -81q-138 -104 -250 -153l-34 52q110 75 214 182z" />
    <glyph glyph-name="mu" unicode="&#xb5;" horiz-adv-x="686" 
d="M78 -220l7 480v286h137v-283l1 -76q0 -48 14 -71.5t51 -23.5q54 0 126 39l2 141v274h136v-272l4 -132q1 -61 49 -61q21 0 47 6l8 -46q-26 -21 -68 -35t-77 -14q-46 0 -68.5 17t-28.5 52q-81 -71 -145 -71q-40 0 -67 9q9 -13 13.5 -25.5t5.5 -20.5t2 -29l5 -144h-154z" />
    <glyph glyph-name="paragraph" unicode="&#xb6;" horiz-adv-x="698" 
d="M277 270h-10q-106 0 -164 55t-58 167q0 215 222 215h10v-437zM602 12q0 -58 -34.5 -106t-86 -75.5t-103 -42t-93.5 -14.5q-122 0 -122 77q0 23 15 43.5t29 29.5q2 -1 13.5 -13l23 -23.5t24 -21t18.5 -9.5q22 0 35.5 11.5t19.5 35.5t7.5 45.5t1.5 55.5v702h95v-710
q0 -86 -38 -129l1 -4q45 10 71.5 50.5t26.5 90.5v702h96v-695z" />
    <glyph glyph-name="periodcentered" unicode="&#xb7;" horiz-adv-x="298" 
d="M151 269q-15 0 -54.5 39.5t-39.5 54.5q0 14 39.5 53.5t54.5 39.5t54 -39t39 -54q0 -14 -39 -54t-54 -40z" />
    <glyph glyph-name="cedilla" unicode="&#xb8;" horiz-adv-x="453" 
d="M361 -168q0 -47 -43.5 -86.5t-96.5 -39.5t-101 34l39 71q42 -29 91 -29q43 0 43 24q0 14 -10 24.5t-32.5 18t-42.5 12t-55 10.5l59 139h71l-41 -75q62 -15 90.5 -38t28.5 -65z" />
    <glyph glyph-name="onesuperior" unicode="&#xb9;" horiz-adv-x="238" 
d="M193 415h-102v285h-73v79l175 4v-368z" />
    <glyph glyph-name="ordmasculine" unicode="&#xba;" horiz-adv-x="418" 
d="M380 547q0 -67 -49.5 -119.5t-119.5 -52.5q-161 0 -161 165q0 68 49 121.5t117 53.5q164 0 164 -168zM372 275h-314v63h314v-63zM284 544q0 34 -4 57t-21.5 42.5t-48.5 19.5q-22 0 -36.5 -10.5t-20.5 -30.5t-7.5 -36t-1.5 -40q0 -116 76 -116q38 0 51 30t13 84z" />
    <glyph glyph-name="guillemotright" unicode="&#xbb;" horiz-adv-x="513" 
d="M460 272q-95 -147 -122 -229l-73 15q28 102 86 213q-49 72 -94 212l70 16q38 -97 133 -227zM250 272q-92 -142 -117 -218l-73 16q28 102 81 201q-44 63 -89 198l70 16q32 -82 128 -213z" />
    <glyph glyph-name="onequarter" unicode="&#xbc;" horiz-adv-x="784" 
d="M640 603l-539 -541l-50 54l539 538zM215 415h-102v285h-73v79l175 4v-368zM744 84h-56v-84h-94v84h-155v78l108 206h141v-209h56v-75zM594 159v148l-82 -148h82z" />
    <glyph glyph-name="onehalf" unicode="&#xbd;" horiz-adv-x="776" 
d="M736 0h-273v66q163 125 163 177q0 42 -45 42q-41 0 -75 -23l-35 69q55 42 126 42q67 0 99.5 -35t32.5 -83q0 -90 -136 -173h143v-82zM634 603l-539 -541l-50 54l539 538zM215 415h-102v285h-73v79l175 4v-368z" />
    <glyph glyph-name="threequarters" unicode="&#xbe;" horiz-adv-x="791" 
d="M307 526q0 -61 -41.5 -88.5t-109.5 -27.5q-63 0 -117 18l18 76q48 -12 90 -12q57 0 57 41q0 27 -19.5 36.5t-68.5 11.5v51q41 4 56.5 15.5t15.5 34.5q-2 28 -37 28q-45 0 -75 -15l-25 67q51 27 108 27q61 0 95.5 -24.5t34.5 -73.5q0 -52 -44 -76q62 -27 62 -89zM654 603
l-539 -541l-50 54l539 538zM751 84h-56v-84h-94v84h-155v78l108 206h141v-209h56v-75zM601 159v148l-82 -148h82z" />
    <glyph glyph-name="questiondown" unicode="&#xbf;" horiz-adv-x="431" 
d="M356 509q0 -15 -38 -52.5t-52 -37.5t-52.5 37.5t-38.5 52.5q0 13 38.5 52t52.5 39t52 -38.5t38 -52.5zM399 -99q0 -77 -132 -77q-96 0 -165.5 53.5t-69.5 118.5q0 49 21 90t51 68.5t60.5 51t51.5 48t21 48.5q0 17 -7 38l87 20q35 -76 35 -100q0 -32 -21 -64.5t-51.5 -59
l-61 -51.5t-51.5 -51.5t-21 -49.5q0 -19 23.5 -41.5t72.5 -22.5q24 0 44 4.5t50 15.5t43 15q20 -31 20 -54z" />
    <glyph glyph-name="Agrave" unicode="&#xc0;" horiz-adv-x="760" 
d="M732 53q0 -33 -5 -53h-300q-7 22 -7 57l60 20q32 9 32 45q0 12 -7 33l-39 120h-233l-46 -119q-6 -16 -6 -29q0 -38 43 -51l65 -19q0 -41 -5 -57h-260q-5 20 -5 54q42 36 56 68l243 571l132 31l225 -599q14 -33 57 -72zM441 351l-55 172l-23 83h-7l-27 -81l-66 -174h178z
M464 742q-179 35 -286 80l44 96q98 -55 260 -112z" />
    <glyph glyph-name="Aacute" unicode="&#xc1;" horiz-adv-x="760" 
d="M732 53q0 -33 -5 -53h-300q-7 22 -7 57l60 20q32 9 32 45q0 12 -7 33l-39 120h-233l-46 -119q-6 -16 -6 -29q0 -38 43 -51l65 -19q0 -41 -5 -57h-260q-5 20 -5 54q42 36 56 68l243 571l132 31l225 -599q14 -33 57 -72zM441 351l-55 172l-23 83h-7l-27 -81l-66 -174h178z
M304 742l-18 64q162 56 261 112l43 -96q-107 -45 -286 -80z" />
    <glyph glyph-name="Acircumflex" unicode="&#xc2;" horiz-adv-x="760" 
d="M732 53q0 -33 -5 -53h-300q-7 22 -7 57l60 20q32 9 32 45q0 12 -7 33l-39 120h-233l-46 -119q-6 -16 -6 -29q0 -38 43 -51l65 -19q0 -41 -5 -57h-260q-5 20 -5 54q42 36 56 68l243 571l132 31l225 -599q14 -33 57 -72zM441 351l-55 172l-23 83h-7l-27 -81l-66 -174h178z
M235 733l-30 52q109 68 191 146q70 -64 177 -137l-39 -61q-93 40 -151 81q-79 -50 -148 -81z" />
    <glyph glyph-name="Atilde" unicode="&#xc3;" horiz-adv-x="760" 
d="M732 53q0 -33 -5 -53h-300q-7 22 -7 57l60 20q32 9 32 45q0 12 -7 33l-39 120h-233l-46 -119q-6 -16 -6 -29q0 -38 43 -51l65 -19q0 -41 -5 -57h-260q-5 20 -5 54q42 36 56 68l243 571l132 31l225 -599q14 -33 57 -72zM441 351l-55 172l-23 83h-7l-27 -81l-66 -174h178z
M469 753q-21 0 -93 20t-87 20q-36 0 -70 -24l-28 35q22 27 33.5 39t37 27t52.5 15q28 0 97.5 -19t80.5 -19q49 0 66 20l30 -33q-16 -24 -28.5 -38.5t-37 -28.5t-53.5 -14z" />
    <glyph glyph-name="Adieresis" unicode="&#xc4;" horiz-adv-x="760" 
d="M732 53q0 -33 -5 -53h-300q-7 22 -7 57l60 20q32 9 32 45q0 12 -7 33l-39 120h-233l-46 -119q-6 -16 -6 -29q0 -38 43 -51l65 -19q0 -41 -5 -57h-260q-5 20 -5 54q42 36 56 68l243 571l132 31l225 -599q14 -33 57 -72zM441 351l-55 172l-23 83h-7l-27 -81l-66 -174h178z
M258 756q-12 0 -42.5 31t-30.5 42q0 12 31 42.5t42 30.5t42.5 -31t31.5 -42q0 -10 -30.5 -41.5t-43.5 -31.5zM502 756q-12 0 -42.5 31t-30.5 42q0 12 31 42.5t42 30.5t42.5 -31.5t31.5 -41.5t-30.5 -41.5t-43.5 -31.5z" />
    <glyph glyph-name="Aring" unicode="&#xc5;" horiz-adv-x="760" 
d="M24 0q-5 20 -5 54q41 34 56 68l236 554q-59 29 -59 96q0 56 38 86t92 30q52 0 91.5 -27t39.5 -90q0 -55 -48 -86l210 -560q12 -31 57 -72q0 -34 -6 -53h-299q-7 22 -7 57l60 20q31 9 31 46q0 14 -6 32l-39 120h-233l-46 -119q-6 -16 -6 -30q0 -38 43 -50l65 -19
q0 -41 -6 -57h-259zM383 709q56 0 56 64q0 30 -15 47.5t-42 17.5q-55 0 -55 -63q0 -30 15 -48t41 -18zM263 351h178l-56 172l-22 83h-7l-27 -81z" />
    <glyph glyph-name="AE" unicode="&#xc6;" horiz-adv-x="1033" 
d="M999 171l-24 -171h-572q-7 33 -5 59l49 13q41 11 42 43l3 164v29h-198l-90 -156q-9 -15 -9 -31q0 -30 32 -39l82 -22q0 -41 -7 -60h-290q-4 14 -4 54l25 16q29 21 49 52l351 585h522v-164q-29 -8 -63 -4q-9 46 -28.5 64t-53.5 18l-179 5v-236l292 5v-92l-292 5v-30
l5 -197l158 4q110 3 145 99zM493 654l-152 -264h151v221z" />
    <glyph glyph-name="Ccedilla" unicode="&#xc7;" horiz-adv-x="693" 
d="M531 -168q0 -47 -43.5 -86.5t-96.5 -39.5t-101 34l39 71q42 -29 91 -29q43 0 43 24q0 14 -10 24.5t-32.5 18t-42.5 12t-55 10.5l52 124q-332 25 -332 354q0 158 108.5 264t276.5 106q79 0 122 -9.5t100 -33.5v-164q-25 -5 -58 -1q-44 119 -168 119q-108 0 -171 -65
t-63 -206q0 -125 70.5 -191t187.5 -66q77 0 180 21l28 -92q-95 -37 -213 -38l-31 -58q62 -15 90.5 -38t28.5 -65z" />
    <glyph glyph-name="Egrave" unicode="&#xc8;" horiz-adv-x="660" 
d="M626 171l-24 -171h-570q-7 27 -5 59l52 13q43 11 43 43l3 164v298q0 39 -28 50l-63 26q-2 37 4 54h550v-164q-23 -4 -63 -4q-9 46 -28.5 64t-53.5 18l-178 5v-230l271 5v-92l-271 5v-36l4 -197l152 4q111 3 144 99zM415 742q-179 35 -286 80l44 96q98 -55 260 -112z" />
    <glyph glyph-name="Eacute" unicode="&#xc9;" horiz-adv-x="660" 
d="M234 742l-18 64q162 56 261 112l43 -96q-107 -45 -286 -80zM626 171l-24 -171h-570q-7 27 -5 59l52 13q43 11 43 43l3 164v298q0 39 -28 50l-63 26q-2 37 4 54h550v-164q-23 -4 -63 -4q-9 46 -28.5 64t-53.5 18l-178 5v-230l271 5v-92l-271 5v-36l4 -197l152 4
q111 3 144 99z" />
    <glyph glyph-name="Ecircumflex" unicode="&#xca;" horiz-adv-x="660" 
d="M182 733l-30 52q109 68 191 146q70 -64 177 -137l-39 -61q-93 40 -151 81q-79 -50 -148 -81zM626 171l-24 -171h-570q-7 27 -5 59l52 13q43 11 43 43l3 164v298q0 39 -28 50l-63 26q-2 37 4 54h550v-164q-23 -4 -63 -4q-9 46 -28.5 64t-53.5 18l-178 5v-230l271 5v-92
l-271 5v-36l4 -197l152 4q111 3 144 99z" />
    <glyph glyph-name="Edieresis" unicode="&#xcb;" horiz-adv-x="660" 
d="M209 756q-12 0 -42.5 31t-30.5 42q0 12 31 42.5t42 30.5t42.5 -31t31.5 -42q0 -10 -30.5 -41.5t-43.5 -31.5zM453 756q-12 0 -42.5 31t-30.5 42q0 12 31 42.5t42 30.5t42.5 -31.5t31.5 -41.5t-30.5 -41.5t-43.5 -31.5zM626 171l-24 -171h-570q-7 27 -5 59l52 13
q43 11 43 43l3 164v298q0 39 -28 50l-63 26q-2 37 4 54h550v-164q-23 -4 -63 -4q-9 46 -28.5 64t-53.5 18l-178 5v-230l271 5v-92l-271 5v-36l4 -197l152 4q111 3 144 99z" />
    <glyph glyph-name="Igrave" unicode="&#xcc;" horiz-adv-x="381" 
d="M353 61q0 -38 -7 -61h-314q-3 12 -3 54l43 15q43 16 44 61l2 148v294q0 47 -50 66l-38 16q-2 36 2 53h309q3 -35 -1 -59l-43 -10q-39 -10 -39 -63v-297l2 -170q1 -16 6 -22t19 -10zM286 742q-179 35 -286 80l44 96q98 -55 260 -112z" />
    <glyph glyph-name="Iacute" unicode="&#xcd;" horiz-adv-x="381" 
d="M353 61q0 -38 -7 -61h-314q-3 12 -3 54l43 15q43 16 44 61l2 148v294q0 47 -50 66l-38 16q-2 36 2 53h309q3 -35 -1 -59l-43 -10q-39 -10 -39 -63v-297l2 -170q1 -16 6 -22t19 -10zM77 742l-18 64q162 56 261 112l43 -96q-107 -45 -286 -80z" />
    <glyph glyph-name="Icircumflex" unicode="&#xce;" horiz-adv-x="381" 
d="M353 61q0 -38 -7 -61h-314q-3 12 -3 54l43 15q43 16 44 61l2 148v294q0 47 -50 66l-38 16q-2 36 2 53h309q3 -35 -1 -59l-43 -10q-39 -10 -39 -63v-297l2 -170q1 -16 6 -22t19 -10zM38 733l-30 52q109 68 191 146q70 -64 177 -137l-39 -61q-93 40 -151 81
q-79 -50 -148 -81z" />
    <glyph glyph-name="Idieresis" unicode="&#xcf;" horiz-adv-x="381" 
d="M353 61q0 -38 -7 -61h-314q-3 12 -3 54l43 15q43 16 44 61l2 148v294q0 47 -50 66l-38 16q-2 36 2 53h309q3 -35 -1 -59l-43 -10q-39 -10 -39 -63v-297l2 -170q1 -16 6 -22t19 -10zM82 756q-11 0 -42 31t-31 42q0 12 31 42.5t42 30.5t42.5 -31t31.5 -42q0 -10 -31 -41.5
t-43 -31.5zM292 756q-11 0 -41.5 31t-30.5 42q0 12 30.5 42.5t41.5 30.5t42.5 -31.5t31.5 -41.5t-31 -41.5t-43 -31.5z" />
    <glyph glyph-name="Eth" unicode="&#xd0;" horiz-adv-x="801" 
d="M36 0q-6 34 -6 58l51 15q37 10 38 51l3 155v36h-86v80h86v176q0 46 -40 64l-50 19q-2 32 4 53h299q418 0 418 -345q0 -179 -110.5 -270.5t-300.5 -91.5h-306zM269 81h83q125 0 188.5 69.5t63.5 193.5q0 133 -70 207t-201 74h-70v-230h166v-80h-166v-37z" />
    <glyph glyph-name="Ntilde" unicode="&#xd1;" horiz-adv-x="845" 
d="M819 661l-53 -23q-18 -8 -29.5 -27t-11.5 -42v-563l-109 -32l-396 555h-7l6 -80v-176l3 -155q0 -19 4 -26t20 -12l85 -25q0 -41 -5 -55h-293q-6 29 -4 53l52 15q22 6 34.5 31t13.5 56l2 118v308q0 36 -29 51l-61 27q0 41 2 48h220l375 -512h7l-8 105v268q0 46 -37 64
l-63 27q0 37 4 48h274q4 -30 4 -46zM520 753q-22 0 -93 20t-87 20q-36 0 -70 -24l-28 35q22 27 33.5 39t37 27t52.5 15q29 0 98 -19t80 -19q49 0 66 20l30 -33q-16 -24 -28.5 -38.5t-37 -28.5t-53.5 -14z" />
    <glyph glyph-name="Ograve" unicode="&#xd2;" horiz-adv-x="830" 
d="M787 382q0 -167 -105 -280.5t-281 -113.5q-175 0 -266.5 87t-91.5 248q0 169 109 282t280 113q178 0 266.5 -89t88.5 -247zM629 358q0 122 -51.5 195.5t-160.5 73.5q-113 0 -164 -76t-51 -199q0 -121 49.5 -196t158.5 -75q219 0 219 277zM528 742q-179 35 -286 80l44 96
q98 -55 260 -112z" />
    <glyph glyph-name="Oacute" unicode="&#xd3;" horiz-adv-x="830" 
d="M341 742l-18 64q162 56 261 112l43 -96q-107 -45 -286 -80zM787 382q0 -167 -105 -280.5t-281 -113.5q-175 0 -266.5 87t-91.5 248q0 169 109 282t280 113q178 0 266.5 -89t88.5 -247zM629 358q0 122 -51.5 195.5t-160.5 73.5q-113 0 -164 -76t-51 -199q0 -121 49.5 -196
t158.5 -75q219 0 219 277z" />
    <glyph glyph-name="Ocircumflex" unicode="&#xd4;" horiz-adv-x="830" 
d="M279 733l-30 52q109 68 191 146q70 -64 177 -137l-39 -61q-93 40 -151 81q-79 -50 -148 -81zM787 382q0 -167 -105 -280.5t-281 -113.5q-175 0 -266.5 87t-91.5 248q0 169 109 282t280 113q178 0 266.5 -89t88.5 -247zM629 358q0 122 -51.5 195.5t-160.5 73.5
q-113 0 -164 -76t-51 -199q0 -121 49.5 -196t158.5 -75q219 0 219 277z" />
    <glyph glyph-name="Otilde" unicode="&#xd5;" horiz-adv-x="830" 
d="M787 382q0 -167 -105 -280.5t-281 -113.5q-175 0 -266.5 87t-91.5 248q0 169 109 282t280 113q178 0 266.5 -89t88.5 -247zM629 358q0 122 -51.5 195.5t-160.5 73.5q-113 0 -164 -76t-51 -199q0 -121 49.5 -196t158.5 -75q219 0 219 277zM513 753q-21 0 -93 20t-87 20
q-36 0 -70 -24l-28 35q22 27 33.5 39t37 27t52.5 15q28 0 98 -19t80 -19q49 0 66 20l30 -33q-16 -24 -28.5 -38.5t-37 -28.5t-53.5 -14z" />
    <glyph glyph-name="Odieresis" unicode="&#xd6;" horiz-adv-x="830" 
d="M298 756q-12 0 -42.5 31t-30.5 42q0 12 31 42.5t42 30.5t42.5 -31t31.5 -42q0 -10 -30.5 -41.5t-43.5 -31.5zM542 756q-12 0 -42.5 31t-30.5 42q0 12 31 42.5t42 30.5t42.5 -31.5t31.5 -41.5t-30.5 -41.5t-43.5 -31.5zM787 382q0 -167 -105 -280.5t-281 -113.5
q-175 0 -266.5 87t-91.5 248q0 169 109 282t280 113q178 0 266.5 -89t88.5 -247zM629 358q0 122 -51.5 195.5t-160.5 73.5q-113 0 -164 -76t-51 -199q0 -121 49.5 -196t158.5 -75q219 0 219 277z" />
    <glyph glyph-name="multiply" unicode="&#xd7;" 
d="M128 20l-70 57l185 224l-185 224l70 56l172 -208l172 208l70 -56l-185 -224l185 -224l-70 -57l-172 209z" />
    <glyph glyph-name="Oslash" unicode="&#xd8;" horiz-adv-x="830" 
d="M782 699l-72 -82q77 -84 77 -235q0 -167 -105 -280.5t-281 -113.5q-148 0 -238 64l-88 -84l-46 45l86 82q-72 85 -72 228q0 169 109 282t280 113q142 0 229 -59q42 45 75 84zM571 562q-55 65 -154 65q-113 0 -164 -76t-51 -199q0 -87 24 -148zM629 358q0 84 -25 144
l-345 -356q52 -65 151 -65q219 0 219 277z" />
    <glyph glyph-name="Ugrave" unicode="&#xd9;" horiz-adv-x="815" 
d="M793 652l-50 -16q-9 -3 -13.5 -6t-9 -11.5t-4.5 -22.5v-327q0 -63 -19.5 -113t-50 -80.5t-71.5 -50.5t-80.5 -28t-79.5 -8q-47 0 -85 4.5t-81.5 20.5t-72.5 42t-48.5 74t-19.5 112v339q0 17 -8 32t-21 20l-57 21q0 38 4 53h317q2 -10 2.5 -29.5t-0.5 -28.5l-64 -12
q-26 -5 -26 -32v-343q0 -54 17 -92.5t46 -57.5t59 -27t64 -8q163 0 163 209v287q0 52 -56 68l-43 13q0 49 1 53h283q4 -20 4 -55zM523 742q-179 35 -286 80l44 96q98 -55 260 -112z" />
    <glyph glyph-name="Uacute" unicode="&#xda;" horiz-adv-x="815" 
d="M341 742l-18 64q162 56 261 112l43 -96q-107 -45 -286 -80zM793 652l-50 -16q-9 -3 -13.5 -6t-9 -11.5t-4.5 -22.5v-327q0 -63 -19.5 -113t-50 -80.5t-71.5 -50.5t-80.5 -28t-79.5 -8q-47 0 -85 4.5t-81.5 20.5t-72.5 42t-48.5 74t-19.5 112v339q0 17 -8 32t-21 20
l-57 21q0 38 4 53h317q2 -10 2.5 -29.5t-0.5 -28.5l-64 -12q-26 -5 -26 -32v-343q0 -54 17 -92.5t46 -57.5t59 -27t64 -8q163 0 163 209v287q0 52 -56 68l-43 13q0 49 1 53h283q4 -20 4 -55z" />
    <glyph glyph-name="Ucircumflex" unicode="&#xdb;" horiz-adv-x="815" 
d="M283 733l-30 52q109 68 191 146q70 -64 177 -137l-39 -61q-93 40 -151 81q-79 -50 -148 -81zM793 652l-50 -16q-9 -3 -13.5 -6t-9 -11.5t-4.5 -22.5v-327q0 -63 -19.5 -113t-50 -80.5t-71.5 -50.5t-80.5 -28t-79.5 -8q-47 0 -85 4.5t-81.5 20.5t-72.5 42t-48.5 74
t-19.5 112v339q0 17 -8 32t-21 20l-57 21q0 38 4 53h317q2 -10 2.5 -29.5t-0.5 -28.5l-64 -12q-26 -5 -26 -32v-343q0 -54 17 -92.5t46 -57.5t59 -27t64 -8q163 0 163 209v287q0 52 -56 68l-43 13q0 49 1 53h283q4 -20 4 -55z" />
    <glyph glyph-name="Udieresis" unicode="&#xdc;" horiz-adv-x="815" 
d="M294 756q-12 0 -42.5 31t-30.5 42q0 12 31 42.5t42 30.5t42.5 -31t31.5 -42q0 -10 -30.5 -41.5t-43.5 -31.5zM538 756q-12 0 -42.5 31t-30.5 42q0 12 31 42.5t42 30.5t42.5 -31.5t31.5 -41.5t-30.5 -41.5t-43.5 -31.5zM793 652l-50 -16q-9 -3 -13.5 -6t-9 -11.5
t-4.5 -22.5v-327q0 -63 -19.5 -113t-50 -80.5t-71.5 -50.5t-80.5 -28t-79.5 -8q-47 0 -85 4.5t-81.5 20.5t-72.5 42t-48.5 74t-19.5 112v339q0 17 -8 32t-21 20l-57 21q0 38 4 53h317q2 -10 2.5 -29.5t-0.5 -28.5l-64 -12q-26 -5 -26 -32v-343q0 -54 17 -92.5t46 -57.5
t59 -27t64 -8q163 0 163 209v287q0 52 -56 68l-43 13q0 49 1 53h283q4 -20 4 -55z" />
    <glyph glyph-name="Yacute" unicode="&#xdd;" horiz-adv-x="699" 
d="M693 655q-44 -23 -69 -60l-208 -313l3 -166q0 -34 25 -39l70 -18q0 -39 -6 -59h-324q-4 20 -4 57l50 13q18 5 30.5 20t12.5 36l3 148l-207 316q-21 32 -63 67q-2 32 2 50h289q4 -16 4 -55l-43 -17q-28 -10 -28 -42q0 -17 11 -36l133 -208l130 205q10 14 10 29
q0 29 -32 46l-48 23q-2 30 3 55h252q4 -17 4 -52zM292 742l-18 64q162 56 261 112l43 -96q-107 -45 -286 -80z" />
    <glyph glyph-name="Thorn" unicode="&#xde;" horiz-adv-x="687" 
d="M663 381q0 -104 -76.5 -168t-206.5 -64h-56v72l31 1q78 2 116 37t38 106q0 68 -37.5 100.5t-120.5 33.5l-89 1v-227l4 -155q0 -32 21 -35l102 -24q0 -48 -4 -59h-349q-5 34 -3 55l48 14q17 4 27.5 22.5t11.5 39.5l3 142v311q0 33 -41 51l-51 20q-2 32 3 52h310
q3 -35 -1 -59l-43 -10q-28 -7 -37 -42v-17h155q245 0 245 -198z" />
    <glyph glyph-name="germandbls" unicode="&#xdf;" horiz-adv-x="778" 
d="M731 159q0 -64 -33 -104t-78 -53.5t-102 -13.5q-39 0 -71.5 6.5t-48 12.5t-56.5 24l9 141q44 1 52 -1q18 -109 116 -109q37 0 59 17t22 49q0 24 -24 44.5t-58 38t-68.5 39t-58.5 57t-24 80.5q0 31 18.5 61t41 50.5t41 47t18.5 50.5q0 93 -118 93q-45 0 -77.5 -26
t-32.5 -74v-309l7 -279l-224 -1q-4 24 -4 54l51 18q30 9 30 60l3 148v191h-80v57l80 18v21q0 81 75.5 141.5t170.5 60.5q248 0 248 -164q0 -39 -20 -70t-43.5 -46.5t-43.5 -35.5t-20 -40q0 -21 25 -39.5t61 -36t71.5 -38.5t60.5 -57t25 -83z" />
    <glyph glyph-name="agrave" unicode="&#xe0;" horiz-adv-x="594" 
d="M577 47q-23 -22 -64 -38.5t-70 -16.5q-52 0 -72.5 20.5t-23.5 66.5q-82 -88 -174 -88q-65 0 -103.5 32t-38.5 95q0 146 208 176q13 2 106 13v69q0 42 -24 58t-90 16q-58 0 -142 -21l-24 95q95 36 193 36q27 0 46.5 -1t48 -5t48.5 -14t39.5 -26t29.5 -42.5t10 -62.5v-135
l7 -183h84zM345 128v112q-1 0 -32 -4t-50 -8q-95 -18 -95 -78q0 -23 15.5 -37t45.5 -14q34 0 116 29zM122 766l69 81q106 -107 214 -182l-34 -52q-110 48 -249 153z" />
    <glyph glyph-name="aacute" unicode="&#xe1;" horiz-adv-x="594" 
d="M577 47q-23 -22 -64 -38.5t-70 -16.5q-52 0 -72.5 20.5t-23.5 66.5q-82 -88 -174 -88q-65 0 -103.5 32t-38.5 95q0 146 208 176q13 2 106 13v69q0 42 -24 58t-90 16q-58 0 -142 -21l-24 95q95 36 193 36q27 0 46.5 -1t48 -5t48.5 -14t39.5 -26t29.5 -42.5t10 -62.5v-135
l7 -183h84zM345 128v112q-1 0 -32 -4t-50 -8q-95 -18 -95 -78q0 -23 15.5 -37t45.5 -14q34 0 116 29zM386 847l70 -81q-138 -104 -250 -153l-34 52q110 75 214 182z" />
    <glyph glyph-name="acircumflex" unicode="&#xe2;" horiz-adv-x="594" 
d="M577 47q-23 -22 -64 -38.5t-70 -16.5q-52 0 -72.5 20.5t-23.5 66.5q-82 -88 -174 -88q-65 0 -103.5 32t-38.5 95q0 146 208 176q13 2 106 13v69q0 42 -24 58t-90 16q-58 0 -142 -21l-24 95q95 36 193 36q27 0 46.5 -1t48 -5t48.5 -14t39.5 -26t29.5 -42.5t10 -62.5v-135
l7 -183h84zM345 128v112q-1 0 -32 -4t-50 -8q-95 -18 -95 -78q0 -23 15.5 -37t45.5 -14q34 0 116 29zM129 613l-39 47q100 77 193 184q107 -123 180 -177l-48 -54q-69 41 -144 108q-60 -51 -142 -108z" />
    <glyph glyph-name="atilde" unicode="&#xe3;" horiz-adv-x="594" 
d="M577 47q-23 -22 -64 -38.5t-70 -16.5q-52 0 -72.5 20.5t-23.5 66.5q-82 -88 -174 -88q-65 0 -103.5 32t-38.5 95q0 146 208 176q13 2 106 13v69q0 42 -24 58t-90 16q-58 0 -142 -21l-24 95q95 36 193 36q27 0 46.5 -1t48 -5t48.5 -14t39.5 -26t29.5 -42.5t10 -62.5v-135
l7 -183h84zM345 128v112q-1 0 -32 -4t-50 -8q-95 -18 -95 -78q0 -23 15.5 -37t45.5 -14q34 0 116 29zM472 732q-3 -3 -11 -13.5t-11.5 -14.5l-11.5 -13t-13.5 -13l-14 -10.5t-17 -9.5t-19 -5t-21.5 -2q-21 0 -89 20t-84 20q-39 0 -70 -24l-28 35l34.5 39.5t36 26t53.5 15.5
q28 0 93.5 -19t76.5 -19q19 0 35.5 5t23.5 10l7 5z" />
    <glyph glyph-name="adieresis" unicode="&#xe4;" horiz-adv-x="594" 
d="M577 47q-23 -22 -64 -38.5t-70 -16.5q-52 0 -72.5 20.5t-23.5 66.5q-82 -88 -174 -88q-65 0 -103.5 32t-38.5 95q0 146 208 176q13 2 106 13v69q0 42 -24 58t-90 16q-58 0 -142 -21l-24 95q95 36 193 36q27 0 46.5 -1t48 -5t48.5 -14t39.5 -26t29.5 -42.5t10 -62.5v-135
l7 -183h84zM345 128v112q-1 0 -32 -4t-50 -8q-95 -18 -95 -78q0 -23 15.5 -37t45.5 -14q34 0 116 29zM154 643q-11 0 -41.5 31t-30.5 42q0 12 30.5 42.5t41.5 30.5q12 0 43 -31t31 -42q0 -10 -30.5 -41.5t-43.5 -31.5zM391 643q-12 0 -42.5 31t-30.5 42q0 12 31 42.5
t42 30.5t42.5 -31t31.5 -42q0 -10 -30.5 -41.5t-43.5 -31.5z" />
    <glyph glyph-name="aring" unicode="&#xe5;" horiz-adv-x="594" 
d="M577 47q-23 -22 -64 -38.5t-70 -16.5q-52 0 -72.5 20.5t-23.5 66.5q-82 -88 -174 -88q-65 0 -103.5 32t-38.5 95q0 146 208 176q13 2 106 13v69q0 42 -24 58t-90 16q-58 0 -142 -21l-24 95q95 36 193 36q27 0 46.5 -1t48 -5t48.5 -14t39.5 -26t29.5 -42.5t10 -62.5v-135
l7 -183h84zM345 128v112q-1 0 -32 -4t-50 -8q-95 -18 -95 -78q0 -23 15.5 -37t45.5 -14q34 0 116 29zM406 737q0 -50 -41.5 -82.5t-86.5 -32.5q-30 0 -56.5 7.5t-49 32t-22.5 64.5q0 54 38.5 87t89.5 33q128 0 128 -109zM332 733q0 29 -14.5 46.5t-40.5 17.5q-54 0 -54 -62
q0 -29 14.5 -47t40.5 -18q54 0 54 63z" />
    <glyph glyph-name="ae" unicode="&#xe6;" horiz-adv-x="874" 
d="M841 259l-359 -15q2 -44 15 -73t37 -44t52 -20.5t67 -5.5q85 0 154 16l23 -75q-88 -50 -202 -50q-92 0 -151 19t-91 69q-102 -88 -205 -88q-68 0 -109 30.5t-41 95.5q0 147 212 176q52 6 102 8v74q0 43 -23 59t-91 16q-62 0 -142 -22l-24 95q88 36 193 36q146 0 188 -67
q69 67 164 67q120 0 175.5 -72.5t55.5 -193.5v-35zM696 328q0 152 -94 152q-57 0 -88.5 -44t-34.5 -124zM359 136q-13 41 -15 103q-68 -5 -93 -10q-89 -20 -89 -81q0 -21 15.5 -36.5t43.5 -15.5q53 0 138 40z" />
    <glyph glyph-name="ccedilla" unicode="&#xe7;" horiz-adv-x="525" 
d="M416 -168q0 -47 -43.5 -86.5t-96.5 -39.5t-101 34l39 71q42 -29 91 -29q43 0 43 24q0 14 -10 24.5t-32.5 18t-42.5 12t-55 10.5l50 119q-121 9 -172 76.5t-51 211.5q0 110 78 195.5t204 85.5q44 0 83.5 -7t71 -27.5t31.5 -50.5q0 -66 -58 -94q-81 94 -132 94
q-69 0 -103.5 -45t-34.5 -154q0 -82 41.5 -130.5t123.5 -48.5q51 0 132 17l23 -72q-82 -47 -169 -52l-29 -54q62 -15 90.5 -38t28.5 -65z" />
    <glyph glyph-name="egrave" unicode="&#xe8;" horiz-adv-x="569" 
d="M536 257h-359q4 -91 47.5 -124.5t124.5 -33.5q76 0 153 18l23 -75q-93 -53 -201 -53q-72 0 -122 11.5t-89.5 41t-58.5 83.5t-19 136q0 120 75.5 209t195.5 89t175 -70.5t55 -190.5v-41zM390 324q0 159 -98 159q-51 0 -83.5 -45.5t-34.5 -113.5h216zM134 766l69 81
q106 -107 214 -182l-34 -52q-110 48 -249 153z" />
    <glyph glyph-name="eacute" unicode="&#xe9;" horiz-adv-x="569" 
d="M401 847l70 -81q-138 -104 -250 -153l-34 52q110 75 214 182zM536 257h-359q4 -91 47.5 -124.5t124.5 -33.5q76 0 153 18l23 -75q-93 -53 -201 -53q-72 0 -122 11.5t-89.5 41t-58.5 83.5t-19 136q0 120 75.5 209t195.5 89t175 -70.5t55 -190.5v-41zM390 324
q0 159 -98 159q-51 0 -83.5 -45.5t-34.5 -113.5h216z" />
    <glyph glyph-name="ecircumflex" unicode="&#xea;" horiz-adv-x="569" 
d="M157 613l-39 47q100 77 193 184q107 -123 180 -177l-48 -54q-69 41 -144 108q-60 -51 -142 -108zM536 257h-359q4 -91 47.5 -124.5t124.5 -33.5q76 0 153 18l23 -75q-93 -53 -201 -53q-72 0 -122 11.5t-89.5 41t-58.5 83.5t-19 136q0 120 75.5 209t195.5 89t175 -70.5
t55 -190.5v-41zM390 324q0 159 -98 159q-51 0 -83.5 -45.5t-34.5 -113.5h216z" />
    <glyph glyph-name="edieresis" unicode="&#xeb;" horiz-adv-x="569" 
d="M178 643q-11 0 -41.5 31t-30.5 42q0 12 30.5 42.5t41.5 30.5q12 0 43 -31t31 -42q0 -10 -30.5 -41.5t-43.5 -31.5zM415 643q-12 0 -42.5 31t-30.5 42q0 12 31 42.5t42 30.5t42.5 -31t31.5 -42q0 -10 -30.5 -41.5t-43.5 -31.5zM536 257h-359q4 -91 47.5 -124.5
t124.5 -33.5q76 0 153 18l23 -75q-93 -53 -201 -53q-72 0 -122 11.5t-89.5 41t-58.5 83.5t-19 136q0 120 75.5 209t195.5 89t175 -70.5t55 -190.5v-41zM390 324q0 159 -98 159q-51 0 -83.5 -45.5t-34.5 -113.5h216z" />
    <glyph glyph-name="igrave" unicode="&#xec;" horiz-adv-x="373" 
d="M349 58q0 -39 -6 -58h-310q-4 19 -4 56l61 19q27 7 27 44l3 154v199h-92v65q95 21 181 21q25 0 36 -9t11 -34v-242l2 -161q1 -32 17 -36zM-3 766l69 81q106 -107 214 -182l-34 -52q-110 48 -249 153z" />
    <glyph glyph-name="iacute" unicode="&#xed;" horiz-adv-x="373" 
d="M289 847l70 -81q-138 -104 -250 -153l-34 52q110 75 214 182zM349 58q0 -39 -6 -58h-310q-4 19 -4 56l61 19q27 7 27 44l3 154v199h-92v65q95 21 181 21q25 0 36 -9t11 -34v-242l2 -161q1 -32 17 -36z" />
    <glyph glyph-name="icircumflex" unicode="&#xee;" horiz-adv-x="373" 
d="M33 613l-39 47q100 77 193 184q107 -123 180 -177l-48 -54q-69 41 -144 108q-60 -51 -142 -108zM349 58q0 -39 -6 -58h-310q-4 19 -4 56l61 19q27 7 27 44l3 154v199h-92v65q95 21 181 21q25 0 36 -9t11 -34v-242l2 -161q1 -32 17 -36z" />
    <glyph glyph-name="idieresis" unicode="&#xef;" horiz-adv-x="373" 
d="M69 640q-11 0 -42 30.5t-31 41.5q0 12 30.5 42.5t42.5 30.5q11 0 42.5 -31t31.5 -42q0 -10 -31 -41t-43 -31zM283 640q-11 0 -41.5 30.5t-30.5 41.5q0 12 30.5 42.5t41.5 30.5t42.5 -31t31.5 -42q0 -10 -31 -41t-43 -31zM349 58q0 -39 -6 -58h-310q-4 19 -4 56l61 19
q27 7 27 44l3 154v199h-92v65q95 21 181 21q25 0 36 -9t11 -34v-242l2 -161q1 -32 17 -36z" />
    <glyph glyph-name="eth" unicode="&#xf0;" horiz-adv-x="619" 
d="M300 -8q-127 0 -196 67.5t-69 206.5q0 112 81 201.5t193 89.5q62 0 107 -22q-15 54 -57 103l-125 -48l-19 57l101 37q-34 30 -79 60l68 66q76 -39 121 -84l131 50l20 -56l-108 -41q108 -138 108 -394q0 -118 -80.5 -205.5t-196.5 -87.5zM316 80q116 0 116 194
q0 198 -134 198q-119 0 -119 -198q0 -194 137 -194z" />
    <glyph glyph-name="ntilde" unicode="&#xf1;" horiz-adv-x="715" 
d="M694 57q0 -41 -7 -57h-267q-5 32 -4 56l33 17q23 13 23 44l2 157v63q0 64 -15.5 92t-72.5 28q-79 0 -139 -28v-155l2 -161q0 -31 15 -37l63 -18q0 -39 -6 -58h-285q-3 22 -3 53l47 18q28 11 28 47l3 156v196h-87v65q94 21 182 21q21 0 29.5 -8.5t8.5 -27.5v-31
q93 69 188 69q50 0 84 -9.5t52.5 -23t28 -40t11.5 -48.5t2 -60v-103l3 -176q1 -23 14 -25zM557 732q-3 -3 -11 -13.5t-11.5 -14.5l-11.5 -13t-13.5 -13l-14 -10.5t-17 -9.5t-19 -5t-21.5 -2q-21 0 -89 20t-84 20q-39 0 -70 -24l-28 35l34.5 39.5t36 26t53.5 15.5
q28 0 93.5 -19t76.5 -19q19 0 35.5 5t23.5 10l7 5z" />
    <glyph glyph-name="ograve" unicode="&#xf2;" horiz-adv-x="613" 
d="M577 277q0 -112 -81 -200t-196 -88q-127 0 -196 69t-69 208q0 113 81 203t193 90q268 0 268 -282zM430 274q0 199 -132 199q-118 0 -118 -199q0 -195 136 -195q65 0 89.5 52.5t24.5 142.5zM145 766l69 81q106 -107 214 -182l-34 -52q-110 48 -249 153z" />
    <glyph glyph-name="oacute" unicode="&#xf3;" horiz-adv-x="613" 
d="M407 847l70 -81q-138 -104 -250 -153l-34 52q110 75 214 182zM577 277q0 -112 -81 -200t-196 -88q-127 0 -196 69t-69 208q0 113 81 203t193 90q268 0 268 -282zM430 274q0 199 -132 199q-118 0 -118 -199q0 -195 136 -195q65 0 89.5 52.5t24.5 142.5z" />
    <glyph glyph-name="ocircumflex" unicode="&#xf4;" horiz-adv-x="613" 
d="M165 613l-39 47q100 77 193 184q107 -123 180 -177l-48 -54q-69 41 -144 108q-60 -51 -142 -108zM577 277q0 -112 -81 -200t-196 -88q-127 0 -196 69t-69 208q0 113 81 203t193 90q268 0 268 -282zM430 274q0 199 -132 199q-118 0 -118 -199q0 -195 136 -195
q65 0 89.5 52.5t24.5 142.5z" />
    <glyph glyph-name="otilde" unicode="&#xf5;" horiz-adv-x="613" 
d="M577 277q0 -112 -81 -200t-196 -88q-127 0 -196 69t-69 208q0 113 81 203t193 90q268 0 268 -282zM430 274q0 199 -132 199q-118 0 -118 -199q0 -195 136 -195q65 0 89.5 52.5t24.5 142.5zM501 732q-3 -3 -11 -13.5t-11.5 -14.5l-11.5 -13t-13.5 -13l-14 -10.5t-17 -9.5
t-19 -5t-21.5 -2q-21 0 -89 20t-84 20q-39 0 -70 -24l-28 35l34.5 39.5t36 26t53.5 15.5q28 0 93.5 -19t76.5 -19q19 0 35.5 5t23.5 10l7 5z" />
    <glyph glyph-name="odieresis" unicode="&#xf6;" horiz-adv-x="613" 
d="M187 643q-11 0 -41.5 31t-30.5 42q0 12 30.5 42.5t41.5 30.5q12 0 43 -31t31 -42q0 -10 -30.5 -41.5t-43.5 -31.5zM424 643q-12 0 -42.5 31t-30.5 42q0 12 31 42.5t42 30.5t42.5 -31t31.5 -42q0 -10 -30.5 -41.5t-43.5 -31.5zM577 277q0 -112 -81 -200t-196 -88
q-127 0 -196 69t-69 208q0 113 81 203t193 90q268 0 268 -282zM430 274q0 199 -132 199q-118 0 -118 -199q0 -195 136 -195q65 0 89.5 52.5t24.5 142.5z" />
    <glyph glyph-name="divide" unicode="&#xf7;" 
d="M302 9q-14 0 -48.5 35t-34.5 49t35 48t48 34t48 -34.5t35 -47.5t-35 -48.5t-48 -35.5zM302 426q-14 0 -48.5 35.5t-34.5 49.5t35 48t48 34t48 -34.5t35 -47.5t-35 -49t-48 -36zM60 260v86h480v-86h-480z" />
    <glyph glyph-name="oslash" unicode="&#xf8;" horiz-adv-x="613" 
d="M575 549l-58 -71q60 -69 60 -201q0 -112 -80.5 -198.5t-196.5 -86.5q-101 0 -165 43l-71 -75l-45 40l71 77q-55 69 -55 189q0 112 81 201.5t193 89.5q101 0 165 -41l58 71zM397 424q-36 48 -99 48q-118 0 -118 -198q0 -49 10 -86zM430 274q0 52 -9 88l-204 -237
q33 -45 99 -45q65 0 89.5 52t24.5 142z" />
    <glyph glyph-name="ugrave" unicode="&#xf9;" horiz-adv-x="706" 
d="M676 91l10 -58q-80 -40 -148 -40q-80 0 -84 80q-91 -84 -181 -84q-39 0 -68 5.5t-47 18.5t-29 26.5t-16 36t-6.5 40t-1.5 45.5v309h-85v60q117 26 159 26q63 0 63 -55v-219l1 -95q1 -49 14 -72t51 -23q61 0 140 43l4 138v197h-83v60q87 26 155 26q64 0 64 -55v-229
l5 -181h83zM155 770l69 81q106 -107 214 -182l-34 -52q-110 48 -249 153z" />
    <glyph glyph-name="uacute" unicode="&#xfa;" horiz-adv-x="706" 
d="M461 847l70 -81q-138 -104 -250 -153l-34 52q110 75 214 182zM676 91l10 -58q-80 -40 -148 -40q-80 0 -84 80q-91 -84 -181 -84q-39 0 -68 5.5t-47 18.5t-29 26.5t-16 36t-6.5 40t-1.5 45.5v309h-85v60q117 26 159 26q63 0 63 -55v-219l1 -95q1 -49 14 -72t51 -23
q61 0 140 43l4 138v197h-83v60q87 26 155 26q64 0 64 -55v-229l5 -181h83z" />
    <glyph glyph-name="ucircumflex" unicode="&#xfb;" horiz-adv-x="706" 
d="M191 613l-39 47q100 77 193 184q107 -123 180 -177l-48 -54q-69 41 -144 108q-60 -51 -142 -108zM676 91l10 -58q-80 -40 -148 -40q-80 0 -84 80q-91 -84 -181 -84q-39 0 -68 5.5t-47 18.5t-29 26.5t-16 36t-6.5 40t-1.5 45.5v309h-85v60q117 26 159 26q63 0 63 -55v-219
l1 -95q1 -49 14 -72t51 -23q61 0 140 43l4 138v197h-83v60q87 26 155 26q64 0 64 -55v-229l5 -181h83z" />
    <glyph glyph-name="udieresis" unicode="&#xfc;" horiz-adv-x="706" 
d="M216 643q-11 0 -41.5 31t-30.5 42q0 12 30.5 42.5t41.5 30.5q12 0 43 -31t31 -42q0 -10 -30.5 -41.5t-43.5 -31.5zM453 643q-12 0 -42.5 31t-30.5 42q0 12 31 42.5t42 30.5t42.5 -31t31.5 -42q0 -10 -30.5 -41.5t-43.5 -31.5zM676 91l10 -58q-80 -40 -148 -40
q-80 0 -84 80q-91 -84 -181 -84q-39 0 -68 5.5t-47 18.5t-29 26.5t-16 36t-6.5 40t-1.5 45.5v309h-85v60q117 26 159 26q63 0 63 -55v-219l1 -95q1 -49 14 -72t51 -23q61 0 140 43l4 138v197h-83v60q87 26 155 26q64 0 64 -55v-229l5 -181h83z" />
    <glyph glyph-name="yacute" unicode="&#xfd;" horiz-adv-x="582" 
d="M575 546q0 -46 -5 -58q-34 -19 -59 -82l-215 -513q-36 -85 -131 -130l-78 112q62 26 101 66q14 7 44 47l-158 440q-11 31 -67 57q0 39 6 61h260q0 -59 -2 -69h-67l113 -348l107 288q6 16 0.5 32.5t-18.5 22.5q-3 3 -9.5 5.5t-14 4t-8.5 2.5q-5 37 2 62h199zM425 847
l70 -81q-138 -104 -250 -153l-34 52q110 75 214 182z" />
    <glyph glyph-name="thorn" unicode="&#xfe;" horiz-adv-x="656" 
d="M619 284q0 -82 -24.5 -141.5t-67.5 -91t-92 -45.5t-109 -14q-40 0 -69 3l3 -106q0 -17 6.5 -22.5t26.5 -10.5l74 -15q0 -42 -6 -61h-322q-6 25 -4 57l33 13q42 14 42 61l4 360v408h-91v62q89 24 181 24q42 0 42 -42v-221q62 55 137 55q116 0 176 -63t60 -210zM474 265
q0 89 -31 145.5t-93 56.5q-46 0 -100 -18v-180l4 -199q36 -4 76 -4q72 0 108 55.5t36 143.5z" />
    <glyph glyph-name="ydieresis" unicode="&#xff;" horiz-adv-x="582" 
d="M575 546q0 -46 -5 -58q-34 -19 -59 -82l-215 -513q-36 -85 -131 -130l-78 112q62 26 101 66q14 7 44 47l-158 440q-11 31 -67 57q0 39 6 61h260q0 -59 -2 -69h-67l113 -348l107 288q6 16 0.5 32.5t-18.5 22.5q-3 3 -9.5 5.5t-14 4t-8.5 2.5q-5 37 2 62h199zM188 643
q-11 0 -41.5 31t-30.5 42q0 12 30.5 42.5t41.5 30.5q12 0 43 -31t31 -42q0 -10 -30.5 -41.5t-43.5 -31.5zM425 643q-12 0 -42.5 31t-30.5 42q0 12 31 42.5t42 30.5t42.5 -31t31.5 -42q0 -10 -30.5 -41.5t-43.5 -31.5z" />
    <glyph glyph-name="Amacron" unicode="&#x100;" horiz-adv-x="760" 
d="M732 53q0 -33 -5 -53h-300q-7 22 -7 57l60 20q32 9 32 45q0 12 -7 33l-39 120h-233l-46 -119q-6 -16 -6 -29q0 -38 43 -51l65 -19q0 -41 -5 -57h-260q-5 20 -5 54q42 36 56 68l243 571l132 31l225 -599q14 -33 57 -72zM441 351l-55 172l-23 83h-7l-27 -81l-66 -174h178z
M536 773h-298v87h298v-87z" />
    <glyph glyph-name="amacron" unicode="&#x101;" horiz-adv-x="594" 
d="M577 47q-23 -22 -64 -38.5t-70 -16.5q-52 0 -72.5 20.5t-23.5 66.5q-82 -88 -174 -88q-65 0 -103.5 32t-38.5 95q0 146 208 176q13 2 106 13v69q0 42 -24 58t-90 16q-58 0 -142 -21l-24 95q95 36 193 36q27 0 46.5 -1t48 -5t48.5 -14t39.5 -26t29.5 -42.5t10 -62.5v-135
l7 -183h84zM345 128v112q-1 0 -32 -4t-50 -8q-95 -18 -95 -78q0 -23 15.5 -37t45.5 -14q34 0 116 29zM426 686h-303v81h303v-81z" />
    <glyph glyph-name="Abreve" unicode="&#x102;" horiz-adv-x="760" 
d="M732 53q0 -33 -5 -53h-300q-7 22 -7 57l60 20q32 9 32 45q0 12 -7 33l-39 120h-233l-46 -119q-6 -16 -6 -29q0 -38 43 -51l65 -19q0 -41 -5 -57h-260q-5 20 -5 54q42 36 56 68l243 571l132 31l225 -599q14 -33 57 -72zM441 351l-55 172l-23 83h-7l-27 -81l-66 -174h178z
M389 748q-60 0 -106 28t-65 61l53 50q58 -56 127 -56t118 52l34 -30q-17 -37 -58.5 -71t-102.5 -34z" />
    <glyph glyph-name="abreve" unicode="&#x103;" horiz-adv-x="594" 
d="M577 47q-23 -22 -64 -38.5t-70 -16.5q-52 0 -72.5 20.5t-23.5 66.5q-82 -88 -174 -88q-65 0 -103.5 32t-38.5 95q0 146 208 176q13 2 106 13v69q0 42 -24 58t-90 16q-58 0 -142 -21l-24 95q95 36 193 36q27 0 46.5 -1t48 -5t48.5 -14t39.5 -26t29.5 -42.5t10 -62.5v-135
l7 -183h84zM345 128v112q-1 0 -32 -4t-50 -8q-95 -18 -95 -78q0 -23 15.5 -37t45.5 -14q34 0 116 29zM406 796l33 -30q-17 -38 -59 -74.5t-107 -36.5q-59 0 -103.5 28.5t-64.5 62.5l56 54q57 -57 127 -57t118 53z" />
    <glyph glyph-name="Aogonek" unicode="&#x104;" horiz-adv-x="760" 
d="M564 -178l18 -60q-43 -27 -118 -27q-62 0 -97 30.5t-35 79.5q0 121 137 201q16 8 29.5 25t13.5 32q0 33 -11 66l-35 106h-233l-46 -119q-6 -16 -6 -29q0 -38 43 -51l65 -19q0 -41 -5 -57h-260q-5 20 -5 54q42 36 56 68l243 571l132 31l225 -599q14 -33 57 -72
q0 -33 -5 -53h-112q-87 0 -132.5 -29t-45.5 -97q1 -33 17.5 -50.5t42.5 -17.5q39 0 67 16zM441 351l-55 172l-23 83h-7l-27 -81l-66 -174h178z" />
    <glyph glyph-name="aogonek" unicode="&#x105;" horiz-adv-x="594" 
d="M450 -265q-63 0 -98 30.5t-35 79.5q0 82 89 150q-31 6 -44 26.5t-15 57.5q-82 -88 -174 -88q-65 0 -103.5 32t-38.5 95q0 146 208 176q13 2 106 13v69q0 43 -23 58.5t-91 15.5q-58 0 -142 -21l-24 95q90 34 193 34q41 0 72 -4t69 -17.5t59.5 -47.5t21.5 -86v-129l7 -183
h84l6 -44q-3 -2 -22.5 -13.5t-25 -15l-22.5 -15t-24 -17.5l-20 -18t-18.5 -21.5l-12.5 -22t-9 -25.5t-1 -27q1 -32 18 -49.5t43 -17.5q36 0 66 17l19 -60q-43 -27 -118 -27zM229 99q34 0 116 29v112q-1 0 -32 -4t-50 -8q-95 -18 -95 -78q0 -23 15.5 -37t45.5 -14z" />
    <glyph glyph-name="Cacute" unicode="&#x106;" horiz-adv-x="693" 
d="M313 742l-18 64q162 56 261 112l43 -96q-107 -45 -286 -80zM656 31q-97 -38 -224 -38q-188 0 -288.5 87.5t-100.5 268.5q0 158 108.5 264t276.5 106q79 0 122 -9.5t100 -33.5v-164q-25 -5 -58 -1q-44 119 -168 119q-108 0 -171 -65t-63 -206q0 -125 70.5 -191t187.5 -66
q77 0 180 21z" />
    <glyph glyph-name="cacute" unicode="&#x107;" horiz-adv-x="525" 
d="M400 847l70 -81q-138 -104 -250 -153l-34 52q110 75 214 182zM503 474q0 -66 -58 -94q-81 94 -132 94q-69 0 -103.5 -45t-34.5 -154q0 -82 41.5 -130.5t123.5 -48.5q51 0 132 17l23 -72q-92 -53 -193 -53q-146 0 -206.5 67t-60.5 223q0 110 78 195.5t204 85.5
q44 0 83.5 -7t71 -27.5t31.5 -50.5z" />
    <glyph glyph-name="Ccircumflex" unicode="&#x108;" horiz-adv-x="693" 
d="M275 733l-30 52q109 68 191 146q70 -64 177 -137l-39 -61q-93 40 -151 81q-79 -50 -148 -81zM656 31q-97 -38 -224 -38q-188 0 -288.5 87.5t-100.5 268.5q0 158 108.5 264t276.5 106q79 0 122 -9.5t100 -33.5v-164q-25 -5 -58 -1q-44 119 -168 119q-108 0 -171 -65
t-63 -206q0 -125 70.5 -191t187.5 -66q77 0 180 21z" />
    <glyph glyph-name="ccircumflex" unicode="&#x109;" horiz-adv-x="525" 
d="M152 613l-39 47q100 77 193 184q107 -123 180 -177l-48 -54q-69 41 -144 108q-60 -51 -142 -108zM503 474q0 -66 -58 -94q-81 94 -132 94q-69 0 -103.5 -45t-34.5 -154q0 -82 41.5 -130.5t123.5 -48.5q51 0 132 17l23 -72q-92 -53 -193 -53q-146 0 -206.5 67t-60.5 223
q0 110 78 195.5t204 85.5q44 0 83.5 -7t71 -27.5t31.5 -50.5z" />
    <glyph glyph-name="Cdotaccent" unicode="&#x10a;" horiz-adv-x="693" 
d="M656 31q-97 -38 -224 -38q-188 0 -288.5 87.5t-100.5 268.5q0 158 108.5 264t276.5 106q79 0 122 -9.5t100 -33.5v-164q-25 -5 -58 -1q-44 119 -168 119q-108 0 -171 -65t-63 -206q0 -125 70.5 -191t187.5 -66q77 0 180 21zM500 833q0 -11 -36 -48t-49 -37t-48.5 36.5
t-35.5 48.5q0 15 35.5 50t48.5 35q12 0 48.5 -36t36.5 -49z" />
    <glyph glyph-name="cdotaccent" unicode="&#x10b;" horiz-adv-x="525" 
d="M503 474q0 -66 -58 -94q-81 94 -132 94q-69 0 -103.5 -45t-34.5 -154q0 -82 41.5 -130.5t123.5 -48.5q51 0 132 17l23 -72q-92 -53 -193 -53q-146 0 -206.5 67t-60.5 223q0 110 78 195.5t204 85.5q44 0 83.5 -7t71 -27.5t31.5 -50.5zM395 726q0 -11 -36 -48t-49 -37
q-14 0 -49.5 36.5t-35.5 48.5q0 15 35.5 50t49.5 35q12 0 48.5 -36t36.5 -49z" />
    <glyph glyph-name="Ccaron" unicode="&#x10c;" horiz-adv-x="693" 
d="M578 930l31 -51q-113 -72 -192 -147q-75 71 -177 137l40 61q90 -38 150 -80q78 48 148 80zM656 31q-97 -38 -224 -38q-188 0 -288.5 87.5t-100.5 268.5q0 158 108.5 264t276.5 106q79 0 122 -9.5t100 -33.5v-164q-25 -5 -58 -1q-44 119 -168 119q-108 0 -171 -65
t-63 -206q0 -125 70.5 -191t187.5 -66q77 0 180 21z" />
    <glyph glyph-name="ccaron" unicode="&#x10d;" horiz-adv-x="525" 
d="M491 787q-99 -78 -193 -184q-107 123 -180 177l48 53q65 -39 144 -107q76 62 142 107zM503 474q0 -66 -58 -94q-81 94 -132 94q-69 0 -103.5 -45t-34.5 -154q0 -82 41.5 -130.5t123.5 -48.5q51 0 132 17l23 -72q-92 -53 -193 -53q-146 0 -206.5 67t-60.5 223
q0 110 78 195.5t204 85.5q44 0 83.5 -7t71 -27.5t31.5 -50.5z" />
    <glyph glyph-name="Dcaron" unicode="&#x10e;" horiz-adv-x="801" 
d="M505 930l31 -51q-113 -72 -192 -147q-75 71 -177 137l40 61q90 -38 150 -80q78 48 148 80zM758 368q0 -179 -112 -273.5t-302 -94.5h-309q-6 26 -6 58l54 15q38 9 38 51l3 155l1 292q0 46 -41 64l-50 19q0 39 4 53h300q75 0 134.5 -9t114.5 -32t91.5 -60.5t58 -97.5
t21.5 -140zM605 347q0 133 -69 205.5t-201 72.5h-70v-347l6 -197h84q250 0 250 266z" />
    <glyph glyph-name="dcaron" unicode="&#x10f;" horiz-adv-x="713" 
d="M616 847l111 -5q-10 -113 -70 -239l-67 11q27 114 26 233zM634 41q-88 -49 -169 -49q-34 0 -49 24.5t-15 57.5q-71 -81 -148 -81q-218 0 -218 259q0 135 80.5 216.5t201.5 81.5q46 0 86 -5v133h-92v65q103 21 176 21q29 0 40.5 -10.5t11.5 -39.5v-435l4 -188h81zM403 280
v184q-46 11 -89 11q-135 0 -135 -211q0 -160 124 -160q46 0 96 24z" />
    <glyph glyph-name="Dcroat" unicode="&#x110;" horiz-adv-x="801" 
d="M36 0q-6 34 -6 58l51 15q37 10 38 51l3 155v36h-86v80h86v176q0 46 -40 64l-50 19q-2 32 4 53h299q418 0 418 -345q0 -179 -110.5 -270.5t-300.5 -91.5h-306zM269 81h83q125 0 188.5 69.5t63.5 193.5q0 133 -70 207t-201 74h-70v-230h166v-80h-166v-37z" />
    <glyph glyph-name="dcroat" unicode="&#x111;" horiz-adv-x="653" 
d="M623 613h-84v-334l4 -188h81l10 -50q-86 -48 -169 -48q-34 0 -49 24.5t-15 57.5q-22 -24 -36.5 -37t-45.5 -29t-62 -16q-35 0 -64.5 6t-60 23t-51 45t-33.5 75t-13 110q0 135 80.5 216.5t201.5 81.5q46 0 86 -5v68h-173v79h173v72h136v-72h84v-79zM403 280v184
q-46 11 -89 11q-75 0 -105 -57t-30 -163q0 -73 34.5 -111.5t89.5 -38.5q30 0 96 23z" />
    <glyph glyph-name="Emacron" unicode="&#x112;" horiz-adv-x="660" 
d="M626 171l-24 -171h-570q-7 27 -5 59l52 13q43 11 43 43l3 164v298q0 39 -28 50l-63 26q-2 37 4 54h550v-164q-23 -4 -63 -4q-9 46 -28.5 64t-53.5 18l-178 5v-230l271 5v-92l-271 5v-36l4 -197l152 4q111 3 144 99zM483 773h-298v87h298v-87z" />
    <glyph glyph-name="emacron" unicode="&#x113;" horiz-adv-x="569" 
d="M536 257h-359q4 -91 47.5 -124.5t124.5 -33.5q76 0 153 18l23 -75q-93 -53 -201 -53q-72 0 -122 11.5t-89.5 41t-58.5 83.5t-19 136q0 120 75.5 209t195.5 89t175 -70.5t55 -190.5v-41zM390 324q0 159 -98 159q-51 0 -83.5 -45.5t-34.5 -113.5h216zM454 686h-303v81h303
v-81z" />
    <glyph glyph-name="Ebreve" unicode="&#x114;" horiz-adv-x="660" 
d="M626 171l-24 -171h-570q-7 27 -5 59l52 13q43 11 43 43l3 164v298q0 39 -28 50l-63 26q-2 37 4 54h550v-164q-23 -4 -63 -4q-9 46 -28.5 64t-53.5 18l-178 5v-230l271 5v-92l-271 5v-36l4 -197l152 4q111 3 144 99zM336 748q-60 0 -106 28t-65 61l53 50q58 -56 127 -56
t118 52l34 -30q-17 -37 -58.5 -71t-102.5 -34z" />
    <glyph glyph-name="ebreve" unicode="&#x115;" horiz-adv-x="569" 
d="M536 257h-359q4 -91 47.5 -124.5t124.5 -33.5q76 0 153 18l23 -75q-93 -53 -201 -53q-72 0 -122 11.5t-89.5 41t-58.5 83.5t-19 136q0 120 75.5 209t195.5 89t175 -70.5t55 -190.5v-41zM390 324q0 159 -98 159q-51 0 -83.5 -45.5t-34.5 -113.5h216zM430 796l33 -30
q-17 -38 -59 -74.5t-107 -36.5q-59 0 -103.5 28.5t-64.5 62.5l56 54q57 -57 127 -57t118 53z" />
    <glyph glyph-name="Edotaccent" unicode="&#x116;" horiz-adv-x="660" 
d="M626 171l-24 -171h-570q-7 27 -5 59l52 13q43 11 43 43l3 164v298q0 39 -28 50l-63 26q-2 37 4 54h550v-164q-23 -4 -63 -4q-9 46 -28.5 64t-53.5 18l-178 5v-230l271 5v-92l-271 5v-36l4 -197l152 4q111 3 144 99zM422 833q0 -11 -36 -48t-49 -37t-48.5 36.5t-35.5 48.5
q0 15 35.5 50t48.5 35q12 0 48.5 -36t36.5 -49z" />
    <glyph glyph-name="edotaccent" unicode="&#x117;" horiz-adv-x="569" 
d="M536 257h-359q4 -91 47.5 -124.5t124.5 -33.5q76 0 153 18l23 -75q-93 -53 -201 -53q-72 0 -122 11.5t-89.5 41t-58.5 83.5t-19 136q0 120 75.5 209t195.5 89t175 -70.5t55 -190.5v-41zM390 324q0 159 -98 159q-51 0 -83.5 -45.5t-34.5 -113.5h216zM380 726
q0 -11 -36 -48t-49 -37q-14 0 -49.5 36.5t-35.5 48.5q0 15 35.5 50t49.5 35q12 0 48.5 -36t36.5 -49z" />
    <glyph glyph-name="Eogonek" unicode="&#x118;" horiz-adv-x="660" 
d="M594 -178l18 -60q-43 -27 -117 -27q-64 0 -98 27.5t-34 75.5q0 98 148 162h-479q-7 27 -5 59l52 13q19 4 31 15.5t12 27.5l3 164v298q0 39 -28 50l-63 26q-2 37 4 54h550v-164q-15 -4 -63 -4q-9 46 -28.5 64t-53.5 18l-178 5v-230l271 5v-92l-271 5v-36l4 -197l152 4
q111 3 144 99l61 -13l-24 -171q-135 -69 -135 -137q0 -27 17.5 -42.5t43.5 -15.5q36 0 66 17z" />
    <glyph glyph-name="eogonek" unicode="&#x119;" horiz-adv-x="569" 
d="M493 -178l19 -60q-43 -27 -118 -27q-62 0 -97.5 30.5t-35.5 79.5q0 78 85 146q-6 -1 -22 -1q-73 0 -122.5 11.5t-89 40t-58.5 82.5t-19 136q0 120 74.5 210t194.5 90t176 -71t56 -191v-41h-359q4 -91 47.5 -124.5t124.5 -33.5q76 0 153 18l24 -76q-77 -34 -118.5 -71.5
t-41.5 -97.5q1 -32 18 -49.5t43 -17.5q36 0 66 17zM390 324q2 160 -94 160q-55 0 -86.5 -46t-35.5 -114h216z" />
    <glyph glyph-name="Ecaron" unicode="&#x11a;" horiz-adv-x="660" 
d="M494 930l31 -51q-113 -72 -192 -147q-75 71 -177 137l40 61q90 -38 150 -80q78 48 148 80zM626 171l-24 -171h-570q-7 27 -5 59l52 13q43 11 43 43l3 164v298q0 39 -28 50l-63 26q-2 37 4 54h550v-164q-23 -4 -63 -4q-9 46 -28.5 64t-53.5 18l-178 5v-230l271 5v-92
l-271 5v-36l4 -197l152 4q111 3 144 99z" />
    <glyph glyph-name="ecaron" unicode="&#x11b;" horiz-adv-x="569" 
d="M488 787q-99 -78 -193 -184q-107 123 -180 177l48 53q65 -39 144 -107q76 62 142 107zM536 257h-359q4 -91 47.5 -124.5t124.5 -33.5q76 0 153 18l23 -75q-93 -53 -201 -53q-72 0 -122 11.5t-89.5 41t-58.5 83.5t-19 136q0 120 75.5 209t195.5 89t175 -70.5t55 -190.5
v-41zM390 324q0 159 -98 159q-51 0 -83.5 -45.5t-34.5 -113.5h216z" />
    <glyph glyph-name="Gcircumflex" unicode="&#x11c;" horiz-adv-x="746" 
d="M279 733l-30 52q109 68 191 146q70 -64 177 -137l-39 -61q-93 40 -151 81q-79 -50 -148 -81zM432 -7q-188 0 -288.5 87.5t-100.5 268.5q0 158 108.5 264t276.5 106q80 0 127.5 -10.5t109.5 -35.5v-165q-20 -2 -57 0q-46 123 -184 123q-107 0 -170.5 -68t-63.5 -210
q0 -133 76.5 -196t202.5 -65q28 0 58 5v200h140l1 -264q-99 -40 -236 -40z" />
    <glyph glyph-name="gcircumflex" unicode="&#x11d;" horiz-adv-x="611" 
d="M151 613l-39 47q100 77 193 184q107 -123 180 -177l-48 -54q-69 41 -144 108q-60 -51 -142 -108zM601 450h-105q12 -31 12 -71q0 -81 -64 -132t-164 -51q-69 0 -117 18v-89h181q130 0 177.5 -32t47.5 -108q0 -92 -93.5 -150t-226.5 -58q-223 0 -223 126q0 37 27 69t61 47
q-20 0 -39.5 16t-19.5 49q0 57 67 148q-71 43 -71 132q0 80 59 137t166 57q109 0 166 -42l159 36v-102zM368 374q0 50 -23.5 81t-66.5 31q-98 0 -98 -114q0 -106 96 -106q45 0 68.5 28.5t23.5 79.5zM433 -43q0 29 -23.5 41.5t-73.5 12.5h-168q-29 -29 -29 -61
q0 -40 40.5 -64.5t123.5 -24.5q61 0 95.5 26t34.5 70z" />
    <glyph glyph-name="Gbreve" unicode="&#x11e;" horiz-adv-x="746" 
d="M432 -7q-188 0 -288.5 87.5t-100.5 268.5q0 158 108.5 264t276.5 106q80 0 127.5 -10.5t109.5 -35.5v-165q-20 -2 -57 0q-46 123 -184 123q-107 0 -170.5 -68t-63.5 -210q0 -133 76.5 -196t202.5 -65q28 0 58 5v200h140l1 -264q-99 -40 -236 -40zM423 748q-60 0 -106 28
t-65 61l53 50q58 -56 127 -56t118 52l34 -30q-17 -37 -58.5 -71t-102.5 -34z" />
    <glyph glyph-name="gbreve" unicode="&#x11f;" horiz-adv-x="611" 
d="M601 450h-105q12 -31 12 -71q0 -81 -64 -132t-164 -51q-69 0 -117 18v-89h181q130 0 177.5 -32t47.5 -108q0 -92 -93.5 -150t-226.5 -58q-223 0 -223 126q0 37 27 69t61 47q-20 0 -39.5 16t-19.5 49q0 57 67 148q-71 43 -71 132q0 80 59 137t166 57q109 0 166 -42l159 36
v-102zM368 374q0 50 -23.5 81t-66.5 31q-98 0 -98 -114q0 -106 96 -106q45 0 68.5 28.5t23.5 79.5zM433 -43q0 29 -23.5 41.5t-73.5 12.5h-168q-29 -29 -29 -61q0 -40 40.5 -64.5t123.5 -24.5q61 0 95.5 26t34.5 70zM409 796l33 -30q-17 -38 -59 -74.5t-107 -36.5
q-59 0 -103.5 28.5t-64.5 62.5l56 54q57 -57 127 -57t118 53z" />
    <glyph glyph-name="Gdotaccent" unicode="&#x120;" horiz-adv-x="746" 
d="M432 -7q-188 0 -288.5 87.5t-100.5 268.5q0 158 108.5 264t276.5 106q80 0 127.5 -10.5t109.5 -35.5v-165q-20 -2 -57 0q-46 123 -184 123q-107 0 -170.5 -68t-63.5 -210q0 -133 76.5 -196t202.5 -65q28 0 58 5v200h140l1 -264q-99 -40 -236 -40zM513 833q0 -11 -36 -48
t-49 -37t-48.5 36.5t-35.5 48.5q0 15 35.5 50t48.5 35q12 0 48.5 -36t36.5 -49z" />
    <glyph glyph-name="gdotaccent" unicode="&#x121;" horiz-adv-x="611" 
d="M601 450h-105q12 -31 12 -71q0 -81 -64 -132t-164 -51q-69 0 -117 18v-89h181q130 0 177.5 -32t47.5 -108q0 -92 -93.5 -150t-226.5 -58q-223 0 -223 126q0 37 27 69t61 47q-20 0 -39.5 16t-19.5 49q0 57 67 148q-71 43 -71 132q0 80 59 137t166 57q109 0 166 -42l159 36
v-102zM368 374q0 50 -23.5 81t-66.5 31q-98 0 -98 -114q0 -106 96 -106q45 0 68.5 28.5t23.5 79.5zM433 -43q0 29 -23.5 41.5t-73.5 12.5h-168q-29 -29 -29 -61q0 -40 40.5 -64.5t123.5 -24.5q61 0 95.5 26t34.5 70zM358 726q0 -11 -36 -48t-49 -37q-14 0 -49.5 36.5
t-35.5 48.5q0 15 35.5 50t49.5 35q12 0 48.5 -36t36.5 -49z" />
    <glyph glyph-name="Gcommaaccent" unicode="&#x122;" horiz-adv-x="746" 
d="M383 -63l111 -5q-10 -113 -70 -239l-67 11q27 114 26 233zM432 -7q-188 0 -288.5 87.5t-100.5 268.5q0 158 108.5 264t276.5 106q80 0 127.5 -10.5t109.5 -35.5v-165q-20 -2 -57 0q-46 123 -184 123q-107 0 -170.5 -68t-63.5 -210q0 -133 76.5 -196t202.5 -65q28 0 58 5
v200h140l1 -264q-99 -40 -236 -40z" />
    <glyph glyph-name="gcommaaccent" unicode="&#x123;" horiz-adv-x="611" 
d="M328 618l-111 5q10 113 70 239l67 -11q-27 -114 -26 -233zM601 450h-105q12 -31 12 -71q0 -81 -64 -132t-164 -51q-69 0 -117 18v-89h181q130 0 177.5 -32t47.5 -108q0 -92 -93.5 -150t-226.5 -58q-223 0 -223 126q0 37 27 69t61 47q-20 0 -39.5 16t-19.5 49q0 57 67 148
q-71 43 -71 132q0 80 59 137t166 57q109 0 166 -42l159 36v-102zM368 374q0 50 -23.5 81t-66.5 31q-98 0 -98 -114q0 -106 96 -106q45 0 68.5 28.5t23.5 79.5zM433 -43q0 29 -23.5 41.5t-73.5 12.5h-168q-29 -29 -29 -61q0 -40 40.5 -64.5t123.5 -24.5q61 0 95.5 26t34.5 70
z" />
    <glyph glyph-name="Hcircumflex" unicode="&#x124;" horiz-adv-x="870" 
d="M285 733l-30 52q109 68 191 146q70 -64 177 -137l-39 -61q-93 40 -151 81q-79 -50 -148 -81zM836 55q0 -39 -6 -55h-319q-5 23 -5 53l55 20q38 12 39 62l2 143v36h-342v-36l4 -164q0 -20 7.5 -28.5t28.5 -13.5l71 -18q0 -36 -6 -54h-327q-5 27 -5 52l50 19
q22 8 29.5 20.5t7.5 41.5l2 145v312q0 40 -33 51l-52 18q0 32 4 48h297q5 -17 5 -49l-50 -15q-18 -5 -25.5 -16.5t-7.5 -34.5v-197h342v190q0 47 -37 58l-47 16q-4 31 1 48h296q3 -25 1 -49l-47 -15q-29 -11 -29 -42v-323l4 -154q0 -42 21 -48z" />
    <glyph glyph-name="hcircumflex" unicode="&#x125;" horiz-adv-x="720" 
d="M22 780l-30 52q109 68 191 146q70 -64 177 -137l-39 -61q-93 40 -151 81q-79 -50 -148 -81zM695 58q0 -41 -6 -58h-271q-5 32 -4 56l38 17q23 11 23 45l3 156v64q0 64 -16 92t-73 28q-77 0 -142 -28v-156l3 -158q0 -33 17 -40l59 -18q0 -39 -6 -58h-283q-4 16 -4 53
l48 18q28 9 28 50l3 153v406h-87v63q99 22 181 22q21 0 30 -8.5t9 -26.5v-241q93 69 190 69q42 0 73 -5.5t50 -18.5t31 -26.5t17 -37.5t6.5 -43t1.5 -50v-103l3 -173q0 -24 16 -28z" />
    <glyph glyph-name="Hbar" unicode="&#x126;" horiz-adv-x="870" 
d="M38 0q-5 27 -5 52l50 19q37 15 37 62l2 145v202h-80v70h80v40q0 40 -33 51l-52 18q0 32 4 48h297q5 -17 5 -49l-50 -15q-18 -5 -25.5 -16.5t-7.5 -34.5v-42h342v39q0 43 -37 54l-47 16q-4 31 1 48h296q3 -25 1 -49l-47 -15q-29 -11 -29 -42v-51h78v-70h-78v-202l4 -154
q0 -42 21 -48l71 -21q0 -39 -6 -55h-319q-5 23 -5 53l55 20q39 13 39 62l2 143v36h-342v-36l4 -164q0 -20 7.5 -28.5t28.5 -13.5l71 -18q0 -36 -6 -54h-327zM260 395h342v85h-342v-85z" />
    <glyph glyph-name="hbar" unicode="&#x127;" horiz-adv-x="720" 
d="M695 58q0 -41 -6 -58h-271q-5 32 -4 56l38 17q23 11 23 45l3 156v65q0 63 -16 91t-73 28q-79 0 -142 -27v-157l3 -158q0 -33 17 -40l59 -18q0 -39 -6 -58h-283q-4 16 -4 53l48 18q28 9 28 50l3 153v339h-90v79h90v72l133 -1v-71h196v-79h-196v-123q93 69 190 69
q42 0 73 -5.5t50 -18.5t31 -26.5t17 -37.5t6.5 -43t1.5 -50v-104l3 -173q0 -24 16 -28z" />
    <glyph glyph-name="Itilde" unicode="&#x128;" horiz-adv-x="381" 
d="M353 61q0 -38 -7 -61h-314q-3 12 -3 54l43 15q43 16 44 61l2 148v294q0 47 -50 66l-38 16q-2 36 2 53h309q3 -35 -1 -59l-43 -10q-39 -10 -39 -63v-297l2 -170q1 -16 6 -22t19 -10zM267 753q-22 0 -93 20t-87 20q-36 0 -70 -24l-28 35q22 27 33.5 39t37 27t52.5 15
q28 0 98 -19t80 -19q49 0 66 20l30 -33q-16 -24 -28.5 -38.5t-37 -28.5t-53.5 -14z" />
    <glyph glyph-name="itilde" unicode="&#x129;" horiz-adv-x="373" 
d="M349 58q0 -39 -6 -58h-310q-4 19 -4 56l61 19q27 7 27 44l3 154v199h-92v65q95 21 181 21q25 0 36 -9t11 -34v-242l2 -161q1 -32 17 -36zM377 732q-3 -3 -11 -13.5t-11.5 -14.5l-11.5 -13t-13.5 -13l-14 -10.5t-17 -9.5t-19 -5t-21.5 -2q-21 0 -89 20t-84 20
q-39 0 -70 -24l-28 35l34.5 39.5t36 26t53.5 15.5q28 0 93.5 -19t76.5 -19q19 0 35.5 5t23.5 10l7 5z" />
    <glyph glyph-name="Imacron" unicode="&#x12a;" horiz-adv-x="381" 
d="M353 61q0 -38 -7 -61h-314q-3 12 -3 54l43 15q43 16 44 61l2 148v294q0 47 -50 66l-38 16q-2 36 2 53h309q3 -35 -1 -59l-43 -10q-39 -10 -39 -63v-297l2 -170q1 -16 6 -22t19 -10zM338 773h-298v87h298v-87z" />
    <glyph glyph-name="imacron" unicode="&#x12b;" horiz-adv-x="373" 
d="M349 58q0 -39 -6 -58h-310q-4 19 -4 56l61 19q27 7 27 44l3 154v199h-92v65q95 21 181 21q25 0 36 -9t11 -34v-242l2 -161q1 -32 17 -36zM325 686h-303v81h303v-81z" />
    <glyph glyph-name="Ibreve" unicode="&#x12c;" horiz-adv-x="381" 
d="M353 61q0 -38 -7 -61h-314q-3 12 -3 54l43 15q43 16 44 61l2 148v294q0 47 -50 66l-38 16q-2 36 2 53h309q3 -35 -1 -59l-43 -10q-39 -10 -39 -63v-297l2 -170q1 -16 6 -22t19 -10zM192 748q-60 0 -106 28t-65 61l53 50q58 -56 127 -56t118 52l34 -30q-17 -37 -58.5 -71
t-102.5 -34z" />
    <glyph glyph-name="ibreve" unicode="&#x12d;" horiz-adv-x="373" 
d="M349 58q0 -39 -6 -58h-310q-4 19 -4 56l61 19q27 7 27 44l3 154v199h-92v65q95 21 181 21q25 0 36 -9t11 -34v-242l2 -161q1 -32 17 -36zM312 796l33 -30q-17 -38 -59 -74.5t-107 -36.5q-59 0 -103.5 28.5t-64.5 62.5l56 54q57 -57 127 -57t118 53z" />
    <glyph glyph-name="Iogonek" unicode="&#x12e;" horiz-adv-x="381" 
d="M169 -178l19 -60q-43 -27 -118 -27q-62 0 -97.5 30.5t-35.5 79.5q0 64 33 108.5t92 87.5q22 14 37.5 40t16.5 49l2 148v294q0 47 -50 66l-38 16q-2 36 2 53h309q3 -35 -1 -59l-43 -10q-39 -10 -39 -63v-297l2 -170q1 -16 5.5 -22t18.5 -10l69 -15q0 -38 -7 -61h-136
q-73 0 -120.5 -33t-47.5 -95q1 -32 18 -49.5t43 -17.5q36 0 66 17z" />
    <glyph glyph-name="iogonek" unicode="&#x12f;" horiz-adv-x="373" 
d="M164 -178l19 -60q-43 -27 -118 -27q-62 0 -97.5 30.5t-35.5 79.5q0 61 38 111.5t99 80.5q47 23 48 87l3 149v198h-92v66q95 21 181 21q25 0 36 -9t11 -34v-242l2 -161q1 -32 17 -36l74 -18q0 -39 -6 -58h-157q-69 0 -109 -36t-40 -92q1 -32 18 -49.5t43 -17.5q36 0 66 17
zM274 724q0 -11 -37.5 -49.5t-51.5 -38.5t-51 37.5t-37 50.5q0 15 37 51.5t51 36.5q12 0 50.5 -37.5t38.5 -50.5z" />
    <glyph glyph-name="Idotaccent" unicode="&#x130;" horiz-adv-x="381" 
d="M353 61q0 -38 -7 -61h-314q-3 12 -3 54l43 15q43 16 44 61l2 148v294q0 47 -50 66l-38 16q-2 36 2 53h309q3 -35 -1 -59l-43 -10q-39 -10 -39 -63v-297l2 -170q1 -16 6 -22t19 -10zM270 833q0 -11 -36 -48t-49 -37t-48.5 36.5t-35.5 48.5q0 15 35.5 50t48.5 35
q12 0 48.5 -36t36.5 -49z" />
    <glyph glyph-name="dotlessi" unicode="&#x131;" horiz-adv-x="373" 
d="M349 58q0 -39 -6 -58h-310q-4 19 -4 56l61 19q27 7 27 44l3 154v199h-92v65q95 21 181 21q25 0 36 -9t11 -34v-242l2 -161q1 -32 17 -36z" />
    <glyph glyph-name="IJ" unicode="&#x132;" horiz-adv-x="757" 
d="M353 61q0 -38 -7 -61h-314q-3 12 -3 54l43 15q43 16 44 61l2 148v294q0 47 -50 66l-38 16q-2 36 2 53h309q3 -35 -1 -59l-43 -10q-39 -10 -39 -63v-297l2 -170q1 -16 6 -22t19 -10zM723 651l-48 -12q-24 -6 -31 -14t-7 -30v-501q0 -53 -19.5 -97t-57 -77t-74 -55
t-86.5 -45l-44 78q86 53 113.5 99t27.5 149v419q0 57 -48 74l-44 15q0 38 4 53h311q5 -35 3 -56z" />
    <glyph glyph-name="ij" unicode="&#x133;" horiz-adv-x="749" 
d="M33 0q-4 19 -4 56l61 19q27 7 27 44l3 154v197h-92v65q99 22 181 22q25 0 36 -9.5t11 -34.5v-240l2 -161q1 -32 17 -36l74 -18q0 -39 -6 -58h-310zM185 636q-14 0 -51 37.5t-37 50.5q0 15 37 51.5t51 36.5q12 0 50.5 -37.5t38.5 -50.5q0 -11 -37.5 -49.5t-51.5 -38.5z
M418 -220q-53 0 -89 17l32 107q34 -18 76 -18q35 0 50.5 23t15.5 77v484h-89v65q99 22 179 22q24 0 35 -9.5t11 -34.5v-240l1 -224q1 -103 -72.5 -186t-149.5 -83zM570 636q-14 0 -50.5 37.5t-36.5 51.5q0 15 36.5 51.5t50.5 36.5q13 0 51 -37.5t38 -50.5q0 -11 -37.5 -50
t-51.5 -39z" />
    <glyph glyph-name="Jcircumflex" unicode="&#x134;" horiz-adv-x="376" 
d="M36 733l-30 52q109 68 191 146q70 -64 177 -137l-39 -61q-93 40 -151 81q-79 -50 -148 -81zM344 651l-48 -12q-24 -6 -31 -14t-7 -30v-501q0 -53 -19.5 -97t-57 -77t-74 -55t-86.5 -45l-44 78q86 53 113.5 99t27.5 149v419q0 57 -48 74l-44 15q0 38 4 53h311q5 -35 3 -56
z" />
    <glyph glyph-name="jcircumflex" unicode="&#x135;" horiz-adv-x="367" 
d="M31 613l-39 47q100 77 193 184q107 -123 180 -177l-48 -54q-69 41 -144 108q-60 -51 -142 -108zM41 -220q-53 0 -89 17l32 107q34 -18 76 -18q35 0 50.5 23t15.5 77v485h-89v66q95 21 179 21q25 0 35.5 -9t10.5 -34v-242l2 -224q0 -104 -73.5 -186.5t-149.5 -82.5z" />
    <glyph glyph-name="Kcommaaccent" unicode="&#x136;" horiz-adv-x="752" 
d="M737 -16q-153 3 -224 83l-250 272v-58l2 -171q1 -16 5 -22.5t17 -9.5l63 -17q0 -41 -6 -61h-312q-3 19 -3 54l48 15q18 6 30.5 22.5t13.5 38.5l2 148v298q0 21 -13 37t-29 23l-46 18q-2 31 3 53h308q3 -34 -1 -57l-46 -14q-36 -11 -36 -60v-212l218 204q17 14 17 33
q0 28 -18 35l-36 15q0 40 4 56h264v-47l-315 -271l183 -189q98 -102 172 -145zM361 -63l111 -5q-10 -113 -70 -239l-67 11q27 114 26 233z" />
    <glyph glyph-name="kcommaaccent" unicode="&#x137;" horiz-adv-x="644" 
d="M641 49l-15 -70q-87 5 -144.5 33.5t-105.5 93.5l-122 165l2 -145q2 -40 21 -52l30 -20q0 -35 -6 -54h-268q-4 16 -4 53l57 18q28 9 28 49l3 154v404h-90v65q96 21 179 21q48 0 48 -44v-403v-27l156 143q14 11 14 26q0 20 -16 25l-36 17q0 34 3 45h218v-47l-210 -180
l113 -146q80 -100 145 -124zM303 -63l111 -5q-10 -113 -70 -239l-67 11q27 114 26 233z" />
    <glyph glyph-name="Lacute" unicode="&#x139;" horiz-adv-x="617" 
d="M114 742l-18 64q162 56 261 112l43 -96q-107 -45 -286 -80zM606 199l-32 -199h-542q-4 23 -4 56l47 13q18 6 30.5 21t13.5 36l3 151v299q0 21 -13 37t-30 23l-46 18q0 37 4 53h307q3 -35 -1 -59l-44 -11q-37 -9 -37 -48v-311l4 -196l153 9q40 2 73.5 39t49.5 80z" />
    <glyph glyph-name="lacute" unicode="&#x13a;" horiz-adv-x="368" 
d="M88 786l-18 64q162 56 261 112l43 -96q-107 -45 -286 -80zM351 58q0 -38 -5 -58h-309q-4 16 -4 53l57 17q28 9 28 46l4 158v404h-90v65q88 21 179 21q24 0 35.5 -10t11.5 -34v-446l3 -163q2 -32 14 -35z" />
    <glyph glyph-name="Lcommaaccent" unicode="&#x13b;" horiz-adv-x="617" 
d="M265 -63l111 -5q-10 -113 -70 -239l-67 11q27 114 26 233zM606 199l-32 -199h-542q-4 23 -4 56l47 13q18 6 30.5 21t13.5 36l3 151v299q0 21 -13 37t-30 23l-46 18q0 37 4 53h307q3 -35 -1 -59l-44 -11q-37 -9 -37 -48v-311l4 -196l153 9q40 2 73.5 39t49.5 80z" />
    <glyph glyph-name="lcommaaccent" unicode="&#x13c;" horiz-adv-x="368" 
d="M138 -63l111 -5q-10 -113 -70 -239l-67 11q27 114 26 233zM351 58q0 -38 -5 -58h-309q-4 16 -4 53l57 17q28 9 28 46l4 158v404h-90v65q88 21 179 21q24 0 35.5 -10t11.5 -34v-446l3 -163q2 -32 14 -35z" />
    <glyph glyph-name="Lcaron" unicode="&#x13d;" horiz-adv-x="617" 
d="M440 841l111 -5q-10 -113 -70 -239l-67 11q27 114 26 233zM606 199l-32 -199h-542q-4 23 -4 56l47 13q18 6 30.5 21t13.5 36l3 151v299q0 21 -13 37t-30 23l-46 18q0 37 4 53h307q3 -35 -1 -59l-44 -11q-37 -9 -37 -48v-311l4 -196l153 9q40 2 73.5 39t49.5 80z" />
    <glyph glyph-name="lcaron" unicode="&#x13e;" horiz-adv-x="436" 
d="M342 839l111 -5q-10 -113 -70 -239l-67 11q27 114 26 233zM351 58q0 -38 -5 -58h-309q-4 16 -4 53l57 17q28 9 28 46l4 158v404h-90v65q88 21 179 21q24 0 35.5 -10t11.5 -34v-446l3 -163q2 -32 14 -35z" />
    <glyph glyph-name="Ldot" unicode="&#x13f;" horiz-adv-x="617" 
d="M514 319q-14 0 -51 37t-37 51t37 50.5t51 36.5t50 -36.5t36 -50.5q0 -13 -35.5 -50.5t-50.5 -37.5zM606 199l-32 -199h-542q-4 23 -4 56l47 13q18 6 30.5 21t13.5 36l3 151v299q0 21 -13 37t-30 23l-46 18q0 37 4 53h307q3 -35 -1 -59l-44 -11q-37 -9 -37 -48v-311
l4 -196l153 9q40 2 73.5 39t49.5 80z" />
    <glyph glyph-name="ldot" unicode="&#x140;" horiz-adv-x="491" 
d="M351 58q0 -38 -5 -58h-309q-4 16 -4 53l57 17q28 9 28 46l4 158v404h-90v65q88 21 179 21q24 0 35.5 -10t11.5 -34v-446l3 -163q2 -32 14 -35zM427 269q-15 0 -54.5 39.5t-39.5 54.5q0 14 39.5 53.5t54.5 39.5t54 -39t39 -54q0 -14 -39 -54t-54 -40z" />
    <glyph glyph-name="Lslash" unicode="&#x141;" horiz-adv-x="617" 
d="M604 199l-32 -199h-539q-3 26 -3 56l43 13q18 6 31 21t13 36l3 151v27l-89 -47v65l90 50l-1 204q0 21 -13 37t-30 23l-46 18q0 37 4 53h308q2 -41 -1 -57l-45 -13q-37 -11 -37 -61v-125l179 101v-83l-179 -92v-99l4 -196l153 9q42 4 75 41t48 78z" />
    <glyph glyph-name="lslash" unicode="&#x142;" horiz-adv-x="368" 
d="M352 430l-94 -49v-107l2 -160q1 -14 1.5 -19t4.5 -11t13 -8l69 -18q0 -39 -6 -58h-302q-4 22 -3 53l54 17q26 9 26 46l4 158v35l-87 -46v65l87 49v301h-90v65q88 21 179 21q48 0 48 -44v-264l94 53v-79z" />
    <glyph glyph-name="Nacute" unicode="&#x143;" horiz-adv-x="845" 
d="M333 742l-18 64q162 56 261 112l43 -96q-107 -45 -286 -80zM819 661l-53 -23q-18 -8 -29.5 -27t-11.5 -42v-563l-109 -32l-396 555h-7l6 -80v-176l3 -155q0 -19 4 -26t20 -12l85 -25q0 -41 -5 -55h-293q-6 29 -4 53l52 15q22 6 34.5 31t13.5 56l2 118v308q0 36 -29 51
l-61 27q0 41 2 48h220l375 -512h7l-8 105v268q0 46 -37 64l-63 27q0 37 4 48h274q4 -30 4 -46z" />
    <glyph glyph-name="nacute" unicode="&#x144;" horiz-adv-x="715" 
d="M479 847l70 -81q-138 -104 -250 -153l-34 52q110 75 214 182zM694 57q0 -41 -7 -57h-267q-5 32 -4 56l33 17q23 13 23 44l2 157v63q0 64 -15.5 92t-72.5 28q-79 0 -139 -28v-155l2 -161q0 -31 15 -37l63 -18q0 -39 -6 -58h-285q-3 22 -3 53l47 18q28 11 28 47l3 156v196
h-87v65q94 21 182 21q21 0 29.5 -8.5t8.5 -27.5v-31q93 69 188 69q50 0 84 -9.5t52.5 -23t28 -40t11.5 -48.5t2 -60v-103l3 -176q1 -23 14 -25z" />
    <glyph glyph-name="Ncommaaccent" unicode="&#x145;" horiz-adv-x="845" 
d="M392 -63l111 -5q-10 -113 -70 -239l-67 11q27 114 26 233zM819 661l-53 -23q-18 -8 -29.5 -27t-11.5 -42v-563l-109 -32l-396 555h-7l6 -80v-176l3 -155q0 -19 4 -26t20 -12l85 -25q0 -41 -5 -55h-293q-6 29 -4 53l52 15q22 6 34.5 31t13.5 56l2 118v308q0 36 -29 51
l-61 27q0 41 2 48h220l375 -512h7l-8 105v268q0 46 -37 64l-63 27q0 37 4 48h274q4 -30 4 -46z" />
    <glyph glyph-name="ncommaaccent" unicode="&#x146;" horiz-adv-x="715" 
d="M320 -63l111 -5q-10 -113 -70 -239l-67 11q27 114 26 233zM694 57q0 -41 -7 -57h-267q-5 32 -4 56l33 17q23 13 23 44l2 157v63q0 64 -15.5 92t-72.5 28q-79 0 -139 -28v-155l2 -161q0 -31 15 -37l63 -18q0 -39 -6 -58h-285q-3 22 -3 53l47 18q28 11 28 47l3 156v196h-87
v65q94 21 182 21q21 0 29.5 -8.5t8.5 -27.5v-31q93 69 188 69q50 0 84 -9.5t52.5 -23t28 -40t11.5 -48.5t2 -60v-103l3 -176q1 -23 14 -25z" />
    <glyph glyph-name="Ncaron" unicode="&#x147;" horiz-adv-x="845" 
d="M581 930l31 -51q-113 -72 -192 -147q-75 71 -177 137l40 61q90 -38 150 -80q78 48 148 80zM819 661l-53 -23q-18 -8 -29.5 -27t-11.5 -42v-563l-109 -32l-396 555h-7l6 -80v-176l3 -155q0 -19 4 -26t20 -12l85 -25q0 -41 -5 -55h-293q-6 29 -4 53l52 15q22 6 34.5 31
t13.5 56l2 118v308q0 36 -29 51l-61 27q0 41 2 48h220l375 -512h7l-8 105v268q0 46 -37 64l-63 27q0 37 4 48h274q4 -30 4 -46z" />
    <glyph glyph-name="ncaron" unicode="&#x148;" horiz-adv-x="715" 
d="M549 787q-99 -78 -193 -184q-107 123 -180 177l48 53q65 -39 144 -107q76 62 142 107zM694 57q0 -41 -7 -57h-267q-5 32 -4 56l33 17q23 13 23 44l2 157v63q0 64 -15.5 92t-72.5 28q-79 0 -139 -28v-155l2 -161q0 -31 15 -37l63 -18q0 -39 -6 -58h-285q-3 22 -3 53l47 18
q28 11 28 47l3 156v196h-87v65q94 21 182 21q21 0 29.5 -8.5t8.5 -27.5v-31q93 69 188 69q50 0 84 -9.5t52.5 -23t28 -40t11.5 -48.5t2 -60v-103l3 -176q1 -23 14 -25z" />
    <glyph glyph-name="napostrophe" unicode="&#x149;" horiz-adv-x="812" 
d="M130 648q0 -58 -46 -119.5t-106 -97.5l-40 36q67 69 73 110q-20 15 -43.5 43t-23.5 38q0 19 37.5 55.5t54.5 36.5q23 0 58.5 -38.5t35.5 -63.5zM790 57q0 -41 -7 -57h-267q-5 32 -4 56l33 17q23 13 23 44l2 157v63q0 64 -15.5 92t-72.5 28q-79 0 -139 -28v-155l2 -161
q0 -31 15 -37l63 -18q0 -39 -6 -58h-285q-3 22 -3 53l47 18q28 11 28 47l3 156v196h-87v65q94 21 182 21q21 0 29.5 -8.5t8.5 -27.5v-31q93 69 188 69q50 0 84 -9.5t52.5 -23t28 -40t11.5 -48.5t2 -60v-103l3 -176q1 -23 14 -25z" />
    <glyph glyph-name="Eng" unicode="&#x14a;" horiz-adv-x="845" 
d="M819 661l-53 -23q-17 -8 -29 -27.5t-12 -41.5v-355l5 -205q2 -99 -52.5 -160t-133.5 -61q-39 0 -60 8l9 77q34 -8 63 -8q50 0 65.5 26.5t15.5 95.5l-29 -10l-388 552h-7l6 -80v-176l3 -155q0 -19 4 -26t20 -12l85 -25q0 -41 -5 -55h-293q-6 29 -4 53l52 15q21 6 34 32.5
t14 54.5l2 118v308q0 36 -29 51l-61 27q0 41 2 48h220l375 -519h7l-8 105v275q0 19 -11 37.5t-26 26.5l-63 27q0 37 4 48h274q4 -30 4 -46z" />
    <glyph glyph-name="eng" unicode="&#x14b;" horiz-adv-x="705" 
d="M428 -216q-63 0 -109 14l14 86q42 -7 68 -7q41 0 57 21.5t16 79.5v361q0 64 -15.5 91.5t-72.5 27.5q-76 0 -139 -27v-157l2 -161q0 -31 15 -37l63 -18q0 -39 -6 -58h-285q-3 22 -3 53l47 18q28 11 28 47l3 156v197h-87v65q94 21 182 21q38 0 38 -35v-32q93 69 188 69
q50 0 84 -9.5t52.5 -23t28 -40t11.5 -48.5t2 -60v-152l5 -199q1 -58 -20 -113t-65 -92.5t-102 -37.5z" />
    <glyph glyph-name="Omacron" unicode="&#x14c;" horiz-adv-x="830" 
d="M570 773h-298v87h298v-87zM787 382q0 -167 -105 -280.5t-281 -113.5q-175 0 -266.5 87t-91.5 248q0 169 109 282t280 113q178 0 266.5 -89t88.5 -247zM629 358q0 122 -51.5 195.5t-160.5 73.5q-113 0 -164 -76t-51 -199q0 -121 49.5 -196t158.5 -75q219 0 219 277z" />
    <glyph glyph-name="omacron" unicode="&#x14d;" horiz-adv-x="613" 
d="M457 686h-303v81h303v-81zM577 277q0 -112 -81 -200t-196 -88q-127 0 -196 69t-69 208q0 113 81 203t193 90q268 0 268 -282zM430 274q0 199 -132 199q-118 0 -118 -199q0 -195 136 -195q65 0 89.5 52.5t24.5 142.5z" />
    <glyph glyph-name="Obreve" unicode="&#x14e;" horiz-adv-x="830" 
d="M787 382q0 -167 -105 -280.5t-281 -113.5q-175 0 -266.5 87t-91.5 248q0 169 109 282t280 113q178 0 266.5 -89t88.5 -247zM629 358q0 122 -51.5 195.5t-160.5 73.5q-113 0 -164 -76t-51 -199q0 -121 49.5 -196t158.5 -75q219 0 219 277zM420 748q-60 0 -106 28t-65 61
l53 50q58 -56 127 -56t118 52l34 -30q-17 -37 -58.5 -71t-102.5 -34z" />
    <glyph glyph-name="obreve" unicode="&#x14f;" horiz-adv-x="613" 
d="M577 277q0 -112 -81 -200t-196 -88q-127 0 -196 69t-69 208q0 113 81 203t193 90q268 0 268 -282zM430 274q0 199 -132 199q-118 0 -118 -199q0 -195 136 -195q65 0 89.5 52.5t24.5 142.5zM440 796l33 -30q-17 -38 -59 -74.5t-107 -36.5q-59 0 -103.5 28.5t-64.5 62.5
l56 54q57 -57 127 -57t118 53z" />
    <glyph glyph-name="Ohungarumlaut" unicode="&#x150;" horiz-adv-x="830" 
d="M266 734l-46 49q113 113 166 193l82 -63q-65 -79 -202 -179zM460 741l-18 65q151 47 259 105l43 -94q-101 -47 -284 -76zM787 382q0 -167 -105 -280.5t-281 -113.5q-175 0 -266.5 87t-91.5 248q0 169 109 282t280 113q178 0 266.5 -89t88.5 -247zM629 358
q0 122 -51.5 195.5t-160.5 73.5q-113 0 -164 -76t-51 -199q0 -121 49.5 -196t158.5 -75q219 0 219 277z" />
    <glyph glyph-name="ohungarumlaut" unicode="&#x151;" horiz-adv-x="613" 
d="M172 599l-43 44q98 103 170 205l77 -68q-84 -96 -204 -181zM405 597l-40 46q102 86 183 191l74 -76q-98 -93 -217 -161zM577 277q0 -112 -81 -200t-196 -88q-127 0 -196 69t-69 208q0 113 81 203t193 90q268 0 268 -282zM430 274q0 199 -132 199q-118 0 -118 -199
q0 -195 136 -195q65 0 89.5 52.5t24.5 142.5z" />
    <glyph glyph-name="OE" unicode="&#x152;" horiz-adv-x="1067" 
d="M1034 171l-24 -171h-497q-49 -12 -108 -12q-172 0 -268 98.5t-96 262.5q0 167 105 268t278 101q54 0 106 -11h459v-164q-27 -8 -62 -4q-10 46 -29.5 64t-53.5 18l-178 5v-230l283 5v-92l-283 5v-36l5 -197l158 4q111 3 144 99zM526 279v298q0 13 -3 22q-44 28 -108 28
q-113 0 -164 -74t-51 -197q0 -122 49.5 -198.5t158.5 -76.5q92 0 116 45z" />
    <glyph glyph-name="oe" unicode="&#x153;" horiz-adv-x="967" 
d="M934 253h-359q4 -91 47 -121.5t124 -30.5q85 0 154 16l23 -75q-87 -50 -201 -50q-88 0 -145.5 18t-90.5 63q-76 -81 -186 -81q-127 0 -196 69t-69 208q0 112 81 200t193 88q143 0 208 -86q71 86 187 86q119 0 174.5 -71.5t55.5 -191.5v-41zM788 320q1 74 -22.5 117
t-69.5 43q-57 0 -89.5 -43.5t-34.5 -116.5h216zM432 280q0 192 -134 192q-119 0 -119 -204q0 -188 137 -188q116 0 116 200z" />
    <glyph glyph-name="Racute" unicode="&#x154;" horiz-adv-x="762" 
d="M254 742l-18 64q162 56 261 112l43 -96q-107 -45 -286 -80zM781 45l-7 -69q-155 -9 -250 79q-75 70 -153 235q-8 -2 -33 -2h-77l3 -175q0 -27 20 -32l69 -20q0 -50 -4 -61h-315q-5 34 -3 55l48 14q37 10 39 62l3 142v319q0 27 -23 36l-69 26q-1 8 0.5 26t4.5 27h357
q55 0 100.5 -11t81.5 -33.5t56.5 -62.5t20.5 -93q0 -58 -33 -109.5t-93 -77.5q58 -110 110 -171q75 -87 147 -104zM494 495q0 132 -170 132l-64 1v-264h81q81 1 117 32t36 99z" />
    <glyph glyph-name="racute" unicode="&#x155;" horiz-adv-x="494" 
d="M381 847l70 -81q-138 -104 -250 -153l-34 52q110 75 214 182zM491 535l-39 -120q-40 22 -88 22q-77 0 -112 -28v-134l4 -162q0 -13 3 -18t11 -7l119 -25q0 -48 -6 -63h-347q-5 27 -5 55l45 17q20 7 29 19t10 37l2 147v196h-90v65q112 21 177 21q46 0 46 -39v-40
q22 32 60.5 55.5t83.5 23.5q57 0 97 -22z" />
    <glyph glyph-name="Rcommaaccent" unicode="&#x156;" horiz-adv-x="762" 
d="M371 -63l111 -5q-10 -113 -70 -239l-67 11q27 114 26 233zM781 45l-7 -69q-155 -9 -250 79q-75 70 -153 235q-8 -2 -33 -2h-77l3 -175q0 -27 20 -32l69 -20q0 -50 -4 -61h-315q-5 34 -3 55l48 14q37 10 39 62l3 142v319q0 27 -23 36l-69 26q-1 8 0.5 26t4.5 27h357
q55 0 100.5 -11t81.5 -33.5t56.5 -62.5t20.5 -93q0 -58 -33 -109.5t-93 -77.5q58 -110 110 -171q75 -87 147 -104zM494 495q0 132 -170 132l-64 1v-264h81q81 1 117 32t36 99z" />
    <glyph glyph-name="rcommaaccent" unicode="&#x157;" horiz-adv-x="494" 
d="M137 -63l111 -5q-10 -113 -70 -239l-67 11q27 114 26 233zM491 535l-39 -120q-40 22 -88 22q-77 0 -112 -28v-134l4 -162q0 -13 3 -18t11 -7l119 -25q0 -48 -6 -63h-347q-5 27 -5 55l45 17q20 7 29 19t10 37l2 147v196h-90v65q112 21 177 21q46 0 46 -39v-40
q22 32 60.5 55.5t83.5 23.5q57 0 97 -22z" />
    <glyph glyph-name="Rcaron" unicode="&#x158;" horiz-adv-x="762" 
d="M500 930l31 -51q-113 -72 -192 -147q-75 71 -177 137l40 61q90 -38 150 -80q78 48 148 80zM781 45l-7 -69q-155 -9 -250 79q-75 70 -153 235q-8 -2 -33 -2h-77l3 -175q0 -27 20 -32l69 -20q0 -50 -4 -61h-315q-5 34 -3 55l48 14q37 10 39 62l3 142v319q0 27 -23 36
l-69 26q-1 8 0.5 26t4.5 27h357q55 0 100.5 -11t81.5 -33.5t56.5 -62.5t20.5 -93q0 -58 -33 -109.5t-93 -77.5q58 -110 110 -171q75 -87 147 -104zM494 495q0 132 -170 132l-64 1v-264h81q81 1 117 32t36 99z" />
    <glyph glyph-name="rcaron" unicode="&#x159;" horiz-adv-x="494" 
d="M473 787q-99 -78 -193 -184q-107 123 -180 177l48 53q65 -39 144 -107q76 62 142 107zM491 535l-39 -120q-40 22 -88 22q-77 0 -112 -28v-134l4 -162q0 -13 3 -18t11 -7l119 -25q0 -48 -6 -63h-347q-5 27 -5 55l45 17q20 7 29 19t10 37l2 147v196h-90v65q112 21 177 21
q46 0 46 -39v-40q22 32 60.5 55.5t83.5 23.5q57 0 97 -22z" />
    <glyph glyph-name="Sacute" unicode="&#x15a;" horiz-adv-x="612" 
d="M235 742l-18 64q162 56 261 112l43 -96q-107 -45 -286 -80zM572 207q0 -74 -46 -125t-110 -72t-137 -21q-145 0 -242 53l15 176h64q7 -71 57.5 -110t126.5 -39q49 0 87.5 22.5t38.5 67.5t-71 80q-19 10 -77 34q-37 16 -60.5 27.5t-55.5 32.5t-50.5 42t-32 52t-13.5 67
q0 91 78.5 156t173.5 65q134 0 225 -44v-156h-56q-13 56 -60 86.5t-107 30.5q-55 0 -88.5 -21.5t-33.5 -67.5q0 -19 11 -34.5t36.5 -31t45.5 -25t61 -26.5q50 -21 80 -36.5t67 -42.5t55 -62t18 -78z" />
    <glyph glyph-name="sacute" unicode="&#x15b;" horiz-adv-x="510" 
d="M376 847l70 -81q-138 -104 -250 -153l-34 52q110 75 214 182zM470 165q0 -48 -21.5 -84t-56.5 -55.5t-73.5 -28.5t-80.5 -9q-101 0 -200 43l9 149l55 -1q7 -54 44 -83.5t94 -29.5q93 0 93 58q0 14 -7 25t-27.5 23t-34.5 18.5t-50 21.5q-70 29 -111.5 68t-41.5 109
q0 82 60.5 125.5t150.5 43.5q94 0 187 -41l-18 -140l-50 6q-21 95 -132 95q-37 0 -56.5 -16t-19.5 -39q0 -7 2 -13t6.5 -12t8.5 -10.5t12.5 -9.5l14.5 -8.5t17.5 -8.5l18.5 -8l20.5 -8.5l20.5 -8.5q37 -16 60 -28t51 -33t41.5 -48.5t13.5 -61.5z" />
    <glyph glyph-name="Scircumflex" unicode="&#x15c;" horiz-adv-x="612" 
d="M175 733l-30 52q109 68 191 146q70 -64 177 -137l-39 -61q-93 40 -151 81q-79 -50 -148 -81zM572 207q0 -74 -46 -125t-110 -72t-137 -21q-145 0 -242 53l15 176h64q7 -71 57.5 -110t126.5 -39q49 0 87.5 22.5t38.5 67.5t-71 80q-19 10 -77 34q-37 16 -60.5 27.5
t-55.5 32.5t-50.5 42t-32 52t-13.5 67q0 91 78.5 156t173.5 65q134 0 225 -44v-156h-56q-13 56 -60 86.5t-107 30.5q-55 0 -88.5 -21.5t-33.5 -67.5q0 -19 11 -34.5t36.5 -31t45.5 -25t61 -26.5q50 -21 80 -36.5t67 -42.5t55 -62t18 -78z" />
    <glyph glyph-name="scircumflex" unicode="&#x15d;" horiz-adv-x="510" 
d="M122 613l-39 47q100 77 193 184q107 -123 180 -177l-48 -54q-69 41 -144 108q-60 -51 -142 -108zM470 165q0 -48 -21.5 -84t-56.5 -55.5t-73.5 -28.5t-80.5 -9q-101 0 -200 43l9 149l55 -1q7 -54 44 -83.5t94 -29.5q93 0 93 58q0 14 -7 25t-27.5 23t-34.5 18.5t-50 21.5
q-70 29 -111.5 68t-41.5 109q0 82 60.5 125.5t150.5 43.5q94 0 187 -41l-18 -140l-50 6q-21 95 -132 95q-37 0 -56.5 -16t-19.5 -39q0 -7 2 -13t6.5 -12t8.5 -10.5t12.5 -9.5l14.5 -8.5t17.5 -8.5l18.5 -8l20.5 -8.5l20.5 -8.5q37 -16 60 -28t51 -33t41.5 -48.5t13.5 -61.5z
" />
    <glyph glyph-name="Scedilla" unicode="&#x15e;" horiz-adv-x="612" 
d="M429 -168q0 -47 -43.5 -86.5t-96.5 -39.5t-101 34l39 71q42 -29 91 -29q43 0 43 24q0 14 -10 24.5t-32.5 18t-42.5 12t-55 10.5l50 118q-142 2 -234 53l15 176h64q7 -71 57.5 -110t126.5 -39q49 0 87.5 22.5t38.5 67.5t-71 80q-19 10 -77 34q-37 16 -60.5 27.5
t-55.5 32.5t-50.5 42t-32 52t-13.5 67q0 91 78.5 156t173.5 65q134 0 225 -44v-156h-56q-13 56 -60 86.5t-107 30.5q-55 0 -88.5 -21.5t-33.5 -67.5q0 -19 11 -34.5t36.5 -31t45.5 -25t61 -26.5q50 -21 80 -36.5t67 -42.5t55 -62t18 -78q0 -92 -66 -146t-164 -67l-32 -59
q62 -15 90.5 -38t28.5 -65z" />
    <glyph glyph-name="scedilla" unicode="&#x15f;" horiz-adv-x="510" 
d="M371 -168q0 -47 -43.5 -86.5t-96.5 -39.5t-101 34l39 71q42 -29 91 -29q43 0 43 24q0 14 -10 24.5t-32.5 18t-42.5 12t-55 10.5l50 118q-87 4 -175 42l9 149l55 -1q7 -54 44 -83.5t94 -29.5q93 0 93 58q0 14 -7 25t-27.5 23t-34.5 18.5t-50 21.5q-70 29 -111.5 68
t-41.5 109q0 82 60.5 125.5t150.5 43.5q94 0 187 -41l-18 -140l-50 6q-21 95 -132 95q-37 0 -56.5 -16t-19.5 -39q0 -7 2 -13t6.5 -12t8.5 -10.5t12.5 -9.5l14.5 -8.5t17.5 -8.5l18.5 -8l20.5 -8.5l20.5 -8.5q37 -16 60 -28t51 -33t41.5 -48.5t13.5 -61.5
q0 -80 -54.5 -122.5t-133.5 -51.5l-30 -56q62 -15 90.5 -38t28.5 -65z" />
    <glyph glyph-name="Scaron" unicode="&#x160;" horiz-adv-x="612" 
d="M481 930l31 -51q-113 -72 -192 -147q-75 71 -177 137l40 61q90 -38 150 -80q78 48 148 80zM572 207q0 -74 -46 -125t-110 -72t-137 -21q-145 0 -242 53l15 176h64q7 -71 57.5 -110t126.5 -39q49 0 87.5 22.5t38.5 67.5t-71 80q-19 10 -77 34q-37 16 -60.5 27.5
t-55.5 32.5t-50.5 42t-32 52t-13.5 67q0 91 78.5 156t173.5 65q134 0 225 -44v-156h-56q-13 56 -60 86.5t-107 30.5q-55 0 -88.5 -21.5t-33.5 -67.5q0 -19 11 -34.5t36.5 -31t45.5 -25t61 -26.5q50 -21 80 -36.5t67 -42.5t55 -62t18 -78z" />
    <glyph glyph-name="scaron" unicode="&#x161;" horiz-adv-x="510" 
d="M454 787q-99 -78 -193 -184q-107 123 -180 177l48 53q65 -39 144 -107q76 62 142 107zM470 165q0 -48 -21.5 -84t-56.5 -55.5t-73.5 -28.5t-80.5 -9q-101 0 -200 43l9 149l55 -1q7 -54 44 -83.5t94 -29.5q93 0 93 58q0 14 -7 25t-27.5 23t-34.5 18.5t-50 21.5
q-70 29 -111.5 68t-41.5 109q0 82 60.5 125.5t150.5 43.5q94 0 187 -41l-18 -140l-50 6q-21 95 -132 95q-37 0 -56.5 -16t-19.5 -39q0 -7 2 -13t6.5 -12t8.5 -10.5t12.5 -9.5l14.5 -8.5t17.5 -8.5l18.5 -8l20.5 -8.5l20.5 -8.5q37 -16 60 -28t51 -33t41.5 -48.5t13.5 -61.5z
" />
    <glyph glyph-name="Tcommaaccent" unicode="&#x162;" horiz-adv-x="681" 
d="M287 -63l111 -5q-10 -113 -70 -239l-67 11q27 114 26 233zM677 707v-185q-27 -8 -57 -3q-19 98 -94 102l-116 4v-352l5 -159q0 -19 3.5 -26t17.5 -10l89 -18q0 -45 -4 -60h-359q-6 31 -4 60l68 19q16 5 28 26.5t13 42.5l3 125v352l-125 -4q-64 -3 -83 -102
q-7 -2 -27.5 -1t-30.5 4v185h673z" />
    <glyph glyph-name="tcommaaccent" unicode="&#x163;" horiz-adv-x="466" 
d="M215 -63l111 -5q-10 -113 -70 -239l-67 11q27 114 26 233zM430 114l19 -71q-79 -54 -186 -54q-87 0 -124 38t-36 134l3 298h-80v53l190 146h29v-112h183v-87h-183v-183l4 -113q1 -34 20 -49t61 -15q46 0 100 15z" />
    <glyph glyph-name="tcommaaccent" unicode="&#x21b;" horiz-adv-x="466" 
d="M215 -63l111 -5q-10 -113 -70 -239l-67 11q27 114 26 233zM430 114l19 -71q-79 -54 -186 -54q-87 0 -124 38t-36 134l3 298h-80v53l190 146h29v-112h183v-87h-183v-183l4 -113q1 -34 20 -49t61 -15q46 0 100 15z" />
    <glyph glyph-name="Tcaron" unicode="&#x164;" horiz-adv-x="681" 
d="M498 930l31 -51q-113 -72 -192 -147q-75 71 -177 137l40 61q90 -38 150 -80q78 48 148 80zM677 707v-185q-27 -8 -57 -3q-19 98 -94 102l-116 4v-352l5 -159q0 -19 3.5 -26t17.5 -10l89 -18q0 -45 -4 -60h-359q-6 31 -4 60l68 19q16 5 28 26.5t13 42.5l3 125v352l-125 -4
q-64 -3 -83 -102q-7 -2 -27.5 -1t-30.5 4v185h673z" />
    <glyph glyph-name="tcaron" unicode="&#x165;" horiz-adv-x="466" 
d="M340 862l111 -5q-10 -113 -70 -239l-67 11q27 114 26 233zM430 114l19 -71q-79 -54 -186 -54q-87 0 -124 38t-36 134l3 298h-80v53l190 146h29v-112h183v-87h-183v-183l4 -113q1 -34 20 -49t61 -15q46 0 100 15z" />
    <glyph glyph-name="Tbar" unicode="&#x166;" horiz-adv-x="681" 
d="M677 707v-185q-27 -8 -57 -3q-19 98 -94 102l-116 4v-230h163v-80h-163v-42l5 -159q0 -19 3.5 -26t17.5 -10l89 -18q0 -45 -4 -60h-359q-6 31 -4 60l68 19q16 5 28 26.5t13 42.5l3 125v42h-159v80h159v230l-125 -4q-64 -3 -83 -102q-7 -2 -27.5 -1t-30.5 4v185h673z" />
    <glyph glyph-name="tbar" unicode="&#x167;" horiz-adv-x="466" 
d="M270 -11q-91 0 -129.5 36t-37.5 136l1 101h-67v79h68l1 118h-80v53l190 146h29v-112h183v-87h-183v-118h133v-79h-132l3 -99q1 -37 18.5 -50t63.5 -13t100 13l17 -70q-70 -54 -178 -54z" />
    <glyph glyph-name="Utilde" unicode="&#x168;" horiz-adv-x="815" 
d="M793 652l-50 -16q-9 -3 -13.5 -6t-9 -11.5t-4.5 -22.5v-327q0 -63 -19.5 -113t-50 -80.5t-71.5 -50.5t-80.5 -28t-79.5 -8q-47 0 -85 4.5t-81.5 20.5t-72.5 42t-48.5 74t-19.5 112v339q0 17 -8 32t-21 20l-57 21q0 38 4 53h317q2 -10 2.5 -29.5t-0.5 -28.5l-64 -12
q-26 -5 -26 -32v-343q0 -54 17 -92.5t46 -57.5t59 -27t64 -8q163 0 163 209v287q0 52 -56 68l-43 13q0 49 1 53h283q4 -20 4 -55zM510 753q-22 0 -93 20t-87 20q-36 0 -70 -24l-28 35q22 27 33.5 39t37 27t52.5 15q29 0 98.5 -19t79.5 -19q49 0 66 20l30 -33
q-16 -24 -28.5 -38.5t-37 -28.5t-53.5 -14z" />
    <glyph glyph-name="utilde" unicode="&#x169;" horiz-adv-x="706" 
d="M676 91l10 -58q-80 -40 -148 -40q-80 0 -84 80q-91 -84 -181 -84q-39 0 -68 5.5t-47 18.5t-29 26.5t-16 36t-6.5 40t-1.5 45.5v309h-85v60q117 26 159 26q63 0 63 -55v-219l1 -95q1 -49 14 -72t51 -23q61 0 140 43l4 138v197h-83v60q87 26 155 26q64 0 64 -55v-229
l5 -181h83zM539 732q-3 -3 -11 -13.5t-11.5 -14.5l-11.5 -13t-13.5 -13l-14 -10.5t-17 -9.5t-19 -5t-21.5 -2q-21 0 -89 20t-84 20q-39 0 -70 -24l-28 35l34.5 39.5t36 26t53.5 15.5q28 0 93.5 -19t76.5 -19q19 0 35.5 5t23.5 10l7 5z" />
    <glyph glyph-name="Umacron" unicode="&#x16a;" horiz-adv-x="815" 
d="M793 652l-50 -16q-9 -3 -13.5 -6t-9 -11.5t-4.5 -22.5v-327q0 -63 -19.5 -113t-50 -80.5t-71.5 -50.5t-80.5 -28t-79.5 -8q-47 0 -85 4.5t-81.5 20.5t-72.5 42t-48.5 74t-19.5 112v339q0 17 -8 32t-21 20l-57 21q0 38 4 53h317q2 -10 2.5 -29.5t-0.5 -28.5l-64 -12
q-26 -5 -26 -32v-343q0 -54 17 -92.5t46 -57.5t59 -27t64 -8q163 0 163 209v287q0 52 -56 68l-43 13q0 49 1 53h283q4 -20 4 -55zM575 773h-298v87h298v-87z" />
    <glyph glyph-name="umacron" unicode="&#x16b;" horiz-adv-x="706" 
d="M676 91l10 -58q-80 -40 -148 -40q-80 0 -84 80q-91 -84 -181 -84q-39 0 -68 5.5t-47 18.5t-29 26.5t-16 36t-6.5 40t-1.5 45.5v309h-85v60q117 26 159 26q63 0 63 -55v-219l1 -95q1 -49 14 -72t51 -23q61 0 140 43l4 138v197h-83v60q87 26 155 26q64 0 64 -55v-229
l5 -181h83zM493 686h-303v81h303v-81z" />
    <glyph glyph-name="Ubreve" unicode="&#x16c;" horiz-adv-x="815" 
d="M793 652l-50 -16q-9 -3 -13.5 -6t-9 -11.5t-4.5 -22.5v-327q0 -63 -19.5 -113t-50 -80.5t-71.5 -50.5t-80.5 -28t-79.5 -8q-47 0 -85 4.5t-81.5 20.5t-72.5 42t-48.5 74t-19.5 112v339q0 17 -8 32t-21 20l-57 21q0 38 4 53h317q2 -10 2.5 -29.5t-0.5 -28.5l-64 -12
q-26 -5 -26 -32v-343q0 -54 17 -92.5t46 -57.5t59 -27t64 -8q163 0 163 209v287q0 52 -56 68l-43 13q0 49 1 53h283q4 -20 4 -55zM424 748q-60 0 -106 28t-65 61l53 50q58 -56 127 -56t118 52l34 -30q-17 -37 -58.5 -71t-102.5 -34z" />
    <glyph glyph-name="ubreve" unicode="&#x16d;" horiz-adv-x="706" 
d="M676 91l10 -58q-80 -40 -148 -40q-80 0 -84 80q-91 -84 -181 -84q-39 0 -68 5.5t-47 18.5t-29 26.5t-16 36t-6.5 40t-1.5 45.5v309h-85v60q117 26 159 26q63 0 63 -55v-219l1 -95q1 -49 14 -72t51 -23q61 0 140 43l4 138v197h-83v60q87 26 155 26q64 0 64 -55v-229
l5 -181h83zM466 796l33 -30q-17 -38 -59 -74.5t-107 -36.5q-59 0 -103.5 28.5t-64.5 62.5l56 54q57 -57 127 -57t118 53z" />
    <glyph glyph-name="Uring" unicode="&#x16e;" horiz-adv-x="815" 
d="M415 -11q-47 0 -85 4.5t-81.5 20.5t-72.5 42t-48.5 74t-19.5 112v339q0 17 -8 32t-21 20l-57 21q0 38 4 53l279 -1q5 -27 3 -57l-28 -7q-25 -5 -25 -37v-343q0 -54 17 -92.5t46 -57.5t59 -27t64 -8q163 0 163 209v347q-61 -16 -95 -16q-17 0 -33.5 2t-41 10.5t-42.5 22
t-31 40.5t-13 63q0 64 56 109.5t122 45.5q45 0 81 -9.5t63.5 -39.5t27.5 -79l-1 -10l-101 -13q0 1 0.5 4.5t1 9.5t0.5 11q0 31 -22 50t-52 19q-33 0 -55.5 -23.5t-22.5 -56.5q0 -40 23.5 -64.5t62.5 -24.5q62 0 184 38v-453q0 -63 -19.5 -113t-50 -80.5t-71.5 -50.5
t-80.5 -28t-79.5 -8z" />
    <glyph glyph-name="uring" unicode="&#x16f;" horiz-adv-x="706" 
d="M410 684l27 -30q-44 -47 -107 -47q-137 0 -137 110q0 56 49 93.5t107 37.5q47 0 83.5 -27.5t46.5 -81.5l-76 -36q-3 40 -20.5 66.5t-50.5 26.5q-31 0 -48.5 -16.5t-17.5 -45.5q0 -35 21 -52.5t53 -17.5q39 0 70 20zM676 91l10 -58q-80 -40 -148 -40q-80 0 -84 80
q-91 -84 -181 -84q-39 0 -68 5.5t-47 18.5t-29 26.5t-16 36t-6.5 40t-1.5 45.5v309h-85v60q117 26 159 26q63 0 63 -55v-219l1 -95q1 -49 14 -72t51 -23q61 0 140 43l4 138v197h-83v60q87 26 155 26q64 0 64 -55v-229l5 -181h83z" />
    <glyph glyph-name="Uhungarumlaut" unicode="&#x170;" horiz-adv-x="815" 
d="M793 652l-50 -16q-9 -3 -13.5 -6t-9 -11.5t-4.5 -22.5v-327q0 -63 -19.5 -113t-50 -80.5t-71.5 -50.5t-80.5 -28t-79.5 -8q-47 0 -85 4.5t-81.5 20.5t-72.5 42t-48.5 74t-19.5 112v339q0 17 -8 32t-21 20l-57 21q0 38 4 53h317q2 -10 2.5 -29.5t-0.5 -28.5l-64 -12
q-26 -5 -26 -32v-343q0 -54 17 -92.5t46 -57.5t59 -27t64 -8q163 0 163 209v287q0 52 -56 68l-43 13q0 49 1 53h283q4 -20 4 -55zM284 734l-46 49q113 113 166 193l82 -63q-65 -79 -202 -179zM478 741l-18 65q151 47 259 105l43 -94q-101 -47 -284 -76z" />
    <glyph glyph-name="uhungarumlaut" unicode="&#x171;" horiz-adv-x="706" 
d="M676 91l10 -58q-80 -40 -148 -40q-80 0 -84 80q-91 -84 -181 -84q-39 0 -68 5.5t-47 18.5t-29 26.5t-16 36t-6.5 40t-1.5 45.5v309h-85v60q117 26 159 26q63 0 63 -55v-219l1 -95q1 -49 14 -72t51 -23q61 0 140 43l4 138v197h-83v60q87 26 155 26q64 0 64 -55v-229
l5 -181h83zM197 599l-43 44q98 103 170 205l77 -68q-84 -96 -204 -181zM430 597l-40 46q102 86 183 191l74 -76q-98 -93 -217 -161z" />
    <glyph glyph-name="Uogonek" unicode="&#x172;" horiz-adv-x="815" 
d="M466 -265q-63 0 -98 30.5t-35 79.5q0 79 85 146q-47 0 -85.5 4.5t-82.5 20t-73 41.5t-49 73.5t-20 111.5v339q0 17 -8 32t-21 20l-57 21q0 38 4 53h317q2 -10 2.5 -29.5t-0.5 -28.5l-64 -12q-26 -5 -26 -32v-343q0 -54 17 -92.5t46 -57.5t59 -27t64 -8q163 0 163 209v287
q0 52 -56 68l-43 13q0 49 1 53h283q4 -20 4 -55l-50 -16q-9 -3 -13.5 -6t-9 -11.5t-4.5 -22.5v-327q0 -193 -185 -262q-93 -58 -93 -135q1 -32 18 -49.5t43 -17.5q36 0 66 17l19 -60q-43 -27 -118 -27z" />
    <glyph glyph-name="uogonek" unicode="&#x173;" horiz-adv-x="706" 
d="M668 -178l19 -60q-43 -27 -118 -27q-63 0 -98 30.5t-35 79.5q0 82 87 150q-65 6 -69 78q-97 -84 -175 -84q-47 0 -80 9.5t-51 23.5t-28 38.5t-12.5 46t-2.5 54.5v310h-85v60q117 26 159 26q63 0 63 -55v-237l1 -78q1 -49 14 -72t51 -23q48 0 140 43l4 138v198h-83v60
q117 26 155 26q64 0 64 -55v-230l5 -181h83l10 -58q-60 -21 -103.5 -64.5t-41.5 -96.5q1 -32 18 -49.5t43 -17.5q36 0 66 17z" />
    <glyph glyph-name="Wcircumflex" unicode="&#x174;" horiz-adv-x="1093" 
d="M412 733l-30 52q109 68 191 146q70 -64 177 -137l-39 -61q-93 40 -151 81q-79 -50 -148 -81zM1103 655l-26 -14q-28 -16 -44 -57l-223 -580l-104 -29l-156 425l-186 -394l-101 -29l-185 614q-7 28 -30 42l-40 24q0 37 4 50h296q4 -30 3 -55l-48 -16q-29 -10 -29 -44
q0 -11 6 -35l109 -395l161 345l-23 71q-11 29 -15 31q-3 7 -20.5 25.5t-20.5 22.5q0 39 2 50h275q5 -14 5 -55l-37 -16q-30 -14 -30 -47q0 -15 6 -32l134 -396l137 389q7 18 7 35q0 39 -28 49l-44 18q0 36 6 55h235q4 -18 4 -52z" />
    <glyph glyph-name="wcircumflex" unicode="&#x175;" horiz-adv-x="882" 
d="M297 613l-39 47q100 77 193 184q107 -123 180 -177l-48 -54q-69 41 -144 108q-60 -51 -142 -108zM566 -23l-135 363l-129 -338l-105 -25l-134 445q-8 26 -17.5 37.5t-29.5 23.5q0 37 6 63h243q0 -58 -3 -69h-69l83 -330l130 383l95 26l141 -409l85 283q3 13 -3.5 26.5
t-19.5 19.5l-30 11q0 49 3 59h191q0 -49 -1 -53q-36 -27 -57 -86l-144 -407z" />
    <glyph glyph-name="Ycircumflex" unicode="&#x176;" horiz-adv-x="699" 
d="M693 655q-44 -23 -69 -60l-208 -313l3 -166q0 -34 25 -39l70 -18q0 -39 -6 -59h-324q-4 20 -4 57l50 13q18 5 30.5 20t12.5 36l3 148l-207 316q-21 32 -63 67q-2 32 2 50h289q4 -16 4 -55l-43 -17q-28 -10 -28 -42q0 -17 11 -36l133 -208l130 205q10 14 10 29
q0 29 -32 46l-48 23q-2 30 3 55h252q4 -17 4 -52zM220 733l-30 52q109 68 191 146q70 -64 177 -137l-39 -61q-93 40 -151 81q-79 -50 -148 -81z" />
    <glyph glyph-name="ycircumflex" unicode="&#x177;" horiz-adv-x="582" 
d="M575 546q0 -46 -5 -58q-34 -19 -59 -82l-215 -513q-36 -85 -131 -130l-78 112q62 26 101 66q14 7 44 47l-158 440q-11 31 -67 57q0 39 6 61h260q0 -59 -2 -69h-67l113 -348l107 288q6 16 0.5 32.5t-18.5 22.5q-3 3 -9.5 5.5t-14 4t-8.5 2.5q-5 37 2 62h199zM164 613
l-39 47q100 77 193 184q107 -123 180 -177l-48 -54q-69 41 -144 108q-60 -51 -142 -108z" />
    <glyph glyph-name="Ydieresis" unicode="&#x178;" horiz-adv-x="699" 
d="M693 655q-44 -23 -69 -60l-208 -313l3 -166q0 -34 25 -39l70 -18q0 -39 -6 -59h-324q-4 20 -4 57l50 13q18 5 30.5 20t12.5 36l3 148l-207 316q-21 32 -63 67q-2 32 2 50h289q4 -16 4 -55l-43 -17q-28 -10 -28 -42q0 -17 11 -36l133 -208l130 205q10 14 10 29
q0 29 -32 46l-48 23q-2 30 3 55h252q4 -17 4 -52zM247 756q-12 0 -42.5 31t-30.5 42q0 12 31 42.5t42 30.5t42.5 -31t31.5 -42q0 -10 -30.5 -41.5t-43.5 -31.5zM491 756q-12 0 -42.5 31t-30.5 42q0 12 31 42.5t42 30.5t42.5 -31.5t31.5 -41.5t-30.5 -41.5t-43.5 -31.5z" />
    <glyph glyph-name="Zacute" unicode="&#x179;" horiz-adv-x="633" 
d="M243 742l-18 64q162 56 261 112l43 -96q-107 -45 -286 -80zM615 200l-24 -200h-540l-24 72l375 550l-221 -4q-45 -7 -64 -105q-18 -3 -31 -3q-6 0 -36 4v193h531l16 -54l-386 -565l229 9q74 6 111 115z" />
    <glyph glyph-name="zacute" unicode="&#x17a;" horiz-adv-x="536" 
d="M382 847l70 -81q-138 -104 -250 -153l-34 52q110 75 214 182zM519 175l-33 -175h-447l-23 58l330 384h-200q-15 0 -31 -11.5t-25 -22t-26 -34.5q-32 10 -39 18l40 154h411l6 -77l-309 -364h190q30 0 61 26.5t49 57.5q12 -2 23.5 -5.5t17.5 -5.5z" />
    <glyph glyph-name="Zdotaccent" unicode="&#x17b;" horiz-adv-x="633" 
d="M615 200l-24 -200h-540l-24 72l375 550l-221 -4q-45 -7 -64 -105q-18 -3 -31 -3q-6 0 -36 4v193h531l16 -54l-386 -565l229 9q74 6 111 115zM412 833q0 -11 -36 -48t-49 -37t-48.5 36.5t-35.5 48.5q0 15 35.5 50t48.5 35q12 0 48.5 -36t36.5 -49z" />
    <glyph glyph-name="zdotaccent" unicode="&#x17c;" horiz-adv-x="536" 
d="M519 175l-33 -175h-447l-23 58l330 384h-200q-15 0 -31 -11.5t-25 -22t-26 -34.5q-32 10 -39 18l40 154h411l6 -77l-309 -364h190q30 0 61 26.5t49 57.5q12 -2 23.5 -5.5t17.5 -5.5zM350 726q0 -11 -36 -48t-49 -37q-14 0 -49.5 36.5t-35.5 48.5q0 15 35.5 50t49.5 35
q12 0 48.5 -36t36.5 -49z" />
    <glyph glyph-name="Zcaron" unicode="&#x17d;" horiz-adv-x="633" 
d="M491 930l31 -51q-113 -72 -192 -147q-75 71 -177 137l40 61q90 -38 150 -80q78 48 148 80zM615 200l-24 -200h-540l-24 72l375 550l-221 -4q-45 -7 -64 -105q-18 -3 -31 -3q-6 0 -36 4v193h531l16 -54l-386 -565l229 9q74 6 111 115z" />
    <glyph glyph-name="zcaron" unicode="&#x17e;" horiz-adv-x="536" 
d="M456 787q-99 -78 -193 -184q-107 123 -180 177l48 53q65 -39 144 -107q76 62 142 107zM519 175l-33 -175h-447l-23 58l330 384h-200q-15 0 -31 -11.5t-25 -22t-26 -34.5q-32 10 -39 18l40 154h411l6 -77l-309 -364h190q30 0 61 26.5t49 57.5q12 -2 23.5 -5.5t17.5 -5.5z
" />
    <glyph glyph-name="longs" unicode="&#x17f;" horiz-adv-x="413" 
d="M495 698q0 -56 -66 -87q-57 80 -90 80q-43 0 -66.5 -26t-23.5 -71v-314l5 -164q0 -28 32 -36l95 -21q0 -40 -8 -59h-341q-4 22 -4 54l52 18q28 9 30 60l2 148v191h-80v58l80 17v20q0 81 68 143t151 62q164 0 164 -73z" />
    <glyph glyph-name="uni018F" unicode="&#x18f;" horiz-adv-x="803" 
d="M382 -12q-167 0 -255 87t-88 248v56h561q-5 109 -59 169t-160 60q-121 0 -246 -54l-46 76q141 88 300 88q189 0 280 -80.5t91 -255.5q0 -167 -104 -280.5t-274 -113.5zM391 81q188 0 207 221h-398q18 -221 191 -221z" />
    <glyph glyph-name="florin" unicode="&#x192;" horiz-adv-x="629" 
d="M591 534q0 -39 -49 -71q-71 63 -80 68q-92 -6 -96 -135l-3 -81h117v-69h-120l-5 -117q-2 -80 -69 -151.5t-144 -71.5q-46 0 -73 19t-27 55q0 17 13 43h141q20 36 22 85l4 138h-96v69h99l3 52q4 91 79.5 165.5t157.5 74.5q67 0 96.5 -18t29.5 -55z" />
    <glyph glyph-name="uni01D3" unicode="&#x1d3;" horiz-adv-x="815" 
d="M587 930l31 -51q-113 -72 -192 -147q-75 71 -177 137l40 61q90 -38 150 -80q78 48 148 80zM793 652l-50 -16q-9 -3 -13.5 -6t-9 -11.5t-4.5 -22.5v-327q0 -63 -19.5 -113t-50 -80.5t-71.5 -50.5t-80.5 -28t-79.5 -8q-47 0 -85 4.5t-81.5 20.5t-72.5 42t-48.5 74
t-19.5 112v339q0 17 -8 32t-21 20l-57 21q0 38 4 53h317q2 -10 2.5 -29.5t-0.5 -28.5l-64 -12q-26 -5 -26 -32v-343q0 -54 17 -92.5t46 -57.5t59 -27t64 -8q163 0 163 209v287q0 52 -56 68l-43 13q0 49 1 53h283q4 -20 4 -55z" />
    <glyph glyph-name="uni01D4" unicode="&#x1d4;" horiz-adv-x="706" 
d="M519 787q-99 -78 -193 -184q-107 123 -180 177l48 53q65 -39 144 -107q76 62 142 107zM676 91l10 -58q-80 -40 -148 -40q-80 0 -84 80q-91 -84 -181 -84q-39 0 -68 5.5t-47 18.5t-29 26.5t-16 36t-6.5 40t-1.5 45.5v309h-85v60q117 26 159 26q63 0 63 -55v-219l1 -95
q1 -49 14 -72t51 -23q61 0 140 43l4 138v197h-83v60q87 26 155 26q64 0 64 -55v-229l5 -181h83z" />
    <glyph glyph-name="AEmacron" unicode="&#x1e2;" horiz-adv-x="1033" 
d="M999 171l-24 -171h-572q-7 33 -5 59l49 13q41 11 42 43l3 164v29h-198l-90 -156q-9 -15 -9 -31q0 -30 32 -39l82 -22q0 -41 -7 -60h-290q-4 14 -4 54l25 16q29 21 49 52l351 585h522v-164q-29 -8 -63 -4q-9 46 -28.5 64t-53.5 18l-179 5v-236l292 5v-92l-292 5v-30
l5 -197l158 4q110 3 145 99zM828 773h-298v87h298v-87zM493 654l-152 -264h151v221z" />
    <glyph glyph-name="aemacron" unicode="&#x1e3;" horiz-adv-x="874" 
d="M841 259l-359 -15q2 -44 15 -73t37 -44t52 -20.5t67 -5.5q85 0 154 16l23 -75q-88 -50 -202 -50q-92 0 -151 19t-91 69q-102 -88 -205 -88q-68 0 -109 30.5t-41 95.5q0 147 212 176q52 6 102 8v74q0 43 -23 59t-91 16q-62 0 -142 -22l-24 95q88 36 193 36q146 0 188 -67
q69 67 164 67q120 0 175.5 -72.5t55.5 -193.5v-35zM696 328q0 152 -94 152q-57 0 -88.5 -44t-34.5 -124zM359 136q-13 41 -15 103q-68 -5 -93 -10q-89 -20 -89 -81q0 -21 15.5 -36.5t43.5 -15.5q53 0 138 40zM543 782h-303v93h303v-93z" />
    <glyph glyph-name="AEacute" unicode="&#x1fc;" horiz-adv-x="1033" 
d="M999 171l-24 -171h-572q-7 33 -5 59l49 13q41 11 42 43l3 164v29h-198l-90 -156q-9 -15 -9 -31q0 -30 32 -39l82 -22q0 -41 -7 -60h-290q-4 14 -4 54l25 16q29 21 49 52l351 585h522v-164q-29 -8 -63 -4q-9 46 -28.5 64t-53.5 18l-179 5v-236l292 5v-92l-292 5v-30
l5 -197l158 4q110 3 145 99zM582 742l-18 64q162 56 261 112l43 -96q-107 -45 -286 -80zM493 654l-152 -264h151v221z" />
    <glyph glyph-name="aeacute" unicode="&#x1fd;" horiz-adv-x="874" 
d="M549 847l70 -81q-138 -104 -250 -153l-34 52q110 75 214 182zM841 259l-359 -15q2 -44 15 -73t37 -44t52 -20.5t67 -5.5q85 0 154 16l23 -75q-88 -50 -202 -50q-92 0 -151 19t-91 69q-102 -88 -205 -88q-68 0 -109 30.5t-41 95.5q0 147 212 176q52 6 102 8v74
q0 43 -23 59t-91 16q-62 0 -142 -22l-24 95q88 36 193 36q146 0 188 -67q69 67 164 67q120 0 175.5 -72.5t55.5 -193.5v-35zM696 328q0 152 -94 152q-57 0 -88.5 -44t-34.5 -124zM359 136q-13 41 -15 103q-68 -5 -93 -10q-89 -20 -89 -81q0 -21 15.5 -36.5t43.5 -15.5
q53 0 138 40z" />
    <glyph glyph-name="Oslashacute" unicode="&#x1fe;" horiz-adv-x="830" 
d="M782 699l-72 -82q77 -84 77 -235q0 -167 -105 -280.5t-281 -113.5q-148 0 -238 64l-88 -84l-46 45l86 82q-72 85 -72 228q0 169 109 282t280 113q142 0 229 -59q42 45 75 84zM571 562q-55 65 -154 65q-113 0 -164 -76t-51 -199q0 -87 24 -148zM629 358q0 84 -25 144
l-345 -356q52 -65 151 -65q219 0 219 277zM321 742l-18 64q162 56 261 112l43 -96q-107 -45 -286 -80z" />
    <glyph glyph-name="oslashacute" unicode="&#x1ff;" horiz-adv-x="613" 
d="M575 549l-58 -71q60 -69 60 -201q0 -112 -80.5 -198.5t-196.5 -86.5q-101 0 -165 43l-71 -75l-45 40l71 77q-55 69 -55 189q0 112 81 201.5t193 89.5q101 0 165 -41l58 71zM397 424q-36 48 -99 48q-118 0 -118 -198q0 -49 10 -86zM430 274q0 52 -9 88l-204 -237
q33 -45 99 -45q65 0 89.5 52t24.5 142zM403 847l70 -81q-138 -104 -250 -153l-34 52q110 75 214 182z" />
    <glyph glyph-name="Scommaaccent" unicode="&#x218;" horiz-adv-x="612" 
d="M248 -63l111 -5q-10 -113 -70 -239l-67 11q27 114 26 233zM572 207q0 -74 -46 -125t-110 -72t-137 -21q-145 0 -242 53l15 176h64q7 -71 57.5 -110t126.5 -39q49 0 87.5 22.5t38.5 67.5t-71 80q-19 10 -77 34q-37 16 -60.5 27.5t-55.5 32.5t-50.5 42t-32 52t-13.5 67
q0 91 78.5 156t173.5 65q134 0 225 -44v-156h-56q-13 56 -60 86.5t-107 30.5q-55 0 -88.5 -21.5t-33.5 -67.5q0 -19 11 -34.5t36.5 -31t45.5 -25t61 -26.5q50 -21 80 -36.5t67 -42.5t55 -62t18 -78z" />
    <glyph glyph-name="scommaaccent" unicode="&#x219;" horiz-adv-x="510" 
d="M203 -63l111 -5q-10 -113 -70 -239l-67 11q27 114 26 233zM470 165q0 -48 -21.5 -84t-56.5 -55.5t-73.5 -28.5t-80.5 -9q-101 0 -200 43l9 149l55 -1q7 -54 44 -83.5t94 -29.5q93 0 93 58q0 14 -7 25t-27.5 23t-34.5 18.5t-50 21.5q-70 29 -111.5 68t-41.5 109
q0 82 60.5 125.5t150.5 43.5q94 0 187 -41l-18 -140l-50 6q-21 95 -132 95q-37 0 -56.5 -16t-19.5 -39q0 -7 2 -13t6.5 -12t8.5 -10.5t12.5 -9.5l14.5 -8.5t17.5 -8.5l18.5 -8l20.5 -8.5l20.5 -8.5q37 -16 60 -28t51 -33t41.5 -48.5t13.5 -61.5z" />
    <glyph glyph-name="uni021A" unicode="&#x21a;" horiz-adv-x="681" 
d="M287 -63l111 -5q-10 -113 -70 -239l-67 11q27 114 26 233zM677 707v-185q-27 -8 -57 -3q-19 98 -94 102l-116 4v-352l5 -159q0 -19 3.5 -26t17.5 -10l89 -18q0 -45 -4 -60h-359q-6 31 -4 60l68 19q16 5 28 26.5t13 42.5l3 125v352l-125 -4q-64 -3 -83 -102
q-7 -2 -27.5 -1t-30.5 4v185h673z" />
    <glyph glyph-name="Ymacron" unicode="&#x232;" horiz-adv-x="699" 
d="M693 655q-44 -23 -69 -60l-208 -313l3 -166q0 -34 25 -39l70 -18q0 -39 -6 -59h-324q-4 20 -4 57l50 13q18 5 30.5 20t12.5 36l3 148l-207 316q-21 32 -63 67q-2 32 2 50h289q4 -16 4 -55l-43 -17q-28 -10 -28 -42q0 -17 11 -36l133 -208l130 205q10 14 10 29
q0 29 -32 46l-48 23q-2 30 3 55h252q4 -17 4 -52zM519 773h-298v87h298v-87z" />
    <glyph glyph-name="ymacron" unicode="&#x233;" horiz-adv-x="582" 
d="M575 546q0 -46 -5 -58q-34 -19 -59 -82l-215 -513q-36 -85 -131 -130l-78 112q62 26 101 66q14 7 44 47l-158 440q-11 31 -67 57q0 39 6 61h260q0 -59 -2 -69h-67l113 -348l107 288q6 16 0.5 32.5t-18.5 22.5q-3 3 -9.5 5.5t-14 4t-8.5 2.5q-5 37 2 62h199zM458 686h-303
v81h303v-81z" />
    <glyph glyph-name="schwa" unicode="&#x259;" horiz-adv-x="569" 
d="M33 290h359q-4 91 -47.5 124.5t-124.5 33.5q-76 0 -153 -18l-23 75q93 53 201 53q72 0 122 -11.5t89.5 -41t58.5 -83.5t19 -136q0 -120 -75.5 -209t-195.5 -89t-175 70.5t-55 190.5v41zM179 223q0 -159 98 -159q51 0 83.5 45.5t34.5 113.5h-216z" />
    <glyph glyph-name="h.superior" unicode="&#x2b0;" horiz-adv-x="487" 
d="M472 455q0 -27 -5 -40h-187q-5 23 -3 39l25 12q14 6 14 27l2 107v40q0 21 -1.5 32.5t-6 24t-16.5 18t-31 5.5q-54 0 -90 -15v-106l1 -103q0 -23 11 -28l34 -12q0 -25 -4 -41h-193q-4 15 -4 37l34 12q17 5 17 31l2 105v271h-56v46q73 16 130 16q26 0 26 -25v-161
q60 46 125 46q43 0 69.5 -8t37.5 -27.5t13.5 -36.5t2.5 -50v-72l2 -113q0 -17 10 -20z" />
    <glyph glyph-name="j.superior" unicode="&#x2b2;" horiz-adv-x="249" 
d="M192 899q0 -15 -25.5 -41t-41.5 -26t-41 26t-25 41q0 16 25 41t41 25q15 0 41 -25t26 -41zM182 417q2 -148 -127 -148q-48 0 -83 10l10 62q44 -4 47 -4q27 0 37.5 12.5t10.5 49.5v334h-59v46q68 15 127 15q17 0 25 -6.5t8 -24.5v-164z" />
    <glyph glyph-name="r.superior" unicode="&#x2b3;" horiz-adv-x="343" 
d="M341 775l-31 -87q-32 18 -64 18q-46 0 -69 -17v-88l3 -106q0 -14 8 -17l85 -18q0 -32 -6 -45h-246q-4 20 -4 39l30 10q15 5 20.5 11.5t6.5 23.5l1 102v131h-58v47q82 14 125 14q32 0 32 -27v-26q40 52 97 52q44 0 70 -17z" />
    <glyph glyph-name="w.superior" unicode="&#x2b7;" horiz-adv-x="591" 
d="M581 784v-41q-28 -28 -39 -61l-85 -267l-85 -17l-91 251l-69 -231l-88 -19l-86 301q-7 26 -31 42q2 16 7 42h171l-1 -53h-51l56 -215l83 259l71 16l92 -283l49 186q8 23 -12 34l-24 12q-1 1 1 21t3 23h129z" />
    <glyph glyph-name="y.superior" unicode="&#x2b8;" horiz-adv-x="395" 
d="M109 254l-56 85q40 16 64 34q24 12 36 30l-103 299q-7 19 -45 37q0 30 3 45h184q0 -48 -1 -50h-44l71 -228l68 185q3 10 0 19.5t-10 13.5q-1 4 -5.5 6.5t-10.5 5.5l-7 2q-4 26 2 46h135q0 -36 -2 -42q-21 -12 -40 -57l-147 -348q-23 -53 -92 -83z" />
    <glyph glyph-name="circumflex" unicode="&#x2c6;" horiz-adv-x="540" 
d="M116 613l-39 47q100 77 193 184q107 -123 180 -177l-48 -54q-69 41 -144 108q-60 -51 -142 -108z" />
    <glyph glyph-name="caron" unicode="&#x2c7;" horiz-adv-x="540" 
d="M458 787q-99 -78 -193 -184q-107 123 -180 177l48 53q65 -39 144 -107q76 62 142 107z" />
    <glyph glyph-name="breve" unicode="&#x2d8;" horiz-adv-x="500" 
d="M384 796l33 -30q-17 -38 -59 -74.5t-107 -36.5q-59 0 -103.5 28.5t-64.5 62.5l56 54q57 -57 127 -57t118 53z" />
    <glyph glyph-name="dotaccent" unicode="&#x2d9;" horiz-adv-x="366" 
d="M265 726q0 -11 -36 -48t-49 -37q-14 0 -49.5 36.5t-35.5 48.5q0 15 35.5 50t49.5 35q12 0 48.5 -36t36.5 -49z" />
    <glyph glyph-name="ring" unicode="&#x2da;" horiz-adv-x="444" 
d="M345 737q0 -50 -41.5 -82.5t-86.5 -32.5q-30 0 -56.5 7.5t-49 32t-22.5 64.5q0 54 38.5 87t89.5 33q128 0 128 -109zM271 733q0 29 -14.5 46.5t-40.5 17.5q-54 0 -54 -62q0 -29 14.5 -47t40.5 -18q54 0 54 63z" />
    <glyph glyph-name="ogonek" unicode="&#x2db;" horiz-adv-x="565" 
d="M445 -178l19 -60q-43 -27 -118 -27q-63 0 -98 30.5t-35 79.5q0 70 61 126.5t145 86.5l41 -27q-63 -22 -102.5 -64.5t-39.5 -94.5q1 -32 18 -49.5t43 -17.5q36 0 66 17z" />
    <glyph glyph-name="tilde" unicode="&#x2dc;" horiz-adv-x="540" 
d="M464 732q-3 -3 -11 -13.5t-11.5 -14.5l-11.5 -13t-13.5 -13l-14 -10.5t-17 -9.5t-19 -5t-21.5 -2q-21 0 -89 20t-84 20q-39 0 -70 -24l-28 35l34.5 39.5t36 26t53.5 15.5q28 0 93.5 -19t76.5 -19q19 0 35.5 5t23.5 10l7 5z" />
    <glyph glyph-name="hungarumlaut" unicode="&#x2dd;" horiz-adv-x="568" 
d="M113 599l-43 44q98 103 170 205l77 -68q-84 -96 -204 -181zM346 597l-40 46q102 86 183 191l74 -76q-98 -93 -217 -161z" />
    <glyph glyph-name="x.superior" unicode="&#x2e3;" horiz-adv-x="396" 
d="M387 459q0 -29 -5 -44h-164q-5 13 -5 40l6 2q7 3 10 12t-5 23l-46 59l-54 -74q-6 -10 3 -11l36 -10q0 -27 -5 -41h-146q-4 13 -4 40q22 10 35 25l102 110l-85 108q-26 30 -49 41q0 40 1 45h174q0 -47 -2 -50h-33l68 -86l48 57q14 18 -1 30q-11 8 -14 9q0 30 3 40h129
q0 -25 -3 -37q-22 -14 -37 -29l-97 -106l106 -124q14 -16 34 -29z" />
    <glyph glyph-name="uni0374" unicode="&#x374;" horiz-adv-x="327" 
d="M262 633q0 -58 -46 -119.5t-106 -97.5l-40 36q67 69 73 110q-20 15 -43.5 43t-23.5 38q0 19 37.5 55.5t54.5 36.5q23 0 58.5 -38.5t35.5 -63.5z" />
    <glyph glyph-name="uni0375" unicode="&#x375;" horiz-adv-x="327" 
d="M262 32q0 -58 -46 -119.5t-106 -97.5l-40 35q67 72 73 110q-21 15 -44 43.5t-23 38.5q0 18 37.5 55t54.5 37q23 0 58.5 -38.5t35.5 -63.5z" />
    <glyph glyph-name="uni037E" unicode="&#x37e;" horiz-adv-x="422" 
d="M291 484q0 -15 -41.5 -56.5t-56.5 -41.5t-55.5 41t-40.5 57t40.5 56t55.5 40t56.5 -40t41.5 -56zM305 25q0 -53 -52 -123.5t-111 -109.5l-43 38q70 73 81 120q-22 17 -47.5 46.5t-25.5 39.5q0 17 41.5 57t56.5 40q19 0 59.5 -41.5t40.5 -66.5z" />
    <glyph glyph-name="tonos" unicode="&#x384;" horiz-adv-x="500" 
d="M343 872l108 -64q-55 -93 -163 -206l-54 39q70 114 109 231z" />
    <glyph glyph-name="dieresistonos" unicode="&#x385;" horiz-adv-x="592" 
d="M148 615q-11 0 -43 33t-32 43q0 12 32 43.5t43 31.5t43.5 -32.5t32.5 -42.5q0 -9 -33 -42.5t-43 -33.5zM484 615q-11 0 -43 33t-32 43q0 12 32 43.5t43 31.5t44 -32t33 -43q0 -9 -33.5 -42.5t-43.5 -33.5zM290 610l-54 39q59 99 109 231l108 -64q-59 -98 -163 -206z" />
    <glyph glyph-name="Alphatonos" unicode="&#x386;" horiz-adv-x="760" 
d="M732 53q0 -33 -5 -53h-300q-7 22 -7 57l60 20q32 9 32 45q0 12 -7 33l-39 120h-233l-46 -119q-6 -16 -6 -29q0 -38 43 -51l65 -19q0 -41 -5 -57h-260q-5 20 -5 54q42 36 56 68l243 571l132 31l225 -599q14 -33 57 -72zM441 351l-55 172l-23 83h-7l-27 -81l-66 -174h178z
M38 465l-63 45q66 100 114 227l108 -64q-64 -109 -159 -208z" />
    <glyph glyph-name="anoteleia" unicode="&#x387;" horiz-adv-x="298" 
d="M252 358q0 -14 -41 -56t-56 -42t-56 41t-41 57q0 17 41 56.5t56 39.5t56 -40t41 -56z" />
    <glyph glyph-name="Epsilontonos" unicode="&#x388;" horiz-adv-x="660" 
d="M-160 465l-63 45q66 100 114 227l108 -64q-64 -109 -159 -208zM626 171l-24 -171h-570q-7 27 -5 59l52 13q43 11 43 43l3 164v298q0 39 -28 50l-63 26q-2 37 4 54h550v-164q-23 -4 -63 -4q-9 46 -28.5 64t-53.5 18l-178 5v-230l271 5v-92l-271 5v-36l4 -197l152 4
q111 3 144 99z" />
    <glyph glyph-name="Etatonos" unicode="&#x389;" horiz-adv-x="870" 
d="M836 55q0 -39 -6 -55h-319q-5 23 -5 53l55 20q38 12 39 62l2 143v36h-342v-36l4 -164q0 -20 7.5 -28.5t28.5 -13.5l71 -18q0 -36 -6 -54h-327q-5 27 -5 52l50 19q22 8 29.5 20.5t7.5 41.5l2 145v312q0 40 -33 51l-52 18q0 32 4 48h297q5 -17 5 -49l-50 -15
q-18 -5 -25.5 -16.5t-7.5 -34.5v-197h342v190q0 47 -37 58l-47 16q-4 31 1 48h296q3 -25 1 -49l-47 -15q-29 -11 -29 -42v-323l4 -154q0 -42 21 -48zM-148 465l-63 45q66 100 114 227l108 -64q-64 -109 -159 -208z" />
    <glyph glyph-name="Iotatonos" unicode="&#x38a;" horiz-adv-x="381" 
d="M353 61q0 -38 -7 -61h-314q-3 12 -3 54l43 15q43 16 44 61l2 148v294q0 47 -50 66l-38 16q-2 36 2 53h309q3 -35 -1 -59l-43 -10q-39 -10 -39 -63v-297l2 -170q1 -16 6 -22t19 -10zM-157 465l-63 45q66 100 114 227l108 -64q-64 -109 -159 -208z" />
    <glyph glyph-name="Omicrontonos" unicode="&#x38c;" horiz-adv-x="830" 
d="M-85 465l-63 45q66 100 114 227l108 -64q-64 -109 -159 -208zM787 382q0 -167 -105 -280.5t-281 -113.5q-175 0 -266.5 87t-91.5 248q0 169 109 282t280 113q178 0 266.5 -89t88.5 -247zM629 358q0 122 -51.5 195.5t-160.5 73.5q-113 0 -164 -76t-51 -199
q0 -121 49.5 -196t158.5 -75q219 0 219 277z" />
    <glyph glyph-name="Upsilontonos" unicode="&#x38e;" horiz-adv-x="695" 
d="M179 0q-6 30 -4 56l60 16q18 4 29 20t11 37v83q0 79 -37 174t-95 162.5t-111 67.5q-18 0 -28 -2l-7 70q55 31 108 31q103 0 163.5 -92t88.5 -297q43 201 123 294.5t165 93.5q38 0 53 -8l-8 -104q-6 2 -20 2q-57 0 -118.5 -73t-98.5 -166t-37 -159v-76q0 -17 9 -33t23 -20
l70 -22q0 -37 -5 -55h-334zM-173 465l-63 45q66 100 114 227l108 -64q-64 -109 -159 -208z" />
    <glyph glyph-name="Omegatonos" unicode="&#x38f;" horiz-adv-x="824" 
d="M-81 465l-63 45q66 100 114 227l108 -64q-64 -109 -159 -208zM39 0v116l181 -38l2 7q-80 32 -126 103.5t-46 164.5q0 152 105 258.5t268 106.5q177 0 264.5 -91.5t87.5 -251.5q0 -101 -61.5 -177.5t-150.5 -118.5l2 -5l221 42v-116h-292l-9 97q58 44 94.5 115t36.5 146
q0 122 -50.5 195.5t-157.5 73.5q-211 0 -211 -267q0 -86 36.5 -147t105.5 -112l-9 -101h-291z" />
    <glyph glyph-name="iotadieresistonos" unicode="&#x390;" horiz-adv-x="332" 
d="M5 615q-11 0 -43 33t-32 43q0 12 32 43.5t43 31.5t43.5 -32.5t32.5 -42.5q0 -9 -33 -42.5t-43 -33.5zM341 615q-11 0 -43 33t-32 43q0 12 32 43.5t43 31.5t44 -32t33 -43q0 -9 -33.5 -42.5t-43.5 -33.5zM147 610l-54 39q59 99 109 231l108 -64q-59 -98 -163 -206zM182 -8
q-61 0 -81.5 29.5t-19.5 94.5l2 156v61l-5 213h145l-5 -213v-59l5 -132q1 -61 49 -61q22 0 43 5l8 -46q-26 -21 -66 -34.5t-75 -13.5z" />
    <glyph glyph-name="Alpha" unicode="&#x391;" horiz-adv-x="760" 
d="M732 53q0 -33 -5 -53h-300q-7 22 -7 57l60 20q32 9 32 45q0 12 -7 33l-39 120h-233l-46 -119q-6 -16 -6 -29q0 -38 43 -51l65 -19q0 -41 -5 -57h-260q-5 20 -5 54q42 36 56 68l243 571l132 31l225 -599q14 -33 57 -72zM441 351l-55 172l-23 83h-7l-27 -81l-66 -174h178z
" />
    <glyph glyph-name="Beta" unicode="&#x392;" horiz-adv-x="711" 
d="M665 217q0 -99 -71 -158t-212 -59h-351q-6 23 -6 57l49 14q19 5 32 19.5t14 35.5l2 152v315q0 34 -45 49l-47 15q0 31 5 50h316q263 0 263 -179q0 -101 -118 -144v-4q24 -3 49 -11.5t54 -26t47.5 -50t18.5 -75.5zM462 517q0 58 -31.5 84t-102.5 26h-67v-224h77
q71 0 97.5 30t26.5 84zM513 202q0 64 -43 92.5t-145 28.5h-64v-47l4 -195h98q150 0 150 121z" />
    <glyph glyph-name="Gamma" unicode="&#x393;" horiz-adv-x="591" 
d="M31 0q-4 23 -4 56l55 16q33 10 35 54l4 153v302q0 37 -29 48l-61 22q0 40 4 56h535v-192q-24 -6 -55 -3q-10 55 -28.5 80.5t-67.5 27.5l-159 6v-347l3 -153q0 -36 22 -41l113 -22q0 -41 -7 -63h-360z" />
    <glyph glyph-name="uni0394" unicode="&#x394;" horiz-adv-x="756" 
d="M707 70l-41 -70h-606l-25 63l282 630l132 31zM535 97l-149 426l-26 86h-6l-29 -84l-178 -437z" />
    <glyph glyph-name="Epsilon" unicode="&#x395;" horiz-adv-x="660" 
d="M626 171l-24 -171h-570q-7 27 -5 59l52 13q43 11 43 43l3 164v298q0 39 -28 50l-63 26q-2 37 4 54h550v-164q-23 -4 -63 -4q-9 46 -28.5 64t-53.5 18l-178 5v-230l271 5v-92l-271 5v-36l4 -197l152 4q111 3 144 99z" />
    <glyph glyph-name="Zeta" unicode="&#x396;" horiz-adv-x="633" 
d="M615 200l-24 -200h-540l-24 72l375 550l-221 -4q-45 -7 -64 -105q-18 -3 -31 -3q-6 0 -36 4v193h531l16 -54l-386 -565l229 9q74 6 111 115z" />
    <glyph glyph-name="Eta" unicode="&#x397;" horiz-adv-x="870" 
d="M836 55q0 -39 -6 -55h-319q-5 23 -5 53l55 20q38 12 39 62l2 143v36h-342v-36l4 -164q0 -20 7.5 -28.5t28.5 -13.5l71 -18q0 -36 -6 -54h-327q-5 27 -5 52l50 19q22 8 29.5 20.5t7.5 41.5l2 145v312q0 40 -33 51l-52 18q0 32 4 48h297q5 -17 5 -49l-50 -15
q-18 -5 -25.5 -16.5t-7.5 -34.5v-197h342v190q0 47 -37 58l-47 16q-4 31 1 48h296q3 -25 1 -49l-47 -15q-29 -11 -29 -42v-323l4 -154q0 -42 21 -48z" />
    <glyph glyph-name="Theta" unicode="&#x398;" horiz-adv-x="830" 
d="M558 309l-286 5v82l286 5v-92zM787 382q0 -167 -105 -280.5t-281 -113.5q-175 0 -266.5 87t-91.5 248q0 169 109 282t280 113q178 0 266.5 -89t88.5 -247zM629 358q0 122 -51.5 195.5t-160.5 73.5q-113 0 -164 -76t-51 -199q0 -121 49.5 -196t158.5 -75q219 0 219 277z
" />
    <glyph glyph-name="Iota" unicode="&#x399;" horiz-adv-x="381" 
d="M353 61q0 -38 -7 -61h-314q-3 12 -3 54l43 15q43 16 44 61l2 148v294q0 47 -50 66l-38 16q-2 36 2 53h309q3 -35 -1 -59l-43 -10q-39 -10 -39 -63v-297l2 -170q1 -16 6 -22t19 -10z" />
    <glyph glyph-name="Kappa" unicode="&#x39a;" horiz-adv-x="752" 
d="M737 -16q-153 3 -224 83l-250 272v-58l2 -171q1 -16 5 -22.5t17 -9.5l63 -17q0 -41 -6 -61h-312q-3 19 -3 54l48 15q18 6 30.5 22.5t13.5 38.5l2 148v298q0 21 -13 37t-29 23l-46 18q-2 31 3 53h308q3 -34 -1 -57l-46 -14q-36 -11 -36 -60v-212l218 204q17 14 17 33
q0 28 -18 35l-36 15q0 40 4 56h264v-47l-315 -271l183 -189q98 -102 172 -145z" />
    <glyph glyph-name="Lambda" unicode="&#x39b;" horiz-adv-x="741" 
d="M714 53q0 -33 -6 -53h-299q-7 22 -7 57l60 20q31 10 31 45q0 10 -6 32l-115 370q-9 39 -20 73h-6l-23 -72l-136 -369q-6 -15 -6 -29q0 -37 44 -52q62 -18 64 -18q0 -40 -5 -57h-260q-5 20 -5 54q37 33 48 51q4 8 8 17l235 571l131 30l216 -598q11 -30 57 -72z" />
    <glyph glyph-name="Mu" unicode="&#x39c;" horiz-adv-x="1064" 
d="M1046 52q0 -37 -4 -52h-309q-4 30 -4 50l32 11q53 17 42 112l-40 287l-10 85h-5l-184 -534l-116 -33l-185 572h-6l-9 -81l-55 -354q-5 -28 11 -32l88 -30q0 -42 -4 -53h-272q-6 28 -4 50l36 18q20 10 34.5 32t18.5 46l82 437q4 17 -4.5 30.5t-23.5 18.5l-64 21q0 39 4 54
h266l123 -374l39 -132h9l43 136l133 370h253q6 -29 4 -53l-49 -13q-47 -14 -36 -75l81 -451q6 -31 34 -41z" />
    <glyph glyph-name="Nu" unicode="&#x39d;" horiz-adv-x="845" 
d="M819 661l-53 -23q-18 -8 -29.5 -27t-11.5 -42v-563l-109 -32l-396 555h-7l6 -80v-176l3 -155q0 -19 4 -26t20 -12l85 -25q0 -41 -5 -55h-293q-6 29 -4 53l52 15q22 6 34.5 31t13.5 56l2 118v308q0 36 -29 51l-61 27q0 41 2 48h220l375 -512h7l-8 105v268q0 46 -37 64
l-63 27q0 37 4 48h274q4 -30 4 -46z" />
    <glyph glyph-name="Xi" unicode="&#x39e;" horiz-adv-x="692" 
d="M115 515q-28 -2 -60 5v187h582v-185q-25 -7 -60 -5q-10 47 -30.5 68.5t-53.5 20.5l-298 -4q-33 -1 -52 -20.5t-28 -66.5zM58 0l-19 189q4 2 30.5 7.5t29.5 4.5q17 -52 46.5 -76t80.5 -23l234 6q102 1 132 98q6 0 31.5 -5t29.5 -7l-17 -194h-578zM554 305l-416 6v102
l416 6v-114z" />
    <glyph glyph-name="Omicron" unicode="&#x39f;" horiz-adv-x="830" 
d="M787 382q0 -167 -105 -280.5t-281 -113.5q-175 0 -266.5 87t-91.5 248q0 169 109 282t280 113q178 0 266.5 -89t88.5 -247zM629 358q0 122 -51.5 195.5t-160.5 73.5q-113 0 -164 -76t-51 -199q0 -121 49.5 -196t158.5 -75q219 0 219 277z" />
    <glyph glyph-name="Pi" unicode="&#x3a0;" horiz-adv-x="852" 
d="M38 0q-5 20 -5 52l51 19q21 8 29 22t8 40l1 145v312q0 40 -33 51q-40 15 -52 18q0 35 4 48h757q1 -13 1 -49l-47 -15q-29 -11 -29 -42v-323l4 -154q1 -43 21 -48l71 -21q0 -38 -6 -55h-320q-5 25 -4 53l56 20q38 13 38 62l1 143v342h-324v-342l4 -164q1 -20 8 -28.5
t28 -13.5l71 -18q0 -38 -6 -54h-327z" />
    <glyph glyph-name="Rho" unicode="&#x3a1;" horiz-adv-x="685" 
d="M665 497q0 -105 -76.5 -172t-209.5 -67h-56v72l31 1q157 4 157 150q0 141 -155 145l-95 2v-355l3 -152q0 -34 22 -38l102 -24q0 -45 -5 -59h-352q-5 34 -3 55l52 14q17 4 27.5 21t11.5 41l3 142v315q0 30 -24 40l-69 26q-1 8 0.5 26t4.5 27h390q111 0 176 -52t65 -158z
" />
    <glyph glyph-name="Sigma" unicode="&#x3a3;" horiz-adv-x="621" 
d="M601 208l-25 -208h-528l-24 71l212 294l-203 274l22 68h525v-164q-27 -7 -61 -5q-9 46 -29.5 66t-54.5 21l-217 3l163 -228l-204 -281l256 6q42 1 64.5 25t39.5 70q5 0 32 -5t32 -7z" />
    <glyph glyph-name="Tau" unicode="&#x3a4;" horiz-adv-x="681" 
d="M677 707v-185q-27 -8 -57 -3q-19 98 -94 102l-116 4v-352l5 -159q0 -19 3.5 -26t17.5 -10l89 -18q0 -45 -4 -60h-359q-6 31 -4 60l68 19q16 5 28 26.5t13 42.5l3 125v352l-125 -4q-64 -3 -83 -102q-7 -2 -27.5 -1t-30.5 4v185h673z" />
    <glyph glyph-name="Upsilon" unicode="&#x3a5;" horiz-adv-x="693" 
d="M177 0q-6 30 -4 56l60 16q18 4 29 20t11 37v83q0 79 -37 174t-95 162.5t-111 67.5q-18 0 -28 -2l-7 70q55 31 108 31q103 0 163.5 -92t88.5 -297q43 201 123 294.5t165 93.5q38 0 53 -8l-8 -104q-6 2 -20 2q-57 0 -118.5 -73t-98.5 -166t-37 -159v-76q0 -17 9 -33t23 -20
l70 -22q0 -37 -5 -55h-334z" />
    <glyph glyph-name="Phi" unicode="&#x3a6;" horiz-adv-x="823" 
d="M791 379q0 -104 -80.5 -173t-227.5 -84v-12q0 -17 5.5 -24t19.5 -10q34 -4 68 -15q0 -42 -6 -61h-314q-5 20 -3 54q2 2 20.5 8l21.5 7q45 16 45 50q-63 1 -115 12.5t-97 35.5t-70 68t-25 105q0 74 44.5 131.5t113 88t151.5 38.5q0 1 -1 4.5t-2 4.5q-6 13 -48 32l-37 15
q-2 37 2 53h308q4 -27 0 -59q-27 -5 -43 -10q-15 -3 -26 -12t-12 -20q-1 -1 -1 -5q66 -2 120 -15t97.5 -38.5t67.5 -68t24 -100.5zM635 363q0 72 -40 110.5t-113 43.5v-313q153 10 153 159zM341 280l1 236q-73 -6 -113 -46.5t-40 -110.5q0 -148 152 -155v76z" />
    <glyph glyph-name="Chi" unicode="&#x3a7;" horiz-adv-x="723" 
d="M713 50q0 -39 -4 -50h-294q-4 33 -3 50l37 23q27 16 2 52l-106 152l-118 -145q-12 -14 -11.5 -31.5t12.5 -23.5l54 -27q0 -39 -4 -50h-265q-6 28 -4 50l29 18q34 22 83 78l171 204l-174 222q-27 35 -85 84q-3 8 -3.5 25t1.5 26h276q4 -33 3 -51l-36 -18q-10 -5 -11 -17.5
t10 -30.5l101 -142l112 136q10 13 10 29t-11 22l-40 22q0 43 2 50h247q2 -14 -1 -50q-53 -21 -99 -77l-166 -203l188 -236l19 -22.5l13.5 -15.5t14.5 -13.5l12.5 -10.5t17.5 -13.5t20 -15.5z" />
    <glyph glyph-name="Psi" unicode="&#x3a8;" horiz-adv-x="875" 
d="M861 652l-50 -16q-6 -2 -10 -4t-8.5 -6t-6.5 -11.5t-2 -18.5v-119q0 -70 -22.5 -123.5t-61 -84.5t-81 -47.5t-91.5 -21.5l1 -92q0 -16 4.5 -22.5t19.5 -9.5l69 -15q0 -39 -7 -61h-314q-5 20 -3 54l43 15q18 6 30.5 22.5t13.5 38.5l1 67q-45 1 -82 7t-77 22.5t-67 43
t-44.5 73t-17.5 107.5v131q0 17 -8 32t-21 20l-57 21q0 42 4 53h229v-238q0 -157 142 -179v284q0 52 -35 67l-33 13q0 44 3 53h267q4 -27 0 -59l-36 -8q-26 -7 -26 -59v-295q69 7 107.5 53t38.5 154v214h185q5 -34 3 -55z" />
    <glyph glyph-name="uni03A9" unicode="&#x3a9;" horiz-adv-x="824" 
d="M39 0v116l181 -38l2 7q-80 32 -126 103.5t-46 164.5q0 152 105 258.5t268 106.5q177 0 264.5 -91.5t87.5 -251.5q0 -101 -61.5 -177.5t-150.5 -118.5l2 -5l221 42v-116h-292l-9 97q58 44 94.5 115t36.5 146q0 122 -50.5 195.5t-157.5 73.5q-211 0 -211 -267
q0 -86 36.5 -147t105.5 -112l-9 -101h-291z" />
    <glyph glyph-name="Iotadieresis" unicode="&#x3aa;" horiz-adv-x="381" 
d="M353 61q0 -38 -7 -61h-314q-3 12 -3 54l43 15q43 16 44 61l2 148v294q0 47 -50 66l-38 16q-2 36 2 53h309q3 -35 -1 -59l-43 -10q-39 -10 -39 -63v-297l2 -170q1 -16 6 -22t19 -10zM83 756q-11 0 -42 31t-31 42q0 12 31 42.5t42 30.5t42.5 -31t31.5 -42q0 -10 -31 -41.5
t-43 -31.5zM293 756q-11 0 -41.5 31t-30.5 42q0 12 30.5 42.5t41.5 30.5t42.5 -31.5t31.5 -41.5t-31 -41.5t-43 -31.5z" />
    <glyph glyph-name="Upsilondieresis" unicode="&#x3ab;" horiz-adv-x="695" 
d="M179 0q-6 30 -4 56l60 16q18 4 29 20t11 37v83q0 79 -37 174t-95 162.5t-111 67.5q-18 0 -28 -2l-7 70q55 31 108 31q103 0 163.5 -92t88.5 -297q43 201 123 294.5t165 93.5q38 0 53 -8l-8 -104q-6 2 -20 2q-57 0 -118.5 -73t-98.5 -166t-37 -159v-76q0 -17 9 -33t23 -20
l70 -22q0 -37 -5 -55h-334zM256 756q-11 0 -42 31t-31 42q0 12 31 42.5t42 30.5t42.5 -31t31.5 -42q0 -10 -31 -41.5t-43 -31.5zM466 756q-11 0 -41.5 31t-30.5 42q0 12 30.5 42.5t41.5 30.5t42.5 -31.5t31.5 -41.5t-31 -41.5t-43 -31.5z" />
    <glyph glyph-name="alphatonos" unicode="&#x3ac;" horiz-adv-x="673" 
d="M399 872l108 -64q-55 -93 -163 -206l-54 39q70 114 109 231zM533 -10q-37 0 -55 18t-26 57l-12 62q-100 -132 -202 -132q-95 0 -149 64.5t-54 202.5q0 128 73.5 212t174.5 84q85 0 130 -46t66 -132q11 40 42 166h134q-62 -172 -141 -308l28 -105q8 -30 19 -41.5t31 -11.5
q17 0 53 9l8 -48q-64 -51 -120 -51zM289 95q37 0 72 36.5t64 96.5l-5 27q-19 124 -49.5 173.5t-86.5 49.5q-51 0 -80 -50.5t-29 -132.5q0 -200 114 -200z" />
    <glyph glyph-name="epsilontonos" unicode="&#x3ad;" horiz-adv-x="544" 
d="M327 872l108 -64q-55 -93 -163 -206l-54 39q70 114 109 231zM276 -11q-45 0 -83 6.5t-75 22.5t-58.5 49t-21.5 80t28 87t75 61q-38 14 -60.5 43t-22.5 66q0 53 41 90.5t92 52t103 14.5q31 0 59.5 -3t66.5 -11t61 -28t23 -49q0 -44 -50 -76q-69 94 -155 94
q-104 0 -104 -84q0 -28 17.5 -46.5t45.5 -24.5q38 10 103 10q6 -20 6 -37q0 -26 -13 -51q-57 0 -102 3q-62 -23 -62 -88q0 -44 35 -64t84 -20q90 0 172 58l41 -67q-100 -88 -246 -88z" />
    <glyph glyph-name="etatonos" unicode="&#x3ae;" horiz-adv-x="637" 
d="M371 872l108 -64q-55 -93 -163 -206l-54 39q70 114 109 231zM415 -220l4 278v280q0 66 -13 93t-61 27q-52 0 -108 -27v-152l3 -279h-145l5 279v144q0 27 -8.5 36.5t-25.5 9.5q-19 0 -31 -3l-11 59q73 32 146 32q35 0 49.5 -13t14.5 -42v-8q77 65 162 65q54 0 87.5 -13
t48.5 -41t19 -55t4 -73v-319l6 -278h-146z" />
    <glyph glyph-name="iotatonos" unicode="&#x3af;" horiz-adv-x="338" 
d="M185 872l108 -64q-55 -93 -163 -206l-54 39q70 114 109 231zM182 -8q-61 0 -81.5 29.5t-19.5 94.5l2 156v61l-5 213h145l-5 -213v-59l5 -132q1 -61 49 -61q22 0 43 5l8 -46q-26 -21 -66 -34.5t-75 -13.5z" />
    <glyph glyph-name="upsilondieresistonos" unicode="&#x3b0;" horiz-adv-x="644" 
d="M148 615q-11 0 -43 33t-32 43q0 12 32 43.5t43 31.5t43.5 -32.5t32.5 -42.5q0 -9 -33 -42.5t-43 -33.5zM484 615q-11 0 -43 33t-32 43q0 12 32 43.5t43 31.5t44 -32t33 -43q0 -9 -33.5 -42.5t-43.5 -33.5zM290 610l-54 39q59 99 109 231l108 -64q-59 -98 -163 -206z
M329 -11q-101 0 -162.5 48t-61.5 150v236q0 27 -8.5 36.5t-25.5 9.5q-19 0 -32 -3l-10 59q73 32 145 32q36 0 51.5 -12.5t15.5 -41.5v-301q0 -122 103 -122q36 0 62 18t39.5 48t19.5 62.5t6 68.5q0 84 -18.5 131.5t-76.5 88.5q37 62 103 62t97 -63.5t31 -155.5
q0 -88 -30 -166t-95 -131.5t-153 -53.5z" />
    <glyph glyph-name="alpha" unicode="&#x3b1;" horiz-adv-x="673" 
d="M533 -10q-37 0 -55 18t-26 57l-12 62q-100 -132 -202 -132q-95 0 -149 64.5t-54 202.5q0 128 73.5 212t174.5 84q85 0 130 -46t66 -132q11 40 42 166h134q-62 -172 -141 -308l28 -105q8 -30 19 -41.5t31 -11.5q17 0 53 9l8 -48q-64 -51 -120 -51zM289 95q37 0 72 36.5
t64 96.5l-5 27q-19 124 -49.5 173.5t-86.5 49.5q-51 0 -80 -50.5t-29 -132.5q0 -200 114 -200z" />
    <glyph glyph-name="beta" unicode="&#x3b2;" horiz-adv-x="646" 
d="M611 230q0 -99 -77.5 -171.5t-181.5 -72.5q-74 0 -133 13l6 -219h-147l4 495v242q0 114 73 183t184 69q98 0 159 -40.5t61 -126.5q0 -55 -36.5 -101.5t-87.5 -67.5q77 -16 126.5 -71t49.5 -132zM464 208q0 75 -47 113.5t-121 43.5l-15 71q71 20 110 53.5t39 96.5
q0 50 -27 77.5t-77 27.5q-53 0 -80 -34.5t-27 -95.5v-470q62 -14 95 -14q68 0 109 33.5t41 97.5z" />
    <glyph glyph-name="gamma" unicode="&#x3b3;" horiz-adv-x="559" 
d="M265 -231q-34 0 -67 10q-2 14 -2 40q0 25 1 39q1 42 12 87q-47 288 -113 443q-35 80 -80 80q-9 0 -21 -4l-17 51q51 45 108 45q78 0 123 -99q49 -109 90 -330q123 236 123 330q0 44 -18 68q24 30 68 30q29 0 49 -18.5t20 -51.5q0 -54 -37.5 -139.5t-100 -200.5
t-82.5 -158q13 -101 16 -212q-34 -10 -72 -10z" />
    <glyph glyph-name="delta" unicode="&#x3b4;" horiz-adv-x="613" 
d="M577 274q0 -119 -85 -200.5t-202 -81.5q-115 0 -185 68t-70 183q0 87 48.5 153t129.5 94q-51 30 -79 60.5t-28 75.5q0 44 38 78.5t86 49.5t92 15q34 0 66.5 -4t66 -14t54 -30.5t20.5 -48.5q0 -47 -56 -76q-22 41 -74 68t-103 27q-31 0 -52.5 -11t-21.5 -31
q0 -24 36.5 -50t88.5 -54.5t104.5 -63.5t89 -89t36.5 -118zM430 253q0 74 -36.5 116.5t-113.5 83.5q-54 -28 -77 -71t-23 -111q0 -190 135 -190q62 0 88.5 49t26.5 123z" />
    <glyph glyph-name="epsilon" unicode="&#x3b5;" horiz-adv-x="544" 
d="M276 -11q-45 0 -83 6.5t-75 22.5t-58.5 49t-21.5 80t28 87t75 61q-38 14 -60.5 43t-22.5 66q0 53 41 90.5t92 52t103 14.5q31 0 59.5 -3t66.5 -11t61 -28t23 -49q0 -44 -50 -76q-69 94 -155 94q-104 0 -104 -84q0 -28 17.5 -46.5t45.5 -24.5q38 10 103 10q6 -20 6 -37
q0 -26 -13 -51q-57 0 -102 3q-62 -23 -62 -88q0 -44 35 -64t84 -20q90 0 172 58l41 -67q-100 -88 -246 -88z" />
    <glyph glyph-name="zeta" unicode="&#x3b6;" horiz-adv-x="515" 
d="M382 -239l-40 54q66 44 66 81q0 47 -72 71q-17 6 -57 17.5t-65 19.5t-59.5 26.5t-54.5 40.5t-35 58.5t-15 82.5q0 65 27.5 129t74 115t97 91t105.5 71q-56 -7 -154 -7q-54 0 -86 21.5t-32 63.5q0 27 17.5 53t43.5 36q45 -76 160 -76h196q10 -22 10 -53q0 -17 -5 -32
q-310 -185 -310 -376q0 -68 39.5 -101t113.5 -56q77 -23 118 -54.5t41 -80.5q0 -88 -124 -195z" />
    <glyph glyph-name="eta" unicode="&#x3b7;" horiz-adv-x="637" 
d="M415 -220l4 278v280q0 66 -13 93t-61 27q-52 0 -108 -27v-152l3 -279h-145l5 279v144q0 27 -8.5 36.5t-25.5 9.5q-19 0 -31 -3l-11 59q73 32 146 32q35 0 49.5 -13t14.5 -42v-8q77 65 162 65q54 0 87.5 -13t48.5 -41t19 -55t4 -73v-319l6 -278h-146z" />
    <glyph glyph-name="theta" unicode="&#x3b8;" horiz-adv-x="602" 
d="M293 -10q-249 0 -249 379q0 96 29.5 185.5t91 151t140.5 61.5q137 0 195 -99.5t58 -280.5q0 -75 -16.5 -144.5t-48 -126.5t-83.5 -91.5t-117 -34.5zM312 79q97 0 99 262l-222 4q2 -56 7.5 -98t18 -83t37.5 -63t60 -22zM189 418l222 4q-7 258 -120 258q-97 0 -102 -262z
" />
    <glyph glyph-name="iota" unicode="&#x3b9;" horiz-adv-x="338" 
d="M182 -8q-61 0 -81.5 29.5t-19.5 94.5l2 156v61l-5 213h145l-5 -213v-59l5 -132q1 -61 49 -61q22 0 43 5l8 -46q-26 -21 -66 -34.5t-75 -13.5z" />
    <glyph glyph-name="kappa" unicode="&#x3ba;" horiz-adv-x="625" 
d="M599 -21q-90 5 -148 34t-94 93l-85 145l-36 -38l3 -213h-145l5 279v144q0 27 -8.5 36.5t-25.5 9.5q-19 0 -31 -3l-11 59q73 32 146 32q35 0 51 -13t16 -41v-189l130 149q44 50 77 73t79 23q37 0 60 -15.5t23 -44.5q0 -30 -25 -59q-26 13 -64 13q-56 0 -98 -46l-52 -54
l111 -180q28 -45 65 -77.5t75 -46.5z" />
    <glyph glyph-name="lambda" unicode="&#x3bb;" horiz-adv-x="541" 
d="M445 -12q-59 0 -81 70l-106 368l-106 -426h-144l208 544l-14 39q-34 94 -129 97l45 106q75 -1 120.5 -42t78.5 -140l160 -486q14 -40 45 -40q18 0 36 3l8 -55q-53 -38 -121 -38z" />
    <glyph glyph-name="uni03BC" unicode="&#x3bc;" horiz-adv-x="686" 
d="M78 -220l7 480v286h137v-283l1 -76q0 -48 14 -71.5t51 -23.5q54 0 126 39l2 141v274h136v-272l4 -132q1 -61 49 -61q21 0 47 6l8 -46q-26 -21 -68 -35t-77 -14q-46 0 -68.5 17t-28.5 52q-81 -71 -145 -71q-40 0 -67 9q9 -13 13.5 -25.5t5.5 -20.5t2 -29l5 -144h-154z" />
    <glyph glyph-name="nu" unicode="&#x3bd;" horiz-adv-x="571" 
d="M234 -27l-164 448q-18 48 -49 48q-7 0 -19 -4l-18 51q59 43 127 43q64 0 87 -71l116 -355q101 183 101 292q0 56 -41 92q31 43 87 43q37 0 58.5 -22t21.5 -59q0 -67 -56.5 -195t-149.5 -280z" />
    <glyph glyph-name="xi" unicode="&#x3be;" horiz-adv-x="502" 
d="M508 691q0 -21 -10 -37.5t-21 -24.5t-28 -18q-64 81 -134 81q-47 0 -73 -27.5t-26 -79.5q0 -103 79 -121q34 9 100 9q4 -20 4 -34q0 -28 -12 -61q-64 0 -106 11q-45 -16 -70 -52t-25 -84q0 -58 30 -93t73 -49.5t86.5 -26.5t73.5 -36.5t30 -67.5q0 -57 -49 -112.5
t-117 -92.5l-38 48q47 36 70.5 61t23.5 49q0 18 -18.5 29t-47.5 18.5t-64 15t-70.5 23.5t-64.5 40t-47.5 68t-18.5 104q0 64 39.5 115t102.5 80q-49 18 -77.5 60t-28.5 97q0 81 79.5 133.5t170.5 52.5q184 0 184 -78z" />
    <glyph glyph-name="omicron" unicode="&#x3bf;" horiz-adv-x="605" 
d="M296 -11q-124 0 -192.5 68t-68.5 207q0 112 80.5 203t189.5 91q264 0 264 -279q0 -112 -80 -201t-193 -89zM312 78q63 0 87 51.5t24 140.5q0 202 -129 202q-114 0 -114 -194q0 -200 132 -200z" />
    <glyph glyph-name="pi" unicode="&#x3c0;" horiz-adv-x="694" 
d="M536 -8q-59 0 -80.5 31t-20.5 93l4 156v172l-202 -8v-162l5 -274h-127l8 274v156l-101 -6l-5 11l53 111h582l-8 -96q-12 -1 -43.5 -1.5t-47.5 -0.5v-174l5 -133q1 -61 50 -61q22 0 43 5l8 -45q-58 -48 -123 -48z" />
    <glyph glyph-name="rho" unicode="&#x3c1;" horiz-adv-x="593" 
d="M557 277q0 -113 -64.5 -198.5t-173.5 -85.5q-50 0 -90 20l14 71q30 -5 55 -5q32 0 54 13t33.5 30.5t18 47t7.5 51t1 53.5q0 38 -4 67.5t-15.5 60.5t-37 48.5t-63.5 17.5q-34 0 -57 -15t-32.5 -42.5t-12.5 -53t-3 -58.5q0 -10 13 -519h-153q0 21 1 142.5t2 231t1 112.5
q1 116 71 204t183 88q133 0 192.5 -72t59.5 -209z" />
    <glyph glyph-name="sigma1" unicode="&#x3c2;" horiz-adv-x="525" 
d="M503 476q0 -61 -58 -96q-27 41 -63.5 67.5t-68.5 26.5q-74 0 -105 -48.5t-31 -143.5q0 -66 30.5 -108.5t74.5 -61t87.5 -33t74 -38.5t30.5 -64q0 -54 -45 -108.5t-111 -93.5l-40 52q38 32 58 55t20 46q0 18 -17.5 30.5t-46 22l-62.5 20.5t-68.5 32t-63 50.5t-46 81
t-17.5 118.5q0 118 84.5 197t197.5 79q31 0 60 -3.5t59.5 -11.5t48.5 -25.5t18 -42.5z" />
    <glyph glyph-name="sigma" unicode="&#x3c3;" horiz-adv-x="624" 
d="M291 -8q-128 0 -190 72t-62 194q0 53 23 105.5t63 94.5t102 67.5t134 25.5q159 0 254 -5l-20 -132l-99 11q42 -76 42 -153q0 -113 -67.5 -196.5t-179.5 -83.5zM301 74q121 0 121 201q0 75 -18 162q-26 3 -67 3q-85 -1 -126.5 -46t-41.5 -126q0 -91 34 -142.5t98 -51.5z
" />
    <glyph glyph-name="tau" unicode="&#x3c4;" horiz-adv-x="542" 
d="M314 -10q-70 0 -109.5 36t-39.5 112q0 134 43 295q-139 -9 -193 -15l-5 12l53 116h441l-7 -101q-115 -3 -198 -7q-8 -128 -8 -249q0 -48 21 -74t59 -26q46 0 97 16l16 -42q-62 -73 -170 -73z" />
    <glyph glyph-name="upsilon" unicode="&#x3c5;" horiz-adv-x="644" 
d="M329 -11q-101 0 -162.5 48t-61.5 150v236q0 27 -8.5 36.5t-25.5 9.5q-19 0 -32 -3l-10 59q73 32 145 32q36 0 51.5 -12.5t15.5 -41.5v-301q0 -122 103 -122q36 0 62 18t39.5 48t19.5 62.5t6 68.5q0 84 -18.5 131.5t-76.5 88.5q37 62 103 62t97 -63.5t31 -155.5
q0 -88 -30 -166t-95 -131.5t-153 -53.5z" />
    <glyph glyph-name="phi" unicode="&#x3c6;" horiz-adv-x="820" 
d="M334 -220l3 214q-144 9 -223 77t-79 195q0 101 91 186t222 101l2 154h109l3 -151q157 -7 239.5 -78.5t82.5 -200.5q0 -104 -88.5 -184.5t-223.5 -96.5l4 -216h-142zM470 85q79 6 125 56.5t46 132.5q0 80 -47 129.5t-130 60.5zM339 89l7 377q-81 -8 -125 -60t-44 -132
q0 -155 162 -185z" />
    <glyph glyph-name="chi" unicode="&#x3c7;" horiz-adv-x="535" 
d="M18 -220l196 387l-121 259q-20 44 -56 44q-8 0 -20 -4l-18 51q59 43 127 43q35 0 54.5 -17t32.5 -53l75 -191l89 247h136l-181 -334l146 -330q10 -19 33 -19q17 0 34 3l9 -56q-59 -37 -123 -37q-63 0 -90 68l-88 233l-100 -294h-135z" />
    <glyph glyph-name="psi" unicode="&#x3c8;" horiz-adv-x="802" 
d="M344 -220l4 212q-117 6 -182.5 65t-65.5 164v203q0 27 -8.5 36.5t-25.5 9.5q-15 0 -31 -2l-11 58q71 33 138 33q70 0 70 -55v-268q0 -123 118 -144l11 615h109l11 -621q75 11 117.5 72t42.5 132q0 146 -95 210q26 59 89 59q64 0 98 -68t34 -159q0 -122 -80.5 -219.5
t-203.5 -115.5l4 -217h-143z" />
    <glyph glyph-name="omega" unicode="&#x3c9;" horiz-adv-x="837" 
d="M801 247q0 -119 -61 -187.5t-169 -68.5q-51 0 -91.5 27.5t-60.5 62.5q-20 -35 -61.5 -62.5t-91.5 -27.5q-108 0 -169.5 68.5t-61.5 187.5q0 124 64.5 209t156.5 101q3 1 10 1q34 0 39 -43q-124 -55 -124 -279q0 -62 27.5 -108.5t73.5 -46.5q14 0 26 4.5t20.5 12t15 15.5
t11.5 18t7.5 17l5 14t2.5 8q-23 51 -23 187q28 17 75 17q45 0 68 -17q0 -133 -23 -187q27 -89 88 -89q46 0 73.5 46.5t27.5 108.5q0 220 -123 279q2 22 11.5 32.5t30.5 10.5q8 0 11 -1q91 -16 153 -100.5t62 -209.5z" />
    <glyph glyph-name="iotadieresis" unicode="&#x3ca;" horiz-adv-x="338" 
d="M47 640q-11 0 -42 30.5t-31 41.5q0 12 30.5 42.5t42.5 30.5q11 0 42.5 -31t31.5 -42q0 -10 -31 -41t-43 -31zM261 640q-11 0 -41.5 30.5t-30.5 41.5q0 12 30.5 42.5t41.5 30.5t42.5 -31t31.5 -42q0 -10 -31 -41t-43 -31zM182 -8q-61 0 -81.5 29.5t-19.5 94.5l2 156v61
l-5 213h145l-5 -213v-59l5 -132q1 -61 49 -61q22 0 43 5l8 -46q-26 -21 -66 -34.5t-75 -13.5z" />
    <glyph glyph-name="upsilondieresis" unicode="&#x3cb;" horiz-adv-x="644" 
d="M206 640q-11 0 -42 30.5t-31 41.5q0 12 30.5 42.5t42.5 30.5q11 0 42.5 -31t31.5 -42q0 -10 -31 -41t-43 -31zM420 640q-11 0 -41.5 30.5t-30.5 41.5q0 12 30.5 42.5t41.5 30.5t42.5 -31t31.5 -42q0 -10 -31 -41t-43 -31zM329 -11q-101 0 -162.5 48t-61.5 150v236
q0 27 -8.5 36.5t-25.5 9.5q-19 0 -32 -3l-10 59q73 32 145 32q36 0 51.5 -12.5t15.5 -41.5v-301q0 -122 103 -122q36 0 62 18t39.5 48t19.5 62.5t6 68.5q0 84 -18.5 131.5t-76.5 88.5q37 62 103 62t97 -63.5t31 -155.5q0 -88 -30 -166t-95 -131.5t-153 -53.5z" />
    <glyph glyph-name="omicrontonos" unicode="&#x3cc;" horiz-adv-x="605" 
d="M351 872l108 -64q-55 -93 -163 -206l-54 39q70 114 109 231zM296 -11q-124 0 -192.5 68t-68.5 207q0 112 80.5 203t189.5 91q264 0 264 -279q0 -112 -80 -201t-193 -89zM312 78q63 0 87 51.5t24 140.5q0 202 -129 202q-114 0 -114 -194q0 -200 132 -200z" />
    <glyph glyph-name="upsilontonos" unicode="&#x3cd;" horiz-adv-x="644" 
d="M366 872l108 -64q-55 -93 -163 -206l-54 39q70 114 109 231zM329 -11q-101 0 -162.5 48t-61.5 150v236q0 27 -8.5 36.5t-25.5 9.5q-19 0 -32 -3l-10 59q73 32 145 32q36 0 51.5 -12.5t15.5 -41.5v-301q0 -122 103 -122q36 0 62 18t39.5 48t19.5 62.5t6 68.5
q0 84 -18.5 131.5t-76.5 88.5q37 62 103 62t97 -63.5t31 -155.5q0 -88 -30 -166t-95 -131.5t-153 -53.5z" />
    <glyph glyph-name="omegatonos" unicode="&#x3ce;" horiz-adv-x="837" 
d="M471 872l108 -64q-55 -93 -163 -206l-54 39q70 114 109 231zM801 247q0 -119 -61 -187.5t-169 -68.5q-51 0 -91.5 27.5t-60.5 62.5q-20 -35 -61.5 -62.5t-91.5 -27.5q-108 0 -169.5 68.5t-61.5 187.5q0 124 64.5 209t156.5 101q3 1 10 1q34 0 39 -43q-124 -55 -124 -279
q0 -62 27.5 -108.5t73.5 -46.5q14 0 26 4.5t20.5 12t15 15.5t11.5 18t7.5 17l5 14t2.5 8q-23 51 -23 187q28 17 75 17q45 0 68 -17q0 -133 -23 -187q27 -89 88 -89q46 0 73.5 46.5t27.5 108.5q0 220 -123 279q2 22 11.5 32.5t30.5 10.5q8 0 11 -1q91 -16 153 -100.5
t62 -209.5z" />
    <glyph glyph-name="beta.alt" unicode="&#x3d0;" horiz-adv-x="628" 
d="M545 627q0 -50 -34.5 -93.5t-87.5 -72.5q76 -8 119.5 -59t43.5 -140q0 -104 -82 -186.5t-213 -82.5q-236 0 -236 353v64q0 156 87 257.5t221 101.5q85 0 133.5 -42.5t48.5 -99.5zM195 479v-168q0 -120 28.5 -172t93.5 -52q55 0 88 48t33 113q0 55 -28 93.5t-82 38.5
q-18 0 -50 -7l-25 62q73 26 113.5 69.5t40.5 95.5q0 39 -25.5 63.5t-69.5 24.5q-117 0 -117 -209z" />
    <glyph glyph-name="theta.alt" unicode="&#x3d1;" horiz-adv-x="593" 
d="M290 -9q-91 0 -144.5 51t-58.5 137q-3 31 -11 41t-24 10q-5 0 -31 -2l-5 60q73 23 150 23q39 0 44 -52q6 -80 29 -129.5t63 -49.5q55 0 78 74.5t24 230.5v15q-72 -39 -145 -39q-186 0 -186 189q0 83 67 150t145 67q128 0 195 -88.5t68 -291.5q-2 -183 -78.5 -289.5
t-179.5 -106.5zM300 451q59 0 102 12q-14 217 -120 217q-37 0 -61.5 -32.5t-24.5 -84.5q0 -112 104 -112z" />
    <glyph glyph-name="phi.alt" unicode="&#x3d5;" horiz-adv-x="790" 
d="M314 -220l3 214q-143 9 -212.5 74.5t-69.5 197.5q0 169 134 279h122q-115 -100 -115 -271q0 -159 143 -185l4 246q2 108 56.5 166t148.5 56q112 -1 170 -68.5t58 -185.5q0 -121 -84 -206t-220 -101l4 -216h-142zM450 85q81 11 122 68t41 147q0 84 -28 125t-66 41
q-37 0 -56 -26t-18 -93z" />
    <glyph glyph-name="uni03D7" unicode="&#x3d7;" horiz-adv-x="824" 
d="M434 -230q-188 0 -298 103.5t-110 305.5q0 99 47 199t120 168h71q-113 -129 -113 -318q0 -75 17 -139t51.5 -115t93 -80.5t136.5 -29.5q98 0 173.5 34t120.5 87q-67 11 -112 39.5t-74 81.5l-85 145l-37 -38l3 -213h-144l5 279v80l-6 186h147l-5 -188v-43l130 149
q44 50 77 73t79 23q37 0 60 -15.5t23 -44.5q0 -32 -25 -59q-26 13 -63 13q-29 0 -51 -9t-47 -37l-52 -54l111 -180q54 -90 126 -116l-1 -64q-46 -93 -145.5 -158t-222.5 -65z" />
    <glyph glyph-name="uni03D8" unicode="&#x3d8;" horiz-adv-x="830" 
d="M341 -220l11 210q-151 12 -230 98t-79 235q0 169 109 282t280 113q178 0 266.5 -89t88.5 -247q0 -149 -85 -257t-230 -131l12 -214h-143zM410 81q219 0 219 277q0 122 -51.5 195.5t-160.5 73.5q-113 0 -164 -76t-51 -199q0 -121 49.5 -196t158.5 -75z" />
    <glyph glyph-name="uni03D9" unicode="&#x3d9;" horiz-adv-x="613" 
d="M243 -220l11 212q-105 11 -162 79.5t-57 194.5q0 113 81 203t193 90q268 0 268 -282q0 -92 -57 -171t-146 -106l12 -220h-143zM316 79q65 0 89.5 52.5t24.5 142.5q0 199 -132 199q-118 0 -118 -199q0 -195 136 -195z" />
    <glyph glyph-name="uni03DA" unicode="&#x3da;" horiz-adv-x="548" 
d="M550 540q0 -45 -36.5 -75t-81.5 -30h-145q-128 0 -128 -167q0 -70 35.5 -115t103.5 -45h94q82 0 82 -71q1 -60 -66.5 -141.5t-128.5 -114.5l-40 51q2 1 15 12.5l20 17.5t20.5 18.5t22 23l18.5 23.5t16.5 26t9.5 25q0 17 -65 17q-45 0 -69 2q-203 15 -203 259
q0 64 28.5 129t90.5 113t142 48h93q48 0 75 18.5t44 62.5q22 -11 37.5 -36t15.5 -51z" />
    <glyph glyph-name="uni03DB" unicode="&#x3db;" horiz-adv-x="548" 
d="M550 540q0 -45 -36.5 -75t-81.5 -30h-145q-128 0 -128 -167q0 -70 35.5 -115t103.5 -45h94q82 0 82 -71q1 -60 -66.5 -141.5t-128.5 -114.5l-40 51q2 1 15 12.5l20 17.5t20.5 18.5t22 23l18.5 23.5t16.5 26t9.5 25q0 17 -65 17q-45 0 -69 2q-203 15 -203 259
q0 64 28.5 129t90.5 113t142 48h93q48 0 75 18.5t44 62.5q22 -11 37.5 -36t15.5 -51z" />
    <glyph glyph-name="uni03DC" unicode="&#x3dc;" horiz-adv-x="573" 
d="M553 612l-323 14v-251l276 6v-93l-276 5v-17l4 -276h-147l4 279l1 428h461v-95z" />
    <glyph glyph-name="uni03DD" unicode="&#x3dd;" horiz-adv-x="488" 
d="M469 451l-239 14v-252l191 7v-94l-191 5v-51l4 -299h-147l4 301l1 464h377v-95z" />
    <glyph glyph-name="uni03DE" unicode="&#x3de;" horiz-adv-x="501" 
d="M284 -38q-12 0 -43.5 34t-31.5 47q0 14 135 317l-283 -73l-37 61l133 301q-10 -7 -17 -7q-10 0 -36.5 33.5t-26.5 44.5q1 12 36 42t46 30q10 0 39.5 -33.5t29.5 -44.5q0 -9 -6 -31l-89 -246l295 62l38 -58l-162 -331q17 -12 38.5 -37.5t21.5 -35.5q0 -12 -34 -43.5
t-46 -31.5z" />
    <glyph glyph-name="uni03DF" unicode="&#x3df;" horiz-adv-x="436" 
d="M428 499l-267 -568l-141 33l276 482l-235 -21l-32 49l105 205q-15 -6 -21 -4q-14 8 -36.5 36.5t-22.5 37.5q1 12 36 42t46 30t40 -33t29 -45q0 -3 -12 -39l-62 -169l260 19z" />
    <glyph glyph-name="uni03E0" unicode="&#x3e0;" horiz-adv-x="742" 
d="M707 -72q0 -50 -3 -89h-121v34q0 205 -42 329l-272 -220l-40 50l288 232q-31 64 -71 112l-297 -238l-39 50l292 234q-134 116 -356 119q-16 1 -43 1v55q61 7 92 7q149 0 266 -51.5t191.5 -143t113.5 -214t41 -267.5z" />
    <glyph glyph-name="uni03E1" unicode="&#x3e1;" horiz-adv-x="562" 
d="M367 -306l-60 21q31 103 44 174.5t13 154.5q0 31 -1 47l-232 -85l-21 60l249 91q-8 66 -32 129l-259 -94l-21 61l254 90q-48 85 -117 142t-171 93l18 52q120 -17 214 -65.5t150.5 -117.5t85.5 -151t28 -171q-1 -110 -46.5 -236t-95.5 -195z" />
    <glyph glyph-name="uni03F0" unicode="&#x3f0;" horiz-adv-x="721" 
d="M138 -16q-43 5 -72.5 52.5t-23.5 70.5l106 48q23 123 23 214q0 50 -12 73t-49 23q-39 0 -79 -16l-17 59q68 51 141 51q64 0 97 -35.5t33 -91.5q0 -90 -34 -196l323 325q23 1 59.5 -32.5t38.5 -71.5l-100 -51q-24 -127 -24 -228q0 -50 12 -73t49 -23q38 0 78 16l18 -59
q-68 -51 -141 -51q-64 0 -97 35.5t-33 91.5q0 88 38 208z" />
    <glyph glyph-name="uni0400" unicode="&#x400;" horiz-adv-x="660" 
d="M626 171l-24 -171h-570q-7 27 -5 59l52 13q43 11 43 43l3 164v298q0 39 -28 50l-63 26q-2 37 4 54h550v-164q-23 -4 -63 -4q-9 46 -28.5 64t-53.5 18l-178 5v-230l271 5v-92l-271 5v-36l4 -197l152 4q111 3 144 99zM421 742q-179 35 -286 80l44 96q98 -55 260 -112z" />
    <glyph glyph-name="afii10023" unicode="&#x401;" horiz-adv-x="660" 
d="M218 756q-12 0 -42.5 31t-30.5 42q0 12 31 42.5t42 30.5t42.5 -31t31.5 -42q0 -10 -30.5 -41.5t-43.5 -31.5zM462 756q-12 0 -42.5 31t-30.5 42q0 12 31 42.5t42 30.5t42.5 -31.5t31.5 -41.5t-30.5 -41.5t-43.5 -31.5zM626 171l-24 -171h-570q-7 27 -5 59l52 13
q43 11 43 43l3 164v298q0 39 -28 50l-63 26q-2 37 4 54h550v-164q-23 -4 -63 -4q-9 46 -28.5 64t-53.5 18l-178 5v-230l271 5v-92l-271 5v-36l4 -197l152 4q111 3 144 99z" />
    <glyph glyph-name="afii10051" unicode="&#x402;" horiz-adv-x="838" 
d="M657 707v-185q-27 -8 -57 -3q-19 98 -94 102l-118 4v-228q115 43 202 43q100 -1 158 -56.5t58 -152.5q0 -136 -69.5 -256t-164.5 -195l-60 63q145 162 145 363q0 73 -35.5 108.5t-90.5 35.5q-73 0 -143 -35v-46l4 -157q1 -19 5 -26.5t17 -10.5l83 -21q0 -39 -4 -54h-347
q-6 29 -4 52l60 21q42 15 44 78l2 122v352l-93 -4q-64 -3 -83 -102q-7 -2 -27.5 -1t-30.5 4v185h643z" />
    <glyph glyph-name="afii10052" unicode="&#x403;" horiz-adv-x="615" 
d="M213 742l-18 64q162 56 261 112l43 -96q-107 -45 -286 -80zM32 0q-5 21 -5 56l55 16q15 5 25 20t10 34l4 153v302q0 36 -29 48l-61 22q0 39 4 56h549v-184q-29 -7 -62 -4q-9 44 -34 71.5t-61 28.5l-167 7v-350l3 -150q1 -14 1.5 -20t5.5 -12.5t15 -8.5l113 -22
q0 -40 -7 -63h-359z" />
    <glyph glyph-name="afii10053" unicode="&#x404;" horiz-adv-x="693" 
d="M656 31q-97 -38 -224 -38q-188 0 -288.5 87.5t-100.5 268.5q0 158 108.5 264t276.5 106q17 0 32.5 -0.5t27 -1t25.5 -3t21 -3t21 -4l18 -4.5t19 -6t17.5 -6t20.5 -7.5t20 -7.5v-166q-27 -2 -58 1q-44 119 -168 119q-99 0 -160.5 -55t-72.5 -172l313 5v-92l-312 5
q11 -107 79.5 -163t176.5 -56q77 0 180 21z" />
    <glyph glyph-name="afii10054" unicode="&#x405;" horiz-adv-x="612" 
d="M572 207q0 -74 -46 -125t-110 -72t-137 -21q-145 0 -242 53l15 176h64q7 -71 57.5 -110t126.5 -39q49 0 87.5 22.5t38.5 67.5t-71 80q-19 10 -77 34q-37 16 -60.5 27.5t-55.5 32.5t-50.5 42t-32 52t-13.5 67q0 91 78.5 156t173.5 65q134 0 225 -44v-156h-56
q-13 56 -60 86.5t-107 30.5q-55 0 -88.5 -21.5t-33.5 -67.5q0 -19 11 -34.5t36.5 -31t45.5 -25t61 -26.5q50 -21 80 -36.5t67 -42.5t55 -62t18 -78z" />
    <glyph glyph-name="afii10055" unicode="&#x406;" horiz-adv-x="381" 
d="M353 61q0 -38 -7 -61h-314q-3 12 -3 54l43 15q43 16 44 61l2 148v294q0 47 -50 66l-38 16q-2 36 2 53h309q3 -35 -1 -59l-43 -10q-39 -10 -39 -63v-297l2 -170q1 -16 6 -22t19 -10z" />
    <glyph glyph-name="afii10056" unicode="&#x407;" horiz-adv-x="381" 
d="M353 61q0 -38 -7 -61h-314q-3 12 -3 54l43 15q43 16 44 61l2 148v294q0 47 -50 66l-38 16q-2 36 2 53h309q3 -35 -1 -59l-43 -10q-39 -10 -39 -63v-297l2 -170q1 -16 6 -22t19 -10z" />
    <glyph glyph-name="afii10057" unicode="&#x408;" horiz-adv-x="376" 
d="M344 651l-48 -12q-24 -6 -31 -14t-7 -30v-501q0 -53 -19.5 -97t-57 -77t-74 -55t-86.5 -45l-44 78q86 53 113.5 99t27.5 149v419q0 57 -48 74l-44 15q0 38 4 53h311q5 -35 3 -56z" />
    <glyph glyph-name="afii10058" unicode="&#x409;" horiz-adv-x="996" 
d="M140 189q14 20 25 62t20.5 115.5t12.5 103.5l11 113q6 47 -28 57l-49 19q0 33 4 48h558q1 -37 -3 -59l-47 -11q-33 -10 -33 -49v-174h85q128 0 205.5 -49t77.5 -156q0 -109 -80 -160t-218 -50l-301 1q-7 25 -5 57l48 14q19 5 32.5 19.5t13.5 35.5l2 152v347h-172
l-13 -146q-4 -28 -9 -77t-8.5 -75.5t-10 -68.5t-14 -66.5t-18.5 -57t-26.5 -53t-35.5 -42.5t-47.5 -36.5t-60.5 -24.5l-56 143q114 29 140 68zM829 206q0 59 -37 92.5t-115 34.5l-66 1l2 -254h62q81 1 117.5 31.5t36.5 94.5z" />
    <glyph glyph-name="afii10059" unicode="&#x40a;" horiz-adv-x="1107" 
d="M793 -1l-187 1h-114q-6 24 -6 58l49 13q45 14 45 55l3 153v49h-323v-50l4 -164q0 -20 7.5 -28.5t28.5 -13.5l71 -18q0 -36 -6 -54h-327q-5 27 -5 52l50 19q37 15 37 62l2 145v312q0 40 -33 51q-40 15 -52 18q0 32 4 48h297q5 -17 5 -49l-50 -15q-18 -5 -25.5 -16.5
t-7.5 -34.5v-183h323v172q0 22 -15.5 39t-35.5 24l-37 12q0 36 3 51h308q2 -39 -3 -59l-47 -11q-33 -10 -33 -49v-179h85q129 0 206 -48t77 -155q0 -209 -298 -207zM724 80h62q82 1 118 30t36 93q0 124 -152 125h-65v-34z" />
    <glyph glyph-name="afii10060" unicode="&#x40b;" horiz-adv-x="910" 
d="M14 707h643v-185q-27 -8 -57 -3q-19 98 -94 102l-118 4v-228q115 43 195 43q107 -1 160 -45.5t53 -138.5v-144q0 -33 30 -42q44 -14 57 -17q0 -37 -5 -53h-303q-6 24 -4 50l45 15q41 13 41 71v101q0 63 -31.5 88t-88.5 25q-79 0 -149 -35v-46l4 -157q1 -19 5 -26.5
t17 -10.5l83 -21q0 -39 -4 -54h-347q-6 29 -4 52l60 21q42 15 44 78l2 122v352l-93 -4q-64 -3 -83 -102q-7 -2 -27.5 -1t-30.5 4v185z" />
    <glyph glyph-name="afii10061" unicode="&#x40c;" horiz-adv-x="752" 
d="M737 -16q-153 3 -224 83l-250 272v-58l2 -171q1 -16 5 -22.5t17 -9.5l63 -17q0 -41 -6 -61h-312q-3 19 -3 54l48 15q18 6 30.5 22.5t13.5 38.5l2 148v298q0 21 -13 37t-29 23l-46 18q-2 31 3 53h308q3 -34 -1 -57l-46 -14q-36 -11 -36 -60v-212l218 204q17 14 17 33
q0 28 -18 35l-36 15q0 40 4 56h264v-47l-315 -271l183 -189q98 -102 172 -145zM308 742l-18 64q162 56 261 112l43 -96q-107 -45 -286 -80z" />
    <glyph glyph-name="uni040D" unicode="&#x40d;" horiz-adv-x="876" 
d="M842 55q0 -40 -6 -55h-319q-5 23 -5 53l55 20q39 13 39 62l2 143v194l-348 -327q0 -33 8 -50t32 -23l71 -18q0 -36 -6 -54h-327q-5 27 -5 52l50 19q37 15 37 62l2 145v312q0 40 -33 51q-40 15 -52 18q0 32 4 48h297q5 -17 5 -49l-50 -15q-18 -5 -25.5 -16.5t-7.5 -34.5
v-338l348 326q0 15 -2 21q-2 33 -35 42l-47 16q-4 31 1 48h296q3 -25 1 -49l-47 -15q-29 -11 -29 -42v-323l4 -154q0 -42 21 -48zM565 742q-179 35 -286 80l44 96q98 -55 260 -112z" />
    <glyph glyph-name="afii10062" unicode="&#x40e;" horiz-adv-x="706" 
d="M234 -31l-72 121q60 19 97 39q39 22 63 64l-232 377q-17 27 -26.5 39t-25 26t-36.5 23v18q0 25 2 31h288q4 -20 4 -56l-51 -19q-16 -6 -16 -26q0 -15 12 -36l149 -254l112 262q4 9 4 22q0 25 -17 34l-44 22v16q0 29 3 35h249q3 -20 3 -51q-3 -1 -16 -6t-18 -7.5l-15.5 -8
t-16 -10t-12 -12t-10.5 -16.5l-222 -477q-48 -109 -156 -150zM575 883q-37 -38 -113 -80t-145 -42q-55 0 -93 30t-38 78q0 28 24.5 50.5t56.5 30.5l11.5 -26.5t11.5 -25.5t11 -20t13.5 -17.5t16.5 -9.5t22 -4q35 0 87 24.5t93 57.5z" />
    <glyph glyph-name="afii10145" unicode="&#x40f;" horiz-adv-x="859" 
d="M357 0h-319q-5 27 -5 54l54 18q20 7 27.5 17.5t7.5 35.5l2 153v315q-1 37 -32 48q-40 15 -52 18q0 35 4 48h297q5 -21 5 -49l-51 -15q-17 -5 -24.5 -16.5t-7.5 -34.5v-314l4 -194h308l4 195v306q0 47 -37 58l-47 16q-4 31 1 48h296q3 -20 1 -49l-46 -15
q-16 -6 -22.5 -14.5t-6.5 -27.5v-323l3 -154q1 -42 21 -48l72 -21q0 -37 -7 -55h-322l4 -183h-135z" />
    <glyph glyph-name="afii10017" unicode="&#x410;" horiz-adv-x="760" 
d="M732 53q0 -33 -5 -53h-300q-7 22 -7 57l60 20q32 9 32 45q0 12 -7 33l-39 120h-233l-46 -119q-6 -16 -6 -29q0 -38 43 -51l65 -19q0 -41 -5 -57h-260q-5 20 -5 54q42 36 56 68l243 571l132 31l225 -599q14 -33 57 -72zM441 351l-55 172l-23 83h-7l-27 -81l-66 -174h178z
" />
    <glyph glyph-name="afii10018" unicode="&#x411;" horiz-adv-x="683" 
d="M130 278v315q0 34 -45 49l-47 15q0 31 5 50h545v-173q-21 -5 -61 -3q-17 82 -92 87l-166 8v-212h90q288 0 288 -205q0 -212 -304 -210l-304 1q-6 23 -6 57l49 14q19 5 32 19.5t13 35.5zM269 334l2 -254h66q89 1 124.5 31t35.5 95q0 61 -36 93.5t-122 33.5z" />
    <glyph glyph-name="afii10019" unicode="&#x412;" horiz-adv-x="711" 
d="M665 217q0 -99 -71 -158t-212 -59h-351q-6 23 -6 57l49 14q19 5 32 19.5t14 35.5l2 152v315q0 34 -45 49l-47 15q0 31 5 50h316q263 0 263 -179q0 -101 -118 -144v-4q24 -3 49 -11.5t54 -26t47.5 -50t18.5 -75.5zM462 517q0 58 -31.5 84t-102.5 26h-67v-224h77
q71 0 97.5 30t26.5 84zM513 202q0 64 -43 92.5t-145 28.5h-64v-47l4 -195h98q150 0 150 121z" />
    <glyph glyph-name="afii10020" unicode="&#x413;" horiz-adv-x="615" 
d="M32 0q-5 21 -5 56l55 16q15 5 25 20t10 34l4 153v302q0 36 -29 48l-61 22q0 39 4 56h549v-184q-29 -7 -62 -4q-9 44 -34 71.5t-61 28.5l-167 7v-350l3 -150q1 -14 1.5 -20t5.5 -12.5t15 -8.5l113 -22q0 -40 -7 -63h-359z" />
    <glyph glyph-name="afii10021" unicode="&#x414;" horiz-adv-x="767" 
d="M8 -179v262h71q51 77 79 165q35 108 53 329q4 46 -27 57l-53 19q0 39 4 54h567q4 -21 1 -55l-50 -15q-31 -11 -31 -42v-317l5 -195h106v-262q-11 -2 -34 -3t-31 2q0 1 -6.5 27.5t-10.5 39t-15 37.5t-22.5 38.5t-31.5 25t-44 12.5h-326q-30 -1 -53 -12t-36 -25.5
t-23.5 -37t-14.5 -38t-8 -37.5t-6 -28q-9 -3 -32 -3q-21 0 -31 2zM189 82h290l3 197v346h-179q-3 -38 -14.5 -127.5t-14.5 -104.5q-15 -99 -32.5 -167.5t-52.5 -143.5z" />
    <glyph glyph-name="afii10022" unicode="&#x415;" horiz-adv-x="660" 
d="M626 171l-24 -171h-570q-7 27 -5 59l52 13q43 11 43 43l3 164v298q0 39 -28 50l-63 26q-2 37 4 54h550v-164q-23 -4 -63 -4q-9 46 -28.5 64t-53.5 18l-178 5v-230l271 5v-92l-271 5v-36l4 -197l152 4q111 3 144 99z" />
    <glyph glyph-name="afii10024" unicode="&#x416;" horiz-adv-x="1060" 
d="M1045 -16q-141 3 -210 83l-235 269v-55l2 -171q0 -30 28 -37l50 -16q0 -37 -6 -57h-299q-5 23 -3 54l47 15q37 13 39 61l3 148v61l-236 -272q-69 -80 -210 -83l-14 71q73 49 158 142l170 189l-291 274v47h255q4 -16 4 -53l-41 -15q-19 -9 -19 -35q0 -19 17 -36l207 -210
v237q0 33 -38 48l-45 15q-2 32 3 49h292q3 -29 -1 -49l-42 -17q-30 -12 -30 -65v-218l206 210q17 17 17 36q0 26 -19 35l-41 15q0 37 4 53h256v-47l-291 -273l169 -190q85 -93 158 -142z" />
    <glyph glyph-name="afii10025" unicode="&#x417;" horiz-adv-x="613" 
d="M290 -11q-133 0 -236 53l41 96q101 -57 193 -57q62 0 97 34t35 88q0 49 -37.5 80.5t-109.5 31.5q-45 0 -97 -3v95q37 -3 96 -3q58 0 88.5 34t30.5 84q0 49 -34.5 76.5t-84.5 27.5q-111 0 -138 -116h-59v160q92 46 220 46q36 0 74 -8t80 -26.5t68.5 -58t26.5 -93.5
q0 -58 -34.5 -96.5t-83.5 -53.5v-3q58 -11 102 -52.5t44 -114.5q0 -102 -80.5 -161.5t-201.5 -59.5z" />
    <glyph glyph-name="afii10026" unicode="&#x418;" horiz-adv-x="876" 
d="M842 55q0 -40 -6 -55h-319q-5 23 -5 53l55 20q39 13 39 62l2 143v194l-348 -327q0 -33 8 -50t32 -23l71 -18q0 -36 -6 -54h-327q-5 27 -5 52l50 19q37 15 37 62l2 145v312q0 40 -33 51q-40 15 -52 18q0 32 4 48h297q5 -17 5 -49l-50 -15q-18 -5 -25.5 -16.5t-7.5 -34.5
v-338l348 326q0 15 -2 21q-2 33 -35 42l-47 16q-4 31 1 48h296q3 -25 1 -49l-47 -15q-29 -11 -29 -42v-323l4 -154q0 -42 21 -48z" />
    <glyph glyph-name="afii10027" unicode="&#x419;" horiz-adv-x="875" 
d="M842 55q0 -40 -6 -55h-319q-5 23 -5 53l55 20q39 13 39 62l2 143v194l-348 -327q0 -33 8 -50t32 -23l71 -18q0 -36 -6 -54h-327q-5 27 -5 52l50 19q37 15 37 62l2 145v312q0 40 -33 51q-40 15 -52 18q0 32 4 48h297q5 -17 5 -49l-50 -15q-18 -5 -25.5 -16.5t-7.5 -34.5
v-338l348 326q0 15 -2 21q-2 33 -35 42l-47 16q-4 31 1 48h296q3 -25 1 -49l-47 -15q-29 -11 -29 -42v-323l4 -154q0 -42 21 -48zM653 883q-37 -38 -113 -80t-145 -42q-55 0 -93 30t-38 78q0 28 24.5 50.5t56.5 30.5l11.5 -26.5t11.5 -25.5t11 -20t13.5 -17.5t16.5 -9.5
t22 -4q35 0 87 24.5t93 57.5z" />
    <glyph glyph-name="afii10028" unicode="&#x41a;" horiz-adv-x="752" 
d="M737 -16q-153 3 -224 83l-250 272v-58l2 -171q1 -16 5 -22.5t17 -9.5l63 -17q0 -41 -6 -61h-312q-3 19 -3 54l48 15q18 6 30.5 22.5t13.5 38.5l2 148v298q0 21 -13 37t-29 23l-46 18q-2 31 3 53h308q3 -34 -1 -57l-46 -14q-36 -11 -36 -60v-212l218 204q17 14 17 33
q0 28 -18 35l-36 15q0 40 4 56h264v-47l-315 -271l183 -189q98 -102 172 -145z" />
    <glyph glyph-name="afii10029" unicode="&#x41b;" horiz-adv-x="743" 
d="M140 189q14 20 25 62t20.5 115.5t12.5 103.5l11 113q6 47 -28 57l-49 19q0 33 4 48h553q1 -11 1 -49l-47 -15q-29 -11 -29 -42v-323l4 -154q0 -42 21 -48l71 -21q0 -40 -6 -55h-320q-4 26 -4 53l55 20q38 13 38 62l2 143v347h-176l-13 -146q-4 -28 -9 -77t-8.5 -75.5
t-10 -68.5t-14 -66.5t-18.5 -57t-26.5 -53t-35.5 -42.5t-47.5 -36.5t-60.5 -24.5l-56 143q114 29 140 68z" />
    <glyph glyph-name="afii10030" unicode="&#x41c;" horiz-adv-x="1064" 
d="M1046 52q0 -37 -4 -52h-309q-4 30 -4 50l32 11q53 17 42 112l-40 287l-10 85h-5l-184 -534l-116 -33l-185 572h-6l-9 -81l-55 -354q-5 -28 11 -32l88 -30q0 -42 -4 -53h-272q-6 28 -4 50l36 18q20 10 34.5 32t18.5 46l82 437q4 17 -4.5 30.5t-23.5 18.5l-64 21q0 39 4 54
h266l123 -374l39 -132h9l43 136l133 370h253q6 -29 4 -53l-49 -13q-47 -14 -36 -75l81 -451q6 -31 34 -41z" />
    <glyph glyph-name="afii10031" unicode="&#x41d;" horiz-adv-x="870" 
d="M836 55q0 -39 -6 -55h-319q-5 23 -5 53l55 20q38 12 39 62l2 143v36h-342v-36l4 -164q0 -20 7.5 -28.5t28.5 -13.5l71 -18q0 -36 -6 -54h-327q-5 27 -5 52l50 19q22 8 29.5 20.5t7.5 41.5l2 145v312q0 40 -33 51l-52 18q0 32 4 48h297q5 -17 5 -49l-50 -15
q-18 -5 -25.5 -16.5t-7.5 -34.5v-197h342v190q0 47 -37 58l-47 16q-4 31 1 48h296q3 -25 1 -49l-47 -15q-29 -11 -29 -42v-323l4 -154q0 -42 21 -48z" />
    <glyph glyph-name="afii10032" unicode="&#x41e;" horiz-adv-x="830" 
d="M787 382q0 -167 -105 -280.5t-281 -113.5q-175 0 -266.5 87t-91.5 248q0 169 109 282t280 113q178 0 266.5 -89t88.5 -247zM629 358q0 122 -51.5 195.5t-160.5 73.5q-113 0 -164 -76t-51 -199q0 -121 49.5 -196t158.5 -75q219 0 219 277z" />
    <glyph glyph-name="afii10033" unicode="&#x41f;" horiz-adv-x="859" 
d="M827 55q0 -40 -6 -55h-319q-5 23 -5 53l55 20q39 13 39 62l2 143v347h-333v-347l4 -164q0 -20 7.5 -28.5t28.5 -13.5l71 -18q0 -36 -6 -54h-327q-5 27 -5 52l50 19q37 15 37 62l2 145v312q0 40 -33 51q-40 15 -52 18q0 32 4 48h765q3 -25 1 -49l-47 -15q-29 -11 -29 -42
v-323l4 -154q0 -42 21 -48z" />
    <glyph glyph-name="afii10034" unicode="&#x420;" horiz-adv-x="685" 
d="M665 497q0 -105 -76.5 -172t-209.5 -67h-56v72l31 1q157 4 157 150q0 141 -155 145l-95 2v-355l3 -152q0 -34 22 -38l102 -24q0 -45 -5 -59h-352q-5 34 -3 55l52 14q17 4 27.5 21t11.5 41l3 142v315q0 30 -24 40l-69 26q-1 8 0.5 26t4.5 27h390q111 0 176 -52t65 -158z
" />
    <glyph glyph-name="afii10035" unicode="&#x421;" horiz-adv-x="693" 
d="M656 31q-97 -38 -224 -38q-188 0 -288.5 87.5t-100.5 268.5q0 158 108.5 264t276.5 106q79 0 122 -9.5t100 -33.5v-164q-25 -5 -58 -1q-44 119 -168 119q-108 0 -171 -65t-63 -206q0 -125 70.5 -191t187.5 -66q77 0 180 21z" />
    <glyph glyph-name="afii10036" unicode="&#x422;" horiz-adv-x="681" 
d="M677 707v-185q-27 -8 -57 -3q-19 98 -94 102l-116 4v-352l5 -159q0 -19 3.5 -26t17.5 -10l89 -18q0 -45 -4 -60h-359q-6 31 -4 60l68 19q16 5 28 26.5t13 42.5l3 125v352l-125 -4q-64 -3 -83 -102q-7 -2 -27.5 -1t-30.5 4v185h673z" />
    <glyph glyph-name="afii10037" unicode="&#x423;" horiz-adv-x="706" 
d="M234 -31l-72 121q60 19 97 39q39 22 63 64l-232 377q-17 27 -26.5 39t-25 26t-36.5 23v18q0 25 2 31h288q4 -20 4 -56l-51 -19q-16 -6 -16 -26q0 -15 12 -36l149 -254l112 262q4 9 4 22q0 25 -17 34l-44 22v16q0 29 3 35h249q3 -20 3 -51q-3 -1 -16 -6t-18 -7.5l-15.5 -8
t-16 -10t-12 -12t-10.5 -16.5l-222 -477q-48 -109 -156 -150z" />
    <glyph glyph-name="afii10038" unicode="&#x424;" horiz-adv-x="826" 
d="M258 737h307q4 -22 2 -53l-41 -9q-25 -6 -33.5 -18.5t-8.5 -36.5q149 0 235.5 -59t86.5 -171q0 -123 -87.5 -196.5t-234.5 -73.5q0 -14 1 -18q1 -28 24 -32l68 -15q0 -39 -6 -55h-311q-6 18 -4 46l50 19q25 12 31.5 22t6.5 32q-148 0 -236 59t-88 173q0 122 90.5 194.5
t233.5 73.5q0 25 -9 34.5t-41 21.5l-37 15q-2 6 -1.5 22.5t2.5 24.5zM655 379q0 79 -42.5 125.5t-128.5 46.5l1 -362q88 1 129 55t41 135zM171 363q0 -76 43 -124.5t129 -49.5l1 362q-84 0 -128.5 -55.5t-44.5 -132.5z" />
    <glyph glyph-name="afii10039" unicode="&#x425;" horiz-adv-x="723" 
d="M713 50q0 -39 -4 -50h-294q-4 33 -3 50l37 23q27 16 2 52l-106 152l-118 -145q-12 -14 -11.5 -31.5t12.5 -23.5l54 -27q0 -39 -4 -50h-265q-6 28 -4 50l29 18q34 22 83 78l171 204l-174 222q-27 35 -85 84q-3 8 -3.5 25t1.5 26h276q4 -33 3 -51l-36 -18q-10 -5 -11 -17.5
t10 -30.5l101 -142l112 136q10 13 10 29t-11 22l-40 22q0 43 2 50h247q2 -14 -1 -50q-53 -21 -99 -77l-166 -203l188 -236l19 -22.5l13.5 -15.5t14.5 -13.5l12.5 -10.5t17.5 -13.5t20 -15.5z" />
    <glyph glyph-name="afii10040" unicode="&#x426;" horiz-adv-x="863" 
d="M634 0h-596q-5 27 -5 54l54 18q20 7 27.5 17.5t7.5 35.5l2 153v315q-1 37 -32 48q-40 15 -52 18q0 35 4 48h297q5 -21 5 -49l-51 -15q-17 -5 -24.5 -16.5t-7.5 -34.5v-314l4 -194h308l4 195v306q0 47 -37 58l-47 16q-4 31 1 48h296q3 -20 1 -49l-46 -15
q-16 -6 -22.5 -14.5t-6.5 -27.5v-323l5 -194h106v-263q-52 -9 -63 -4q-1 3 -5.5 23.5t-8.5 32.5l-11.5 33t-16.5 35t-22 28.5t-30 22t-38 8.5z" />
    <glyph glyph-name="afii10041" unicode="&#x427;" horiz-adv-x="776" 
d="M417 0q-5 23 -5 53l56 20q38 13 38 62l2 143v42q-121 -43 -196 -42q-107 1 -160 45t-53 138v129q-1 40 -32 51q-40 15 -53 18q0 32 5 48h297q5 -21 5 -49l-51 -15q-17 -5 -24.5 -16.5t-7.5 -34.5v-111q0 -64 31.5 -89t88.5 -25q78 0 150 36v182q0 47 -37 58l-47 16
q-4 31 1 48h296q3 -20 1 -49l-46 -15q-16 -6 -22.5 -14.5t-6.5 -27.5v-323l3 -154q0 -42 21 -48l72 -21q0 -37 -7 -55h-319z" />
    <glyph glyph-name="afii10042" unicode="&#x428;" horiz-adv-x="1119" 
d="M38 0q-5 27 -5 54l54 18q20 7 27.5 17.5t7.5 35.5l2 153v315q-1 37 -32 48q-40 15 -52 18q0 35 4 48h291q5 -21 5 -49l-51 -15q-16 -5 -21 -15.5t-5 -35.5v-314l4 -194h218l3 194v309q-2 43 -31 56q-31 13 -43 16q0 35 4 48h281q4 -21 2 -49l-49 -15q-15 -4 -20.5 -14.5
t-5.5 -35.5v-315l5 -194h217l3 194v307q0 49 -31 58l-47 16q-3 27 1 48h290q4 -27 1 -49l-46 -15q-16 -6 -22.5 -14.5t-6.5 -27.5v-323l3 -158q0 -23 5 -32.5t19 -13.5l69 -20q0 -39 -6 -54h-1042z" />
    <glyph glyph-name="afii10043" unicode="&#x429;" horiz-adv-x="1135" 
d="M44 707h291q5 -21 5 -49l-51 -15q-16 -5 -21 -15.5t-5 -35.5v-314l4 -194h218l3 194v309q-2 43 -31 56q-31 13 -43 16q0 35 4 48h281q4 -21 2 -49l-49 -15q-15 -4 -20.5 -14.5t-5.5 -35.5v-315l5 -194h217l3 194v307q0 49 -31 58l-47 16q-3 27 1 48h290q4 -27 1 -49
l-46 -15q-16 -6 -22.5 -14.5t-6.5 -27.5v-323l5 -194h107v-263q-53 -10 -64 -4q-1 3 -5.5 23.5t-8.5 32.5l-11.5 33t-16.5 35t-22 28.5t-30 22t-38 8.5h-868q-5 27 -5 54l54 18q20 7 27.5 17.5t7.5 35.5l2 153v315q-1 37 -32 48q-40 15 -52 18q0 35 4 48z" />
    <glyph glyph-name="afii10044" unicode="&#x42a;" horiz-adv-x="761" 
d="M446 -1l-300 1q-6 23 -6 57l49 14q19 5 32 19.5t13 35.5l3 152v347l-73 -6q-69 -3 -89 -100q-33 -3 -62 4v184h446q5 -33 0 -59l-49 -12q-32 -8 -34 -46v-176h86q128 0 205 -49t77 -156q0 -109 -80 -160t-218 -50zM378 80h62q81 1 117.5 31.5t36.5 94.5q0 59 -37 92.5
t-115 34.5l-66 1z" />
    <glyph glyph-name="afii10045" unicode="&#x42b;" horiz-adv-x="994" 
d="M336 -1l-297 1q-6 23 -6 57l49 14q19 5 32 19.5t13 35.5l3 152v310q-1 40 -47 55l-46 13q0 31 4 51h311q5 -33 0 -59l-49 -12q-32 -8 -34 -46v-176h82q128 0 205 -49t77 -156q0 -212 -297 -210zM269 293l2 -213h58q81 1 117.5 31.5t36.5 94.5q0 126 -152 127l-62 1v-41z
M961 61q0 -38 -7 -61h-314q-3 12 -3 54l43 15q43 16 44 61l2 148v294q0 47 -50 66l-38 16q-2 36 2 53h309q3 -35 -1 -59l-43 -10q-39 -10 -39 -63v-297l2 -170q1 -16 6 -22t19 -10z" />
    <glyph glyph-name="afii10046" unicode="&#x42c;" horiz-adv-x="654" 
d="M339 -1l-300 1q-6 23 -6 57l49 14q19 5 32 19.5t13 35.5l3 152v310q-1 40 -47 55l-46 13q0 31 4 51h311q5 -33 0 -59l-49 -12q-32 -8 -34 -46v-176h86q128 0 205 -49t77 -156q0 -109 -80 -160t-218 -50zM271 80h62q81 1 117.5 31.5t36.5 94.5q0 59 -37 92.5t-115 34.5
l-66 1v-44z" />
    <glyph glyph-name="afii10047" unicode="&#x42d;" horiz-adv-x="718" 
d="M300 -11q-144 0 -247 62l51 100q108 -70 201 -70q91 0 148.5 59.5t67.5 175.5l-306 -5v93l307 -6q-15 230 -226 230q-131 0 -175 -118q-36 -4 -57 0v165q111 43 239 43q371 0 371 -337q3 -170 -102.5 -281t-271.5 -111z" />
    <glyph glyph-name="afii10048" unicode="&#x42e;" horiz-adv-x="1178" 
d="M759 -12q-168 0 -256 85t-90 243h-152v-38l3 -164q1 -20 8 -28.5t28 -13.5l72 -18q0 -36 -6 -54h-328q-5 28 -4 52l50 19q37 15 37 62l1 145v312q0 40 -33 51q-40 15 -52 18q0 32 5 48h297q6 -23 4 -49l-50 -15q-17 -5 -24.5 -16.5t-7.5 -34.5v-195h158q23 142 123 231.5
t247 89.5q173 0 259.5 -88.5t86.5 -247.5q0 -167 -102.5 -280.5t-273.5 -113.5zM981 358q0 122 -50 195.5t-157 73.5q-110 0 -160 -76t-50 -199q0 -78 18 -136t65 -96.5t120 -38.5q214 0 214 277z" />
    <glyph glyph-name="afii10049" unicode="&#x42f;" horiz-adv-x="742" 
d="M28 -15l-14 70q61 22 105 71q56 58 121 174q-61 15 -103.5 62.5t-42.5 118.5q0 107 77.5 166t185.5 59l341 1q2 -39 -3 -59l-47 -11q-33 -10 -33 -49v-310l3 -163q1 -28 21 -34l70 -20q0 -34 -4 -61h-320q-3 20 -3 56l45 11q22 6 33.5 27.5t12.5 46.5l1 135h-72l-24 1
q-66 -138 -154 -232q-55 -55 -196 -60zM403 353l71 -1v274h-54q-84 0 -128.5 -37.5t-44.5 -105.5q0 -66 43.5 -98t112.5 -32z" />
    <glyph glyph-name="afii10065" unicode="&#x430;" horiz-adv-x="594" 
d="M577 47q-23 -22 -64 -38.5t-70 -16.5q-52 0 -72.5 20.5t-23.5 66.5q-82 -88 -174 -88q-65 0 -103.5 32t-38.5 95q0 146 208 176q13 2 106 13v69q0 42 -24 58t-90 16q-58 0 -142 -21l-24 95q95 36 193 36q27 0 46.5 -1t48 -5t48.5 -14t39.5 -26t29.5 -42.5t10 -62.5v-135
l7 -183h84zM345 128v112q-1 0 -32 -4t-50 -8q-95 -18 -95 -78q0 -23 15.5 -37t45.5 -14q34 0 116 29z" />
    <glyph glyph-name="afii10066" unicode="&#x431;" horiz-adv-x="608" 
d="M572 273q0 -109 -80 -195t-198 -86q-258 0 -258 324q0 100 25.5 197t74.5 149q18 20 70.5 40.5t92 31t120.5 30.5q29 7 96 51l36 -31l-67 -138q-234 -23 -265 -46q-14 -11 -21 -42.5t-15 -96.5q91 57 171 57q44 0 80.5 -12t68.5 -38t50.5 -76t18.5 -119zM425 279
q0 154 -109 154q-66 0 -140 -38l-1 -105q0 -108 32 -159t100 -51q118 0 118 199z" />
    <glyph glyph-name="afii10067" unicode="&#x432;" horiz-adv-x="623" 
d="M45 0q-3 22 -3 53l47 18q28 11 28 47l3 155v160q0 33 -26 42l-49 18q-1 21 3 53h288q228 0 228 -135q0 -51 -29 -84t-70 -45v-4q46 -5 85 -34t39 -84q0 -160 -244 -160h-300zM257 79h67q111 0 111 85q0 80 -123 81h-56v-36zM256 312h54q52 0 80 21.5t28 58.5
q0 74 -111 74l-51 1v-155z" />
    <glyph glyph-name="afii10068" unicode="&#x433;" horiz-adv-x="572" 
d="M540 351q-6 -2 -29.5 -1.5t-28.5 2.5q-22 94 -92 99l-127 9v-186l3 -160q0 -34 15 -38l81 -18q0 -42 -5 -58h-311q-5 25 -4 56l54 19q28 8 28 46l3 153v159q0 33 -26 42l-50 18q0 31 3 53h486v-195z" />
    <glyph glyph-name="afii10069" unicode="&#x434;" horiz-adv-x="678" 
d="M16 -150v238h65q34 38 52.5 111t23.5 139q10 42 10 90q0 23 -4 30q0 7 -15.5 15t-27.5 11l-18 8q0 30 6 54h506q7 -21 7 -58l-62 -15q-18 -5 -18 -34v-188l4 -164h101v-236q-4 -1 -29 -1q-33 0 -37 2q-37 148 -91 148h-310q-17 0 -32 -9.5t-23.5 -20.5t-17 -31.5
t-11.5 -32t-8 -32.5t-5 -23q-4 -2 -33 -2t-33 1zM185 87h216l1 138l2 234h-142q-14 -172 -32 -249q-17 -66 -45 -123z" />
    <glyph glyph-name="afii10070" unicode="&#x435;" horiz-adv-x="569" 
d="M536 257h-359q4 -91 47.5 -124.5t124.5 -33.5q76 0 153 18l23 -75q-93 -53 -201 -53q-72 0 -122 11.5t-89.5 41t-58.5 83.5t-19 136q0 120 75.5 209t195.5 89t175 -70.5t55 -190.5v-41zM390 324q0 159 -98 159q-51 0 -83.5 -45.5t-34.5 -113.5h216z" />
    <glyph glyph-name="afii10072" unicode="&#x436;" horiz-adv-x="894" 
d="M879 -21q-80 6 -133 35.5t-103 92.5l-129 157v-9l2 -132q2 -40 22 -52l36 -21q0 -31 -6 -50h-255q-4 19 -4 50l39 18q28 14 28 49l3 138v8l-129 -156q-50 -63 -102.5 -92.5t-132.5 -35.5l-16 68q58 21 143 126l113 135l-223 191v47h206q4 -12 4 -45l-24 -15
q-15 -10 -15 -27q0 -13 14 -26l162 -155v164q0 25 -22 35l-39 20q0 28 3 49h250q5 -16 5 -54l-45 -17q-17 -7 -17 -44v-154l163 156q14 13 14 26q0 16 -15 27l-25 15q0 30 4 45h207v-47l-223 -191l113 -135q92 -107 143 -126z" />
    <glyph glyph-name="afii10073" unicode="&#x437;" horiz-adv-x="504" 
d="M239 -11q-118 0 -203 45l39 97q94 -49 159 -49q43 0 67.5 19t24.5 54q0 77 -131 77h-38v84h37q52 0 81.5 22t29.5 66q0 31 -22.5 51.5t-56.5 20.5q-82 0 -101 -85l-52 -3l-15 134q28 15 76.5 25.5t93.5 10.5q41 0 77 -7t69.5 -22t53.5 -45t20 -71q0 -58 -32.5 -91.5
t-80.5 -44.5q54 -7 94 -36.5t40 -88.5q0 -79 -62 -121t-168 -42z" />
    <glyph glyph-name="afii10074" unicode="&#x438;" horiz-adv-x="767" 
d="M441 546h268q6 -17 6 -57l-61 -15q-14 -4 -16 -36v-165l3 -172q1 -24 15 -28l69 -16q0 -37 -7 -57h-286q-3 31 -2 54l46 19q24 11 24 43l1 112v99l-244 -193l1 -21q0 -32 15 -37l59 -18q0 -39 -6 -58h-281q-3 22 -3 53l47 18q28 11 28 47l3 155v160q0 33 -26 42l-49 18
q-1 21 3 53h274q6 -19 6 -58l-55 -17q-17 -7 -17 -44v-197l246 194q0 18 -1 20q-4 22 -22 30l-41 18q-2 22 3 54z" />
    <glyph glyph-name="afii10075" unicode="&#x439;" horiz-adv-x="767" 
d="M441 546h268q6 -17 6 -57l-61 -15q-14 -4 -16 -36v-165l3 -172q1 -24 15 -28l69 -16q0 -37 -7 -57h-286q-3 31 -2 54l46 19q24 11 24 43l1 112v99l-244 -193l1 -21q0 -32 15 -37l59 -18q0 -39 -6 -58h-281q-3 22 -3 53l47 18q28 11 28 47l3 155v160q0 33 -26 42l-49 18
q-1 21 3 53h274q6 -19 6 -58l-55 -17q-17 -7 -17 -44v-197l246 194q0 18 -1 20q-4 22 -22 30l-41 18q-2 22 3 54zM584 752q-33 -35 -105.5 -74.5t-136.5 -39.5q-57 0 -91 25.5t-34 68.5q0 32 25.5 56.5t58.5 30.5q3 -8 10.5 -25.5t11 -24t10.5 -18.5t13 -16.5t15 -8.5t20 -4
q70 -1 164 75z" />
    <glyph glyph-name="afii10076" unicode="&#x43a;" horiz-adv-x="658" 
d="M661 49l-14 -70q-87 5 -145.5 35t-107.5 91l-127 155l1 -134q2 -39 22 -52l30 -20q0 -35 -6 -54h-269q-4 22 -3 53l56 18q29 9 29 49l3 154v164q-1 27 -26 37l-49 18q0 32 3 53h268q6 -19 6 -58l-49 -17q-16 -6 -16 -44v-150l170 156q14 11 14 26q0 17 -16 26l-31 16
q0 30 4 45h214v-47l-226 -195l118 -132q72 -81 147 -123z" />
    <glyph glyph-name="afii10077" unicode="&#x43b;" horiz-adv-x="668" 
d="M320 0q-3 26 -1 54l52 19q22 10 24 43v343h-133q-2 -22 -5 -77t-6 -85.5t-9 -75t-17.5 -79t-27.5 -62.5q-40 -70 -130 -102l-55 122q80 19 114 59q19 22 30.5 87t14 110.5t2.5 77.5q0 31 -20 38l-53 17q-3 30 7 57h503q6 -17 6 -57l-61 -15q-20 -5 -22 -36v-165l3 -172
q1 -22 21 -27l69 -16q0 -38 -7 -58h-299z" />
    <glyph glyph-name="afii10078" unicode="&#x43c;" horiz-adv-x="890" 
d="M747 430l31 -323q3 -29 20 -35l57 -17q0 -37 -7 -55h-256q-4 28 -2 54l35 14q30 12 26 56l-20 226l-2 41h-2l-142 -386l-119 -25l-133 414h-3l-3 -34l-34 -243q-2 -32 13 -38l66 -21q0 -38 -5 -58h-234q-3 21 -1 56l38 15q31 14 36 54l45 308q3 32 -23 41l-51 16
q0 32 4 56h235q20 -52 78 -258q5 -18 24 -77.5l23 -72.5l9 1l52 149l95 258h216q7 -24 7 -58l-53 -15q-22 -6 -20 -43z" />
    <glyph glyph-name="afii10079" unicode="&#x43d;" horiz-adv-x="757" 
d="M45 0q-3 22 -3 53l47 18q28 11 28 47l3 155v160q0 33 -26 42l-49 18q-1 21 3 53h274q5 -20 5 -58l-54 -17q-18 -7 -18 -44v-102h238v110q-2 30 -23 39l-41 18q-2 22 3 54h267q6 -17 6 -57l-61 -15q-14 -4 -16 -36v-165l3 -172q1 -24 15 -28l69 -16q0 -37 -7 -57h-286
q-3 26 -1 54l46 19q22 10 24 43v122h-235l1 -125q0 -31 15 -37l59 -18q0 -38 -5 -58h-281z" />
    <glyph glyph-name="afii10080" unicode="&#x43e;" horiz-adv-x="613" 
d="M577 277q0 -112 -81 -200t-196 -88q-127 0 -196 69t-69 208q0 113 81 203t193 90q268 0 268 -282zM430 274q0 199 -132 199q-118 0 -118 -199q0 -195 136 -195q65 0 89.5 52.5t24.5 142.5z" />
    <glyph glyph-name="afii10081" unicode="&#x43f;" horiz-adv-x="752" 
d="M623 438v-165l3 -172q1 -24 15 -28l69 -16q0 -37 -7 -57h-286q-4 23 -2 54l46 19q24 11 24 43l1 131l1 212h-231v-213l2 -133q0 -32 15 -37l59 -18q0 -39 -6 -58h-281q-3 22 -3 53l47 18q28 11 28 47l3 155v160q0 33 -26 42l-49 18q-1 21 3 53h646q6 -17 6 -57l-61 -15
q-14 -4 -16 -36z" />
    <glyph glyph-name="afii10082" unicode="&#x440;" horiz-adv-x="656" 
d="M620 284q0 -82 -24.5 -141.5t-67.5 -91t-92.5 -45.5t-108.5 -14q-40 0 -70 3l4 -106q0 -17 6.5 -22.5t25.5 -10.5l74 -15q2 -39 -5 -61h-326q-6 22 -4 57l37 13q42 14 42 61l3 360v199h-90v63q105 23 181 23q42 0 42 -41v-19q64 60 136 60q117 0 177 -62.5t60 -209.5z
M474 265q0 88 -31 144.5t-92 56.5q-45 0 -100 -26v-171l4 -195q36 -8 76 -8q71 0 107 55t36 144z" />
    <glyph glyph-name="afii10083" unicode="&#x441;" horiz-adv-x="525" 
d="M503 474q0 -66 -58 -94q-81 94 -132 94q-69 0 -103.5 -45t-34.5 -154q0 -82 41.5 -130.5t123.5 -48.5q51 0 132 17l23 -72q-92 -53 -193 -53q-146 0 -206.5 67t-60.5 223q0 110 78 195.5t204 85.5q44 0 83.5 -7t71 -27.5t31.5 -50.5z" />
    <glyph glyph-name="afii10084" unicode="&#x442;" horiz-adv-x="565" 
d="M15 546h535v-182q-9 -2 -30 -2t-26 3q-5 20 -9 32.5t-13 28t-24.5 24t-36.5 9.5h-60v-186l2 -161q1 -32 16 -36l74 -18q0 -38 -5 -58h-310q-4 19 -4 56l61 19q25 7 27 44l3 154v186h-61q-21 -1 -36.5 -9.5t-24.5 -24t-13 -28t-9 -32.5q-5 -3 -26 -3t-30 2v182z" />
    <glyph glyph-name="afii10085" unicode="&#x443;" horiz-adv-x="582" 
d="M575 546q0 -46 -5 -58q-34 -19 -59 -82l-215 -513q-36 -85 -131 -130l-78 112q62 26 101 66q14 7 44 47l-158 440q-11 31 -67 57q0 39 6 61h260q0 -59 -2 -69h-67l113 -348l107 288q6 16 0.5 32.5t-18.5 22.5q-3 3 -9.5 5.5t-14 4t-8.5 2.5q-5 37 2 62h199z" />
    <glyph glyph-name="afii10086" unicode="&#x444;" horiz-adv-x="825" 
d="M259 -220q-4 23 -3 54l56 17q28 8 30 45l2 99q-148 0 -228.5 60t-80.5 205q0 71 30 129.5t77 92.5t99.5 52.5t103.5 18.5v125h-90v64q82 22 178 22q48 0 48 -45v-165q53 0 95.5 -7t83.5 -25t68.5 -47.5t44 -78t16.5 -112.5q0 -59 -21.5 -109t-54.5 -82t-75 -55t-81.5 -33
t-75.5 -10l2 -100q2 -33 17 -37l74 -20q0 -34 -7 -58h-308zM481 78q89 0 126.5 47.5t37.5 154.5q0 97 -39.5 144t-124.5 47v-393zM345 77v394q-94 0 -129 -49t-35 -153t43 -148t121 -44z" />
    <glyph glyph-name="afii10087" unicode="&#x445;" horiz-adv-x="587" 
d="M573 60q0 -41 -7 -60h-240q-5 25 -5 53l9 5q17 8 17 29q0 12 -10 25l-70 92l-85 -113q-5 -6 -5 -12q0 -7 9 -9l53 -12q0 -36 -7 -58h-215q-7 26 -5 54q33 15 57 40l153 167l-131 169q-28 36 -70 57q-2 18 -2 29q0 15 3 30h248q0 -59 -2 -69h-53l103 -137l77 92
q11 15 11 25q0 13 -12 19l-24 16q0 31 6 54h189q0 -35 -4 -51q-24 -6 -61 -47l-142 -159l153 -182q14 -17 24.5 -25t37.5 -22z" />
    <glyph glyph-name="afii10088" unicode="&#x446;" horiz-adv-x="760" 
d="M257 87h229l2 188v160q-2 29 -23 39l-38 16q-2 23 3 56h260q7 -20 7 -57l-57 -15q-15 -4 -17 -36v-170l4 -181h102v-232q-4 -1 -29 -1q-33 0 -37 2q-5 19 -11.5 38.5t-18 45.5t-27.5 43t-34 17h-527q-3 22 -3 53l47 18q28 11 28 47l3 155v160q0 33 -26 42l-49 18
q-1 21 3 53h271q5 -20 5 -56l-51 -17q-17 -7 -17 -46v-160z" />
    <glyph glyph-name="afii10089" unicode="&#x447;" horiz-adv-x="714" 
d="M586 438v-181l3 -156q0 -24 15 -28l68 -16q0 -40 -6 -57h-293q-3 25 -2 54l52 19q24 10 24 43l1 61v53q-92 -42 -185 -42q-84 0 -123.5 38.5t-39.5 115.5v91q0 33 -26 42l-50 18q0 31 3 53h275q5 -16 5 -58l-54 -17q-18 -7 -18 -44v-62q0 -82 95 -82q71 0 120 26v126
q-2 30 -23 39l-42 18q-1 22 4 54h267q7 -16 7 -57l-61 -15q-16 -5 -16 -36z" />
    </font>
</defs>
</svg>
